G75*
%MOIN*%
%OFA0B0*%
%FSLAX25Y25*%
%IPPOS*%
%LPD*%
%AMOC8*
5,1,8,0,0,1.08239X$1,22.5*
%
%ADD10R,0.05906X0.05118*%
%ADD11R,0.09449X0.09449*%
%ADD12R,0.02362X0.08661*%
%ADD13R,0.08661X0.02362*%
%ADD14R,0.06300X0.04600*%
D10*
X0066000Y0069760D03*
X0066000Y0077240D03*
X0176000Y0077240D03*
X0176000Y0069760D03*
X0176000Y0049740D03*
X0176000Y0042260D03*
X0178500Y0284760D03*
X0178500Y0292240D03*
X0178500Y0307260D03*
X0178500Y0314740D03*
X0161000Y0314740D03*
X0161000Y0307260D03*
X0161000Y0292240D03*
X0161000Y0284760D03*
X0143500Y0284760D03*
X0143500Y0292240D03*
X0143500Y0307260D03*
X0143500Y0314740D03*
X0126000Y0314740D03*
X0126000Y0307260D03*
X0126000Y0292240D03*
X0126000Y0284760D03*
X0108500Y0284760D03*
X0108500Y0292240D03*
X0108500Y0307260D03*
X0108500Y0314740D03*
X0091000Y0314740D03*
X0091000Y0307260D03*
X0091000Y0292240D03*
X0091000Y0284760D03*
D11*
X0049500Y0255843D03*
X0049500Y0236157D03*
X0021000Y0236157D03*
X0021000Y0255843D03*
D12*
X0106000Y0090390D03*
X0111000Y0090390D03*
X0116000Y0090390D03*
X0121000Y0090390D03*
X0126000Y0090390D03*
X0131000Y0090390D03*
X0136000Y0090390D03*
X0136000Y0036610D03*
X0131000Y0036610D03*
X0126000Y0036610D03*
X0121000Y0036610D03*
X0116000Y0036610D03*
X0111000Y0036610D03*
X0106000Y0036610D03*
D13*
X0099110Y0043500D03*
X0099110Y0048500D03*
X0099110Y0053500D03*
X0099110Y0058500D03*
X0099110Y0063500D03*
X0099110Y0068500D03*
X0099110Y0073500D03*
X0099110Y0078500D03*
X0099110Y0083500D03*
X0142890Y0083500D03*
X0142890Y0078500D03*
X0142890Y0073500D03*
X0142890Y0068500D03*
X0142890Y0063500D03*
X0142890Y0058500D03*
X0142890Y0053500D03*
X0142890Y0048500D03*
X0142890Y0043500D03*
D14*
X0201000Y0046000D03*
X0201000Y0040000D03*
X0201000Y0052000D03*
X0201000Y0077500D03*
X0201000Y0083500D03*
X0201000Y0089500D03*
X0233500Y0243000D03*
X0233500Y0249000D03*
M02*
