G75*
%MOIN*%
%OFA0B0*%
%FSLAX25Y25*%
%IPPOS*%
%LPD*%
%AMOC8*
5,1,8,0,0,1.08239X$1,22.5*
%
%ADD10R,0.09449X0.06299*%
%ADD11R,0.02600X0.08000*%
%ADD12R,0.05906X0.05118*%
%ADD13R,0.06299X0.05118*%
%ADD14R,0.07087X0.05512*%
%ADD15R,0.05118X0.05906*%
D10*
X0041000Y0027594D03*
X0041000Y0039406D03*
X0076000Y0272594D03*
X0076000Y0284406D03*
X0076000Y0302594D03*
X0076000Y0314406D03*
X0178500Y0314406D03*
X0178500Y0302594D03*
X0178500Y0284406D03*
X0178500Y0272594D03*
D11*
X0186000Y0095600D03*
X0191000Y0095600D03*
X0196000Y0095600D03*
X0201000Y0095600D03*
X0206000Y0095600D03*
X0211000Y0095600D03*
X0216000Y0095600D03*
X0216000Y0071400D03*
X0211000Y0071400D03*
X0206000Y0071400D03*
X0201000Y0071400D03*
X0196000Y0071400D03*
X0191000Y0071400D03*
X0186000Y0071400D03*
X0166000Y0071400D03*
X0161000Y0071400D03*
X0156000Y0071400D03*
X0151000Y0071400D03*
X0146000Y0071400D03*
X0141000Y0071400D03*
X0136000Y0071400D03*
X0136000Y0095600D03*
X0141000Y0095600D03*
X0146000Y0095600D03*
X0151000Y0095600D03*
X0156000Y0095600D03*
X0161000Y0095600D03*
X0166000Y0095600D03*
X0166000Y0045600D03*
X0171000Y0045600D03*
X0176000Y0045600D03*
X0181000Y0045600D03*
X0186000Y0045600D03*
X0191000Y0045600D03*
X0196000Y0045600D03*
X0196000Y0021400D03*
X0191000Y0021400D03*
X0186000Y0021400D03*
X0181000Y0021400D03*
X0176000Y0021400D03*
X0171000Y0021400D03*
X0166000Y0021400D03*
X0146000Y0021400D03*
X0141000Y0021400D03*
X0136000Y0021400D03*
X0131000Y0021400D03*
X0126000Y0021400D03*
X0121000Y0021400D03*
X0116000Y0021400D03*
X0116000Y0045600D03*
X0121000Y0045600D03*
X0126000Y0045600D03*
X0131000Y0045600D03*
X0136000Y0045600D03*
X0141000Y0045600D03*
X0146000Y0045600D03*
X0106000Y0071400D03*
X0101000Y0071400D03*
X0096000Y0071400D03*
X0091000Y0071400D03*
X0086000Y0071400D03*
X0081000Y0071400D03*
X0076000Y0071400D03*
X0076000Y0095600D03*
X0081000Y0095600D03*
X0086000Y0095600D03*
X0091000Y0095600D03*
X0096000Y0095600D03*
X0101000Y0095600D03*
X0106000Y0095600D03*
X0051000Y0095600D03*
X0046000Y0095600D03*
X0041000Y0095600D03*
X0036000Y0095600D03*
X0031000Y0095600D03*
X0026000Y0095600D03*
X0021000Y0095600D03*
X0021000Y0071400D03*
X0026000Y0071400D03*
X0031000Y0071400D03*
X0036000Y0071400D03*
X0041000Y0071400D03*
X0046000Y0071400D03*
X0051000Y0071400D03*
D12*
X0061000Y0047240D03*
X0061000Y0039760D03*
X0061000Y0027240D03*
X0061000Y0019760D03*
X0056000Y0249760D03*
X0056000Y0257240D03*
X0033500Y0257240D03*
X0033500Y0249760D03*
X0056000Y0309760D03*
X0056000Y0317240D03*
X0198500Y0312240D03*
X0198500Y0304760D03*
D13*
X0081000Y0037240D03*
X0081000Y0029760D03*
D14*
X0099000Y0026807D03*
X0099000Y0040193D03*
D15*
X0092240Y0241000D03*
X0084760Y0241000D03*
X0094760Y0251000D03*
X0102240Y0251000D03*
X0154760Y0246000D03*
X0162240Y0246000D03*
M02*
