G75*
%MOIN*%
%OFA0B0*%
%FSLAX25Y25*%
%IPPOS*%
%LPD*%
%AMOC8*
5,1,8,0,0,1.08239X$1,22.5*
%
%ADD10C,0.00000*%
%ADD11C,0.00400*%
%ADD12C,0.00300*%
%ADD13C,0.01000*%
%ADD14C,0.00500*%
%ADD15C,0.00600*%
%ADD16C,0.00200*%
%ADD17C,0.00800*%
%ADD18R,0.06200X0.02400*%
D10*
X0001000Y0001000D02*
X0001000Y0320961D01*
X0236000Y0320961D01*
X0236000Y0001000D01*
X0001000Y0001000D01*
X0236000Y0320961D02*
X0236000Y0321000D01*
D11*
X0185037Y0283131D02*
X0181967Y0283131D01*
X0183502Y0281596D02*
X0183502Y0284665D01*
X0183502Y0254665D02*
X0183502Y0251596D01*
X0185037Y0253131D02*
X0181967Y0253131D01*
X0085037Y0268131D02*
X0081967Y0268131D01*
X0083502Y0266596D02*
X0083502Y0269665D01*
X0083502Y0296596D02*
X0083502Y0299665D01*
X0085037Y0298131D02*
X0081967Y0298131D01*
X0080037Y0076942D02*
X0080804Y0076175D01*
X0080804Y0074641D01*
X0080037Y0073873D01*
X0080037Y0072339D02*
X0080804Y0071571D01*
X0080804Y0070037D01*
X0080037Y0069269D01*
X0076967Y0069269D01*
X0076200Y0070037D01*
X0076200Y0071571D01*
X0076967Y0072339D01*
X0076200Y0073873D02*
X0079269Y0076942D01*
X0080037Y0076942D01*
X0076200Y0076942D02*
X0076200Y0073873D01*
X0076200Y0067735D02*
X0076200Y0066200D01*
X0076200Y0066967D02*
X0080804Y0066967D01*
X0080804Y0066200D02*
X0080804Y0067735D01*
X0087335Y0066967D02*
X0088102Y0066200D01*
X0089637Y0066200D01*
X0090404Y0066967D01*
X0087335Y0070037D01*
X0087335Y0066967D01*
X0087335Y0070037D02*
X0088102Y0070804D01*
X0089637Y0070804D01*
X0090404Y0070037D01*
X0090404Y0066967D01*
X0091939Y0066967D02*
X0092706Y0066200D01*
X0094241Y0066200D01*
X0095008Y0066967D01*
X0096543Y0066967D02*
X0097310Y0066200D01*
X0098845Y0066200D01*
X0099612Y0066967D01*
X0101146Y0066200D02*
X0104216Y0066200D01*
X0104216Y0070804D01*
X0106518Y0070804D02*
X0106518Y0066200D01*
X0105750Y0068502D02*
X0108820Y0068502D01*
X0106518Y0070804D01*
X0110354Y0070804D02*
X0110354Y0070037D01*
X0113424Y0066967D01*
X0113424Y0066200D01*
X0113424Y0070804D02*
X0110354Y0070804D01*
X0099612Y0070037D02*
X0099612Y0069269D01*
X0098845Y0068502D01*
X0097310Y0068502D01*
X0096543Y0067735D01*
X0096543Y0066967D01*
X0096543Y0070037D02*
X0097310Y0070804D01*
X0098845Y0070804D01*
X0099612Y0070037D01*
X0095008Y0070037D02*
X0094241Y0070804D01*
X0092706Y0070804D01*
X0091939Y0070037D01*
X0091939Y0069269D01*
X0092706Y0068502D01*
X0091939Y0067735D01*
X0091939Y0066967D01*
X0092706Y0068502D02*
X0093473Y0068502D01*
X0063424Y0066967D02*
X0063424Y0066200D01*
X0063424Y0066967D02*
X0060354Y0070037D01*
X0060354Y0070804D01*
X0063424Y0070804D01*
X0058820Y0068502D02*
X0055750Y0068502D01*
X0056518Y0070804D02*
X0058820Y0068502D01*
X0056518Y0066200D02*
X0056518Y0070804D01*
X0054216Y0070804D02*
X0054216Y0066200D01*
X0051146Y0066200D01*
X0049612Y0066967D02*
X0048845Y0066200D01*
X0047310Y0066200D01*
X0046543Y0066967D01*
X0046543Y0067735D01*
X0047310Y0068502D01*
X0048845Y0068502D01*
X0049612Y0069269D01*
X0049612Y0070037D01*
X0048845Y0070804D01*
X0047310Y0070804D01*
X0046543Y0070037D01*
X0045008Y0070037D02*
X0045008Y0066967D01*
X0041939Y0070037D01*
X0041939Y0066967D01*
X0042706Y0066200D01*
X0044241Y0066200D01*
X0045008Y0066967D01*
X0045008Y0070037D02*
X0044241Y0070804D01*
X0042706Y0070804D01*
X0041939Y0070037D01*
X0040404Y0068502D02*
X0037335Y0068502D01*
X0038102Y0066200D02*
X0038102Y0070804D01*
X0040404Y0068502D01*
X0030804Y0067759D02*
X0030037Y0066992D01*
X0026967Y0066992D01*
X0026200Y0067759D01*
X0026200Y0069294D01*
X0026967Y0070061D01*
X0026967Y0071596D02*
X0026200Y0072363D01*
X0026200Y0073898D01*
X0026967Y0074665D01*
X0027735Y0074665D01*
X0028502Y0073898D01*
X0028502Y0073131D01*
X0028502Y0073898D02*
X0029269Y0074665D01*
X0030037Y0074665D01*
X0030804Y0073898D01*
X0030804Y0072363D01*
X0030037Y0071596D01*
X0030037Y0070061D02*
X0030804Y0069294D01*
X0030804Y0067759D01*
X0030804Y0065457D02*
X0030804Y0063923D01*
X0030804Y0064690D02*
X0026200Y0064690D01*
X0026200Y0063923D02*
X0026200Y0065457D01*
X0023869Y0016037D02*
X0023869Y0012967D01*
X0025404Y0014502D02*
X0022335Y0014502D01*
X0126200Y0021200D02*
X0126200Y0022735D01*
X0126200Y0021967D02*
X0130804Y0021967D01*
X0130804Y0021200D02*
X0130804Y0022735D01*
X0130037Y0024269D02*
X0130804Y0025037D01*
X0130804Y0026571D01*
X0130037Y0027339D01*
X0130037Y0028873D02*
X0129269Y0028873D01*
X0128502Y0029641D01*
X0128502Y0031175D01*
X0127735Y0031942D01*
X0126967Y0031942D01*
X0126200Y0031175D01*
X0126200Y0029641D01*
X0126967Y0028873D01*
X0127735Y0028873D01*
X0128502Y0029641D01*
X0128502Y0031175D02*
X0129269Y0031942D01*
X0130037Y0031942D01*
X0130804Y0031175D01*
X0130804Y0029641D01*
X0130037Y0028873D01*
X0126967Y0027339D02*
X0126200Y0026571D01*
X0126200Y0025037D01*
X0126967Y0024269D01*
X0130037Y0024269D01*
X0135107Y0023502D02*
X0135107Y0021967D01*
X0135874Y0021200D01*
X0137409Y0021200D01*
X0138176Y0021967D01*
X0138176Y0023502D02*
X0136642Y0024269D01*
X0135874Y0024269D01*
X0135107Y0023502D01*
X0135107Y0025804D02*
X0138176Y0025804D01*
X0138176Y0023502D01*
X0139711Y0024269D02*
X0139711Y0025037D01*
X0140478Y0025804D01*
X0142013Y0025804D01*
X0142780Y0025037D01*
X0139711Y0024269D02*
X0142780Y0021200D01*
X0139711Y0021200D01*
X0144315Y0021200D02*
X0147384Y0021200D01*
X0145850Y0021200D02*
X0145850Y0025804D01*
X0147384Y0024269D01*
X0148919Y0025037D02*
X0149686Y0025804D01*
X0151221Y0025804D01*
X0151988Y0025037D01*
X0151988Y0024269D01*
X0151221Y0023502D01*
X0149686Y0023502D01*
X0148919Y0022735D01*
X0148919Y0021967D01*
X0149686Y0021200D01*
X0151221Y0021200D01*
X0151988Y0021967D01*
X0153523Y0021200D02*
X0156592Y0021200D01*
X0156592Y0025804D01*
X0158894Y0025804D02*
X0161196Y0023502D01*
X0158127Y0023502D01*
X0158894Y0021200D02*
X0158894Y0025804D01*
X0162731Y0025804D02*
X0162731Y0025037D01*
X0165800Y0021967D01*
X0165800Y0021200D01*
X0165800Y0025804D02*
X0162731Y0025804D01*
X0181200Y0025037D02*
X0181200Y0026571D01*
X0181967Y0027339D01*
X0181967Y0028873D02*
X0181200Y0029641D01*
X0181200Y0031175D01*
X0181967Y0031942D01*
X0185037Y0031942D01*
X0185804Y0031175D01*
X0185804Y0029641D01*
X0185037Y0028873D01*
X0184269Y0028873D01*
X0183502Y0029641D01*
X0183502Y0031942D01*
X0185037Y0027339D02*
X0185804Y0026571D01*
X0185804Y0025037D01*
X0185037Y0024269D01*
X0181967Y0024269D01*
X0181200Y0025037D01*
X0181200Y0022735D02*
X0181200Y0021200D01*
X0181200Y0021967D02*
X0185804Y0021967D01*
X0185804Y0021200D02*
X0185804Y0022735D01*
X0187335Y0023502D02*
X0190404Y0023502D01*
X0188102Y0025804D01*
X0188102Y0021200D01*
X0191939Y0025037D02*
X0195008Y0021967D01*
X0195008Y0021200D01*
X0196543Y0021967D02*
X0197310Y0021200D01*
X0198845Y0021200D01*
X0199612Y0021967D01*
X0201146Y0021200D02*
X0204216Y0021200D01*
X0204216Y0025804D01*
X0206518Y0025804D02*
X0208820Y0023502D01*
X0205750Y0023502D01*
X0206518Y0021200D02*
X0206518Y0025804D01*
X0210354Y0025804D02*
X0210354Y0025037D01*
X0213424Y0021967D01*
X0213424Y0021200D01*
X0213424Y0025804D02*
X0210354Y0025804D01*
X0199612Y0025037D02*
X0199612Y0024269D01*
X0198845Y0023502D01*
X0197310Y0023502D01*
X0196543Y0022735D01*
X0196543Y0021967D01*
X0196543Y0025037D02*
X0197310Y0025804D01*
X0198845Y0025804D01*
X0199612Y0025037D01*
X0195008Y0025804D02*
X0191939Y0025804D01*
X0191939Y0025037D01*
X0180804Y0063923D02*
X0180804Y0065457D01*
X0180804Y0064690D02*
X0176200Y0064690D01*
X0176200Y0063923D02*
X0176200Y0065457D01*
X0176967Y0066992D02*
X0176200Y0067759D01*
X0176200Y0069294D01*
X0176967Y0070061D01*
X0176967Y0071596D02*
X0176200Y0071596D01*
X0176967Y0071596D02*
X0180037Y0074665D01*
X0180804Y0074665D01*
X0180804Y0071596D01*
X0180037Y0070061D02*
X0180804Y0069294D01*
X0180804Y0067759D01*
X0180037Y0066992D01*
X0176967Y0066992D01*
X0187335Y0066200D02*
X0190404Y0066200D01*
X0187335Y0069269D01*
X0187335Y0070037D01*
X0188102Y0070804D01*
X0189637Y0070804D01*
X0190404Y0070037D01*
X0191939Y0070037D02*
X0195008Y0066967D01*
X0194241Y0066200D01*
X0192706Y0066200D01*
X0191939Y0066967D01*
X0191939Y0070037D01*
X0192706Y0070804D01*
X0194241Y0070804D01*
X0195008Y0070037D01*
X0195008Y0066967D01*
X0196543Y0066967D02*
X0197310Y0066200D01*
X0198845Y0066200D01*
X0199612Y0066967D01*
X0201146Y0066200D02*
X0204216Y0066200D01*
X0204216Y0070804D01*
X0206518Y0070804D02*
X0206518Y0066200D01*
X0205750Y0068502D02*
X0208820Y0068502D01*
X0206518Y0070804D01*
X0210354Y0070804D02*
X0210354Y0070037D01*
X0213424Y0066967D01*
X0213424Y0066200D01*
X0213424Y0070804D02*
X0210354Y0070804D01*
X0199612Y0070037D02*
X0199612Y0069269D01*
X0198845Y0068502D01*
X0197310Y0068502D01*
X0196543Y0067735D01*
X0196543Y0066967D01*
X0196543Y0070037D02*
X0197310Y0070804D01*
X0198845Y0070804D01*
X0199612Y0070037D01*
X0163424Y0070804D02*
X0160354Y0070804D01*
X0160354Y0070037D01*
X0163424Y0066967D01*
X0163424Y0066200D01*
X0158820Y0068502D02*
X0155750Y0068502D01*
X0156518Y0066200D02*
X0156518Y0070804D01*
X0158820Y0068502D01*
X0154216Y0070804D02*
X0154216Y0066200D01*
X0151146Y0066200D01*
X0149612Y0066967D02*
X0148845Y0066200D01*
X0147310Y0066200D01*
X0146543Y0066967D01*
X0146543Y0067735D01*
X0147310Y0068502D01*
X0148845Y0068502D01*
X0149612Y0069269D01*
X0149612Y0070037D01*
X0148845Y0070804D01*
X0147310Y0070804D01*
X0146543Y0070037D01*
X0145008Y0070037D02*
X0144241Y0070804D01*
X0142706Y0070804D01*
X0141939Y0070037D01*
X0141939Y0069269D01*
X0142706Y0068502D01*
X0141939Y0067735D01*
X0141939Y0066967D01*
X0142706Y0066200D01*
X0144241Y0066200D01*
X0145008Y0066967D01*
X0143473Y0068502D02*
X0142706Y0068502D01*
X0140404Y0066967D02*
X0140404Y0070037D01*
X0139637Y0070804D01*
X0138102Y0070804D01*
X0137335Y0070037D01*
X0140404Y0066967D01*
X0139637Y0066200D01*
X0138102Y0066200D01*
X0137335Y0066967D01*
X0137335Y0070037D01*
X0130804Y0069294D02*
X0130804Y0067759D01*
X0130037Y0066992D01*
X0126967Y0066992D01*
X0126200Y0067759D01*
X0126200Y0069294D01*
X0126967Y0070061D01*
X0126967Y0071596D02*
X0126200Y0072363D01*
X0126200Y0073898D01*
X0126967Y0074665D01*
X0127735Y0074665D01*
X0128502Y0073898D01*
X0128502Y0071596D01*
X0126967Y0071596D01*
X0128502Y0071596D02*
X0130037Y0073131D01*
X0130804Y0074665D01*
X0130037Y0070061D02*
X0130804Y0069294D01*
X0130804Y0065457D02*
X0130804Y0063923D01*
X0130804Y0064690D02*
X0126200Y0064690D01*
X0126200Y0063923D02*
X0126200Y0065457D01*
D12*
X0121616Y0039853D02*
X0121616Y0036150D01*
X0122850Y0036150D02*
X0120381Y0036150D01*
X0119167Y0036150D02*
X0119167Y0039853D01*
X0116698Y0036150D01*
X0116698Y0039853D01*
X0115484Y0038002D02*
X0113015Y0038002D01*
X0111801Y0038619D02*
X0110566Y0039853D01*
X0110566Y0036150D01*
X0109332Y0036150D02*
X0111801Y0036150D01*
X0113632Y0036150D02*
X0113632Y0039853D01*
X0115484Y0038002D01*
X0121616Y0039853D02*
X0122850Y0038619D01*
X0118150Y0027302D02*
X0118150Y0024833D01*
X0118150Y0026068D02*
X0121853Y0026068D01*
X0120619Y0024833D01*
X0121236Y0023619D02*
X0118767Y0023619D01*
X0118150Y0023002D01*
X0118150Y0021150D01*
X0121853Y0021150D01*
X0121853Y0023002D01*
X0121236Y0023619D01*
X0108117Y0038002D02*
X0105649Y0038002D01*
X0104434Y0038619D02*
X0104434Y0039236D01*
X0103817Y0039853D01*
X0102583Y0039853D01*
X0101966Y0039236D01*
X0101966Y0038619D01*
X0102583Y0038002D01*
X0103817Y0038002D01*
X0104434Y0038619D01*
X0103817Y0038002D02*
X0104434Y0037384D01*
X0104434Y0036767D01*
X0103817Y0036150D01*
X0102583Y0036150D01*
X0101966Y0036767D01*
X0101966Y0037384D01*
X0102583Y0038002D01*
X0106266Y0039853D02*
X0108117Y0038002D01*
X0106266Y0039853D02*
X0106266Y0036150D01*
X0099853Y0030985D02*
X0099853Y0028516D01*
X0098002Y0028516D01*
X0098619Y0029751D01*
X0098619Y0030368D01*
X0098002Y0030985D01*
X0096767Y0030985D01*
X0096150Y0030368D01*
X0096150Y0029133D01*
X0096767Y0028516D01*
X0096150Y0027302D02*
X0096150Y0024833D01*
X0096150Y0023619D02*
X0097384Y0022384D01*
X0097384Y0023002D02*
X0097384Y0021150D01*
X0096150Y0021150D02*
X0099853Y0021150D01*
X0099853Y0023002D01*
X0099236Y0023619D01*
X0098002Y0023619D01*
X0097384Y0023002D01*
X0098619Y0024833D02*
X0099853Y0026068D01*
X0096150Y0026068D01*
X0093998Y0036150D02*
X0093998Y0039853D01*
X0095850Y0038002D01*
X0093381Y0038002D01*
X0092167Y0036767D02*
X0091550Y0036767D01*
X0091550Y0036150D01*
X0092167Y0036150D01*
X0092167Y0036767D01*
X0090325Y0036767D02*
X0090325Y0036150D01*
X0090325Y0036767D02*
X0087857Y0039236D01*
X0087857Y0039853D01*
X0090325Y0039853D01*
X0086642Y0039853D02*
X0086642Y0036150D01*
X0086642Y0037384D02*
X0084791Y0038619D01*
X0086642Y0037384D02*
X0084791Y0036150D01*
X0079853Y0030368D02*
X0078002Y0028516D01*
X0078002Y0030985D01*
X0079853Y0030368D02*
X0076150Y0030368D01*
X0076150Y0027302D02*
X0076150Y0024833D01*
X0076150Y0023619D02*
X0077384Y0022384D01*
X0077384Y0023002D02*
X0077384Y0021150D01*
X0076150Y0021150D02*
X0079853Y0021150D01*
X0079853Y0023002D01*
X0079236Y0023619D01*
X0078002Y0023619D01*
X0077384Y0023002D01*
X0078619Y0024833D02*
X0079853Y0026068D01*
X0076150Y0026068D01*
X0073850Y0036150D02*
X0071381Y0036150D01*
X0070167Y0036150D02*
X0070167Y0039853D01*
X0068315Y0038619D02*
X0070167Y0037384D01*
X0068315Y0036150D01*
X0072616Y0036150D02*
X0072616Y0039853D01*
X0073850Y0038619D01*
X0060850Y0038619D02*
X0059616Y0039853D01*
X0059616Y0036150D01*
X0060850Y0036150D02*
X0058381Y0036150D01*
X0057167Y0036767D02*
X0054698Y0039236D01*
X0054698Y0036767D01*
X0055315Y0036150D01*
X0056550Y0036150D01*
X0057167Y0036767D01*
X0057167Y0039236D01*
X0056550Y0039853D01*
X0055315Y0039853D01*
X0054698Y0039236D01*
X0053484Y0039236D02*
X0053484Y0036767D01*
X0051015Y0039236D01*
X0051015Y0036767D01*
X0051632Y0036150D01*
X0052867Y0036150D01*
X0053484Y0036767D01*
X0053484Y0039236D02*
X0052867Y0039853D01*
X0051632Y0039853D01*
X0051015Y0039236D01*
X0049801Y0038619D02*
X0047949Y0038619D01*
X0047332Y0038002D01*
X0047332Y0036150D01*
X0046117Y0036150D02*
X0046117Y0039853D01*
X0043649Y0039853D01*
X0044883Y0038002D02*
X0046117Y0038002D01*
X0049801Y0038619D02*
X0049801Y0036150D01*
X0056150Y0030985D02*
X0056150Y0028516D01*
X0056150Y0027302D02*
X0056150Y0024833D01*
X0056150Y0026068D02*
X0059853Y0026068D01*
X0058619Y0024833D01*
X0059236Y0023619D02*
X0059853Y0023002D01*
X0059853Y0021767D01*
X0059236Y0021150D01*
X0056767Y0021150D01*
X0056150Y0021767D01*
X0056150Y0023002D01*
X0056767Y0023619D01*
X0058619Y0028516D02*
X0059853Y0029751D01*
X0056150Y0029751D01*
X0056035Y0015470D02*
X0056035Y0014853D01*
X0056035Y0013619D02*
X0056035Y0011150D01*
X0056652Y0011150D02*
X0055418Y0011150D01*
X0054197Y0011150D02*
X0052345Y0011150D01*
X0051728Y0011767D01*
X0052345Y0012384D01*
X0053580Y0012384D01*
X0054197Y0013002D01*
X0053580Y0013619D01*
X0051728Y0013619D01*
X0050514Y0013619D02*
X0049279Y0013619D01*
X0049897Y0014236D02*
X0049897Y0011767D01*
X0049279Y0011150D01*
X0048058Y0011767D02*
X0048058Y0013002D01*
X0047441Y0013619D01*
X0046207Y0013619D01*
X0045589Y0013002D01*
X0045589Y0012384D01*
X0048058Y0012384D01*
X0048058Y0011767D02*
X0047441Y0011150D01*
X0046207Y0011150D01*
X0044375Y0011150D02*
X0044375Y0013619D01*
X0043141Y0013619D02*
X0042524Y0013619D01*
X0043141Y0013619D02*
X0044375Y0012384D01*
X0041236Y0021150D02*
X0038767Y0021150D01*
X0038150Y0021767D01*
X0038150Y0023002D01*
X0038767Y0023619D01*
X0038767Y0024833D02*
X0038150Y0025450D01*
X0038150Y0026685D01*
X0038767Y0027302D01*
X0041236Y0027302D01*
X0041853Y0026685D01*
X0041853Y0025450D01*
X0041236Y0024833D01*
X0040619Y0024833D01*
X0040002Y0025450D01*
X0040002Y0027302D01*
X0041236Y0023619D02*
X0041853Y0023002D01*
X0041853Y0021767D01*
X0041236Y0021150D01*
X0035850Y0036150D02*
X0033381Y0036150D01*
X0034616Y0036150D02*
X0034616Y0039853D01*
X0035850Y0038619D01*
X0032167Y0039236D02*
X0032167Y0036767D01*
X0029698Y0039236D01*
X0029698Y0036767D01*
X0030315Y0036150D01*
X0031550Y0036150D01*
X0032167Y0036767D01*
X0032167Y0039236D02*
X0031550Y0039853D01*
X0030315Y0039853D01*
X0029698Y0039236D01*
X0028484Y0038619D02*
X0028484Y0036767D01*
X0027867Y0036150D01*
X0026015Y0036150D01*
X0026015Y0038619D01*
X0024801Y0038002D02*
X0023566Y0038002D01*
X0022332Y0039853D02*
X0024801Y0039853D01*
X0024801Y0036150D01*
X0056035Y0013619D02*
X0056652Y0013619D01*
X0057867Y0013619D02*
X0057867Y0010533D01*
X0058484Y0009916D01*
X0059101Y0009916D01*
X0059718Y0011150D02*
X0057867Y0011150D01*
X0059718Y0011150D02*
X0060335Y0011767D01*
X0060335Y0013002D01*
X0059718Y0013619D01*
X0057867Y0013619D01*
X0061550Y0013002D02*
X0061550Y0012384D01*
X0064019Y0012384D01*
X0064019Y0011767D02*
X0064019Y0013002D01*
X0063401Y0013619D01*
X0062167Y0013619D01*
X0061550Y0013002D01*
X0062167Y0011150D02*
X0063401Y0011150D01*
X0064019Y0011767D01*
X0065233Y0011150D02*
X0066467Y0012384D01*
X0065850Y0012384D02*
X0067702Y0012384D01*
X0067702Y0011150D02*
X0067702Y0014853D01*
X0065850Y0014853D01*
X0065233Y0014236D01*
X0065233Y0013002D01*
X0065850Y0012384D01*
X0072599Y0013002D02*
X0075068Y0013002D01*
X0073216Y0014853D01*
X0073216Y0011150D01*
X0077517Y0013002D02*
X0078751Y0013002D01*
X0078751Y0014853D02*
X0076282Y0014853D01*
X0078751Y0014853D02*
X0078751Y0011150D01*
X0083649Y0013002D02*
X0086117Y0013002D01*
X0087332Y0013619D02*
X0087332Y0014236D01*
X0087949Y0014853D01*
X0089183Y0014853D01*
X0089801Y0014236D01*
X0091015Y0014853D02*
X0093484Y0011150D01*
X0094698Y0011767D02*
X0095315Y0011150D01*
X0096550Y0011150D01*
X0097167Y0011767D01*
X0098381Y0011150D02*
X0098381Y0014853D01*
X0099616Y0013619D01*
X0100850Y0014853D01*
X0100850Y0011150D01*
X0097167Y0013619D02*
X0096550Y0013002D01*
X0095315Y0013002D01*
X0094698Y0012384D01*
X0094698Y0011767D01*
X0094698Y0014236D02*
X0095315Y0014853D01*
X0096550Y0014853D01*
X0097167Y0014236D01*
X0097167Y0013619D01*
X0093484Y0014853D02*
X0091015Y0011150D01*
X0089801Y0011150D02*
X0087332Y0013619D01*
X0087332Y0011150D02*
X0089801Y0011150D01*
X0084883Y0011767D02*
X0084883Y0014236D01*
X0083161Y0134916D02*
X0082544Y0134916D01*
X0081927Y0135533D01*
X0081927Y0138619D01*
X0084395Y0138619D02*
X0084395Y0136767D01*
X0083778Y0136150D01*
X0081927Y0136150D01*
X0080706Y0141150D02*
X0081940Y0142384D01*
X0081940Y0143619D01*
X0080706Y0144853D01*
X0079485Y0144236D02*
X0078867Y0144853D01*
X0077633Y0144853D01*
X0077016Y0144236D01*
X0077016Y0143619D01*
X0079485Y0141150D01*
X0077016Y0141150D01*
X0077029Y0139853D02*
X0075178Y0139853D01*
X0074560Y0139236D01*
X0074560Y0138002D01*
X0075178Y0137384D01*
X0077029Y0137384D01*
X0077029Y0136150D02*
X0077029Y0139853D01*
X0075184Y0141150D02*
X0075801Y0141767D01*
X0073333Y0144236D01*
X0073333Y0141767D01*
X0073950Y0141150D01*
X0075184Y0141150D01*
X0075801Y0141767D02*
X0075801Y0144236D01*
X0075184Y0144853D01*
X0073950Y0144853D01*
X0073333Y0144236D01*
X0072118Y0143619D02*
X0070884Y0144853D01*
X0070884Y0141150D01*
X0072118Y0141150D02*
X0069649Y0141150D01*
X0068435Y0141767D02*
X0067818Y0141150D01*
X0066584Y0141150D01*
X0065966Y0141767D01*
X0065966Y0143002D01*
X0066584Y0143619D01*
X0067201Y0143619D01*
X0068435Y0143002D01*
X0068435Y0144853D01*
X0065966Y0144853D01*
X0064752Y0144853D02*
X0063518Y0143619D01*
X0063518Y0142384D01*
X0064752Y0141150D01*
X0064745Y0138619D02*
X0064128Y0138619D01*
X0064745Y0138619D02*
X0065980Y0137384D01*
X0065980Y0136150D02*
X0065980Y0138619D01*
X0067194Y0138619D02*
X0069046Y0138619D01*
X0069663Y0138002D01*
X0069663Y0136767D01*
X0069046Y0136150D01*
X0067194Y0136150D01*
X0067194Y0139853D01*
X0070877Y0138002D02*
X0071494Y0138619D01*
X0072729Y0138619D01*
X0073346Y0138002D01*
X0073346Y0136767D01*
X0072729Y0136150D01*
X0071494Y0136150D01*
X0070877Y0136767D01*
X0070877Y0138002D01*
X0062910Y0138002D02*
X0062293Y0138619D01*
X0061059Y0138619D01*
X0060442Y0138002D01*
X0060442Y0137384D01*
X0062910Y0137384D01*
X0062910Y0136767D02*
X0062910Y0138002D01*
X0062910Y0136767D02*
X0062293Y0136150D01*
X0061059Y0136150D01*
X0059227Y0136150D02*
X0056758Y0136150D01*
X0055544Y0136767D02*
X0054927Y0136150D01*
X0053693Y0136150D01*
X0053075Y0136767D01*
X0053075Y0138002D01*
X0053693Y0138619D01*
X0054927Y0138619D01*
X0055544Y0138002D01*
X0055544Y0136767D01*
X0056758Y0138619D02*
X0059227Y0136150D01*
X0059227Y0138619D02*
X0056758Y0138619D01*
X0051861Y0138619D02*
X0050627Y0136150D01*
X0049392Y0138619D01*
X0044495Y0138619D02*
X0044495Y0137384D01*
X0043260Y0136150D01*
X0042039Y0136150D02*
X0039570Y0138619D01*
X0039570Y0139236D01*
X0040188Y0139853D01*
X0041422Y0139853D01*
X0042039Y0139236D01*
X0043260Y0139853D02*
X0044495Y0138619D01*
X0042039Y0136150D02*
X0039570Y0136150D01*
X0038356Y0136767D02*
X0035887Y0139236D01*
X0035887Y0136767D01*
X0036505Y0136150D01*
X0037739Y0136150D01*
X0038356Y0136767D01*
X0038356Y0139236D01*
X0037739Y0139853D01*
X0036505Y0139853D01*
X0035887Y0139236D01*
X0034673Y0138619D02*
X0033439Y0139853D01*
X0033439Y0136150D01*
X0034673Y0136150D02*
X0032204Y0136150D01*
X0030990Y0136767D02*
X0030373Y0136150D01*
X0029138Y0136150D01*
X0028521Y0136767D01*
X0028521Y0138002D01*
X0029138Y0138619D01*
X0029755Y0138619D01*
X0030990Y0138002D01*
X0030990Y0139853D01*
X0028521Y0139853D01*
X0027307Y0139853D02*
X0026072Y0138619D01*
X0026072Y0137384D01*
X0027307Y0136150D01*
X0076632Y0211150D02*
X0076632Y0214853D01*
X0078484Y0213002D01*
X0076015Y0213002D01*
X0079698Y0211150D02*
X0082167Y0211150D01*
X0080932Y0211150D02*
X0080932Y0214853D01*
X0082167Y0213619D01*
X0083381Y0214236D02*
X0083998Y0214853D01*
X0085233Y0214853D01*
X0085850Y0214236D01*
X0085850Y0211767D01*
X0085233Y0211150D01*
X0083998Y0211150D01*
X0083381Y0211767D01*
X0083381Y0226150D02*
X0085850Y0226150D01*
X0084616Y0226150D02*
X0084616Y0229853D01*
X0085850Y0228619D01*
X0082167Y0228619D02*
X0080315Y0228619D01*
X0079698Y0228002D01*
X0079698Y0226150D01*
X0078484Y0226150D02*
X0078484Y0229853D01*
X0076015Y0229853D01*
X0077249Y0228002D02*
X0078484Y0228002D01*
X0082167Y0228619D02*
X0082167Y0226150D01*
X0082384Y0246150D02*
X0082384Y0248002D01*
X0083002Y0248619D01*
X0084236Y0248619D01*
X0084853Y0248002D01*
X0084853Y0246150D01*
X0081150Y0246150D01*
X0082384Y0247384D02*
X0081150Y0248619D01*
X0081150Y0249833D02*
X0081150Y0252302D01*
X0081150Y0253516D02*
X0083619Y0255985D01*
X0084236Y0255985D01*
X0084853Y0255368D01*
X0084853Y0254133D01*
X0084236Y0253516D01*
X0084853Y0251068D02*
X0081150Y0251068D01*
X0081150Y0253516D02*
X0081150Y0255985D01*
X0080850Y0259150D02*
X0078381Y0259150D01*
X0079616Y0259150D02*
X0079616Y0262853D01*
X0080850Y0261619D01*
X0077167Y0262236D02*
X0077167Y0259767D01*
X0074698Y0262236D01*
X0074698Y0259767D01*
X0075315Y0259150D01*
X0076550Y0259150D01*
X0077167Y0259767D01*
X0077167Y0262236D02*
X0076550Y0262853D01*
X0075315Y0262853D01*
X0074698Y0262236D01*
X0073484Y0262236D02*
X0072867Y0262853D01*
X0071632Y0262853D01*
X0071015Y0262236D01*
X0073484Y0259767D01*
X0072867Y0259150D01*
X0071632Y0259150D01*
X0071015Y0259767D01*
X0071015Y0262236D01*
X0073484Y0262236D02*
X0073484Y0259767D01*
X0064853Y0255368D02*
X0064853Y0254133D01*
X0064236Y0253516D01*
X0063002Y0254751D02*
X0063002Y0255368D01*
X0062384Y0255985D01*
X0061767Y0255985D01*
X0061150Y0255368D01*
X0061150Y0254133D01*
X0061767Y0253516D01*
X0061150Y0252302D02*
X0061150Y0249833D01*
X0061150Y0248619D02*
X0062384Y0247384D01*
X0062384Y0248002D02*
X0062384Y0246150D01*
X0061150Y0246150D02*
X0064853Y0246150D01*
X0064853Y0248002D01*
X0064236Y0248619D01*
X0063002Y0248619D01*
X0062384Y0248002D01*
X0063619Y0249833D02*
X0064853Y0251068D01*
X0061150Y0251068D01*
X0063002Y0255368D02*
X0063619Y0255985D01*
X0064236Y0255985D01*
X0064853Y0255368D01*
X0060850Y0259150D02*
X0058381Y0259150D01*
X0059616Y0259150D02*
X0059616Y0262853D01*
X0060850Y0261619D01*
X0057167Y0262236D02*
X0057167Y0259767D01*
X0054698Y0262236D01*
X0054698Y0259767D01*
X0055315Y0259150D01*
X0056550Y0259150D01*
X0057167Y0259767D01*
X0057167Y0262236D02*
X0056550Y0262853D01*
X0055315Y0262853D01*
X0054698Y0262236D01*
X0053484Y0262236D02*
X0053484Y0259767D01*
X0051015Y0262236D01*
X0051015Y0259767D01*
X0051632Y0259150D01*
X0052867Y0259150D01*
X0053484Y0259767D01*
X0053484Y0262236D02*
X0052867Y0262853D01*
X0051632Y0262853D01*
X0051015Y0262236D01*
X0071015Y0289853D02*
X0073484Y0289853D01*
X0073484Y0286150D01*
X0074698Y0286150D02*
X0074698Y0288619D01*
X0073484Y0288002D02*
X0072249Y0288002D01*
X0074698Y0286150D02*
X0076550Y0286150D01*
X0077167Y0286767D01*
X0077167Y0288619D01*
X0079616Y0289853D02*
X0079616Y0286150D01*
X0080850Y0286150D02*
X0078381Y0286150D01*
X0080850Y0288619D02*
X0079616Y0289853D01*
X0082150Y0282436D02*
X0082150Y0279967D01*
X0084619Y0282436D01*
X0085236Y0282436D01*
X0085853Y0281818D01*
X0085853Y0280584D01*
X0085236Y0279967D01*
X0085853Y0277518D02*
X0084619Y0276284D01*
X0085236Y0275069D02*
X0085853Y0274452D01*
X0085853Y0273218D01*
X0085236Y0272601D01*
X0082767Y0272601D01*
X0082150Y0273218D01*
X0082150Y0274452D01*
X0082767Y0275069D01*
X0082150Y0276284D02*
X0082150Y0278752D01*
X0082150Y0277518D02*
X0085853Y0277518D01*
X0085236Y0303784D02*
X0082767Y0303784D01*
X0082150Y0304401D01*
X0082150Y0305635D01*
X0082767Y0306252D01*
X0082767Y0307467D02*
X0082150Y0307467D01*
X0082767Y0307467D02*
X0085236Y0309936D01*
X0085853Y0309936D01*
X0085853Y0307467D01*
X0085236Y0306252D02*
X0085853Y0305635D01*
X0085853Y0304401D01*
X0085236Y0303784D01*
X0080850Y0316150D02*
X0078381Y0316150D01*
X0079616Y0316150D02*
X0079616Y0319853D01*
X0080850Y0318619D01*
X0077167Y0318619D02*
X0077167Y0316767D01*
X0076550Y0316150D01*
X0074698Y0316150D01*
X0074698Y0318619D01*
X0073484Y0318002D02*
X0072249Y0318002D01*
X0071015Y0319853D02*
X0073484Y0319853D01*
X0073484Y0316150D01*
X0064853Y0304751D02*
X0061150Y0304751D01*
X0061150Y0305985D02*
X0061150Y0303516D01*
X0061150Y0302302D02*
X0061150Y0299833D01*
X0061150Y0298619D02*
X0062384Y0297384D01*
X0062384Y0298002D02*
X0062384Y0296150D01*
X0061150Y0296150D02*
X0064853Y0296150D01*
X0064853Y0298002D01*
X0064236Y0298619D01*
X0063002Y0298619D01*
X0062384Y0298002D01*
X0063619Y0299833D02*
X0064853Y0301068D01*
X0061150Y0301068D01*
X0063619Y0303516D02*
X0064853Y0304751D01*
X0060233Y0309150D02*
X0060850Y0309767D01*
X0060850Y0311002D01*
X0058998Y0311002D01*
X0058381Y0310384D01*
X0058381Y0309767D01*
X0058998Y0309150D01*
X0060233Y0309150D01*
X0060850Y0311002D02*
X0059616Y0312236D01*
X0058381Y0312853D01*
X0057167Y0312236D02*
X0057167Y0311619D01*
X0056550Y0311002D01*
X0055315Y0311002D01*
X0054698Y0310384D01*
X0054698Y0309767D01*
X0055315Y0309150D01*
X0056550Y0309150D01*
X0057167Y0309767D01*
X0057167Y0310384D01*
X0056550Y0311002D01*
X0055315Y0311002D02*
X0054698Y0311619D01*
X0054698Y0312236D01*
X0055315Y0312853D01*
X0056550Y0312853D01*
X0057167Y0312236D01*
X0084853Y0251068D02*
X0083619Y0249833D01*
X0089920Y0154853D02*
X0088686Y0153619D01*
X0088686Y0152384D01*
X0089920Y0151150D01*
X0091134Y0151150D02*
X0093603Y0151150D01*
X0094818Y0151150D02*
X0097286Y0151150D01*
X0096052Y0151150D02*
X0096052Y0154853D01*
X0097286Y0153619D01*
X0098501Y0154236D02*
X0100970Y0151767D01*
X0100352Y0151150D01*
X0099118Y0151150D01*
X0098501Y0151767D01*
X0098501Y0154236D01*
X0099118Y0154853D01*
X0100352Y0154853D01*
X0100970Y0154236D01*
X0100970Y0151767D01*
X0102184Y0151150D02*
X0104653Y0151150D01*
X0102184Y0153619D01*
X0102184Y0154236D01*
X0102801Y0154853D01*
X0104036Y0154853D01*
X0104653Y0154236D01*
X0105874Y0154853D02*
X0107108Y0153619D01*
X0107108Y0152384D01*
X0105874Y0151150D01*
X0105260Y0149853D02*
X0106494Y0148619D01*
X0106494Y0147384D01*
X0105260Y0146150D01*
X0104039Y0146150D02*
X0101570Y0148619D01*
X0101570Y0149236D01*
X0102187Y0149853D01*
X0103422Y0149853D01*
X0104039Y0149236D01*
X0104039Y0146150D02*
X0101570Y0146150D01*
X0100356Y0146767D02*
X0097887Y0149236D01*
X0097887Y0146767D01*
X0098504Y0146150D01*
X0099738Y0146150D01*
X0100356Y0146767D01*
X0100356Y0149236D01*
X0099738Y0149853D01*
X0098504Y0149853D01*
X0097887Y0149236D01*
X0096673Y0148619D02*
X0095438Y0149853D01*
X0095438Y0146150D01*
X0094204Y0146150D02*
X0096673Y0146150D01*
X0096673Y0144853D02*
X0096673Y0141150D01*
X0097887Y0141150D02*
X0099739Y0141150D01*
X0100356Y0141767D01*
X0100356Y0143002D01*
X0099739Y0143619D01*
X0097887Y0143619D01*
X0096673Y0143002D02*
X0096055Y0143619D01*
X0094821Y0143619D01*
X0094204Y0143002D01*
X0094204Y0141150D01*
X0092989Y0141767D02*
X0092989Y0143002D01*
X0092372Y0143619D01*
X0091138Y0143619D01*
X0090521Y0143002D01*
X0090521Y0142384D01*
X0092989Y0142384D01*
X0092989Y0141767D02*
X0092372Y0141150D01*
X0091138Y0141150D01*
X0091762Y0138619D02*
X0089293Y0136150D01*
X0088079Y0136767D02*
X0088079Y0138002D01*
X0087461Y0138619D01*
X0086227Y0138619D01*
X0085610Y0138002D01*
X0085610Y0137384D01*
X0088079Y0137384D01*
X0088079Y0136767D02*
X0087461Y0136150D01*
X0086227Y0136150D01*
X0089293Y0138619D02*
X0091762Y0136150D01*
X0092976Y0137384D02*
X0095445Y0137384D01*
X0095445Y0136767D02*
X0095445Y0138002D01*
X0094828Y0138619D01*
X0093593Y0138619D01*
X0092976Y0138002D01*
X0092976Y0137384D01*
X0093593Y0136150D02*
X0094828Y0136150D01*
X0095445Y0136767D01*
X0096666Y0136150D02*
X0097900Y0136150D01*
X0097283Y0136150D02*
X0097283Y0139853D01*
X0097900Y0139853D01*
X0099115Y0138619D02*
X0099115Y0136150D01*
X0099115Y0138002D02*
X0101583Y0138002D01*
X0101583Y0138619D02*
X0101583Y0136150D01*
X0101583Y0138619D02*
X0100349Y0139853D01*
X0099115Y0138619D01*
X0101570Y0141150D02*
X0101570Y0143002D01*
X0102187Y0143619D01*
X0103422Y0143619D01*
X0103422Y0142384D02*
X0101570Y0142384D01*
X0101570Y0141150D02*
X0103422Y0141150D01*
X0104039Y0141767D01*
X0103422Y0142384D01*
X0105253Y0141150D02*
X0107105Y0141150D01*
X0107722Y0141767D01*
X0107722Y0143002D01*
X0107105Y0143619D01*
X0105253Y0143619D01*
X0105253Y0140533D01*
X0105870Y0139916D01*
X0106488Y0139916D01*
X0106481Y0138619D02*
X0106481Y0135533D01*
X0107098Y0134916D01*
X0107715Y0134916D01*
X0108333Y0136150D02*
X0106481Y0136150D01*
X0108333Y0136150D02*
X0108950Y0136767D01*
X0108950Y0138619D01*
X0110164Y0138002D02*
X0110781Y0138619D01*
X0112633Y0138619D01*
X0112633Y0139853D02*
X0112633Y0136150D01*
X0110781Y0136150D01*
X0110164Y0136767D01*
X0110164Y0138002D01*
X0110788Y0141150D02*
X0108936Y0141150D01*
X0108936Y0143619D01*
X0111405Y0141767D02*
X0110788Y0141150D01*
X0111405Y0141767D02*
X0111405Y0143619D01*
X0112620Y0144236D02*
X0112620Y0143002D01*
X0113237Y0142384D01*
X0115088Y0142384D01*
X0115088Y0141150D02*
X0115088Y0144853D01*
X0113237Y0144853D01*
X0112620Y0144236D01*
X0112009Y0146150D02*
X0113243Y0146150D01*
X0113861Y0146767D01*
X0113861Y0148002D01*
X0113243Y0148619D01*
X0112009Y0148619D01*
X0111392Y0148002D01*
X0111392Y0147384D01*
X0113861Y0147384D01*
X0115075Y0146767D02*
X0115692Y0146150D01*
X0117544Y0146150D01*
X0118765Y0146150D02*
X0119999Y0146150D01*
X0119382Y0146150D02*
X0119382Y0148619D01*
X0119999Y0148619D01*
X0119382Y0149853D02*
X0119382Y0150470D01*
X0119372Y0151150D02*
X0119372Y0153002D01*
X0119989Y0153619D01*
X0120606Y0153002D01*
X0120606Y0151150D01*
X0121841Y0151150D02*
X0121841Y0153619D01*
X0121224Y0153619D01*
X0120606Y0153002D01*
X0118158Y0153002D02*
X0118158Y0151767D01*
X0117540Y0151150D01*
X0116306Y0151150D01*
X0115689Y0151767D01*
X0115689Y0153002D01*
X0116306Y0153619D01*
X0117540Y0153619D01*
X0118158Y0153002D01*
X0114474Y0153619D02*
X0113240Y0151150D01*
X0112006Y0153619D01*
X0115692Y0148619D02*
X0115075Y0148002D01*
X0115075Y0146767D01*
X0115692Y0148619D02*
X0117544Y0148619D01*
X0117544Y0144916D01*
X0119986Y0143619D02*
X0119986Y0140533D01*
X0120603Y0139916D01*
X0121220Y0139916D01*
X0121217Y0138619D02*
X0121834Y0138619D01*
X0123068Y0137384D01*
X0124283Y0137384D02*
X0126134Y0137384D01*
X0126752Y0136767D01*
X0126134Y0136150D01*
X0124283Y0136150D01*
X0124283Y0138002D01*
X0124900Y0138619D01*
X0126134Y0138619D01*
X0127966Y0138002D02*
X0128583Y0138619D01*
X0129818Y0138619D01*
X0130435Y0138002D01*
X0130435Y0136767D01*
X0129818Y0136150D01*
X0128583Y0136150D01*
X0127966Y0136767D01*
X0127966Y0138002D01*
X0126745Y0141150D02*
X0127362Y0141767D01*
X0127362Y0144236D01*
X0127979Y0143619D02*
X0126745Y0143619D01*
X0125524Y0143619D02*
X0125524Y0141150D01*
X0125524Y0142384D02*
X0124289Y0143619D01*
X0123672Y0143619D01*
X0122455Y0143619D02*
X0122455Y0141767D01*
X0121837Y0141150D01*
X0119986Y0141150D01*
X0119382Y0138619D02*
X0117530Y0138619D01*
X0117530Y0139853D02*
X0117530Y0136150D01*
X0119382Y0136150D01*
X0119999Y0136767D01*
X0119999Y0138002D01*
X0119382Y0138619D01*
X0123068Y0138619D02*
X0123068Y0136150D01*
X0129200Y0141150D02*
X0130435Y0141150D01*
X0129818Y0141150D02*
X0129818Y0143619D01*
X0130435Y0143619D01*
X0131649Y0143002D02*
X0131649Y0141150D01*
X0132883Y0141150D02*
X0132883Y0143002D01*
X0132266Y0143619D01*
X0131649Y0143002D01*
X0132883Y0143002D02*
X0133501Y0143619D01*
X0134118Y0143619D01*
X0134118Y0141150D01*
X0134118Y0139853D02*
X0134118Y0136150D01*
X0132266Y0136150D01*
X0131649Y0136767D01*
X0131649Y0138002D01*
X0132266Y0138619D01*
X0134118Y0138619D01*
X0135949Y0141150D02*
X0135332Y0141767D01*
X0135332Y0144236D01*
X0135949Y0144853D01*
X0137801Y0144853D01*
X0137801Y0141150D01*
X0135949Y0141150D01*
X0139015Y0139853D02*
X0139015Y0136150D01*
X0140867Y0136150D01*
X0141484Y0136767D01*
X0141484Y0138002D01*
X0140867Y0138619D01*
X0139015Y0138619D01*
X0142698Y0138002D02*
X0142698Y0136150D01*
X0142698Y0138002D02*
X0143316Y0138619D01*
X0145167Y0138619D01*
X0145167Y0136150D01*
X0146382Y0136150D02*
X0148233Y0136150D01*
X0148850Y0136767D01*
X0148233Y0137384D01*
X0146382Y0137384D01*
X0146382Y0138002D02*
X0146382Y0136150D01*
X0146382Y0138002D02*
X0146999Y0138619D01*
X0148233Y0138619D01*
X0148850Y0141150D02*
X0146999Y0141150D01*
X0146382Y0141767D01*
X0146382Y0143002D01*
X0146999Y0143619D01*
X0148850Y0143619D01*
X0148850Y0144853D02*
X0148850Y0141150D01*
X0145167Y0141767D02*
X0145167Y0143619D01*
X0145167Y0141767D02*
X0144550Y0141150D01*
X0142698Y0141150D01*
X0142698Y0140533D02*
X0143316Y0139916D01*
X0143933Y0139916D01*
X0142698Y0140533D02*
X0142698Y0143619D01*
X0143319Y0146150D02*
X0144553Y0146150D01*
X0143936Y0146150D02*
X0143936Y0148619D01*
X0144553Y0148619D01*
X0145774Y0148619D02*
X0147009Y0148619D01*
X0146392Y0149236D02*
X0146392Y0146767D01*
X0145774Y0146150D01*
X0148223Y0146150D02*
X0150075Y0146150D01*
X0150692Y0146767D01*
X0150075Y0147384D01*
X0148223Y0147384D01*
X0148223Y0148002D02*
X0148223Y0146150D01*
X0148223Y0148002D02*
X0148840Y0148619D01*
X0150075Y0148619D01*
X0151906Y0148002D02*
X0151906Y0146150D01*
X0153141Y0146150D02*
X0153141Y0148002D01*
X0152524Y0148619D01*
X0151906Y0148002D01*
X0153141Y0148002D02*
X0153758Y0148619D01*
X0154375Y0148619D01*
X0154375Y0146150D01*
X0155589Y0147384D02*
X0158058Y0147384D01*
X0158058Y0146767D02*
X0158058Y0148002D01*
X0157441Y0148619D01*
X0156207Y0148619D01*
X0155589Y0148002D01*
X0155589Y0147384D01*
X0156207Y0146150D02*
X0157441Y0146150D01*
X0158058Y0146767D01*
X0159273Y0146150D02*
X0159273Y0148002D01*
X0159890Y0148619D01*
X0161124Y0148619D01*
X0161741Y0148002D01*
X0162956Y0148619D02*
X0164807Y0148619D01*
X0165425Y0148002D01*
X0165425Y0146767D01*
X0164807Y0146150D01*
X0162956Y0146150D01*
X0161741Y0146150D02*
X0161741Y0149853D01*
X0160507Y0149916D02*
X0159890Y0149916D01*
X0159273Y0150533D01*
X0159273Y0153619D01*
X0161741Y0153619D02*
X0161741Y0151767D01*
X0161124Y0151150D01*
X0159273Y0151150D01*
X0162956Y0151767D02*
X0162956Y0153002D01*
X0163573Y0153619D01*
X0165425Y0153619D01*
X0165425Y0154853D02*
X0165425Y0151150D01*
X0163573Y0151150D01*
X0162956Y0151767D01*
X0166639Y0148619D02*
X0168491Y0148619D01*
X0169108Y0148002D01*
X0168491Y0147384D01*
X0167256Y0147384D01*
X0166639Y0146767D01*
X0167256Y0146150D01*
X0169108Y0146150D01*
X0169104Y0143619D02*
X0167870Y0143619D01*
X0167253Y0143002D01*
X0167253Y0141150D01*
X0169104Y0141150D01*
X0169722Y0141767D01*
X0169104Y0142384D01*
X0167253Y0142384D01*
X0166038Y0141767D02*
X0166038Y0143619D01*
X0166038Y0141767D02*
X0165421Y0141150D01*
X0164804Y0141767D01*
X0164187Y0141150D01*
X0163570Y0141767D01*
X0163570Y0143619D01*
X0162355Y0143619D02*
X0161738Y0143619D01*
X0161738Y0141150D01*
X0162355Y0141150D02*
X0161121Y0141150D01*
X0161738Y0140470D02*
X0161738Y0139853D01*
X0161738Y0138619D02*
X0161738Y0136150D01*
X0162355Y0136150D02*
X0161121Y0136150D01*
X0159900Y0136150D02*
X0159900Y0138619D01*
X0158048Y0138619D01*
X0157431Y0138002D01*
X0157431Y0136150D01*
X0156217Y0136767D02*
X0155600Y0136150D01*
X0153748Y0136150D01*
X0153748Y0135533D02*
X0153748Y0138619D01*
X0155600Y0138619D01*
X0156217Y0138002D01*
X0156217Y0136767D01*
X0154982Y0134916D02*
X0154365Y0134916D01*
X0153748Y0135533D01*
X0154365Y0139916D02*
X0153748Y0140533D01*
X0153748Y0143619D01*
X0155600Y0143619D01*
X0156217Y0143002D01*
X0156217Y0141767D01*
X0155600Y0141150D01*
X0153748Y0141150D01*
X0154365Y0139916D02*
X0154982Y0139916D01*
X0157431Y0141150D02*
X0157431Y0143002D01*
X0158048Y0143619D01*
X0159900Y0143619D01*
X0159900Y0141150D01*
X0161738Y0138619D02*
X0162355Y0138619D01*
X0163570Y0138619D02*
X0163570Y0135533D01*
X0164187Y0134916D01*
X0164804Y0134916D01*
X0165421Y0136150D02*
X0163570Y0136150D01*
X0165421Y0136150D02*
X0166038Y0136767D01*
X0166038Y0138002D01*
X0165421Y0138619D01*
X0163570Y0138619D01*
X0167256Y0138619D02*
X0167873Y0138619D01*
X0169108Y0137384D01*
X0170322Y0137384D02*
X0172791Y0137384D01*
X0172791Y0136767D02*
X0172791Y0138002D01*
X0172174Y0138619D01*
X0170939Y0138619D01*
X0170322Y0138002D01*
X0170322Y0137384D01*
X0170939Y0136150D02*
X0172174Y0136150D01*
X0172791Y0136767D01*
X0174005Y0136150D02*
X0174005Y0138002D01*
X0174622Y0138619D01*
X0175240Y0138002D01*
X0175240Y0136150D01*
X0176474Y0136150D02*
X0176474Y0138619D01*
X0175857Y0138619D01*
X0175240Y0138002D01*
X0175857Y0141150D02*
X0174005Y0141150D01*
X0174005Y0144853D01*
X0174005Y0143619D02*
X0175857Y0143619D01*
X0176474Y0143002D01*
X0176474Y0141767D01*
X0175857Y0141150D01*
X0172791Y0141150D02*
X0172791Y0143619D01*
X0171556Y0143619D02*
X0170939Y0143619D01*
X0171556Y0143619D02*
X0172791Y0142384D01*
X0174012Y0146150D02*
X0174629Y0146767D01*
X0174629Y0149236D01*
X0175246Y0148619D02*
X0174012Y0148619D01*
X0176461Y0148002D02*
X0176461Y0146150D01*
X0176461Y0148002D02*
X0177078Y0148619D01*
X0178312Y0148619D01*
X0178929Y0148002D01*
X0180144Y0148619D02*
X0181995Y0148619D01*
X0182613Y0148002D01*
X0182613Y0146767D01*
X0181995Y0146150D01*
X0180144Y0146150D01*
X0180144Y0145533D02*
X0180144Y0148619D01*
X0178929Y0149853D02*
X0178929Y0146150D01*
X0180144Y0145533D02*
X0180761Y0144916D01*
X0181378Y0144916D01*
X0181372Y0143619D02*
X0183223Y0143619D01*
X0183840Y0143002D01*
X0183840Y0141767D01*
X0183223Y0141150D01*
X0181372Y0141150D01*
X0181372Y0138619D02*
X0183223Y0138619D01*
X0183840Y0138002D01*
X0183840Y0136767D01*
X0183223Y0136150D01*
X0181372Y0136150D01*
X0185061Y0136150D02*
X0186296Y0136150D01*
X0185679Y0136150D02*
X0185679Y0138619D01*
X0186296Y0138619D01*
X0187517Y0138619D02*
X0188751Y0138619D01*
X0188134Y0139236D02*
X0188134Y0136767D01*
X0187517Y0136150D01*
X0189966Y0136150D02*
X0191817Y0136150D01*
X0192434Y0136767D01*
X0191817Y0137384D01*
X0189966Y0137384D01*
X0189966Y0138002D02*
X0189966Y0136150D01*
X0189966Y0138002D02*
X0190583Y0138619D01*
X0191817Y0138619D01*
X0193649Y0138002D02*
X0193649Y0136150D01*
X0194883Y0136150D02*
X0194883Y0138002D01*
X0194266Y0138619D01*
X0193649Y0138002D01*
X0194883Y0138002D02*
X0195500Y0138619D01*
X0196117Y0138619D01*
X0196117Y0136150D01*
X0197332Y0137384D02*
X0199801Y0137384D01*
X0199801Y0136767D02*
X0199801Y0138002D01*
X0199183Y0138619D01*
X0197949Y0138619D01*
X0197332Y0138002D01*
X0197332Y0137384D01*
X0197949Y0136150D02*
X0199183Y0136150D01*
X0199801Y0136767D01*
X0201015Y0136150D02*
X0201015Y0138002D01*
X0201632Y0138619D01*
X0202867Y0138619D01*
X0203484Y0138002D01*
X0204698Y0138619D02*
X0206550Y0138619D01*
X0207167Y0138002D01*
X0207167Y0136767D01*
X0206550Y0136150D01*
X0204698Y0136150D01*
X0203484Y0136150D02*
X0203484Y0139853D01*
X0203484Y0141150D02*
X0203484Y0144853D01*
X0203484Y0146150D02*
X0203484Y0149853D01*
X0201632Y0149853D01*
X0201015Y0149236D01*
X0201015Y0148002D01*
X0201632Y0147384D01*
X0203484Y0147384D01*
X0204698Y0146150D02*
X0204698Y0149853D01*
X0205932Y0148619D01*
X0207167Y0149853D01*
X0207167Y0146150D01*
X0208998Y0144853D02*
X0208381Y0144236D01*
X0208998Y0144853D02*
X0210233Y0144853D01*
X0210850Y0144236D01*
X0210850Y0143619D01*
X0210233Y0143002D01*
X0208998Y0143002D01*
X0208381Y0142384D01*
X0208381Y0141767D01*
X0208998Y0141150D01*
X0210233Y0141150D01*
X0210850Y0141767D01*
X0210233Y0139853D02*
X0210850Y0139236D01*
X0210850Y0138619D01*
X0210233Y0138002D01*
X0208998Y0138002D01*
X0208381Y0137384D01*
X0208381Y0136767D01*
X0208998Y0136150D01*
X0210233Y0136150D01*
X0210850Y0136767D01*
X0210233Y0139853D02*
X0208998Y0139853D01*
X0208381Y0139236D01*
X0206550Y0141150D02*
X0204698Y0141150D01*
X0206550Y0141150D02*
X0207167Y0141767D01*
X0207167Y0143002D01*
X0206550Y0143619D01*
X0204698Y0143619D01*
X0203484Y0143002D02*
X0202867Y0143619D01*
X0201632Y0143619D01*
X0201015Y0143002D01*
X0201015Y0141150D01*
X0199801Y0141767D02*
X0199801Y0143002D01*
X0199183Y0143619D01*
X0197949Y0143619D01*
X0197332Y0143002D01*
X0197332Y0142384D01*
X0199801Y0142384D01*
X0199801Y0141767D02*
X0199183Y0141150D01*
X0197949Y0141150D01*
X0196117Y0141150D02*
X0196117Y0143619D01*
X0195500Y0143619D01*
X0194883Y0143002D01*
X0194266Y0143619D01*
X0193649Y0143002D01*
X0193649Y0141150D01*
X0194883Y0141150D02*
X0194883Y0143002D01*
X0192434Y0141767D02*
X0191817Y0142384D01*
X0189966Y0142384D01*
X0189966Y0143002D02*
X0189966Y0141150D01*
X0191817Y0141150D01*
X0192434Y0141767D01*
X0191817Y0143619D02*
X0190583Y0143619D01*
X0189966Y0143002D01*
X0188751Y0143619D02*
X0187517Y0143619D01*
X0188134Y0144236D02*
X0188134Y0141767D01*
X0187517Y0141150D01*
X0186296Y0141150D02*
X0185061Y0141150D01*
X0185679Y0141150D02*
X0185679Y0143619D01*
X0186296Y0143619D01*
X0185679Y0144853D02*
X0185679Y0145470D01*
X0186282Y0146150D02*
X0188751Y0146150D01*
X0188751Y0149853D01*
X0188134Y0151150D02*
X0188751Y0151767D01*
X0188751Y0153002D01*
X0188134Y0153619D01*
X0186900Y0153619D01*
X0186282Y0153002D01*
X0186282Y0152384D01*
X0188751Y0152384D01*
X0189966Y0153002D02*
X0189966Y0151150D01*
X0188134Y0151150D02*
X0186900Y0151150D01*
X0185068Y0151150D02*
X0185068Y0153619D01*
X0184451Y0153619D01*
X0183834Y0153002D01*
X0183216Y0153619D01*
X0182599Y0153002D01*
X0182599Y0151150D01*
X0183834Y0151150D02*
X0183834Y0153002D01*
X0184451Y0150470D02*
X0184451Y0149853D01*
X0184451Y0148619D02*
X0184451Y0146150D01*
X0185068Y0146150D02*
X0183834Y0146150D01*
X0184451Y0148619D02*
X0185068Y0148619D01*
X0181385Y0151767D02*
X0180768Y0151150D01*
X0178916Y0151150D01*
X0178916Y0153002D01*
X0179533Y0153619D01*
X0180768Y0153619D01*
X0180768Y0152384D02*
X0178916Y0152384D01*
X0177702Y0153619D02*
X0176467Y0153619D01*
X0177085Y0154236D02*
X0177085Y0151767D01*
X0176467Y0151150D01*
X0175246Y0151150D02*
X0174012Y0151150D01*
X0174629Y0151150D02*
X0174629Y0153619D01*
X0175246Y0153619D01*
X0174629Y0154853D02*
X0174629Y0155470D01*
X0172174Y0153619D02*
X0172791Y0153002D01*
X0172791Y0151767D01*
X0172174Y0151150D01*
X0170322Y0151150D01*
X0170322Y0153619D02*
X0172174Y0153619D01*
X0180768Y0152384D02*
X0181385Y0151767D01*
X0189966Y0153002D02*
X0190583Y0153619D01*
X0191817Y0153619D01*
X0192434Y0153002D01*
X0193649Y0153619D02*
X0195500Y0153619D01*
X0196117Y0153002D01*
X0196117Y0151767D01*
X0195500Y0151150D01*
X0193649Y0151150D01*
X0192434Y0151150D02*
X0192434Y0154853D01*
X0197332Y0153619D02*
X0199183Y0153619D01*
X0199801Y0153002D01*
X0199183Y0152384D01*
X0197949Y0152384D01*
X0197332Y0151767D01*
X0197949Y0151150D01*
X0199801Y0151150D01*
X0198566Y0149853D02*
X0199801Y0148619D01*
X0199801Y0146150D01*
X0199801Y0148002D02*
X0197332Y0148002D01*
X0197332Y0148619D02*
X0197332Y0146150D01*
X0196117Y0146767D02*
X0196117Y0149236D01*
X0195500Y0149853D01*
X0194266Y0149853D01*
X0193649Y0149236D01*
X0193649Y0146767D02*
X0194266Y0146150D01*
X0195500Y0146150D01*
X0196117Y0146767D01*
X0197332Y0148619D02*
X0198566Y0149853D01*
X0205315Y0151150D02*
X0205315Y0154853D01*
X0207167Y0153002D01*
X0204698Y0153002D01*
X0208381Y0154853D02*
X0210850Y0154853D01*
X0210850Y0151150D01*
X0210850Y0149853D02*
X0208381Y0149853D01*
X0209616Y0148002D02*
X0210850Y0148002D01*
X0210850Y0149853D02*
X0210850Y0146150D01*
X0210850Y0153002D02*
X0209616Y0153002D01*
X0185679Y0140470D02*
X0185679Y0139853D01*
X0169108Y0138619D02*
X0169108Y0136150D01*
X0161738Y0144853D02*
X0161738Y0145470D01*
X0154375Y0151150D02*
X0154375Y0154853D01*
X0153758Y0153002D02*
X0151906Y0151150D01*
X0150692Y0151767D02*
X0150075Y0152384D01*
X0148223Y0152384D01*
X0148223Y0153002D02*
X0148223Y0151150D01*
X0150075Y0151150D01*
X0150692Y0151767D01*
X0150075Y0153619D02*
X0148840Y0153619D01*
X0148223Y0153002D01*
X0147009Y0153619D02*
X0146392Y0153619D01*
X0145774Y0153002D01*
X0145157Y0153619D01*
X0144540Y0153002D01*
X0144540Y0151150D01*
X0143936Y0150470D02*
X0143936Y0149853D01*
X0143326Y0151150D02*
X0142091Y0151150D01*
X0142709Y0151150D02*
X0142709Y0153619D01*
X0143326Y0153619D01*
X0142709Y0154853D02*
X0142709Y0155470D01*
X0140870Y0154853D02*
X0140253Y0154853D01*
X0140253Y0151150D01*
X0140870Y0151150D02*
X0139636Y0151150D01*
X0139629Y0148619D02*
X0141481Y0148619D01*
X0142098Y0148002D01*
X0142098Y0146767D01*
X0141481Y0146150D01*
X0139629Y0146150D01*
X0134732Y0146150D02*
X0132880Y0146150D01*
X0132263Y0146767D01*
X0132263Y0148002D01*
X0132880Y0148619D01*
X0134732Y0148619D01*
X0134732Y0149853D02*
X0134732Y0146150D01*
X0131049Y0146767D02*
X0131049Y0148619D01*
X0131049Y0146767D02*
X0130431Y0146150D01*
X0128580Y0146150D01*
X0128580Y0145533D02*
X0129197Y0144916D01*
X0129814Y0144916D01*
X0129818Y0144853D02*
X0129818Y0145470D01*
X0128580Y0145533D02*
X0128580Y0148619D01*
X0128580Y0151150D02*
X0130431Y0151150D01*
X0131049Y0151767D01*
X0130431Y0152384D01*
X0128580Y0152384D01*
X0128580Y0153002D02*
X0128580Y0151150D01*
X0127365Y0151150D02*
X0127365Y0153619D01*
X0126131Y0153619D02*
X0125514Y0153619D01*
X0126131Y0153619D02*
X0127365Y0152384D01*
X0128580Y0153002D02*
X0129197Y0153619D01*
X0130431Y0153619D01*
X0132263Y0154853D02*
X0134732Y0152384D01*
X0134115Y0153002D02*
X0132263Y0151150D01*
X0134732Y0151150D02*
X0134732Y0154853D01*
X0124296Y0153619D02*
X0123679Y0153619D01*
X0123679Y0151150D01*
X0124296Y0151150D02*
X0123062Y0151150D01*
X0122448Y0149853D02*
X0121213Y0149853D01*
X0121831Y0149853D02*
X0121831Y0146767D01*
X0122448Y0146150D01*
X0123065Y0146150D01*
X0123682Y0146767D01*
X0123679Y0154853D02*
X0123679Y0155470D01*
X0145774Y0153002D02*
X0145774Y0151150D01*
X0147009Y0151150D02*
X0147009Y0153619D01*
X0151906Y0154853D02*
X0154375Y0152384D01*
X0093603Y0153619D02*
X0092369Y0154853D01*
X0092369Y0151150D01*
X0092372Y0149853D02*
X0091138Y0149853D01*
X0090521Y0149236D01*
X0092989Y0146767D01*
X0092372Y0146150D01*
X0091138Y0146150D01*
X0090521Y0146767D01*
X0090521Y0149236D01*
X0089306Y0149853D02*
X0088072Y0148619D01*
X0088072Y0147384D01*
X0089306Y0146150D01*
X0089306Y0143619D02*
X0088072Y0141150D01*
X0086837Y0143619D01*
X0092989Y0149236D02*
X0092372Y0149853D01*
X0092989Y0149236D02*
X0092989Y0146767D01*
X0182767Y0258784D02*
X0182150Y0259401D01*
X0182150Y0260635D01*
X0182767Y0261252D01*
X0182150Y0262467D02*
X0182150Y0264936D01*
X0182150Y0263701D02*
X0185853Y0263701D01*
X0184619Y0262467D01*
X0185236Y0261252D02*
X0185853Y0260635D01*
X0185853Y0259401D01*
X0185236Y0258784D01*
X0182767Y0258784D01*
X0180850Y0271150D02*
X0178381Y0273619D01*
X0178381Y0274236D01*
X0178998Y0274853D01*
X0180233Y0274853D01*
X0180850Y0274236D01*
X0180233Y0274853D01*
X0178998Y0274853D01*
X0178381Y0274236D01*
X0178381Y0273619D01*
X0180850Y0271150D01*
X0178381Y0271150D01*
X0180850Y0271150D01*
X0177167Y0271150D02*
X0176550Y0271150D01*
X0176550Y0271767D01*
X0177167Y0271767D01*
X0177167Y0271150D01*
X0176550Y0271150D01*
X0176550Y0271767D01*
X0177167Y0271767D01*
X0177167Y0271150D01*
X0175325Y0271150D02*
X0172857Y0273619D01*
X0172857Y0274236D01*
X0173474Y0274853D01*
X0174708Y0274853D01*
X0175325Y0274236D01*
X0174708Y0274853D01*
X0173474Y0274853D01*
X0172857Y0274236D01*
X0172857Y0273619D01*
X0175325Y0271150D01*
X0172857Y0271150D01*
X0175325Y0271150D01*
X0171642Y0271767D02*
X0171025Y0271150D01*
X0169173Y0271150D01*
X0169173Y0273619D01*
X0169173Y0271150D01*
X0171025Y0271150D01*
X0171642Y0271767D01*
X0171642Y0273619D01*
X0171642Y0271767D01*
X0167959Y0271150D02*
X0167959Y0274853D01*
X0165490Y0274853D01*
X0167959Y0274853D01*
X0167959Y0271150D01*
X0167959Y0273002D02*
X0166725Y0273002D01*
X0167959Y0273002D01*
X0182767Y0288784D02*
X0182150Y0289401D01*
X0182150Y0290635D01*
X0182767Y0291252D01*
X0182150Y0292467D02*
X0182150Y0294936D01*
X0182150Y0292467D02*
X0184619Y0294936D01*
X0185236Y0294936D01*
X0185853Y0294318D01*
X0185853Y0293084D01*
X0185236Y0292467D01*
X0185236Y0291252D02*
X0185853Y0290635D01*
X0185853Y0289401D01*
X0185236Y0288784D01*
X0182767Y0288784D01*
X0180850Y0301150D02*
X0178381Y0301150D01*
X0177167Y0301150D02*
X0176550Y0301150D01*
X0176550Y0301767D01*
X0177167Y0301767D01*
X0177167Y0301150D01*
X0175325Y0301150D02*
X0172857Y0303619D01*
X0172857Y0304236D01*
X0173474Y0304853D01*
X0174708Y0304853D01*
X0175325Y0304236D01*
X0175325Y0301150D02*
X0172857Y0301150D01*
X0171642Y0301767D02*
X0171025Y0301150D01*
X0169173Y0301150D01*
X0169173Y0303619D01*
X0167959Y0303002D02*
X0166725Y0303002D01*
X0167959Y0304853D02*
X0165490Y0304853D01*
X0167959Y0304853D02*
X0167959Y0301150D01*
X0171642Y0301767D02*
X0171642Y0303619D01*
X0178381Y0303619D02*
X0178381Y0304236D01*
X0178998Y0304853D01*
X0180233Y0304853D01*
X0180850Y0304236D01*
X0178381Y0303619D02*
X0180850Y0301150D01*
X0225619Y0082378D02*
X0225619Y0081760D01*
X0224384Y0080526D01*
X0224384Y0079312D02*
X0224384Y0076843D01*
X0223767Y0076843D02*
X0225002Y0076843D01*
X0225619Y0077460D01*
X0225619Y0078694D01*
X0225002Y0079312D01*
X0224384Y0079312D01*
X0223150Y0078694D02*
X0223150Y0077460D01*
X0223767Y0076843D01*
X0223150Y0075622D02*
X0223767Y0075005D01*
X0226236Y0075005D01*
X0225619Y0075622D02*
X0225619Y0074387D01*
X0225619Y0073173D02*
X0225619Y0071321D01*
X0225002Y0070704D01*
X0224384Y0071321D01*
X0224384Y0072556D01*
X0223767Y0073173D01*
X0223150Y0072556D01*
X0223150Y0070704D01*
X0223150Y0069483D02*
X0223150Y0068249D01*
X0223150Y0068866D02*
X0225619Y0068866D01*
X0225619Y0068249D01*
X0225619Y0067034D02*
X0225619Y0065183D01*
X0225002Y0064566D01*
X0223767Y0064566D01*
X0223150Y0065183D01*
X0223150Y0067034D01*
X0222533Y0067034D02*
X0225619Y0067034D01*
X0226853Y0068866D02*
X0227470Y0068866D01*
X0222533Y0067034D02*
X0221916Y0066417D01*
X0221916Y0065800D01*
X0223150Y0062734D02*
X0223150Y0061500D01*
X0223767Y0060883D01*
X0225002Y0060883D01*
X0225619Y0061500D01*
X0225619Y0062734D01*
X0225002Y0063351D01*
X0224384Y0063351D01*
X0224384Y0060883D01*
X0225002Y0059668D02*
X0224384Y0059051D01*
X0224384Y0057199D01*
X0223150Y0057199D02*
X0226853Y0057199D01*
X0226853Y0059051D01*
X0226236Y0059668D01*
X0225002Y0059668D01*
X0224384Y0058434D02*
X0223150Y0059668D01*
X0225002Y0052302D02*
X0225002Y0049833D01*
X0226853Y0051685D01*
X0223150Y0051685D01*
X0226853Y0048619D02*
X0226853Y0046150D01*
X0223150Y0046150D01*
X0225002Y0046150D02*
X0225002Y0047384D01*
X0223150Y0040711D02*
X0223150Y0039477D01*
X0223150Y0040094D02*
X0226853Y0040094D01*
X0226853Y0039477D01*
X0225619Y0037645D02*
X0225002Y0038262D01*
X0223150Y0038262D01*
X0223150Y0036411D01*
X0223767Y0035793D01*
X0224384Y0036411D01*
X0224384Y0038262D01*
X0225619Y0037645D02*
X0225619Y0036411D01*
X0225002Y0034579D02*
X0223150Y0034579D01*
X0225002Y0034579D02*
X0225619Y0033962D01*
X0225619Y0032110D01*
X0223150Y0032110D01*
X0223767Y0030896D02*
X0225002Y0030896D01*
X0225619Y0030279D01*
X0225619Y0029044D01*
X0225002Y0028427D01*
X0223767Y0028427D01*
X0223150Y0029044D01*
X0223150Y0030279D01*
X0223767Y0030896D01*
X0223150Y0027206D02*
X0223150Y0025972D01*
X0223150Y0026589D02*
X0225619Y0026589D01*
X0225619Y0025972D01*
X0225619Y0024751D02*
X0225619Y0023516D01*
X0226236Y0024133D02*
X0223767Y0024133D01*
X0223150Y0024751D01*
X0223767Y0022302D02*
X0223150Y0021685D01*
X0223150Y0019833D01*
X0221916Y0019833D02*
X0225619Y0019833D01*
X0225619Y0021685D01*
X0225002Y0022302D01*
X0223767Y0022302D01*
X0223767Y0018619D02*
X0226236Y0018619D01*
X0226853Y0018002D01*
X0226853Y0016767D01*
X0226236Y0016150D01*
X0223767Y0016150D01*
X0223150Y0016767D01*
X0223150Y0018002D01*
X0223767Y0018619D01*
X0226853Y0026589D02*
X0227470Y0026589D01*
X0225619Y0080526D02*
X0223150Y0080526D01*
D13*
X0231000Y0091000D02*
X0126000Y0091000D01*
X0126000Y0046000D01*
X0016000Y0046000D01*
X0016000Y0006000D01*
X0231000Y0006000D01*
X0231000Y0091000D01*
D14*
X0230755Y0110719D02*
X0224650Y0110719D01*
X0227703Y0110719D02*
X0227703Y0112754D01*
X0230755Y0110719D02*
X0230755Y0114789D01*
X0227703Y0116796D02*
X0227703Y0120866D01*
X0230755Y0119849D02*
X0227703Y0116796D01*
X0230755Y0119849D02*
X0224650Y0119849D01*
X0224650Y0122873D02*
X0230755Y0126944D01*
X0230755Y0128951D02*
X0230755Y0133021D01*
X0230755Y0135028D02*
X0228720Y0137063D01*
X0230755Y0139098D01*
X0224650Y0139098D01*
X0224650Y0141105D02*
X0230755Y0141105D01*
X0230755Y0144158D01*
X0229738Y0145175D01*
X0227703Y0145175D01*
X0226685Y0144158D01*
X0226685Y0141105D01*
X0227703Y0147182D02*
X0227703Y0151252D01*
X0228720Y0151252D02*
X0224650Y0151252D01*
X0225668Y0153259D02*
X0224650Y0154277D01*
X0224650Y0156312D01*
X0225668Y0157329D01*
X0229738Y0157329D02*
X0230755Y0156312D01*
X0230755Y0154277D01*
X0229738Y0153259D01*
X0225668Y0153259D01*
X0228720Y0151252D02*
X0230755Y0149217D01*
X0228720Y0147182D01*
X0224650Y0147182D01*
X0224650Y0135028D02*
X0230755Y0135028D01*
X0227703Y0130986D02*
X0227703Y0128951D01*
X0230755Y0128951D02*
X0224650Y0128951D01*
X0225668Y0165414D02*
X0224650Y0166431D01*
X0224650Y0168466D01*
X0225668Y0169484D01*
X0225668Y0171491D02*
X0224650Y0172508D01*
X0224650Y0174543D01*
X0225668Y0175561D01*
X0227703Y0175561D01*
X0228720Y0174543D01*
X0228720Y0172508D01*
X0227703Y0171491D01*
X0225668Y0171491D01*
X0229738Y0169484D02*
X0230755Y0168466D01*
X0230755Y0166431D01*
X0229738Y0165414D01*
X0225668Y0165414D01*
X0224650Y0177568D02*
X0228720Y0177568D01*
X0228720Y0178586D01*
X0227703Y0179603D01*
X0228720Y0180621D01*
X0227703Y0181638D01*
X0224650Y0181638D01*
X0224650Y0183645D02*
X0224650Y0186698D01*
X0225668Y0187715D01*
X0227703Y0187715D01*
X0228720Y0186698D01*
X0228720Y0183645D01*
X0230755Y0183645D02*
X0224650Y0183645D01*
X0224650Y0179603D02*
X0227703Y0179603D01*
X0227703Y0189722D02*
X0225668Y0189722D01*
X0224650Y0190740D01*
X0224650Y0192775D01*
X0225668Y0193793D01*
X0227703Y0193793D01*
X0228720Y0192775D01*
X0228720Y0190740D01*
X0227703Y0189722D01*
X0227703Y0201877D02*
X0227703Y0204929D01*
X0226685Y0205947D01*
X0225668Y0205947D01*
X0224650Y0204929D01*
X0224650Y0201877D01*
X0230755Y0201877D01*
X0230755Y0204929D01*
X0229738Y0205947D01*
X0228720Y0205947D01*
X0227703Y0204929D01*
X0227703Y0207954D02*
X0225668Y0207954D01*
X0224650Y0208972D01*
X0224650Y0211007D01*
X0225668Y0212024D01*
X0227703Y0212024D01*
X0228720Y0211007D01*
X0228720Y0208972D01*
X0227703Y0207954D01*
X0225668Y0214031D02*
X0224650Y0215049D01*
X0224650Y0218101D01*
X0227703Y0218101D01*
X0228720Y0217084D01*
X0228720Y0215049D01*
X0226685Y0215049D02*
X0226685Y0218101D01*
X0226685Y0220108D02*
X0228720Y0222143D01*
X0228720Y0223161D01*
X0227703Y0225173D02*
X0228720Y0226190D01*
X0228720Y0229243D01*
X0230755Y0229243D02*
X0224650Y0229243D01*
X0224650Y0226190D01*
X0225668Y0225173D01*
X0227703Y0225173D01*
X0228720Y0220108D02*
X0224650Y0220108D01*
X0226685Y0215049D02*
X0225668Y0214031D01*
D15*
X0218500Y0077200D02*
X0218500Y0073000D01*
X0218500Y0069000D01*
X0218500Y0064800D01*
X0218498Y0064724D01*
X0218492Y0064648D01*
X0218483Y0064573D01*
X0218469Y0064498D01*
X0218452Y0064424D01*
X0218431Y0064351D01*
X0218407Y0064279D01*
X0218378Y0064208D01*
X0218347Y0064139D01*
X0218312Y0064072D01*
X0218273Y0064007D01*
X0218231Y0063943D01*
X0218186Y0063882D01*
X0218138Y0063823D01*
X0218087Y0063767D01*
X0218033Y0063713D01*
X0217977Y0063662D01*
X0217918Y0063614D01*
X0217857Y0063569D01*
X0217793Y0063527D01*
X0217728Y0063488D01*
X0217661Y0063453D01*
X0217592Y0063422D01*
X0217521Y0063393D01*
X0217449Y0063369D01*
X0217376Y0063348D01*
X0217302Y0063331D01*
X0217227Y0063317D01*
X0217152Y0063308D01*
X0217076Y0063302D01*
X0217000Y0063300D01*
X0218500Y0069000D02*
X0218412Y0069002D01*
X0218323Y0069008D01*
X0218235Y0069018D01*
X0218148Y0069031D01*
X0218061Y0069049D01*
X0217975Y0069070D01*
X0217890Y0069095D01*
X0217807Y0069124D01*
X0217724Y0069157D01*
X0217644Y0069193D01*
X0217565Y0069232D01*
X0217487Y0069275D01*
X0217412Y0069322D01*
X0217339Y0069372D01*
X0217268Y0069425D01*
X0217199Y0069481D01*
X0217133Y0069540D01*
X0217070Y0069602D01*
X0217010Y0069666D01*
X0216952Y0069733D01*
X0216898Y0069803D01*
X0216846Y0069875D01*
X0216798Y0069949D01*
X0216753Y0070026D01*
X0216712Y0070104D01*
X0216674Y0070184D01*
X0216640Y0070265D01*
X0216609Y0070348D01*
X0216582Y0070433D01*
X0216559Y0070518D01*
X0216540Y0070604D01*
X0216524Y0070692D01*
X0216512Y0070779D01*
X0216504Y0070867D01*
X0216500Y0070956D01*
X0216500Y0071044D01*
X0216504Y0071133D01*
X0216512Y0071221D01*
X0216524Y0071308D01*
X0216540Y0071396D01*
X0216559Y0071482D01*
X0216582Y0071567D01*
X0216609Y0071652D01*
X0216640Y0071735D01*
X0216674Y0071816D01*
X0216712Y0071896D01*
X0216753Y0071974D01*
X0216798Y0072051D01*
X0216846Y0072125D01*
X0216898Y0072197D01*
X0216952Y0072267D01*
X0217010Y0072334D01*
X0217070Y0072398D01*
X0217133Y0072460D01*
X0217199Y0072519D01*
X0217268Y0072575D01*
X0217339Y0072628D01*
X0217412Y0072678D01*
X0217487Y0072725D01*
X0217565Y0072768D01*
X0217644Y0072807D01*
X0217724Y0072843D01*
X0217807Y0072876D01*
X0217890Y0072905D01*
X0217975Y0072930D01*
X0218061Y0072951D01*
X0218148Y0072969D01*
X0218235Y0072982D01*
X0218323Y0072992D01*
X0218412Y0072998D01*
X0218500Y0073000D01*
X0218500Y0077200D02*
X0218498Y0077276D01*
X0218492Y0077352D01*
X0218483Y0077427D01*
X0218469Y0077502D01*
X0218452Y0077576D01*
X0218431Y0077649D01*
X0218407Y0077721D01*
X0218378Y0077792D01*
X0218347Y0077861D01*
X0218312Y0077928D01*
X0218273Y0077993D01*
X0218231Y0078057D01*
X0218186Y0078118D01*
X0218138Y0078177D01*
X0218087Y0078233D01*
X0218033Y0078287D01*
X0217977Y0078338D01*
X0217918Y0078386D01*
X0217857Y0078431D01*
X0217793Y0078473D01*
X0217728Y0078512D01*
X0217661Y0078547D01*
X0217592Y0078578D01*
X0217521Y0078607D01*
X0217449Y0078631D01*
X0217376Y0078652D01*
X0217302Y0078669D01*
X0217227Y0078683D01*
X0217152Y0078692D01*
X0217076Y0078698D01*
X0217000Y0078700D01*
X0185000Y0078700D02*
X0184924Y0078698D01*
X0184848Y0078692D01*
X0184773Y0078683D01*
X0184698Y0078669D01*
X0184624Y0078652D01*
X0184551Y0078631D01*
X0184479Y0078607D01*
X0184408Y0078578D01*
X0184339Y0078547D01*
X0184272Y0078512D01*
X0184207Y0078473D01*
X0184143Y0078431D01*
X0184082Y0078386D01*
X0184023Y0078338D01*
X0183967Y0078287D01*
X0183913Y0078233D01*
X0183862Y0078177D01*
X0183814Y0078118D01*
X0183769Y0078057D01*
X0183727Y0077993D01*
X0183688Y0077928D01*
X0183653Y0077861D01*
X0183622Y0077792D01*
X0183593Y0077721D01*
X0183569Y0077649D01*
X0183548Y0077576D01*
X0183531Y0077502D01*
X0183517Y0077427D01*
X0183508Y0077352D01*
X0183502Y0077276D01*
X0183500Y0077200D01*
X0183500Y0064800D01*
X0183502Y0064724D01*
X0183508Y0064648D01*
X0183517Y0064573D01*
X0183531Y0064498D01*
X0183548Y0064424D01*
X0183569Y0064351D01*
X0183593Y0064279D01*
X0183622Y0064208D01*
X0183653Y0064139D01*
X0183688Y0064072D01*
X0183727Y0064007D01*
X0183769Y0063943D01*
X0183814Y0063882D01*
X0183862Y0063823D01*
X0183913Y0063767D01*
X0183967Y0063713D01*
X0184023Y0063662D01*
X0184082Y0063614D01*
X0184143Y0063569D01*
X0184207Y0063527D01*
X0184272Y0063488D01*
X0184339Y0063453D01*
X0184408Y0063422D01*
X0184479Y0063393D01*
X0184551Y0063369D01*
X0184624Y0063348D01*
X0184698Y0063331D01*
X0184773Y0063317D01*
X0184848Y0063308D01*
X0184924Y0063302D01*
X0185000Y0063300D01*
X0168500Y0064800D02*
X0168500Y0069000D01*
X0168500Y0073000D01*
X0168500Y0077200D01*
X0168498Y0077276D01*
X0168492Y0077352D01*
X0168483Y0077427D01*
X0168469Y0077502D01*
X0168452Y0077576D01*
X0168431Y0077649D01*
X0168407Y0077721D01*
X0168378Y0077792D01*
X0168347Y0077861D01*
X0168312Y0077928D01*
X0168273Y0077993D01*
X0168231Y0078057D01*
X0168186Y0078118D01*
X0168138Y0078177D01*
X0168087Y0078233D01*
X0168033Y0078287D01*
X0167977Y0078338D01*
X0167918Y0078386D01*
X0167857Y0078431D01*
X0167793Y0078473D01*
X0167728Y0078512D01*
X0167661Y0078547D01*
X0167592Y0078578D01*
X0167521Y0078607D01*
X0167449Y0078631D01*
X0167376Y0078652D01*
X0167302Y0078669D01*
X0167227Y0078683D01*
X0167152Y0078692D01*
X0167076Y0078698D01*
X0167000Y0078700D01*
X0168500Y0073000D02*
X0168412Y0072998D01*
X0168323Y0072992D01*
X0168235Y0072982D01*
X0168148Y0072969D01*
X0168061Y0072951D01*
X0167975Y0072930D01*
X0167890Y0072905D01*
X0167807Y0072876D01*
X0167724Y0072843D01*
X0167644Y0072807D01*
X0167565Y0072768D01*
X0167487Y0072725D01*
X0167412Y0072678D01*
X0167339Y0072628D01*
X0167268Y0072575D01*
X0167199Y0072519D01*
X0167133Y0072460D01*
X0167070Y0072398D01*
X0167010Y0072334D01*
X0166952Y0072267D01*
X0166898Y0072197D01*
X0166846Y0072125D01*
X0166798Y0072051D01*
X0166753Y0071974D01*
X0166712Y0071896D01*
X0166674Y0071816D01*
X0166640Y0071735D01*
X0166609Y0071652D01*
X0166582Y0071567D01*
X0166559Y0071482D01*
X0166540Y0071396D01*
X0166524Y0071308D01*
X0166512Y0071221D01*
X0166504Y0071133D01*
X0166500Y0071044D01*
X0166500Y0070956D01*
X0166504Y0070867D01*
X0166512Y0070779D01*
X0166524Y0070692D01*
X0166540Y0070604D01*
X0166559Y0070518D01*
X0166582Y0070433D01*
X0166609Y0070348D01*
X0166640Y0070265D01*
X0166674Y0070184D01*
X0166712Y0070104D01*
X0166753Y0070026D01*
X0166798Y0069949D01*
X0166846Y0069875D01*
X0166898Y0069803D01*
X0166952Y0069733D01*
X0167010Y0069666D01*
X0167070Y0069602D01*
X0167133Y0069540D01*
X0167199Y0069481D01*
X0167268Y0069425D01*
X0167339Y0069372D01*
X0167412Y0069322D01*
X0167487Y0069275D01*
X0167565Y0069232D01*
X0167644Y0069193D01*
X0167724Y0069157D01*
X0167807Y0069124D01*
X0167890Y0069095D01*
X0167975Y0069070D01*
X0168061Y0069049D01*
X0168148Y0069031D01*
X0168235Y0069018D01*
X0168323Y0069008D01*
X0168412Y0069002D01*
X0168500Y0069000D01*
X0168500Y0064800D02*
X0168498Y0064724D01*
X0168492Y0064648D01*
X0168483Y0064573D01*
X0168469Y0064498D01*
X0168452Y0064424D01*
X0168431Y0064351D01*
X0168407Y0064279D01*
X0168378Y0064208D01*
X0168347Y0064139D01*
X0168312Y0064072D01*
X0168273Y0064007D01*
X0168231Y0063943D01*
X0168186Y0063882D01*
X0168138Y0063823D01*
X0168087Y0063767D01*
X0168033Y0063713D01*
X0167977Y0063662D01*
X0167918Y0063614D01*
X0167857Y0063569D01*
X0167793Y0063527D01*
X0167728Y0063488D01*
X0167661Y0063453D01*
X0167592Y0063422D01*
X0167521Y0063393D01*
X0167449Y0063369D01*
X0167376Y0063348D01*
X0167302Y0063331D01*
X0167227Y0063317D01*
X0167152Y0063308D01*
X0167076Y0063302D01*
X0167000Y0063300D01*
X0167000Y0033700D02*
X0167076Y0033698D01*
X0167152Y0033692D01*
X0167227Y0033683D01*
X0167302Y0033669D01*
X0167376Y0033652D01*
X0167449Y0033631D01*
X0167521Y0033607D01*
X0167592Y0033578D01*
X0167661Y0033547D01*
X0167728Y0033512D01*
X0167793Y0033473D01*
X0167857Y0033431D01*
X0167918Y0033386D01*
X0167977Y0033338D01*
X0168033Y0033287D01*
X0168087Y0033233D01*
X0168138Y0033177D01*
X0168186Y0033118D01*
X0168231Y0033057D01*
X0168273Y0032993D01*
X0168312Y0032928D01*
X0168347Y0032861D01*
X0168378Y0032792D01*
X0168407Y0032721D01*
X0168431Y0032649D01*
X0168452Y0032576D01*
X0168469Y0032502D01*
X0168483Y0032427D01*
X0168492Y0032352D01*
X0168498Y0032276D01*
X0168500Y0032200D01*
X0168500Y0028000D01*
X0168500Y0024000D01*
X0168500Y0019800D01*
X0168498Y0019724D01*
X0168492Y0019648D01*
X0168483Y0019573D01*
X0168469Y0019498D01*
X0168452Y0019424D01*
X0168431Y0019351D01*
X0168407Y0019279D01*
X0168378Y0019208D01*
X0168347Y0019139D01*
X0168312Y0019072D01*
X0168273Y0019007D01*
X0168231Y0018943D01*
X0168186Y0018882D01*
X0168138Y0018823D01*
X0168087Y0018767D01*
X0168033Y0018713D01*
X0167977Y0018662D01*
X0167918Y0018614D01*
X0167857Y0018569D01*
X0167793Y0018527D01*
X0167728Y0018488D01*
X0167661Y0018453D01*
X0167592Y0018422D01*
X0167521Y0018393D01*
X0167449Y0018369D01*
X0167376Y0018348D01*
X0167302Y0018331D01*
X0167227Y0018317D01*
X0167152Y0018308D01*
X0167076Y0018302D01*
X0167000Y0018300D01*
X0168500Y0024000D02*
X0168412Y0024002D01*
X0168323Y0024008D01*
X0168235Y0024018D01*
X0168148Y0024031D01*
X0168061Y0024049D01*
X0167975Y0024070D01*
X0167890Y0024095D01*
X0167807Y0024124D01*
X0167724Y0024157D01*
X0167644Y0024193D01*
X0167565Y0024232D01*
X0167487Y0024275D01*
X0167412Y0024322D01*
X0167339Y0024372D01*
X0167268Y0024425D01*
X0167199Y0024481D01*
X0167133Y0024540D01*
X0167070Y0024602D01*
X0167010Y0024666D01*
X0166952Y0024733D01*
X0166898Y0024803D01*
X0166846Y0024875D01*
X0166798Y0024949D01*
X0166753Y0025026D01*
X0166712Y0025104D01*
X0166674Y0025184D01*
X0166640Y0025265D01*
X0166609Y0025348D01*
X0166582Y0025433D01*
X0166559Y0025518D01*
X0166540Y0025604D01*
X0166524Y0025692D01*
X0166512Y0025779D01*
X0166504Y0025867D01*
X0166500Y0025956D01*
X0166500Y0026044D01*
X0166504Y0026133D01*
X0166512Y0026221D01*
X0166524Y0026308D01*
X0166540Y0026396D01*
X0166559Y0026482D01*
X0166582Y0026567D01*
X0166609Y0026652D01*
X0166640Y0026735D01*
X0166674Y0026816D01*
X0166712Y0026896D01*
X0166753Y0026974D01*
X0166798Y0027051D01*
X0166846Y0027125D01*
X0166898Y0027197D01*
X0166952Y0027267D01*
X0167010Y0027334D01*
X0167070Y0027398D01*
X0167133Y0027460D01*
X0167199Y0027519D01*
X0167268Y0027575D01*
X0167339Y0027628D01*
X0167412Y0027678D01*
X0167487Y0027725D01*
X0167565Y0027768D01*
X0167644Y0027807D01*
X0167724Y0027843D01*
X0167807Y0027876D01*
X0167890Y0027905D01*
X0167975Y0027930D01*
X0168061Y0027951D01*
X0168148Y0027969D01*
X0168235Y0027982D01*
X0168323Y0027992D01*
X0168412Y0027998D01*
X0168500Y0028000D01*
X0183500Y0032200D02*
X0183500Y0019800D01*
X0183502Y0019724D01*
X0183508Y0019648D01*
X0183517Y0019573D01*
X0183531Y0019498D01*
X0183548Y0019424D01*
X0183569Y0019351D01*
X0183593Y0019279D01*
X0183622Y0019208D01*
X0183653Y0019139D01*
X0183688Y0019072D01*
X0183727Y0019007D01*
X0183769Y0018943D01*
X0183814Y0018882D01*
X0183862Y0018823D01*
X0183913Y0018767D01*
X0183967Y0018713D01*
X0184023Y0018662D01*
X0184082Y0018614D01*
X0184143Y0018569D01*
X0184207Y0018527D01*
X0184272Y0018488D01*
X0184339Y0018453D01*
X0184408Y0018422D01*
X0184479Y0018393D01*
X0184551Y0018369D01*
X0184624Y0018348D01*
X0184698Y0018331D01*
X0184773Y0018317D01*
X0184848Y0018308D01*
X0184924Y0018302D01*
X0185000Y0018300D01*
X0183500Y0032200D02*
X0183502Y0032276D01*
X0183508Y0032352D01*
X0183517Y0032427D01*
X0183531Y0032502D01*
X0183548Y0032576D01*
X0183569Y0032649D01*
X0183593Y0032721D01*
X0183622Y0032792D01*
X0183653Y0032861D01*
X0183688Y0032928D01*
X0183727Y0032993D01*
X0183769Y0033057D01*
X0183814Y0033118D01*
X0183862Y0033177D01*
X0183913Y0033233D01*
X0183967Y0033287D01*
X0184023Y0033338D01*
X0184082Y0033386D01*
X0184143Y0033431D01*
X0184207Y0033473D01*
X0184272Y0033512D01*
X0184339Y0033547D01*
X0184408Y0033578D01*
X0184479Y0033607D01*
X0184551Y0033631D01*
X0184624Y0033652D01*
X0184698Y0033669D01*
X0184773Y0033683D01*
X0184848Y0033692D01*
X0184924Y0033698D01*
X0185000Y0033700D01*
X0217000Y0033700D02*
X0217076Y0033698D01*
X0217152Y0033692D01*
X0217227Y0033683D01*
X0217302Y0033669D01*
X0217376Y0033652D01*
X0217449Y0033631D01*
X0217521Y0033607D01*
X0217592Y0033578D01*
X0217661Y0033547D01*
X0217728Y0033512D01*
X0217793Y0033473D01*
X0217857Y0033431D01*
X0217918Y0033386D01*
X0217977Y0033338D01*
X0218033Y0033287D01*
X0218087Y0033233D01*
X0218138Y0033177D01*
X0218186Y0033118D01*
X0218231Y0033057D01*
X0218273Y0032993D01*
X0218312Y0032928D01*
X0218347Y0032861D01*
X0218378Y0032792D01*
X0218407Y0032721D01*
X0218431Y0032649D01*
X0218452Y0032576D01*
X0218469Y0032502D01*
X0218483Y0032427D01*
X0218492Y0032352D01*
X0218498Y0032276D01*
X0218500Y0032200D01*
X0218500Y0028000D01*
X0218500Y0024000D01*
X0218500Y0019800D01*
X0218498Y0019724D01*
X0218492Y0019648D01*
X0218483Y0019573D01*
X0218469Y0019498D01*
X0218452Y0019424D01*
X0218431Y0019351D01*
X0218407Y0019279D01*
X0218378Y0019208D01*
X0218347Y0019139D01*
X0218312Y0019072D01*
X0218273Y0019007D01*
X0218231Y0018943D01*
X0218186Y0018882D01*
X0218138Y0018823D01*
X0218087Y0018767D01*
X0218033Y0018713D01*
X0217977Y0018662D01*
X0217918Y0018614D01*
X0217857Y0018569D01*
X0217793Y0018527D01*
X0217728Y0018488D01*
X0217661Y0018453D01*
X0217592Y0018422D01*
X0217521Y0018393D01*
X0217449Y0018369D01*
X0217376Y0018348D01*
X0217302Y0018331D01*
X0217227Y0018317D01*
X0217152Y0018308D01*
X0217076Y0018302D01*
X0217000Y0018300D01*
X0218500Y0024000D02*
X0218412Y0024002D01*
X0218323Y0024008D01*
X0218235Y0024018D01*
X0218148Y0024031D01*
X0218061Y0024049D01*
X0217975Y0024070D01*
X0217890Y0024095D01*
X0217807Y0024124D01*
X0217724Y0024157D01*
X0217644Y0024193D01*
X0217565Y0024232D01*
X0217487Y0024275D01*
X0217412Y0024322D01*
X0217339Y0024372D01*
X0217268Y0024425D01*
X0217199Y0024481D01*
X0217133Y0024540D01*
X0217070Y0024602D01*
X0217010Y0024666D01*
X0216952Y0024733D01*
X0216898Y0024803D01*
X0216846Y0024875D01*
X0216798Y0024949D01*
X0216753Y0025026D01*
X0216712Y0025104D01*
X0216674Y0025184D01*
X0216640Y0025265D01*
X0216609Y0025348D01*
X0216582Y0025433D01*
X0216559Y0025518D01*
X0216540Y0025604D01*
X0216524Y0025692D01*
X0216512Y0025779D01*
X0216504Y0025867D01*
X0216500Y0025956D01*
X0216500Y0026044D01*
X0216504Y0026133D01*
X0216512Y0026221D01*
X0216524Y0026308D01*
X0216540Y0026396D01*
X0216559Y0026482D01*
X0216582Y0026567D01*
X0216609Y0026652D01*
X0216640Y0026735D01*
X0216674Y0026816D01*
X0216712Y0026896D01*
X0216753Y0026974D01*
X0216798Y0027051D01*
X0216846Y0027125D01*
X0216898Y0027197D01*
X0216952Y0027267D01*
X0217010Y0027334D01*
X0217070Y0027398D01*
X0217133Y0027460D01*
X0217199Y0027519D01*
X0217268Y0027575D01*
X0217339Y0027628D01*
X0217412Y0027678D01*
X0217487Y0027725D01*
X0217565Y0027768D01*
X0217644Y0027807D01*
X0217724Y0027843D01*
X0217807Y0027876D01*
X0217890Y0027905D01*
X0217975Y0027930D01*
X0218061Y0027951D01*
X0218148Y0027969D01*
X0218235Y0027982D01*
X0218323Y0027992D01*
X0218412Y0027998D01*
X0218500Y0028000D01*
X0135000Y0033700D02*
X0134924Y0033698D01*
X0134848Y0033692D01*
X0134773Y0033683D01*
X0134698Y0033669D01*
X0134624Y0033652D01*
X0134551Y0033631D01*
X0134479Y0033607D01*
X0134408Y0033578D01*
X0134339Y0033547D01*
X0134272Y0033512D01*
X0134207Y0033473D01*
X0134143Y0033431D01*
X0134082Y0033386D01*
X0134023Y0033338D01*
X0133967Y0033287D01*
X0133913Y0033233D01*
X0133862Y0033177D01*
X0133814Y0033118D01*
X0133769Y0033057D01*
X0133727Y0032993D01*
X0133688Y0032928D01*
X0133653Y0032861D01*
X0133622Y0032792D01*
X0133593Y0032721D01*
X0133569Y0032649D01*
X0133548Y0032576D01*
X0133531Y0032502D01*
X0133517Y0032427D01*
X0133508Y0032352D01*
X0133502Y0032276D01*
X0133500Y0032200D01*
X0133500Y0019800D01*
X0133502Y0019724D01*
X0133508Y0019648D01*
X0133517Y0019573D01*
X0133531Y0019498D01*
X0133548Y0019424D01*
X0133569Y0019351D01*
X0133593Y0019279D01*
X0133622Y0019208D01*
X0133653Y0019139D01*
X0133688Y0019072D01*
X0133727Y0019007D01*
X0133769Y0018943D01*
X0133814Y0018882D01*
X0133862Y0018823D01*
X0133913Y0018767D01*
X0133967Y0018713D01*
X0134023Y0018662D01*
X0134082Y0018614D01*
X0134143Y0018569D01*
X0134207Y0018527D01*
X0134272Y0018488D01*
X0134339Y0018453D01*
X0134408Y0018422D01*
X0134479Y0018393D01*
X0134551Y0018369D01*
X0134624Y0018348D01*
X0134698Y0018331D01*
X0134773Y0018317D01*
X0134848Y0018308D01*
X0134924Y0018302D01*
X0135000Y0018300D01*
X0135000Y0063300D02*
X0134924Y0063302D01*
X0134848Y0063308D01*
X0134773Y0063317D01*
X0134698Y0063331D01*
X0134624Y0063348D01*
X0134551Y0063369D01*
X0134479Y0063393D01*
X0134408Y0063422D01*
X0134339Y0063453D01*
X0134272Y0063488D01*
X0134207Y0063527D01*
X0134143Y0063569D01*
X0134082Y0063614D01*
X0134023Y0063662D01*
X0133967Y0063713D01*
X0133913Y0063767D01*
X0133862Y0063823D01*
X0133814Y0063882D01*
X0133769Y0063943D01*
X0133727Y0064007D01*
X0133688Y0064072D01*
X0133653Y0064139D01*
X0133622Y0064208D01*
X0133593Y0064279D01*
X0133569Y0064351D01*
X0133548Y0064424D01*
X0133531Y0064498D01*
X0133517Y0064573D01*
X0133508Y0064648D01*
X0133502Y0064724D01*
X0133500Y0064800D01*
X0133500Y0077200D01*
X0133502Y0077276D01*
X0133508Y0077352D01*
X0133517Y0077427D01*
X0133531Y0077502D01*
X0133548Y0077576D01*
X0133569Y0077649D01*
X0133593Y0077721D01*
X0133622Y0077792D01*
X0133653Y0077861D01*
X0133688Y0077928D01*
X0133727Y0077993D01*
X0133769Y0078057D01*
X0133814Y0078118D01*
X0133862Y0078177D01*
X0133913Y0078233D01*
X0133967Y0078287D01*
X0134023Y0078338D01*
X0134082Y0078386D01*
X0134143Y0078431D01*
X0134207Y0078473D01*
X0134272Y0078512D01*
X0134339Y0078547D01*
X0134408Y0078578D01*
X0134479Y0078607D01*
X0134551Y0078631D01*
X0134624Y0078652D01*
X0134698Y0078669D01*
X0134773Y0078683D01*
X0134848Y0078692D01*
X0134924Y0078698D01*
X0135000Y0078700D01*
X0118500Y0077200D02*
X0118500Y0073000D01*
X0118500Y0069000D01*
X0118500Y0064800D01*
X0118498Y0064724D01*
X0118492Y0064648D01*
X0118483Y0064573D01*
X0118469Y0064498D01*
X0118452Y0064424D01*
X0118431Y0064351D01*
X0118407Y0064279D01*
X0118378Y0064208D01*
X0118347Y0064139D01*
X0118312Y0064072D01*
X0118273Y0064007D01*
X0118231Y0063943D01*
X0118186Y0063882D01*
X0118138Y0063823D01*
X0118087Y0063767D01*
X0118033Y0063713D01*
X0117977Y0063662D01*
X0117918Y0063614D01*
X0117857Y0063569D01*
X0117793Y0063527D01*
X0117728Y0063488D01*
X0117661Y0063453D01*
X0117592Y0063422D01*
X0117521Y0063393D01*
X0117449Y0063369D01*
X0117376Y0063348D01*
X0117302Y0063331D01*
X0117227Y0063317D01*
X0117152Y0063308D01*
X0117076Y0063302D01*
X0117000Y0063300D01*
X0118500Y0069000D02*
X0118412Y0069002D01*
X0118323Y0069008D01*
X0118235Y0069018D01*
X0118148Y0069031D01*
X0118061Y0069049D01*
X0117975Y0069070D01*
X0117890Y0069095D01*
X0117807Y0069124D01*
X0117724Y0069157D01*
X0117644Y0069193D01*
X0117565Y0069232D01*
X0117487Y0069275D01*
X0117412Y0069322D01*
X0117339Y0069372D01*
X0117268Y0069425D01*
X0117199Y0069481D01*
X0117133Y0069540D01*
X0117070Y0069602D01*
X0117010Y0069666D01*
X0116952Y0069733D01*
X0116898Y0069803D01*
X0116846Y0069875D01*
X0116798Y0069949D01*
X0116753Y0070026D01*
X0116712Y0070104D01*
X0116674Y0070184D01*
X0116640Y0070265D01*
X0116609Y0070348D01*
X0116582Y0070433D01*
X0116559Y0070518D01*
X0116540Y0070604D01*
X0116524Y0070692D01*
X0116512Y0070779D01*
X0116504Y0070867D01*
X0116500Y0070956D01*
X0116500Y0071044D01*
X0116504Y0071133D01*
X0116512Y0071221D01*
X0116524Y0071308D01*
X0116540Y0071396D01*
X0116559Y0071482D01*
X0116582Y0071567D01*
X0116609Y0071652D01*
X0116640Y0071735D01*
X0116674Y0071816D01*
X0116712Y0071896D01*
X0116753Y0071974D01*
X0116798Y0072051D01*
X0116846Y0072125D01*
X0116898Y0072197D01*
X0116952Y0072267D01*
X0117010Y0072334D01*
X0117070Y0072398D01*
X0117133Y0072460D01*
X0117199Y0072519D01*
X0117268Y0072575D01*
X0117339Y0072628D01*
X0117412Y0072678D01*
X0117487Y0072725D01*
X0117565Y0072768D01*
X0117644Y0072807D01*
X0117724Y0072843D01*
X0117807Y0072876D01*
X0117890Y0072905D01*
X0117975Y0072930D01*
X0118061Y0072951D01*
X0118148Y0072969D01*
X0118235Y0072982D01*
X0118323Y0072992D01*
X0118412Y0072998D01*
X0118500Y0073000D01*
X0118500Y0077200D02*
X0118498Y0077276D01*
X0118492Y0077352D01*
X0118483Y0077427D01*
X0118469Y0077502D01*
X0118452Y0077576D01*
X0118431Y0077649D01*
X0118407Y0077721D01*
X0118378Y0077792D01*
X0118347Y0077861D01*
X0118312Y0077928D01*
X0118273Y0077993D01*
X0118231Y0078057D01*
X0118186Y0078118D01*
X0118138Y0078177D01*
X0118087Y0078233D01*
X0118033Y0078287D01*
X0117977Y0078338D01*
X0117918Y0078386D01*
X0117857Y0078431D01*
X0117793Y0078473D01*
X0117728Y0078512D01*
X0117661Y0078547D01*
X0117592Y0078578D01*
X0117521Y0078607D01*
X0117449Y0078631D01*
X0117376Y0078652D01*
X0117302Y0078669D01*
X0117227Y0078683D01*
X0117152Y0078692D01*
X0117076Y0078698D01*
X0117000Y0078700D01*
X0085000Y0078700D02*
X0084924Y0078698D01*
X0084848Y0078692D01*
X0084773Y0078683D01*
X0084698Y0078669D01*
X0084624Y0078652D01*
X0084551Y0078631D01*
X0084479Y0078607D01*
X0084408Y0078578D01*
X0084339Y0078547D01*
X0084272Y0078512D01*
X0084207Y0078473D01*
X0084143Y0078431D01*
X0084082Y0078386D01*
X0084023Y0078338D01*
X0083967Y0078287D01*
X0083913Y0078233D01*
X0083862Y0078177D01*
X0083814Y0078118D01*
X0083769Y0078057D01*
X0083727Y0077993D01*
X0083688Y0077928D01*
X0083653Y0077861D01*
X0083622Y0077792D01*
X0083593Y0077721D01*
X0083569Y0077649D01*
X0083548Y0077576D01*
X0083531Y0077502D01*
X0083517Y0077427D01*
X0083508Y0077352D01*
X0083502Y0077276D01*
X0083500Y0077200D01*
X0083500Y0064800D01*
X0083502Y0064724D01*
X0083508Y0064648D01*
X0083517Y0064573D01*
X0083531Y0064498D01*
X0083548Y0064424D01*
X0083569Y0064351D01*
X0083593Y0064279D01*
X0083622Y0064208D01*
X0083653Y0064139D01*
X0083688Y0064072D01*
X0083727Y0064007D01*
X0083769Y0063943D01*
X0083814Y0063882D01*
X0083862Y0063823D01*
X0083913Y0063767D01*
X0083967Y0063713D01*
X0084023Y0063662D01*
X0084082Y0063614D01*
X0084143Y0063569D01*
X0084207Y0063527D01*
X0084272Y0063488D01*
X0084339Y0063453D01*
X0084408Y0063422D01*
X0084479Y0063393D01*
X0084551Y0063369D01*
X0084624Y0063348D01*
X0084698Y0063331D01*
X0084773Y0063317D01*
X0084848Y0063308D01*
X0084924Y0063302D01*
X0085000Y0063300D01*
X0068500Y0064800D02*
X0068500Y0069000D01*
X0068500Y0073000D01*
X0068500Y0077200D01*
X0068498Y0077276D01*
X0068492Y0077352D01*
X0068483Y0077427D01*
X0068469Y0077502D01*
X0068452Y0077576D01*
X0068431Y0077649D01*
X0068407Y0077721D01*
X0068378Y0077792D01*
X0068347Y0077861D01*
X0068312Y0077928D01*
X0068273Y0077993D01*
X0068231Y0078057D01*
X0068186Y0078118D01*
X0068138Y0078177D01*
X0068087Y0078233D01*
X0068033Y0078287D01*
X0067977Y0078338D01*
X0067918Y0078386D01*
X0067857Y0078431D01*
X0067793Y0078473D01*
X0067728Y0078512D01*
X0067661Y0078547D01*
X0067592Y0078578D01*
X0067521Y0078607D01*
X0067449Y0078631D01*
X0067376Y0078652D01*
X0067302Y0078669D01*
X0067227Y0078683D01*
X0067152Y0078692D01*
X0067076Y0078698D01*
X0067000Y0078700D01*
X0068500Y0073000D02*
X0068412Y0072998D01*
X0068323Y0072992D01*
X0068235Y0072982D01*
X0068148Y0072969D01*
X0068061Y0072951D01*
X0067975Y0072930D01*
X0067890Y0072905D01*
X0067807Y0072876D01*
X0067724Y0072843D01*
X0067644Y0072807D01*
X0067565Y0072768D01*
X0067487Y0072725D01*
X0067412Y0072678D01*
X0067339Y0072628D01*
X0067268Y0072575D01*
X0067199Y0072519D01*
X0067133Y0072460D01*
X0067070Y0072398D01*
X0067010Y0072334D01*
X0066952Y0072267D01*
X0066898Y0072197D01*
X0066846Y0072125D01*
X0066798Y0072051D01*
X0066753Y0071974D01*
X0066712Y0071896D01*
X0066674Y0071816D01*
X0066640Y0071735D01*
X0066609Y0071652D01*
X0066582Y0071567D01*
X0066559Y0071482D01*
X0066540Y0071396D01*
X0066524Y0071308D01*
X0066512Y0071221D01*
X0066504Y0071133D01*
X0066500Y0071044D01*
X0066500Y0070956D01*
X0066504Y0070867D01*
X0066512Y0070779D01*
X0066524Y0070692D01*
X0066540Y0070604D01*
X0066559Y0070518D01*
X0066582Y0070433D01*
X0066609Y0070348D01*
X0066640Y0070265D01*
X0066674Y0070184D01*
X0066712Y0070104D01*
X0066753Y0070026D01*
X0066798Y0069949D01*
X0066846Y0069875D01*
X0066898Y0069803D01*
X0066952Y0069733D01*
X0067010Y0069666D01*
X0067070Y0069602D01*
X0067133Y0069540D01*
X0067199Y0069481D01*
X0067268Y0069425D01*
X0067339Y0069372D01*
X0067412Y0069322D01*
X0067487Y0069275D01*
X0067565Y0069232D01*
X0067644Y0069193D01*
X0067724Y0069157D01*
X0067807Y0069124D01*
X0067890Y0069095D01*
X0067975Y0069070D01*
X0068061Y0069049D01*
X0068148Y0069031D01*
X0068235Y0069018D01*
X0068323Y0069008D01*
X0068412Y0069002D01*
X0068500Y0069000D01*
X0068500Y0064800D02*
X0068498Y0064724D01*
X0068492Y0064648D01*
X0068483Y0064573D01*
X0068469Y0064498D01*
X0068452Y0064424D01*
X0068431Y0064351D01*
X0068407Y0064279D01*
X0068378Y0064208D01*
X0068347Y0064139D01*
X0068312Y0064072D01*
X0068273Y0064007D01*
X0068231Y0063943D01*
X0068186Y0063882D01*
X0068138Y0063823D01*
X0068087Y0063767D01*
X0068033Y0063713D01*
X0067977Y0063662D01*
X0067918Y0063614D01*
X0067857Y0063569D01*
X0067793Y0063527D01*
X0067728Y0063488D01*
X0067661Y0063453D01*
X0067592Y0063422D01*
X0067521Y0063393D01*
X0067449Y0063369D01*
X0067376Y0063348D01*
X0067302Y0063331D01*
X0067227Y0063317D01*
X0067152Y0063308D01*
X0067076Y0063302D01*
X0067000Y0063300D01*
X0035000Y0063300D02*
X0034924Y0063302D01*
X0034848Y0063308D01*
X0034773Y0063317D01*
X0034698Y0063331D01*
X0034624Y0063348D01*
X0034551Y0063369D01*
X0034479Y0063393D01*
X0034408Y0063422D01*
X0034339Y0063453D01*
X0034272Y0063488D01*
X0034207Y0063527D01*
X0034143Y0063569D01*
X0034082Y0063614D01*
X0034023Y0063662D01*
X0033967Y0063713D01*
X0033913Y0063767D01*
X0033862Y0063823D01*
X0033814Y0063882D01*
X0033769Y0063943D01*
X0033727Y0064007D01*
X0033688Y0064072D01*
X0033653Y0064139D01*
X0033622Y0064208D01*
X0033593Y0064279D01*
X0033569Y0064351D01*
X0033548Y0064424D01*
X0033531Y0064498D01*
X0033517Y0064573D01*
X0033508Y0064648D01*
X0033502Y0064724D01*
X0033500Y0064800D01*
X0033500Y0077200D01*
X0033502Y0077276D01*
X0033508Y0077352D01*
X0033517Y0077427D01*
X0033531Y0077502D01*
X0033548Y0077576D01*
X0033569Y0077649D01*
X0033593Y0077721D01*
X0033622Y0077792D01*
X0033653Y0077861D01*
X0033688Y0077928D01*
X0033727Y0077993D01*
X0033769Y0078057D01*
X0033814Y0078118D01*
X0033862Y0078177D01*
X0033913Y0078233D01*
X0033967Y0078287D01*
X0034023Y0078338D01*
X0034082Y0078386D01*
X0034143Y0078431D01*
X0034207Y0078473D01*
X0034272Y0078512D01*
X0034339Y0078547D01*
X0034408Y0078578D01*
X0034479Y0078607D01*
X0034551Y0078631D01*
X0034624Y0078652D01*
X0034698Y0078669D01*
X0034773Y0078683D01*
X0034848Y0078692D01*
X0034924Y0078698D01*
X0035000Y0078700D01*
D16*
X0033500Y0064700D02*
X0068500Y0064700D01*
X0083500Y0064700D02*
X0118500Y0064700D01*
X0133500Y0064700D02*
X0168500Y0064700D01*
X0183500Y0064700D02*
X0218500Y0064700D01*
X0218500Y0019700D02*
X0183500Y0019700D01*
X0168500Y0019700D02*
X0133500Y0019700D01*
D17*
X0114969Y0027969D02*
X0111031Y0027969D01*
X0113000Y0024031D01*
X0114969Y0027969D01*
D18*
X0113000Y0023800D03*
M02*
