G75*
%MOIN*%
%OFA0B0*%
%FSLAX25Y25*%
%IPPOS*%
%LPD*%
%AMOC8*
5,1,8,0,0,1.08239X$1,22.5*
%
%ADD10R,0.06706X0.05918*%
%ADD11R,0.10249X0.10249*%
%ADD12C,0.06000*%
%ADD13C,0.06000*%
%ADD14C,0.06800*%
%ADD15OC8,0.06000*%
%ADD16R,0.10249X0.07099*%
%ADD17R,0.03162X0.09461*%
%ADD18R,0.09461X0.03162*%
%ADD19R,0.07100X0.05400*%
D10*
X0046000Y0093185D03*
X0046000Y0100665D03*
X0096000Y0258185D03*
X0096000Y0265665D03*
X0096000Y0283185D03*
X0096000Y0290665D03*
X0096000Y0308185D03*
X0096000Y0315665D03*
X0116000Y0315665D03*
X0116000Y0308185D03*
X0116000Y0290665D03*
X0116000Y0283185D03*
X0116000Y0265665D03*
X0116000Y0258185D03*
X0136000Y0258185D03*
X0136000Y0265665D03*
X0136000Y0283185D03*
X0136000Y0290665D03*
X0136000Y0308185D03*
X0136000Y0315665D03*
X0156000Y0315665D03*
X0156000Y0308185D03*
X0156000Y0290665D03*
X0156000Y0283185D03*
X0156000Y0265665D03*
X0156000Y0258185D03*
X0221000Y0100665D03*
X0221000Y0093185D03*
X0196000Y0030665D03*
X0196000Y0023185D03*
D11*
X0049500Y0217082D03*
X0049500Y0236768D03*
X0021000Y0236768D03*
X0021000Y0217082D03*
D12*
X0026000Y0194525D02*
X0026000Y0189325D01*
X0021000Y0179525D02*
X0021000Y0174325D01*
X0031000Y0174325D02*
X0031000Y0179525D01*
X0036000Y0189325D02*
X0036000Y0194525D01*
X0046000Y0194525D02*
X0046000Y0189325D01*
X0041000Y0179525D02*
X0041000Y0174325D01*
X0051000Y0174325D02*
X0051000Y0179525D01*
X0056000Y0189325D02*
X0056000Y0194525D01*
X0066000Y0194525D02*
X0066000Y0189325D01*
X0061000Y0179525D02*
X0061000Y0174325D01*
X0071000Y0174325D02*
X0071000Y0179525D01*
X0076000Y0189325D02*
X0076000Y0194525D01*
X0086000Y0194525D02*
X0086000Y0189325D01*
X0081000Y0179525D02*
X0081000Y0174325D01*
X0091000Y0174325D02*
X0091000Y0179525D01*
X0096000Y0189325D02*
X0096000Y0194525D01*
X0106000Y0194525D02*
X0106000Y0189325D01*
X0101000Y0179525D02*
X0101000Y0174325D01*
X0111000Y0174325D02*
X0111000Y0179525D01*
X0116000Y0189325D02*
X0116000Y0194525D01*
X0126000Y0194525D02*
X0126000Y0189325D01*
X0121000Y0179525D02*
X0121000Y0174325D01*
X0131000Y0174325D02*
X0131000Y0179525D01*
X0136000Y0189325D02*
X0136000Y0194525D01*
X0146000Y0194525D02*
X0146000Y0189325D01*
X0141000Y0179525D02*
X0141000Y0174325D01*
X0151000Y0174325D02*
X0151000Y0179525D01*
X0156000Y0189325D02*
X0156000Y0194525D01*
X0166000Y0194525D02*
X0166000Y0189325D01*
X0161000Y0179525D02*
X0161000Y0174325D01*
X0171000Y0174325D02*
X0171000Y0179525D01*
X0176000Y0189325D02*
X0176000Y0194525D01*
X0176000Y0209325D02*
X0176000Y0214525D01*
X0166000Y0214525D02*
X0166000Y0209325D01*
X0156000Y0209325D02*
X0156000Y0214525D01*
X0146000Y0214525D02*
X0146000Y0209325D01*
X0136000Y0209325D02*
X0136000Y0214525D01*
X0136000Y0239325D02*
X0136000Y0244525D01*
X0146000Y0244525D02*
X0146000Y0239325D01*
X0156000Y0239325D02*
X0156000Y0244525D01*
X0166000Y0244525D02*
X0166000Y0239325D01*
X0176000Y0239325D02*
X0176000Y0244525D01*
X0186000Y0244525D02*
X0186000Y0239325D01*
X0196000Y0239325D02*
X0196000Y0244525D01*
X0206000Y0244525D02*
X0206000Y0239325D01*
X0216000Y0239325D02*
X0216000Y0244525D01*
X0216000Y0214525D02*
X0216000Y0209325D01*
X0206000Y0209325D02*
X0206000Y0214525D01*
X0196000Y0214525D02*
X0196000Y0209325D01*
X0186000Y0209325D02*
X0186000Y0214525D01*
X0186000Y0194525D02*
X0186000Y0189325D01*
X0181000Y0179525D02*
X0181000Y0174325D01*
X0191000Y0174325D02*
X0191000Y0179525D01*
X0196000Y0189325D02*
X0196000Y0194525D01*
X0206000Y0194525D02*
X0206000Y0189325D01*
X0201000Y0179525D02*
X0201000Y0174325D01*
X0211000Y0174325D02*
X0211000Y0179525D01*
X0216000Y0189325D02*
X0216000Y0194525D01*
X0216000Y0134525D02*
X0216000Y0129325D01*
X0211000Y0119525D02*
X0211000Y0114325D01*
X0201000Y0114325D02*
X0201000Y0119525D01*
X0196000Y0129325D02*
X0196000Y0134525D01*
X0186000Y0134525D02*
X0186000Y0129325D01*
X0181000Y0119525D02*
X0181000Y0114325D01*
X0191000Y0114325D02*
X0191000Y0119525D01*
X0206000Y0129325D02*
X0206000Y0134525D01*
X0176000Y0134525D02*
X0176000Y0129325D01*
X0171000Y0119525D02*
X0171000Y0114325D01*
X0161000Y0114325D02*
X0161000Y0119525D01*
X0156000Y0129325D02*
X0156000Y0134525D01*
X0146000Y0134525D02*
X0146000Y0129325D01*
X0141000Y0119525D02*
X0141000Y0114325D01*
X0131000Y0114325D02*
X0131000Y0119525D01*
X0126000Y0129325D02*
X0126000Y0134525D01*
X0116000Y0134525D02*
X0116000Y0129325D01*
X0111000Y0119525D02*
X0111000Y0114325D01*
X0101000Y0114325D02*
X0101000Y0119525D01*
X0096000Y0129325D02*
X0096000Y0134525D01*
X0086000Y0134525D02*
X0086000Y0129325D01*
X0081000Y0119525D02*
X0081000Y0114325D01*
X0091000Y0114325D02*
X0091000Y0119525D01*
X0106000Y0129325D02*
X0106000Y0134525D01*
X0121000Y0119525D02*
X0121000Y0114325D01*
X0136000Y0129325D02*
X0136000Y0134525D01*
X0151000Y0119525D02*
X0151000Y0114325D01*
X0166000Y0129325D02*
X0166000Y0134525D01*
X0076000Y0134525D02*
X0076000Y0129325D01*
X0071000Y0119525D02*
X0071000Y0114325D01*
X0061000Y0114325D02*
X0061000Y0119525D01*
X0056000Y0129325D02*
X0056000Y0134525D01*
X0046000Y0134525D02*
X0046000Y0129325D01*
X0041000Y0119525D02*
X0041000Y0114325D01*
X0031000Y0114325D02*
X0031000Y0119525D01*
X0026000Y0129325D02*
X0026000Y0134525D01*
X0036000Y0134525D02*
X0036000Y0129325D01*
X0051000Y0119525D02*
X0051000Y0114325D01*
X0066000Y0129325D02*
X0066000Y0134525D01*
X0021000Y0119525D02*
X0021000Y0114325D01*
D13*
X0081000Y0211925D03*
X0091000Y0211925D03*
X0101000Y0211925D03*
X0111000Y0211925D03*
X0111000Y0241925D03*
X0101000Y0241925D03*
X0091000Y0241925D03*
X0081000Y0241925D03*
D14*
X0012000Y0049925D02*
X0012000Y0043925D01*
X0022000Y0043925D02*
X0022000Y0049925D01*
X0021000Y0278925D02*
X0021000Y0284925D01*
X0011000Y0284925D02*
X0011000Y0278925D01*
X0031000Y0278925D02*
X0031000Y0284925D01*
X0206000Y0284925D02*
X0206000Y0278925D01*
X0216000Y0278925D02*
X0216000Y0284925D01*
X0226000Y0284925D02*
X0226000Y0278925D01*
X0225000Y0049925D02*
X0225000Y0043925D01*
X0215000Y0043925D02*
X0215000Y0049925D01*
D15*
X0053000Y0276925D03*
X0045500Y0281925D03*
X0053000Y0286925D03*
X0019000Y0086925D03*
X0011500Y0081925D03*
X0019000Y0076925D03*
D16*
X0046000Y0062831D03*
X0046000Y0051019D03*
X0046000Y0027831D03*
X0046000Y0016019D03*
D17*
X0106000Y0035035D03*
X0111000Y0035035D03*
X0116000Y0035035D03*
X0121000Y0035035D03*
X0126000Y0035035D03*
X0131000Y0035035D03*
X0136000Y0035035D03*
X0136000Y0088815D03*
X0131000Y0088815D03*
X0126000Y0088815D03*
X0121000Y0088815D03*
X0116000Y0088815D03*
X0111000Y0088815D03*
X0106000Y0088815D03*
D18*
X0099110Y0081925D03*
X0099110Y0076925D03*
X0099110Y0071925D03*
X0099110Y0066925D03*
X0099110Y0061925D03*
X0099110Y0056925D03*
X0099110Y0051925D03*
X0099110Y0046925D03*
X0099110Y0041925D03*
X0142890Y0041925D03*
X0142890Y0046925D03*
X0142890Y0051925D03*
X0142890Y0056925D03*
X0142890Y0061925D03*
X0142890Y0066925D03*
X0142890Y0071925D03*
X0142890Y0076925D03*
X0142890Y0081925D03*
D19*
X0196000Y0085925D03*
X0196000Y0091925D03*
X0196000Y0097925D03*
X0196000Y0062925D03*
X0196000Y0056925D03*
X0196000Y0050925D03*
M02*
