G75*
%MOIN*%
%OFA0B0*%
%FSLAX25Y25*%
%IPPOS*%
%LPD*%
%AMOC8*
5,1,8,0,0,1.08239X$1,22.5*
%
%ADD10R,0.05906X0.05118*%
%ADD11R,0.09449X0.09449*%
%ADD12C,0.05200*%
%ADD13C,0.05200*%
%ADD14C,0.06000*%
%ADD15OC8,0.05200*%
%ADD16R,0.02362X0.08661*%
%ADD17R,0.08661X0.02362*%
%ADD18R,0.09449X0.06299*%
%ADD19C,0.01000*%
%ADD20C,0.04000*%
D10*
X0041000Y0012260D03*
X0041000Y0019740D03*
X0041000Y0077260D03*
X0041000Y0084740D03*
X0096000Y0247260D03*
X0096000Y0254740D03*
X0096000Y0272260D03*
X0096000Y0279740D03*
X0096000Y0297260D03*
X0096000Y0304740D03*
X0116000Y0304740D03*
X0116000Y0297260D03*
X0116000Y0279740D03*
X0116000Y0272260D03*
X0116000Y0254740D03*
X0116000Y0247260D03*
X0136000Y0247260D03*
X0136000Y0254740D03*
X0136000Y0272260D03*
X0136000Y0279740D03*
X0136000Y0297260D03*
X0136000Y0304740D03*
X0156000Y0304740D03*
X0156000Y0297260D03*
X0156000Y0279740D03*
X0156000Y0272260D03*
X0156000Y0254740D03*
X0156000Y0247260D03*
D11*
X0044500Y0230843D03*
X0044500Y0211157D03*
X0021000Y0211157D03*
X0021000Y0230843D03*
D12*
X0026000Y0193600D02*
X0026000Y0188400D01*
X0036000Y0188400D02*
X0036000Y0193600D01*
X0046000Y0193600D02*
X0046000Y0188400D01*
X0056000Y0188400D02*
X0056000Y0193600D01*
X0066000Y0193600D02*
X0066000Y0188400D01*
X0076000Y0188400D02*
X0076000Y0193600D01*
X0086000Y0193600D02*
X0086000Y0188400D01*
X0096000Y0188400D02*
X0096000Y0193600D01*
X0106000Y0193600D02*
X0106000Y0188400D01*
X0116000Y0188400D02*
X0116000Y0193600D01*
X0126000Y0193600D02*
X0126000Y0188400D01*
X0136000Y0188400D02*
X0136000Y0193600D01*
X0136000Y0203400D02*
X0136000Y0208600D01*
X0146000Y0208600D02*
X0146000Y0203400D01*
X0146000Y0193600D02*
X0146000Y0188400D01*
X0156000Y0188400D02*
X0156000Y0193600D01*
X0156000Y0203400D02*
X0156000Y0208600D01*
X0166000Y0208600D02*
X0166000Y0203400D01*
X0166000Y0193600D02*
X0166000Y0188400D01*
X0176000Y0188400D02*
X0176000Y0193600D01*
X0176000Y0203400D02*
X0176000Y0208600D01*
X0186000Y0208600D02*
X0186000Y0203400D01*
X0186000Y0193600D02*
X0186000Y0188400D01*
X0196000Y0188400D02*
X0196000Y0193600D01*
X0196000Y0203400D02*
X0196000Y0208600D01*
X0206000Y0208600D02*
X0206000Y0203400D01*
X0206000Y0193600D02*
X0206000Y0188400D01*
X0216000Y0188400D02*
X0216000Y0193600D01*
X0216000Y0203400D02*
X0216000Y0208600D01*
X0216000Y0233400D02*
X0216000Y0238600D01*
X0206000Y0238600D02*
X0206000Y0233400D01*
X0196000Y0233400D02*
X0196000Y0238600D01*
X0186000Y0238600D02*
X0186000Y0233400D01*
X0176000Y0233400D02*
X0176000Y0238600D01*
X0166000Y0238600D02*
X0166000Y0233400D01*
X0156000Y0233400D02*
X0156000Y0238600D01*
X0146000Y0238600D02*
X0146000Y0233400D01*
X0136000Y0233400D02*
X0136000Y0238600D01*
X0131000Y0163600D02*
X0131000Y0158400D01*
X0121000Y0158400D02*
X0121000Y0163600D01*
X0111000Y0163600D02*
X0111000Y0158400D01*
X0101000Y0158400D02*
X0101000Y0163600D01*
X0091000Y0163600D02*
X0091000Y0158400D01*
X0081000Y0158400D02*
X0081000Y0163600D01*
X0071000Y0163600D02*
X0071000Y0158400D01*
X0061000Y0158400D02*
X0061000Y0163600D01*
X0051000Y0163600D02*
X0051000Y0158400D01*
X0041000Y0158400D02*
X0041000Y0163600D01*
X0031000Y0163600D02*
X0031000Y0158400D01*
X0021000Y0158400D02*
X0021000Y0163600D01*
X0026000Y0133600D02*
X0026000Y0128400D01*
X0036000Y0128400D02*
X0036000Y0133600D01*
X0046000Y0133600D02*
X0046000Y0128400D01*
X0056000Y0128400D02*
X0056000Y0133600D01*
X0066000Y0133600D02*
X0066000Y0128400D01*
X0076000Y0128400D02*
X0076000Y0133600D01*
X0086000Y0133600D02*
X0086000Y0128400D01*
X0096000Y0128400D02*
X0096000Y0133600D01*
X0106000Y0133600D02*
X0106000Y0128400D01*
X0116000Y0128400D02*
X0116000Y0133600D01*
X0126000Y0133600D02*
X0126000Y0128400D01*
X0136000Y0128400D02*
X0136000Y0133600D01*
X0146000Y0133600D02*
X0146000Y0128400D01*
X0156000Y0128400D02*
X0156000Y0133600D01*
X0166000Y0133600D02*
X0166000Y0128400D01*
X0176000Y0128400D02*
X0176000Y0133600D01*
X0186000Y0133600D02*
X0186000Y0128400D01*
X0196000Y0128400D02*
X0196000Y0133600D01*
X0206000Y0133600D02*
X0206000Y0128400D01*
X0216000Y0128400D02*
X0216000Y0133600D01*
X0211000Y0158400D02*
X0211000Y0163600D01*
X0201000Y0163600D02*
X0201000Y0158400D01*
X0191000Y0158400D02*
X0191000Y0163600D01*
X0181000Y0163600D02*
X0181000Y0158400D01*
X0171000Y0158400D02*
X0171000Y0163600D01*
X0161000Y0163600D02*
X0161000Y0158400D01*
X0151000Y0158400D02*
X0151000Y0163600D01*
X0141000Y0163600D02*
X0141000Y0158400D01*
X0141000Y0103600D02*
X0141000Y0098400D01*
X0131000Y0098400D02*
X0131000Y0103600D01*
X0121000Y0103600D02*
X0121000Y0098400D01*
X0111000Y0098400D02*
X0111000Y0103600D01*
X0101000Y0103600D02*
X0101000Y0098400D01*
X0091000Y0098400D02*
X0091000Y0103600D01*
X0081000Y0103600D02*
X0081000Y0098400D01*
X0071000Y0098400D02*
X0071000Y0103600D01*
X0061000Y0103600D02*
X0061000Y0098400D01*
X0051000Y0098400D02*
X0051000Y0103600D01*
X0041000Y0103600D02*
X0041000Y0098400D01*
X0031000Y0098400D02*
X0031000Y0103600D01*
X0021000Y0103600D02*
X0021000Y0098400D01*
X0151000Y0098400D02*
X0151000Y0103600D01*
X0161000Y0103600D02*
X0161000Y0098400D01*
X0171000Y0098400D02*
X0171000Y0103600D01*
X0181000Y0103600D02*
X0181000Y0098400D01*
X0191000Y0098400D02*
X0191000Y0103600D01*
X0201000Y0103600D02*
X0201000Y0098400D01*
X0211000Y0098400D02*
X0211000Y0103600D01*
D13*
X0106000Y0206000D03*
X0096000Y0206000D03*
X0086000Y0206000D03*
X0076000Y0206000D03*
X0076000Y0236000D03*
X0086000Y0236000D03*
X0096000Y0236000D03*
X0106000Y0236000D03*
D14*
X0031000Y0273000D02*
X0031000Y0279000D01*
X0021000Y0279000D02*
X0021000Y0273000D01*
X0011000Y0273000D02*
X0011000Y0279000D01*
X0012000Y0049000D02*
X0012000Y0043000D01*
X0022000Y0043000D02*
X0022000Y0049000D01*
X0206000Y0273000D02*
X0206000Y0279000D01*
X0216000Y0279000D02*
X0216000Y0273000D01*
X0226000Y0273000D02*
X0226000Y0279000D01*
D15*
X0053000Y0281000D03*
X0045500Y0276000D03*
X0053000Y0271000D03*
X0019000Y0081000D03*
X0019000Y0071000D03*
X0011500Y0076000D03*
D16*
X0076000Y0072890D03*
X0081000Y0072890D03*
X0086000Y0072890D03*
X0091000Y0072890D03*
X0096000Y0072890D03*
X0101000Y0072890D03*
X0106000Y0072890D03*
X0106000Y0019110D03*
X0101000Y0019110D03*
X0096000Y0019110D03*
X0091000Y0019110D03*
X0086000Y0019110D03*
X0081000Y0019110D03*
X0076000Y0019110D03*
D17*
X0069110Y0026000D03*
X0069110Y0031000D03*
X0069110Y0036000D03*
X0069110Y0041000D03*
X0069110Y0046000D03*
X0069110Y0051000D03*
X0069110Y0056000D03*
X0069110Y0061000D03*
X0069110Y0066000D03*
X0112890Y0066000D03*
X0112890Y0061000D03*
X0112890Y0056000D03*
X0112890Y0051000D03*
X0112890Y0046000D03*
X0112890Y0041000D03*
X0112890Y0036000D03*
X0112890Y0031000D03*
X0112890Y0026000D03*
D18*
X0146000Y0021906D03*
X0146000Y0010094D03*
X0146000Y0075094D03*
X0146000Y0086906D03*
D19*
X0021000Y0024750D02*
X0007250Y0038500D01*
X0007250Y0138500D01*
X0026000Y0157250D01*
X0026000Y0167250D01*
X0021000Y0161000D02*
X0021000Y0186000D01*
X0026000Y0191000D01*
X0033500Y0198500D01*
X0047250Y0198500D01*
X0051000Y0194750D01*
X0051000Y0187250D01*
X0046000Y0182250D01*
X0046000Y0157250D01*
X0051000Y0152250D01*
X0051000Y0127250D01*
X0048500Y0124750D01*
X0048500Y0107250D01*
X0046000Y0104750D01*
X0046000Y0096000D01*
X0053500Y0088500D01*
X0053500Y0063500D01*
X0066000Y0051000D01*
X0069110Y0051000D01*
X0069110Y0046000D02*
X0061000Y0046000D01*
X0054750Y0039750D01*
X0053500Y0036000D02*
X0026000Y0063500D01*
X0026000Y0076000D01*
X0023500Y0078500D01*
X0023500Y0098500D01*
X0021000Y0101000D01*
X0021000Y0106000D01*
X0026000Y0111000D01*
X0026000Y0131000D01*
X0016000Y0129750D02*
X0016000Y0083500D01*
X0018500Y0081000D01*
X0019000Y0081000D01*
X0019750Y0076000D02*
X0017250Y0076000D01*
X0012250Y0081000D01*
X0012250Y0139750D01*
X0031000Y0158500D01*
X0031000Y0161000D01*
X0031000Y0163500D01*
X0036000Y0168500D01*
X0036000Y0191000D01*
X0039750Y0182250D02*
X0039750Y0168500D01*
X0036000Y0164750D01*
X0036000Y0131000D01*
X0036000Y0112250D01*
X0031000Y0107250D01*
X0031000Y0101000D01*
X0026000Y0097250D02*
X0029750Y0093500D01*
X0029750Y0089750D01*
X0033500Y0088500D02*
X0027250Y0082250D01*
X0027250Y0078500D01*
X0039750Y0066000D01*
X0046000Y0066000D02*
X0046000Y0092250D01*
X0041000Y0097250D01*
X0041000Y0101000D01*
X0041000Y0103500D01*
X0046000Y0108500D01*
X0046000Y0131000D01*
X0042250Y0123500D02*
X0042250Y0114750D01*
X0036000Y0108500D01*
X0036000Y0097250D01*
X0033500Y0094750D01*
X0033500Y0088500D01*
X0037250Y0091000D02*
X0041000Y0087250D01*
X0041000Y0084740D01*
X0041000Y0078500D02*
X0041000Y0077260D01*
X0041000Y0078500D02*
X0032250Y0078500D01*
X0031000Y0079750D01*
X0023500Y0072250D02*
X0019750Y0076000D01*
X0019000Y0071000D02*
X0018500Y0071000D01*
X0018500Y0052250D01*
X0017250Y0051000D01*
X0017250Y0034750D01*
X0022250Y0029750D01*
X0022250Y0028500D01*
X0021000Y0024750D02*
X0023500Y0024750D01*
X0036000Y0037250D01*
X0043500Y0037250D01*
X0054750Y0026000D01*
X0069110Y0026000D01*
X0069110Y0031000D02*
X0054750Y0031000D01*
X0023500Y0062250D01*
X0023500Y0072250D01*
X0026000Y0097250D02*
X0026000Y0107250D01*
X0032250Y0113500D01*
X0019750Y0109750D02*
X0019750Y0142250D01*
X0041000Y0161000D02*
X0043500Y0163500D01*
X0043500Y0183500D01*
X0046000Y0186000D01*
X0046000Y0191000D01*
X0051000Y0183500D02*
X0056000Y0188500D01*
X0056000Y0191000D01*
X0066000Y0201000D01*
X0107250Y0201000D01*
X0112250Y0206000D01*
X0116000Y0209750D02*
X0116000Y0199750D01*
X0111000Y0194750D01*
X0111000Y0187250D01*
X0106000Y0182250D01*
X0106000Y0143500D01*
X0103500Y0141000D01*
X0103500Y0133500D01*
X0106000Y0131000D01*
X0106000Y0108500D01*
X0101000Y0103500D01*
X0101000Y0101000D01*
X0096000Y0097250D02*
X0096000Y0107250D01*
X0101000Y0112250D01*
X0101000Y0118500D01*
X0101000Y0137250D01*
X0096000Y0142250D01*
X0096000Y0147250D02*
X0096000Y0167250D01*
X0091000Y0161000D02*
X0091000Y0146000D01*
X0081000Y0136000D01*
X0081000Y0114750D01*
X0081000Y0109750D02*
X0076000Y0104750D01*
X0076000Y0097250D01*
X0069750Y0091000D01*
X0069750Y0066000D01*
X0069110Y0066000D01*
X0069110Y0061000D02*
X0077250Y0061000D01*
X0083500Y0067250D01*
X0083500Y0094750D01*
X0086000Y0097250D01*
X0086000Y0104750D01*
X0091000Y0109750D01*
X0091000Y0142250D01*
X0096000Y0147250D01*
X0086000Y0149750D02*
X0071000Y0134750D01*
X0071000Y0112250D01*
X0076000Y0112250D02*
X0071000Y0107250D01*
X0071000Y0101000D01*
X0077250Y0093500D02*
X0077250Y0086000D01*
X0076000Y0081000D02*
X0076000Y0072890D01*
X0081000Y0072890D02*
X0081000Y0101000D01*
X0081000Y0103500D01*
X0086000Y0108500D01*
X0086000Y0131000D01*
X0076000Y0131000D02*
X0076000Y0112250D01*
X0066000Y0126000D02*
X0066000Y0131000D01*
X0066000Y0126000D02*
X0061000Y0121000D01*
X0061000Y0101000D01*
X0056000Y0104750D02*
X0058500Y0107250D01*
X0058500Y0109750D01*
X0057250Y0111000D01*
X0057250Y0113500D01*
X0053500Y0109750D02*
X0054750Y0108500D01*
X0053500Y0109750D02*
X0053500Y0117250D01*
X0061000Y0124750D01*
X0061000Y0134750D01*
X0064750Y0138500D01*
X0071000Y0138500D01*
X0081000Y0148500D01*
X0081000Y0161000D01*
X0081000Y0186000D01*
X0086000Y0191000D01*
X0091000Y0186000D02*
X0096000Y0191000D01*
X0091000Y0186000D02*
X0091000Y0161000D01*
X0101000Y0161000D02*
X0101000Y0186000D01*
X0106000Y0191000D01*
X0111000Y0183500D02*
X0116000Y0188500D01*
X0116000Y0191000D01*
X0116000Y0196000D01*
X0118500Y0198500D01*
X0118500Y0207250D01*
X0132250Y0221000D01*
X0136000Y0218500D02*
X0121000Y0203500D01*
X0121000Y0187250D01*
X0116000Y0182250D01*
X0116000Y0152250D01*
X0131000Y0137250D01*
X0133500Y0144750D02*
X0121000Y0157250D01*
X0121000Y0161000D01*
X0121000Y0183500D01*
X0126000Y0188500D01*
X0126000Y0191000D01*
X0126000Y0204750D01*
X0144750Y0223500D01*
X0146000Y0227250D02*
X0151000Y0222250D01*
X0151000Y0169750D01*
X0146000Y0164750D01*
X0146000Y0151000D01*
X0156000Y0141000D01*
X0156000Y0131000D01*
X0156000Y0128500D01*
X0151000Y0123500D01*
X0151000Y0101000D01*
X0156000Y0097250D02*
X0156000Y0122250D01*
X0161000Y0127250D01*
X0161000Y0142250D01*
X0151000Y0142250D02*
X0136000Y0157250D01*
X0136000Y0167250D01*
X0131000Y0161000D02*
X0131000Y0183500D01*
X0136000Y0188500D01*
X0136000Y0191000D01*
X0136000Y0206000D01*
X0132250Y0198500D02*
X0132250Y0196000D01*
X0131000Y0194750D01*
X0131000Y0187250D01*
X0126000Y0182250D01*
X0126000Y0157250D01*
X0137250Y0146000D01*
X0137250Y0132250D01*
X0136000Y0131000D01*
X0136000Y0126000D01*
X0131000Y0121000D01*
X0131000Y0101000D01*
X0126000Y0104750D02*
X0126000Y0097250D01*
X0116000Y0087250D01*
X0112250Y0087250D01*
X0103500Y0078500D01*
X0103500Y0067250D01*
X0104750Y0066000D01*
X0112890Y0066000D01*
X0114750Y0072250D02*
X0128500Y0086000D01*
X0127250Y0092250D02*
X0127250Y0093500D01*
X0127250Y0092250D02*
X0111000Y0076000D01*
X0114750Y0072250D02*
X0106000Y0072250D01*
X0106000Y0072890D01*
X0101000Y0072890D02*
X0101000Y0079750D01*
X0112250Y0091000D01*
X0114750Y0091000D01*
X0111000Y0101000D02*
X0116000Y0106000D01*
X0116000Y0131000D01*
X0118500Y0133500D01*
X0118500Y0144750D01*
X0112250Y0141000D02*
X0112250Y0149750D01*
X0107250Y0139750D02*
X0111000Y0136000D01*
X0111000Y0109750D01*
X0106000Y0104750D01*
X0106000Y0091000D01*
X0101000Y0092250D02*
X0096000Y0097250D01*
X0091000Y0098500D02*
X0091000Y0101000D01*
X0091000Y0106000D01*
X0096000Y0111000D01*
X0096000Y0131000D01*
X0111000Y0161000D02*
X0111000Y0183500D01*
X0096000Y0206000D02*
X0096000Y0226000D01*
X0106000Y0236000D01*
X0101000Y0237250D02*
X0106000Y0242250D01*
X0118500Y0242250D01*
X0131000Y0254750D01*
X0116000Y0254750D01*
X0116000Y0254740D01*
X0116000Y0247260D02*
X0116000Y0247250D01*
X0096000Y0247250D01*
X0096000Y0247260D01*
X0096000Y0247250D02*
X0096000Y0236000D01*
X0097250Y0231000D02*
X0094750Y0231000D01*
X0089750Y0236000D01*
X0086000Y0236000D01*
X0081000Y0234750D02*
X0081000Y0239750D01*
X0096000Y0254750D01*
X0096000Y0254740D01*
X0096000Y0254750D02*
X0096000Y0264750D01*
X0101000Y0269750D01*
X0101000Y0274750D01*
X0102250Y0276000D01*
X0101000Y0274750D02*
X0096000Y0279750D01*
X0096000Y0279740D01*
X0096000Y0272260D02*
X0096000Y0272250D01*
X0089750Y0266000D01*
X0089750Y0293500D01*
X0096000Y0297250D02*
X0081000Y0297250D01*
X0093500Y0309750D01*
X0118500Y0309750D01*
X0123500Y0304750D01*
X0136000Y0304750D01*
X0136000Y0304740D01*
X0136000Y0304750D02*
X0156000Y0304750D01*
X0156000Y0304740D01*
X0156000Y0303500D01*
X0188500Y0303500D01*
X0216000Y0276000D01*
X0206000Y0236000D02*
X0206000Y0214750D01*
X0211000Y0209750D01*
X0211000Y0196000D01*
X0206000Y0191000D01*
X0201000Y0194750D02*
X0201000Y0169750D01*
X0206000Y0164750D02*
X0206000Y0139750D01*
X0201000Y0134750D01*
X0201000Y0127250D01*
X0198500Y0124750D01*
X0198500Y0116000D01*
X0192250Y0109750D01*
X0196000Y0107250D02*
X0197250Y0108500D01*
X0196000Y0107250D02*
X0196000Y0097250D01*
X0191000Y0092250D01*
X0191000Y0076000D01*
X0189750Y0072250D02*
X0186000Y0076000D01*
X0186000Y0122250D01*
X0181000Y0127250D01*
X0181000Y0139750D01*
X0178500Y0142250D01*
X0186000Y0148500D02*
X0186000Y0182250D01*
X0191000Y0187250D01*
X0191000Y0194750D01*
X0186000Y0199750D01*
X0186000Y0206000D01*
X0196000Y0206000D02*
X0196000Y0199750D01*
X0201000Y0194750D01*
X0196000Y0191000D02*
X0196000Y0188500D01*
X0191000Y0183500D01*
X0191000Y0161000D01*
X0197250Y0157250D02*
X0201000Y0161000D01*
X0197250Y0157250D02*
X0197250Y0143500D01*
X0191000Y0134750D02*
X0172250Y0153500D01*
X0169750Y0153500D01*
X0166000Y0157250D01*
X0166000Y0182250D01*
X0161000Y0183500D02*
X0166000Y0188500D01*
X0166000Y0191000D01*
X0171000Y0196000D01*
X0171000Y0209750D01*
X0186000Y0224750D01*
X0186000Y0236000D01*
X0196000Y0236000D02*
X0196000Y0231000D01*
X0181000Y0216000D01*
X0181000Y0187250D01*
X0176000Y0182250D01*
X0176000Y0154750D01*
X0171000Y0161000D02*
X0171000Y0186000D01*
X0176000Y0191000D01*
X0181000Y0183500D02*
X0186000Y0188500D01*
X0186000Y0191000D01*
X0181000Y0183500D02*
X0181000Y0161000D01*
X0191000Y0134750D02*
X0191000Y0127250D01*
X0192250Y0126000D01*
X0192250Y0123500D01*
X0196000Y0122250D02*
X0196000Y0131000D01*
X0201000Y0123500D02*
X0206000Y0128500D01*
X0206000Y0131000D01*
X0201000Y0123500D02*
X0201000Y0101000D01*
X0197250Y0093500D02*
X0197250Y0077250D01*
X0196000Y0076000D01*
X0196000Y0072250D02*
X0189750Y0072250D01*
X0196000Y0072250D02*
X0202250Y0066000D01*
X0197250Y0066000D02*
X0191000Y0059750D01*
X0169750Y0059750D01*
X0167250Y0062250D01*
X0167250Y0064750D01*
X0174750Y0072250D01*
X0174750Y0082250D01*
X0172250Y0084750D01*
X0168500Y0084750D01*
X0149750Y0066000D01*
X0142250Y0066000D01*
X0137250Y0066000D02*
X0146000Y0074750D01*
X0146000Y0075094D01*
X0149750Y0079750D02*
X0139750Y0079750D01*
X0124750Y0064750D01*
X0124750Y0059750D01*
X0121000Y0056000D01*
X0112890Y0056000D01*
X0112890Y0051000D02*
X0107250Y0051000D01*
X0102250Y0046000D01*
X0107250Y0046000D02*
X0099750Y0038500D01*
X0096000Y0042250D02*
X0096000Y0049750D01*
X0098500Y0052250D01*
X0097250Y0056000D02*
X0104750Y0056000D01*
X0107250Y0053500D01*
X0118500Y0053500D01*
X0119750Y0052250D01*
X0119750Y0044750D01*
X0124750Y0044750D01*
X0126000Y0046000D01*
X0131000Y0046000D01*
X0134750Y0049750D02*
X0124750Y0049750D01*
X0123500Y0048500D01*
X0123500Y0053500D02*
X0131000Y0053500D01*
X0121000Y0061000D02*
X0118500Y0063500D01*
X0102250Y0063500D01*
X0098500Y0067250D01*
X0098500Y0078500D01*
X0093500Y0083500D01*
X0093500Y0089750D01*
X0086000Y0093500D02*
X0091000Y0098500D01*
X0086000Y0093500D02*
X0086000Y0072890D01*
X0096000Y0072890D02*
X0096000Y0069750D01*
X0086000Y0059750D01*
X0081000Y0059750D01*
X0081000Y0056000D01*
X0077250Y0052250D01*
X0077250Y0046000D01*
X0098500Y0024750D01*
X0098500Y0007250D01*
X0079750Y0007250D01*
X0074750Y0012250D01*
X0061000Y0012250D01*
X0061000Y0019750D01*
X0061000Y0012250D02*
X0041000Y0012250D01*
X0041000Y0012260D01*
X0041000Y0019740D02*
X0041000Y0026000D01*
X0042250Y0033500D02*
X0031000Y0022250D01*
X0031000Y0013500D01*
X0053500Y0036000D02*
X0069110Y0036000D01*
X0074750Y0028500D02*
X0074750Y0048500D01*
X0063500Y0048500D01*
X0046000Y0066000D01*
X0057250Y0066000D02*
X0057250Y0064750D01*
X0066000Y0056000D01*
X0069110Y0056000D01*
X0079750Y0051000D02*
X0082250Y0053500D01*
X0087250Y0053500D01*
X0088500Y0052250D01*
X0093500Y0052250D02*
X0097250Y0056000D01*
X0107250Y0046000D02*
X0112890Y0046000D01*
X0112890Y0041000D02*
X0116000Y0041000D01*
X0119750Y0044750D01*
X0112890Y0036000D02*
X0137250Y0036000D01*
X0153500Y0052250D01*
X0158500Y0052250D02*
X0129750Y0023500D01*
X0104750Y0023500D01*
X0104750Y0028500D01*
X0083500Y0049750D01*
X0079750Y0051000D02*
X0079750Y0048500D01*
X0089750Y0038500D01*
X0083500Y0027250D02*
X0087250Y0023500D01*
X0088500Y0024750D01*
X0093500Y0024750D01*
X0096000Y0022250D01*
X0096000Y0019110D01*
X0101000Y0019110D02*
X0101000Y0016000D01*
X0104750Y0012250D01*
X0124750Y0012250D01*
X0129750Y0017250D01*
X0159750Y0017250D01*
X0172250Y0029750D01*
X0176000Y0018500D02*
X0171000Y0013500D01*
X0131000Y0013500D01*
X0131000Y0007250D01*
X0098500Y0007250D01*
X0106000Y0019110D02*
X0106000Y0019750D01*
X0104750Y0021000D01*
X0104750Y0023500D01*
X0109750Y0026000D02*
X0107250Y0028500D01*
X0107250Y0029750D01*
X0106000Y0031000D01*
X0106000Y0038500D01*
X0112890Y0031000D02*
X0126000Y0031000D01*
X0129750Y0021000D02*
X0146000Y0021000D01*
X0146000Y0021906D01*
X0146000Y0022250D01*
X0169750Y0046000D01*
X0169750Y0054750D01*
X0168500Y0056000D01*
X0181000Y0056000D01*
X0183500Y0053500D01*
X0183500Y0046000D01*
X0181000Y0043500D01*
X0181000Y0042250D01*
X0181000Y0018500D01*
X0176000Y0018500D02*
X0176000Y0042250D01*
X0179750Y0046000D01*
X0179750Y0052250D01*
X0171000Y0063500D02*
X0178500Y0071000D01*
X0183500Y0071000D02*
X0183500Y0087250D01*
X0176000Y0094750D01*
X0174750Y0087250D02*
X0157250Y0087250D01*
X0157250Y0096000D01*
X0156000Y0097250D01*
X0161000Y0101000D02*
X0159750Y0102250D01*
X0159750Y0118500D01*
X0166000Y0124750D01*
X0166000Y0131000D01*
X0171000Y0126000D02*
X0176000Y0131000D01*
X0171000Y0126000D02*
X0171000Y0101000D01*
X0181000Y0101000D02*
X0181000Y0122250D01*
X0188500Y0114750D02*
X0196000Y0122250D01*
X0188500Y0114750D02*
X0188500Y0108500D01*
X0191000Y0106000D01*
X0191000Y0101000D01*
X0174750Y0087250D02*
X0177250Y0084750D01*
X0171000Y0081000D02*
X0171000Y0072250D01*
X0166000Y0067250D01*
X0161000Y0072250D01*
X0166000Y0067250D02*
X0164750Y0066000D01*
X0164750Y0059750D01*
X0168500Y0056000D01*
X0164750Y0054750D02*
X0164750Y0048500D01*
X0147250Y0031000D01*
X0136000Y0024750D02*
X0162250Y0051000D01*
X0162250Y0053500D01*
X0159750Y0056000D01*
X0147250Y0056000D01*
X0137250Y0066000D01*
X0131000Y0076000D02*
X0136000Y0081000D01*
X0136000Y0104750D01*
X0137250Y0106000D01*
X0137250Y0122250D01*
X0141000Y0126000D02*
X0146000Y0131000D01*
X0151000Y0127250D02*
X0151000Y0142250D01*
X0156000Y0154750D02*
X0156000Y0182250D01*
X0161000Y0187250D01*
X0161000Y0194750D01*
X0166000Y0199750D01*
X0166000Y0206000D01*
X0156000Y0191000D02*
X0153500Y0188500D01*
X0153500Y0168500D01*
X0151000Y0166000D01*
X0151000Y0161000D01*
X0141000Y0161000D02*
X0141000Y0186000D01*
X0146000Y0191000D01*
X0161000Y0183500D02*
X0161000Y0161000D01*
X0151000Y0127250D02*
X0146000Y0122250D01*
X0146000Y0086906D01*
X0149750Y0079750D02*
X0157250Y0087250D01*
X0156000Y0066000D02*
X0156000Y0063500D01*
X0164750Y0054750D01*
X0181000Y0009750D02*
X0198500Y0009750D01*
X0214750Y0026000D01*
X0214750Y0049750D01*
X0218500Y0053500D02*
X0223500Y0058500D01*
X0218500Y0053500D02*
X0218500Y0024750D01*
X0204750Y0021000D02*
X0203500Y0022250D01*
X0203500Y0053500D01*
X0219750Y0069750D01*
X0219750Y0089750D01*
X0227250Y0097250D01*
X0223500Y0097250D02*
X0206000Y0079750D01*
X0206000Y0076000D01*
X0201000Y0076000D02*
X0211000Y0066000D01*
X0223500Y0067250D02*
X0208500Y0052250D01*
X0223500Y0067250D02*
X0223500Y0081000D01*
X0223500Y0097250D02*
X0223500Y0212250D01*
X0221000Y0209750D02*
X0221000Y0179750D01*
X0206000Y0164750D01*
X0211000Y0161000D02*
X0211000Y0158500D01*
X0221000Y0148500D01*
X0221000Y0102250D01*
X0211000Y0092250D01*
X0211000Y0101000D02*
X0211000Y0126000D01*
X0216000Y0131000D01*
X0221000Y0209750D02*
X0213500Y0217250D01*
X0166000Y0236000D02*
X0158500Y0228500D01*
X0154750Y0228500D01*
X0151000Y0232250D01*
X0151000Y0279750D01*
X0136000Y0279750D01*
X0136000Y0279740D01*
X0136000Y0272260D02*
X0136000Y0272250D01*
X0123500Y0272250D01*
X0118500Y0267250D01*
X0113500Y0267250D01*
X0106000Y0274750D01*
X0106000Y0287250D01*
X0096000Y0297250D01*
X0096000Y0297260D01*
X0096000Y0303500D02*
X0096000Y0304740D01*
X0096000Y0303500D02*
X0114750Y0303500D01*
X0116000Y0304740D01*
X0116000Y0304750D01*
X0114750Y0303500D01*
X0111000Y0299750D01*
X0111000Y0277250D01*
X0114750Y0273500D01*
X0116000Y0273500D01*
X0116000Y0272260D01*
X0116000Y0279740D02*
X0116000Y0279750D01*
X0129750Y0279750D01*
X0143500Y0289750D02*
X0136000Y0297250D01*
X0136000Y0297260D01*
X0136000Y0297250D02*
X0116000Y0297250D01*
X0116000Y0297260D01*
X0089750Y0266000D02*
X0069750Y0246000D01*
X0076000Y0236000D02*
X0071000Y0231000D01*
X0044750Y0231000D01*
X0044500Y0230843D01*
X0036000Y0231000D02*
X0021000Y0231000D01*
X0021000Y0230843D01*
X0014750Y0224750D02*
X0014750Y0254750D01*
X0028500Y0268500D01*
X0037250Y0268500D01*
X0044750Y0276000D01*
X0045500Y0276000D01*
X0054750Y0276000D01*
X0076000Y0297250D01*
X0081000Y0297250D01*
X0101000Y0237250D02*
X0101000Y0234750D01*
X0097250Y0231000D01*
X0081000Y0234750D02*
X0076000Y0229750D01*
X0076000Y0206000D01*
X0076000Y0191000D02*
X0076000Y0166000D01*
X0071000Y0161000D01*
X0069750Y0159750D01*
X0069750Y0142250D01*
X0066000Y0143500D02*
X0064750Y0142250D01*
X0066000Y0143500D02*
X0066000Y0164750D01*
X0071000Y0169750D01*
X0066000Y0177250D02*
X0066000Y0191000D01*
X0062250Y0178500D02*
X0056000Y0172250D01*
X0056000Y0149750D01*
X0061000Y0149750D02*
X0061000Y0161000D01*
X0061000Y0172250D01*
X0066000Y0177250D01*
X0051000Y0183500D02*
X0051000Y0161000D01*
X0056000Y0131000D02*
X0056000Y0128500D01*
X0051000Y0123500D01*
X0051000Y0101000D01*
X0056000Y0097250D02*
X0063500Y0089750D01*
X0056000Y0091000D02*
X0056000Y0086000D01*
X0066000Y0076000D01*
X0056000Y0097250D02*
X0056000Y0104750D01*
X0051000Y0051000D02*
X0051000Y0043500D01*
X0074750Y0028500D02*
X0076000Y0027250D01*
X0076000Y0019110D01*
X0081000Y0019110D02*
X0081000Y0011000D01*
X0081000Y0019110D02*
X0081000Y0019750D01*
X0083500Y0019750D01*
X0087250Y0023500D01*
X0086000Y0019750D02*
X0083500Y0019750D01*
X0086000Y0019750D02*
X0086000Y0019110D01*
X0109750Y0026000D02*
X0112890Y0026000D01*
X0119750Y0018500D02*
X0127250Y0018500D01*
X0129750Y0021000D01*
X0131000Y0007250D02*
X0143500Y0007250D01*
X0146000Y0009750D01*
X0146000Y0010094D01*
X0121000Y0066000D02*
X0131000Y0076000D01*
X0121000Y0101000D02*
X0121000Y0112250D01*
X0119750Y0113500D01*
X0119750Y0124750D01*
X0126000Y0131000D01*
X0127250Y0118500D02*
X0127250Y0108500D01*
X0123500Y0107250D02*
X0126000Y0104750D01*
X0123500Y0107250D02*
X0123500Y0114750D01*
X0141000Y0126000D02*
X0141000Y0101000D01*
X0197250Y0022250D02*
X0203500Y0022250D01*
X0116000Y0209750D02*
X0119750Y0213500D01*
X0136000Y0218500D02*
X0136000Y0236000D01*
X0136000Y0247260D02*
X0136000Y0248500D01*
X0147250Y0248500D01*
X0156000Y0248500D02*
X0156000Y0247260D01*
X0156000Y0248500D02*
X0157250Y0248500D01*
X0163500Y0254750D01*
X0163500Y0284750D01*
X0161000Y0282250D02*
X0161000Y0277250D01*
X0156000Y0272250D01*
X0156000Y0272260D01*
X0156000Y0272250D02*
X0156000Y0254740D01*
X0146000Y0236000D02*
X0146000Y0227250D01*
X0136000Y0254740D02*
X0136000Y0254750D01*
X0131000Y0254750D01*
X0151000Y0279750D02*
X0156000Y0279750D01*
X0156000Y0279740D01*
X0161000Y0282250D02*
X0156000Y0287250D01*
X0156000Y0297260D01*
X0044500Y0211157D02*
X0043500Y0212250D01*
X0021000Y0212250D01*
X0021000Y0211157D01*
X0021000Y0212250D02*
X0021000Y0218500D01*
X0014750Y0224750D01*
X0012250Y0194750D02*
X0012250Y0274750D01*
X0011000Y0276000D01*
X0021000Y0276000D02*
X0028500Y0268500D01*
D20*
X0036000Y0231000D03*
X0012250Y0194750D03*
X0026000Y0167250D03*
X0039750Y0182250D03*
X0062250Y0178500D03*
X0071000Y0169750D03*
X0061000Y0149750D03*
X0056000Y0149750D03*
X0064750Y0142250D03*
X0069750Y0142250D03*
X0086000Y0149750D03*
X0096000Y0142250D03*
X0107250Y0139750D03*
X0112250Y0141000D03*
X0118500Y0144750D03*
X0112250Y0149750D03*
X0096000Y0167250D03*
X0112250Y0206000D03*
X0119750Y0213500D03*
X0132250Y0221000D03*
X0144750Y0223500D03*
X0147250Y0248500D03*
X0129750Y0279750D03*
X0143500Y0289750D03*
X0163500Y0284750D03*
X0213500Y0217250D03*
X0223500Y0212250D03*
X0201000Y0169750D03*
X0186000Y0148500D03*
X0178500Y0142250D03*
X0176000Y0154750D03*
X0161000Y0142250D03*
X0156000Y0154750D03*
X0136000Y0167250D03*
X0133500Y0144750D03*
X0131000Y0137250D03*
X0137250Y0122250D03*
X0127250Y0118500D03*
X0123500Y0114750D03*
X0127250Y0108500D03*
X0127250Y0093500D03*
X0128500Y0086000D03*
X0131000Y0076000D03*
X0137250Y0066000D03*
X0142250Y0066000D03*
X0153500Y0052250D03*
X0158500Y0052250D03*
X0156000Y0066000D03*
X0161000Y0072250D03*
X0171000Y0063500D03*
X0178500Y0071000D03*
X0183500Y0071000D03*
X0191000Y0076000D03*
X0196000Y0076000D03*
X0201000Y0076000D03*
X0206000Y0076000D03*
X0202250Y0066000D03*
X0197250Y0066000D03*
X0208500Y0052250D03*
X0214750Y0049750D03*
X0223500Y0058500D03*
X0211000Y0066000D03*
X0223500Y0081000D03*
X0227250Y0097250D03*
X0211000Y0092250D03*
X0197250Y0093500D03*
X0197250Y0108500D03*
X0192250Y0109750D03*
X0192250Y0123500D03*
X0181000Y0122250D03*
X0197250Y0143500D03*
X0166000Y0182250D03*
X0132250Y0198500D03*
X0102250Y0276000D03*
X0089750Y0293500D03*
X0069750Y0246000D03*
X0019750Y0142250D03*
X0016000Y0129750D03*
X0019750Y0109750D03*
X0032250Y0113500D03*
X0042250Y0123500D03*
X0054750Y0108500D03*
X0057250Y0113500D03*
X0071000Y0112250D03*
X0081000Y0109750D03*
X0081000Y0114750D03*
X0077250Y0093500D03*
X0077250Y0086000D03*
X0076000Y0081000D03*
X0066000Y0076000D03*
X0057250Y0066000D03*
X0051000Y0051000D03*
X0051000Y0043500D03*
X0054750Y0039750D03*
X0042250Y0033500D03*
X0041000Y0026000D03*
X0031000Y0013500D03*
X0022250Y0028500D03*
X0039750Y0066000D03*
X0031000Y0079750D03*
X0029750Y0089750D03*
X0037250Y0091000D03*
X0056000Y0091000D03*
X0063500Y0089750D03*
X0081000Y0059750D03*
X0083500Y0049750D03*
X0088500Y0052250D03*
X0093500Y0052250D03*
X0098500Y0052250D03*
X0102250Y0046000D03*
X0096000Y0042250D03*
X0099750Y0038500D03*
X0106000Y0038500D03*
X0119750Y0018500D03*
X0126000Y0031000D03*
X0136000Y0024750D03*
X0131000Y0013500D03*
X0147250Y0031000D03*
X0134750Y0049750D03*
X0131000Y0046000D03*
X0131000Y0053500D03*
X0123500Y0053500D03*
X0123500Y0048500D03*
X0121000Y0061000D03*
X0121000Y0066000D03*
X0111000Y0076000D03*
X0114750Y0091000D03*
X0106000Y0091000D03*
X0101000Y0092250D03*
X0093500Y0089750D03*
X0101000Y0118500D03*
X0159750Y0118500D03*
X0176000Y0094750D03*
X0177250Y0084750D03*
X0171000Y0081000D03*
X0179750Y0052250D03*
X0181000Y0042250D03*
X0172250Y0029750D03*
X0181000Y0018500D03*
X0181000Y0009750D03*
X0171000Y0013500D03*
X0197250Y0022250D03*
X0204750Y0021000D03*
X0218500Y0024750D03*
X0089750Y0038500D03*
X0083500Y0027250D03*
X0081000Y0011000D03*
X0061000Y0019750D03*
M02*
