G75*
%MOIN*%
%OFA0B0*%
%FSLAX25Y25*%
%IPPOS*%
%LPD*%
%AMOC8*
5,1,8,0,0,1.08239X$1,22.5*
%
%ADD10R,0.10249X0.07099*%
%ADD11C,0.06000*%
%ADD12R,0.03400X0.08800*%
%ADD13C,0.06000*%
%ADD14C,0.06800*%
%ADD15R,0.06706X0.05918*%
%ADD16R,0.07099X0.05918*%
%ADD17R,0.07887X0.06312*%
%ADD18OC8,0.06000*%
%ADD19R,0.05918X0.06706*%
D10*
X0041000Y0026019D03*
X0041000Y0037831D03*
X0076000Y0271019D03*
X0076000Y0282831D03*
X0076000Y0301019D03*
X0076000Y0312831D03*
X0176000Y0312831D03*
X0176000Y0301019D03*
X0176000Y0282831D03*
X0176000Y0271019D03*
D11*
X0176000Y0244525D02*
X0176000Y0239325D01*
X0166000Y0239325D02*
X0166000Y0244525D01*
X0156000Y0244525D02*
X0156000Y0239325D01*
X0146000Y0239325D02*
X0146000Y0244525D01*
X0136000Y0244525D02*
X0136000Y0239325D01*
X0136000Y0214525D02*
X0136000Y0209325D01*
X0146000Y0209325D02*
X0146000Y0214525D01*
X0156000Y0214525D02*
X0156000Y0209325D01*
X0166000Y0209325D02*
X0166000Y0214525D01*
X0176000Y0214525D02*
X0176000Y0209325D01*
X0176000Y0194525D02*
X0176000Y0189325D01*
X0171000Y0179525D02*
X0171000Y0174325D01*
X0161000Y0174325D02*
X0161000Y0179525D01*
X0156000Y0189325D02*
X0156000Y0194525D01*
X0146000Y0194525D02*
X0146000Y0189325D01*
X0141000Y0179525D02*
X0141000Y0174325D01*
X0131000Y0174325D02*
X0131000Y0179525D01*
X0126000Y0189325D02*
X0126000Y0194525D01*
X0116000Y0194525D02*
X0116000Y0189325D01*
X0111000Y0179525D02*
X0111000Y0174325D01*
X0101000Y0174325D02*
X0101000Y0179525D01*
X0096000Y0189325D02*
X0096000Y0194525D01*
X0086000Y0194525D02*
X0086000Y0189325D01*
X0081000Y0179525D02*
X0081000Y0174325D01*
X0091000Y0174325D02*
X0091000Y0179525D01*
X0106000Y0189325D02*
X0106000Y0194525D01*
X0121000Y0179525D02*
X0121000Y0174325D01*
X0136000Y0189325D02*
X0136000Y0194525D01*
X0151000Y0179525D02*
X0151000Y0174325D01*
X0166000Y0189325D02*
X0166000Y0194525D01*
X0181000Y0179525D02*
X0181000Y0174325D01*
X0191000Y0174325D02*
X0191000Y0179525D01*
X0186000Y0189325D02*
X0186000Y0194525D01*
X0196000Y0194525D02*
X0196000Y0189325D01*
X0201000Y0179525D02*
X0201000Y0174325D01*
X0211000Y0174325D02*
X0211000Y0179525D01*
X0206000Y0189325D02*
X0206000Y0194525D01*
X0216000Y0194525D02*
X0216000Y0189325D01*
X0216000Y0209325D02*
X0216000Y0214525D01*
X0206000Y0214525D02*
X0206000Y0209325D01*
X0196000Y0209325D02*
X0196000Y0214525D01*
X0186000Y0214525D02*
X0186000Y0209325D01*
X0186000Y0239325D02*
X0186000Y0244525D01*
X0196000Y0244525D02*
X0196000Y0239325D01*
X0206000Y0239325D02*
X0206000Y0244525D01*
X0216000Y0244525D02*
X0216000Y0239325D01*
X0216000Y0134525D02*
X0216000Y0129325D01*
X0211000Y0119525D02*
X0211000Y0114325D01*
X0201000Y0114325D02*
X0201000Y0119525D01*
X0196000Y0129325D02*
X0196000Y0134525D01*
X0186000Y0134525D02*
X0186000Y0129325D01*
X0181000Y0119525D02*
X0181000Y0114325D01*
X0191000Y0114325D02*
X0191000Y0119525D01*
X0206000Y0129325D02*
X0206000Y0134525D01*
X0176000Y0134525D02*
X0176000Y0129325D01*
X0171000Y0119525D02*
X0171000Y0114325D01*
X0161000Y0114325D02*
X0161000Y0119525D01*
X0156000Y0129325D02*
X0156000Y0134525D01*
X0146000Y0134525D02*
X0146000Y0129325D01*
X0141000Y0119525D02*
X0141000Y0114325D01*
X0131000Y0114325D02*
X0131000Y0119525D01*
X0126000Y0129325D02*
X0126000Y0134525D01*
X0116000Y0134525D02*
X0116000Y0129325D01*
X0111000Y0119525D02*
X0111000Y0114325D01*
X0101000Y0114325D02*
X0101000Y0119525D01*
X0096000Y0129325D02*
X0096000Y0134525D01*
X0086000Y0134525D02*
X0086000Y0129325D01*
X0081000Y0119525D02*
X0081000Y0114325D01*
X0091000Y0114325D02*
X0091000Y0119525D01*
X0106000Y0129325D02*
X0106000Y0134525D01*
X0121000Y0119525D02*
X0121000Y0114325D01*
X0136000Y0129325D02*
X0136000Y0134525D01*
X0151000Y0119525D02*
X0151000Y0114325D01*
X0166000Y0129325D02*
X0166000Y0134525D01*
X0076000Y0134525D02*
X0076000Y0129325D01*
X0071000Y0119525D02*
X0071000Y0114325D01*
X0061000Y0114325D02*
X0061000Y0119525D01*
X0056000Y0129325D02*
X0056000Y0134525D01*
X0046000Y0134525D02*
X0046000Y0129325D01*
X0041000Y0119525D02*
X0041000Y0114325D01*
X0031000Y0114325D02*
X0031000Y0119525D01*
X0026000Y0129325D02*
X0026000Y0134525D01*
X0036000Y0134525D02*
X0036000Y0129325D01*
X0051000Y0119525D02*
X0051000Y0114325D01*
X0066000Y0129325D02*
X0066000Y0134525D01*
X0061000Y0174325D02*
X0061000Y0179525D01*
X0056000Y0189325D02*
X0056000Y0194525D01*
X0046000Y0194525D02*
X0046000Y0189325D01*
X0041000Y0179525D02*
X0041000Y0174325D01*
X0031000Y0174325D02*
X0031000Y0179525D01*
X0026000Y0189325D02*
X0026000Y0194525D01*
X0036000Y0194525D02*
X0036000Y0189325D01*
X0051000Y0179525D02*
X0051000Y0174325D01*
X0066000Y0189325D02*
X0066000Y0194525D01*
X0076000Y0194525D02*
X0076000Y0189325D01*
X0071000Y0179525D02*
X0071000Y0174325D01*
X0021000Y0174325D02*
X0021000Y0179525D01*
X0021000Y0119525D02*
X0021000Y0114325D01*
D12*
X0036000Y0094025D03*
X0041000Y0094025D03*
X0046000Y0094025D03*
X0051000Y0094025D03*
X0056000Y0094025D03*
X0061000Y0094025D03*
X0066000Y0094025D03*
X0066000Y0069825D03*
X0061000Y0069825D03*
X0056000Y0069825D03*
X0051000Y0069825D03*
X0046000Y0069825D03*
X0041000Y0069825D03*
X0036000Y0069825D03*
X0086000Y0069825D03*
X0091000Y0069825D03*
X0096000Y0069825D03*
X0101000Y0069825D03*
X0106000Y0069825D03*
X0111000Y0069825D03*
X0116000Y0069825D03*
X0116000Y0094025D03*
X0111000Y0094025D03*
X0106000Y0094025D03*
X0101000Y0094025D03*
X0096000Y0094025D03*
X0091000Y0094025D03*
X0086000Y0094025D03*
X0116000Y0044025D03*
X0121000Y0044025D03*
X0126000Y0044025D03*
X0131000Y0044025D03*
X0136000Y0044025D03*
X0141000Y0044025D03*
X0146000Y0044025D03*
X0146000Y0019825D03*
X0141000Y0019825D03*
X0136000Y0019825D03*
X0131000Y0019825D03*
X0126000Y0019825D03*
X0121000Y0019825D03*
X0116000Y0019825D03*
X0136000Y0069825D03*
X0141000Y0069825D03*
X0146000Y0069825D03*
X0151000Y0069825D03*
X0156000Y0069825D03*
X0161000Y0069825D03*
X0166000Y0069825D03*
X0166000Y0094025D03*
X0161000Y0094025D03*
X0156000Y0094025D03*
X0151000Y0094025D03*
X0146000Y0094025D03*
X0141000Y0094025D03*
X0136000Y0094025D03*
X0166000Y0044025D03*
X0171000Y0044025D03*
X0176000Y0044025D03*
X0181000Y0044025D03*
X0186000Y0044025D03*
X0191000Y0044025D03*
X0196000Y0044025D03*
X0196000Y0019825D03*
X0191000Y0019825D03*
X0186000Y0019825D03*
X0181000Y0019825D03*
X0176000Y0019825D03*
X0171000Y0019825D03*
X0166000Y0019825D03*
X0186000Y0069825D03*
X0191000Y0069825D03*
X0196000Y0069825D03*
X0201000Y0069825D03*
X0206000Y0069825D03*
X0211000Y0069825D03*
X0216000Y0069825D03*
X0216000Y0094025D03*
X0211000Y0094025D03*
X0206000Y0094025D03*
X0201000Y0094025D03*
X0196000Y0094025D03*
X0191000Y0094025D03*
X0186000Y0094025D03*
D13*
X0111000Y0211925D03*
X0101000Y0211925D03*
X0091000Y0211925D03*
X0081000Y0211925D03*
X0081000Y0241925D03*
X0091000Y0241925D03*
X0101000Y0241925D03*
X0111000Y0241925D03*
D14*
X0012000Y0049925D02*
X0012000Y0043925D01*
X0022000Y0043925D02*
X0022000Y0049925D01*
X0021000Y0278925D02*
X0021000Y0284925D01*
X0011000Y0284925D02*
X0011000Y0278925D01*
X0031000Y0278925D02*
X0031000Y0284925D01*
X0206000Y0284925D02*
X0206000Y0278925D01*
X0216000Y0278925D02*
X0216000Y0284925D01*
X0226000Y0284925D02*
X0226000Y0278925D01*
X0225000Y0049925D02*
X0225000Y0043925D01*
X0215000Y0043925D02*
X0215000Y0049925D01*
D15*
X0061000Y0045665D03*
X0061000Y0038185D03*
X0061000Y0025665D03*
X0061000Y0018185D03*
X0056000Y0248185D03*
X0056000Y0255665D03*
X0036000Y0255665D03*
X0036000Y0248185D03*
X0056000Y0308185D03*
X0056000Y0315665D03*
D16*
X0081000Y0035665D03*
X0081000Y0028185D03*
D17*
X0099000Y0025232D03*
X0099000Y0038618D03*
D18*
X0019000Y0076925D03*
X0011500Y0081925D03*
X0019000Y0086925D03*
X0053000Y0276925D03*
X0045500Y0281925D03*
X0053000Y0286925D03*
D19*
X0092260Y0231925D03*
X0099740Y0231925D03*
X0089740Y0221925D03*
X0082260Y0221925D03*
X0147260Y0226925D03*
X0154740Y0226925D03*
M02*
