%
M48
M72
T01C0.02400
T02C0.03200
T03C0.04000
%
T01
X21625Y30250
X28500Y37125
X32875Y40875
X37875Y51500
X24750Y63375
X19750Y65250
X16625Y53375
X11000Y75875
X14750Y93375
X19750Y100250
X26625Y104000
X24750Y85875
X34750Y85875
X34125Y78375
X39125Y78375
X44125Y78375
X57250Y81500
X62250Y83375
X66000Y86500
X71000Y93375
X74750Y97750
X66625Y100875
X70375Y107750
X79125Y87125
X82875Y75875
X94750Y83375
X97250Y79000
X106625Y86500
X102875Y100875
X112250Y100875
X121000Y102750
X125375Y110250
X131625Y104000
X122250Y124625
X116000Y122125
X126625Y144625
X122875Y147750
X117875Y147750
X110375Y147125
X100375Y160250
X81625Y165875
X91000Y124625
X51625Y154625
X41625Y150875
X27250Y154625
X18500Y143375
X9125Y168375
X12875Y217125
X42250Y247750
X84125Y307750
X102250Y287125
X122250Y282125
X127250Y269000
X142250Y274625
X149750Y282125
X153500Y301500
X149750Y305875
X164125Y282125
X167875Y274625
X174125Y224000
X156000Y199625
X124125Y217750
X116000Y199625
X109750Y203375
X97250Y207125
X98500Y252125
X102250Y255875
X85375Y254625
X159750Y156500
X186625Y149000
X190375Y164000
X207875Y203375
X192875Y107750
X186625Y104000
X175375Y97125
X162875Y79000
X160375Y86500
X154750Y79000
X169750Y62750
X179750Y62750
X174125Y50875
X172875Y36500
X176625Y30250
X188500Y26500
X200375Y22750
X206625Y32125
X212250Y32750
X216000Y36500
X220375Y30875
X216625Y22125
X196000Y57125
X190375Y62125
X199125Y77750
X196000Y82750
X191625Y86500
X202875Y84625
X209750Y77750
X215375Y86500
X223500Y82750
X220375Y74000
X206000Y62125
X216000Y100875
X223500Y105875
X159125Y19000
X155375Y15250
X151625Y26500
X146000Y28375
X155375Y34625
X155375Y41500
X155375Y46500
X140375Y56500
X140375Y61500
X133500Y62750
X133500Y55250
X133500Y50250
X124125Y67125
X134125Y77750
X101000Y32125
X96000Y54625
X91000Y54625
X84125Y60250
X79125Y60250
X75375Y49000
X75375Y40875
X67250Y50875
X58500Y60250
X54750Y48375
X54750Y32125
X54750Y19000
X54750Y14000
X67250Y28375
X74750Y28375
X76000Y22750
X69125Y9625
X38500Y19625
X35375Y15875
X142875Y12125
X171000Y12125
X181000Y12125
X188500Y9625
T02
X191000Y116500
X181000Y116500
X171000Y116500
X161000Y116500
X151000Y116500
X141000Y116500
X131000Y116500
X121000Y116500
X111000Y116500
X101000Y116500
X91000Y116500
X81000Y116500
X71000Y116500
X61000Y116500
X51000Y116500
X41000Y116500
X31000Y116500
X21000Y116500
X26000Y131500
X36000Y131500
X46000Y131500
X56000Y131500
X66000Y131500
X76000Y131500
X86000Y131500
X96000Y131500
X106000Y131500
X116000Y131500
X126000Y131500
X136000Y131500
X146000Y131500
X156000Y131500
X166000Y131500
X176000Y131500
X186000Y131500
X196000Y131500
X206000Y131500
X216000Y131500
X211000Y116500
X201000Y116500
X201000Y176500
X191000Y176500
X181000Y176500
X171000Y176500
X161000Y176500
X151000Y176500
X141000Y176500
X131000Y176500
X121000Y176500
X111000Y176500
X101000Y176500
X91000Y176500
X81000Y176500
X71000Y176500
X61000Y176500
X51000Y176500
X41000Y176500
X31000Y176500
X21000Y176500
X26000Y191500
X36000Y191500
X46000Y191500
X56000Y191500
X66000Y191500
X76000Y191500
X86000Y191500
X96000Y191500
X106000Y191500
X116000Y191500
X126000Y191500
X136000Y191500
X146000Y191500
X156000Y191500
X166000Y191500
X176000Y191500
X186000Y191500
X196000Y191500
X206000Y191500
X216000Y191500
X211000Y176500
X206000Y211500
X196000Y211500
X186000Y211500
X176000Y211500
X166000Y211500
X156000Y211500
X146000Y211500
X136000Y211500
X136000Y241500
X146000Y241500
X156000Y241500
X166000Y241500
X176000Y241500
X186000Y241500
X196000Y241500
X206000Y241500
X216000Y241500
X216000Y211500
X111000Y211500
X101000Y211500
X91000Y211500
X81000Y211500
X81000Y241500
X91000Y241500
X101000Y241500
X111000Y241500
X53000Y276500
X45500Y281500
X53000Y286500
X19000Y86500
X19000Y76500
X11500Y81500
T03
X12000Y46500
X22000Y46500
X21000Y281500
X11000Y281500
X31000Y281500
X206000Y281500
X216000Y281500
X226000Y281500
X226000Y46500
X216000Y46500
X206000Y46500
M30
