G75*
%MOIN*%
%OFA0B0*%
%FSLAX25Y25*%
%IPPOS*%
%LPD*%
%AMOC8*
5,1,8,0,0,1.08239X$1,22.5*
%
%ADD10R,0.09449X0.06299*%
%ADD11C,0.05200*%
%ADD12R,0.02600X0.08000*%
%ADD13C,0.05200*%
%ADD14C,0.06000*%
%ADD15R,0.05906X0.05118*%
%ADD16R,0.06299X0.05118*%
%ADD17R,0.07087X0.05512*%
%ADD18OC8,0.05200*%
%ADD19R,0.05118X0.05906*%
%ADD20C,0.01000*%
%ADD21C,0.04000*%
D10*
X0041000Y0025594D03*
X0041000Y0037406D03*
X0076000Y0275594D03*
X0076000Y0287406D03*
X0076000Y0305594D03*
X0076000Y0317406D03*
X0176000Y0317406D03*
X0176000Y0305594D03*
X0176000Y0287406D03*
X0176000Y0275594D03*
D11*
X0176000Y0244100D02*
X0176000Y0238900D01*
X0166000Y0238900D02*
X0166000Y0244100D01*
X0156000Y0244100D02*
X0156000Y0238900D01*
X0146000Y0238900D02*
X0146000Y0244100D01*
X0136000Y0244100D02*
X0136000Y0238900D01*
X0136000Y0214100D02*
X0136000Y0208900D01*
X0146000Y0208900D02*
X0146000Y0214100D01*
X0156000Y0214100D02*
X0156000Y0208900D01*
X0156000Y0194100D02*
X0156000Y0188900D01*
X0151000Y0179100D02*
X0151000Y0173900D01*
X0141000Y0173900D02*
X0141000Y0179100D01*
X0136000Y0188900D02*
X0136000Y0194100D01*
X0126000Y0194100D02*
X0126000Y0188900D01*
X0121000Y0179100D02*
X0121000Y0173900D01*
X0131000Y0173900D02*
X0131000Y0179100D01*
X0146000Y0188900D02*
X0146000Y0194100D01*
X0161000Y0179100D02*
X0161000Y0173900D01*
X0166000Y0188900D02*
X0166000Y0194100D01*
X0176000Y0194100D02*
X0176000Y0188900D01*
X0171000Y0179100D02*
X0171000Y0173900D01*
X0181000Y0173900D02*
X0181000Y0179100D01*
X0186000Y0188900D02*
X0186000Y0194100D01*
X0196000Y0194100D02*
X0196000Y0188900D01*
X0191000Y0179100D02*
X0191000Y0173900D01*
X0201000Y0173900D02*
X0201000Y0179100D01*
X0206000Y0188900D02*
X0206000Y0194100D01*
X0206000Y0208900D02*
X0206000Y0214100D01*
X0196000Y0214100D02*
X0196000Y0208900D01*
X0186000Y0208900D02*
X0186000Y0214100D01*
X0176000Y0214100D02*
X0176000Y0208900D01*
X0166000Y0208900D02*
X0166000Y0214100D01*
X0186000Y0238900D02*
X0186000Y0244100D01*
X0196000Y0244100D02*
X0196000Y0238900D01*
X0206000Y0238900D02*
X0206000Y0244100D01*
X0216000Y0244100D02*
X0216000Y0238900D01*
X0216000Y0214100D02*
X0216000Y0208900D01*
X0216000Y0194100D02*
X0216000Y0188900D01*
X0211000Y0179100D02*
X0211000Y0173900D01*
X0206000Y0134100D02*
X0206000Y0128900D01*
X0201000Y0119100D02*
X0201000Y0113900D01*
X0191000Y0113900D02*
X0191000Y0119100D01*
X0186000Y0128900D02*
X0186000Y0134100D01*
X0176000Y0134100D02*
X0176000Y0128900D01*
X0171000Y0119100D02*
X0171000Y0113900D01*
X0181000Y0113900D02*
X0181000Y0119100D01*
X0166000Y0128900D02*
X0166000Y0134100D01*
X0161000Y0119100D02*
X0161000Y0113900D01*
X0151000Y0113900D02*
X0151000Y0119100D01*
X0146000Y0128900D02*
X0146000Y0134100D01*
X0136000Y0134100D02*
X0136000Y0128900D01*
X0131000Y0119100D02*
X0131000Y0113900D01*
X0121000Y0113900D02*
X0121000Y0119100D01*
X0116000Y0128900D02*
X0116000Y0134100D01*
X0106000Y0134100D02*
X0106000Y0128900D01*
X0101000Y0119100D02*
X0101000Y0113900D01*
X0091000Y0113900D02*
X0091000Y0119100D01*
X0086000Y0128900D02*
X0086000Y0134100D01*
X0076000Y0134100D02*
X0076000Y0128900D01*
X0071000Y0119100D02*
X0071000Y0113900D01*
X0061000Y0113900D02*
X0061000Y0119100D01*
X0056000Y0128900D02*
X0056000Y0134100D01*
X0046000Y0134100D02*
X0046000Y0128900D01*
X0041000Y0119100D02*
X0041000Y0113900D01*
X0031000Y0113900D02*
X0031000Y0119100D01*
X0026000Y0128900D02*
X0026000Y0134100D01*
X0021000Y0119100D02*
X0021000Y0113900D01*
X0036000Y0128900D02*
X0036000Y0134100D01*
X0051000Y0119100D02*
X0051000Y0113900D01*
X0066000Y0128900D02*
X0066000Y0134100D01*
X0081000Y0119100D02*
X0081000Y0113900D01*
X0096000Y0128900D02*
X0096000Y0134100D01*
X0111000Y0119100D02*
X0111000Y0113900D01*
X0126000Y0128900D02*
X0126000Y0134100D01*
X0141000Y0119100D02*
X0141000Y0113900D01*
X0156000Y0128900D02*
X0156000Y0134100D01*
X0196000Y0134100D02*
X0196000Y0128900D01*
X0211000Y0119100D02*
X0211000Y0113900D01*
X0216000Y0128900D02*
X0216000Y0134100D01*
X0116000Y0188900D02*
X0116000Y0194100D01*
X0106000Y0194100D02*
X0106000Y0188900D01*
X0101000Y0179100D02*
X0101000Y0173900D01*
X0091000Y0173900D02*
X0091000Y0179100D01*
X0086000Y0188900D02*
X0086000Y0194100D01*
X0076000Y0194100D02*
X0076000Y0188900D01*
X0071000Y0179100D02*
X0071000Y0173900D01*
X0061000Y0173900D02*
X0061000Y0179100D01*
X0056000Y0188900D02*
X0056000Y0194100D01*
X0046000Y0194100D02*
X0046000Y0188900D01*
X0041000Y0179100D02*
X0041000Y0173900D01*
X0031000Y0173900D02*
X0031000Y0179100D01*
X0026000Y0188900D02*
X0026000Y0194100D01*
X0036000Y0194100D02*
X0036000Y0188900D01*
X0051000Y0179100D02*
X0051000Y0173900D01*
X0066000Y0188900D02*
X0066000Y0194100D01*
X0081000Y0179100D02*
X0081000Y0173900D01*
X0096000Y0188900D02*
X0096000Y0194100D01*
X0111000Y0179100D02*
X0111000Y0173900D01*
X0021000Y0173900D02*
X0021000Y0179100D01*
D12*
X0036000Y0093600D03*
X0041000Y0093600D03*
X0046000Y0093600D03*
X0051000Y0093600D03*
X0056000Y0093600D03*
X0061000Y0093600D03*
X0066000Y0093600D03*
X0066000Y0069400D03*
X0061000Y0069400D03*
X0056000Y0069400D03*
X0051000Y0069400D03*
X0046000Y0069400D03*
X0041000Y0069400D03*
X0036000Y0069400D03*
X0086000Y0069400D03*
X0091000Y0069400D03*
X0096000Y0069400D03*
X0101000Y0069400D03*
X0106000Y0069400D03*
X0111000Y0069400D03*
X0116000Y0069400D03*
X0116000Y0093600D03*
X0111000Y0093600D03*
X0106000Y0093600D03*
X0101000Y0093600D03*
X0096000Y0093600D03*
X0091000Y0093600D03*
X0086000Y0093600D03*
X0116000Y0043600D03*
X0121000Y0043600D03*
X0126000Y0043600D03*
X0131000Y0043600D03*
X0136000Y0043600D03*
X0141000Y0043600D03*
X0146000Y0043600D03*
X0146000Y0019400D03*
X0141000Y0019400D03*
X0136000Y0019400D03*
X0131000Y0019400D03*
X0126000Y0019400D03*
X0121000Y0019400D03*
X0116000Y0019400D03*
X0136000Y0069400D03*
X0141000Y0069400D03*
X0146000Y0069400D03*
X0151000Y0069400D03*
X0156000Y0069400D03*
X0161000Y0069400D03*
X0166000Y0069400D03*
X0166000Y0093600D03*
X0161000Y0093600D03*
X0156000Y0093600D03*
X0151000Y0093600D03*
X0146000Y0093600D03*
X0141000Y0093600D03*
X0136000Y0093600D03*
X0166000Y0043600D03*
X0171000Y0043600D03*
X0176000Y0043600D03*
X0181000Y0043600D03*
X0186000Y0043600D03*
X0191000Y0043600D03*
X0196000Y0043600D03*
X0196000Y0019400D03*
X0191000Y0019400D03*
X0186000Y0019400D03*
X0181000Y0019400D03*
X0176000Y0019400D03*
X0171000Y0019400D03*
X0166000Y0019400D03*
X0186000Y0069400D03*
X0191000Y0069400D03*
X0196000Y0069400D03*
X0201000Y0069400D03*
X0206000Y0069400D03*
X0211000Y0069400D03*
X0216000Y0069400D03*
X0216000Y0093600D03*
X0211000Y0093600D03*
X0206000Y0093600D03*
X0201000Y0093600D03*
X0196000Y0093600D03*
X0191000Y0093600D03*
X0186000Y0093600D03*
D13*
X0111000Y0211500D03*
X0101000Y0211500D03*
X0091000Y0211500D03*
X0081000Y0211500D03*
X0081000Y0241500D03*
X0091000Y0241500D03*
X0101000Y0241500D03*
X0111000Y0241500D03*
D14*
X0031000Y0278500D02*
X0031000Y0284500D01*
X0021000Y0284500D02*
X0021000Y0278500D01*
X0011000Y0278500D02*
X0011000Y0284500D01*
X0012000Y0049500D02*
X0012000Y0043500D01*
X0022000Y0043500D02*
X0022000Y0049500D01*
X0206000Y0049500D02*
X0206000Y0043500D01*
X0216000Y0043500D02*
X0216000Y0049500D01*
X0226000Y0049500D02*
X0226000Y0043500D01*
X0226000Y0278500D02*
X0226000Y0284500D01*
X0216000Y0284500D02*
X0216000Y0278500D01*
X0206000Y0278500D02*
X0206000Y0284500D01*
D15*
X0156000Y0265240D03*
X0156000Y0257760D03*
X0056000Y0255240D03*
X0056000Y0247760D03*
X0036000Y0247760D03*
X0036000Y0255240D03*
X0056000Y0307760D03*
X0056000Y0315240D03*
X0061000Y0045240D03*
X0061000Y0037760D03*
X0061000Y0025240D03*
X0061000Y0017760D03*
D16*
X0081000Y0027760D03*
X0081000Y0035240D03*
D17*
X0099000Y0038193D03*
X0099000Y0024807D03*
D18*
X0019000Y0076500D03*
X0019000Y0086500D03*
X0011500Y0081500D03*
X0053000Y0276500D03*
X0045500Y0281500D03*
X0053000Y0286500D03*
D19*
X0092260Y0231500D03*
X0089740Y0221500D03*
X0082260Y0221500D03*
X0099740Y0231500D03*
D20*
X0099750Y0231500D01*
X0101000Y0232750D01*
X0101000Y0241500D01*
X0102250Y0242750D01*
X0102250Y0255875D01*
X0098500Y0252125D02*
X0098500Y0249000D01*
X0091000Y0241500D01*
X0091000Y0232750D01*
X0092250Y0231500D01*
X0092260Y0231500D01*
X0085375Y0224000D02*
X0085375Y0254625D01*
X0081000Y0241500D02*
X0042250Y0241500D01*
X0036000Y0247750D01*
X0036000Y0247760D01*
X0042250Y0247750D02*
X0056000Y0247750D01*
X0056000Y0247760D01*
X0056000Y0255240D02*
X0056000Y0255250D01*
X0031000Y0280250D01*
X0031000Y0281500D01*
X0045500Y0281500D02*
X0076000Y0281500D01*
X0076000Y0287406D01*
X0076000Y0287750D01*
X0082250Y0294000D01*
X0082250Y0307750D01*
X0084125Y0307750D01*
X0082250Y0307750D02*
X0082250Y0310875D01*
X0076000Y0317125D01*
X0076000Y0317406D01*
X0076000Y0307750D02*
X0076000Y0305594D01*
X0076000Y0307750D02*
X0056000Y0307750D01*
X0056000Y0307760D01*
X0056000Y0307750D02*
X0056000Y0289000D01*
X0053500Y0286500D01*
X0053000Y0286500D01*
X0053000Y0276500D02*
X0053500Y0276500D01*
X0053500Y0275875D01*
X0076000Y0275875D01*
X0076000Y0275594D01*
X0102250Y0287125D02*
X0102875Y0287125D01*
X0102875Y0317125D01*
X0176000Y0317125D01*
X0176000Y0317406D01*
X0176000Y0309625D02*
X0176000Y0305594D01*
X0176000Y0309625D02*
X0148500Y0309625D01*
X0146000Y0307125D01*
X0146000Y0287750D01*
X0131313Y0273063D01*
X0122250Y0282125D01*
X0131313Y0273063D02*
X0127250Y0269000D01*
X0142250Y0274625D02*
X0149750Y0282125D01*
X0149750Y0305875D01*
X0153500Y0301500D02*
X0160375Y0294625D01*
X0160375Y0234625D01*
X0169125Y0234625D01*
X0176000Y0241500D01*
X0166000Y0241500D02*
X0164125Y0243375D01*
X0164125Y0282125D01*
X0169750Y0280875D02*
X0169750Y0276500D01*
X0167875Y0274625D01*
X0169750Y0280875D02*
X0176000Y0287125D01*
X0176000Y0287406D01*
X0176000Y0275594D02*
X0176000Y0275250D01*
X0202875Y0275250D01*
X0204125Y0274000D01*
X0226000Y0274000D01*
X0226000Y0281500D01*
X0206000Y0241500D02*
X0201625Y0237125D01*
X0201625Y0202750D01*
X0206000Y0198375D01*
X0206000Y0191500D01*
X0206000Y0181500D01*
X0201000Y0176500D01*
X0196000Y0181500D02*
X0196000Y0191500D01*
X0190375Y0184000D02*
X0186625Y0180250D01*
X0186625Y0149000D01*
X0175375Y0140875D02*
X0166000Y0131500D01*
X0166000Y0121500D01*
X0161000Y0116500D01*
X0156625Y0112750D02*
X0168500Y0100875D01*
X0179750Y0100875D01*
X0179750Y0062750D01*
X0176000Y0061500D02*
X0188500Y0049000D01*
X0196000Y0049000D01*
X0196000Y0043600D01*
X0196000Y0037750D01*
X0191625Y0037750D01*
X0180062Y0026187D01*
X0176625Y0029625D01*
X0176625Y0030250D01*
X0180062Y0026187D02*
X0177875Y0024000D01*
X0177875Y0021500D01*
X0176000Y0019625D01*
X0176000Y0019400D01*
X0172875Y0017125D02*
X0172875Y0015250D01*
X0179750Y0008375D01*
X0188500Y0008375D01*
X0188500Y0009625D01*
X0196000Y0017125D01*
X0196000Y0019400D01*
X0191625Y0020250D02*
X0191625Y0025250D01*
X0197875Y0025250D01*
X0200375Y0022750D01*
X0206625Y0032125D02*
X0210375Y0035875D01*
X0210375Y0061500D01*
X0216000Y0067125D01*
X0216000Y0069400D01*
X0220375Y0073375D02*
X0220375Y0074000D01*
X0220375Y0073375D02*
X0227875Y0080875D01*
X0227875Y0107125D01*
X0224125Y0110875D01*
X0224125Y0203375D01*
X0207875Y0203375D01*
X0206000Y0198375D02*
X0217250Y0198375D01*
X0220375Y0195250D01*
X0220375Y0127750D01*
X0219750Y0127125D01*
X0219750Y0082750D01*
X0209750Y0082750D01*
X0206000Y0079000D01*
X0206000Y0069400D01*
X0201000Y0069400D02*
X0201000Y0069625D01*
X0199125Y0071500D01*
X0199125Y0077750D01*
X0196000Y0082750D02*
X0186000Y0072750D01*
X0186000Y0069400D01*
X0186000Y0069000D01*
X0186625Y0068375D01*
X0186625Y0060875D01*
X0196625Y0050875D01*
X0206000Y0050875D01*
X0206000Y0046500D01*
X0212250Y0042750D02*
X0216000Y0046500D01*
X0212250Y0042750D02*
X0212250Y0032750D01*
X0216000Y0036500D02*
X0216625Y0035875D01*
X0216625Y0022125D01*
X0220375Y0030875D02*
X0220375Y0073375D01*
X0223500Y0082750D02*
X0223500Y0105875D01*
X0216000Y0100875D02*
X0216000Y0093600D01*
X0211000Y0093600D02*
X0211000Y0090875D01*
X0215375Y0086500D01*
X0209750Y0077750D02*
X0211000Y0076500D01*
X0211000Y0069400D01*
X0211000Y0067125D01*
X0206000Y0062125D01*
X0196000Y0057125D02*
X0196000Y0069400D01*
X0191000Y0069400D02*
X0191000Y0069000D01*
X0190375Y0068375D01*
X0190375Y0062125D01*
X0176000Y0061500D02*
X0176000Y0083375D01*
X0168813Y0090562D01*
X0175375Y0097125D01*
X0168813Y0090562D02*
X0166000Y0093375D01*
X0166000Y0093600D01*
X0160375Y0086500D02*
X0157875Y0089000D01*
X0157875Y0091500D01*
X0156000Y0093375D01*
X0156000Y0093600D01*
X0151000Y0093600D02*
X0151000Y0090875D01*
X0162875Y0079000D01*
X0159125Y0079625D02*
X0159125Y0077750D01*
X0161625Y0075250D01*
X0174125Y0075250D01*
X0174125Y0050875D01*
X0169750Y0062750D02*
X0166000Y0066500D01*
X0166000Y0069400D01*
X0166000Y0067125D01*
X0162875Y0064000D01*
X0162875Y0044000D01*
X0155375Y0036500D01*
X0155375Y0034625D01*
X0155375Y0015250D01*
X0159125Y0019000D02*
X0166000Y0019000D01*
X0166000Y0019400D01*
X0166000Y0019625D01*
X0167875Y0021500D01*
X0167875Y0031500D01*
X0172875Y0036500D01*
X0161000Y0047125D02*
X0161000Y0069400D01*
X0161000Y0072750D01*
X0154750Y0079000D01*
X0156000Y0082750D02*
X0159125Y0079625D01*
X0156000Y0082750D02*
X0144125Y0082750D01*
X0137875Y0089000D01*
X0137875Y0091500D01*
X0136000Y0093375D01*
X0136000Y0093600D01*
X0132875Y0089000D02*
X0132875Y0100250D01*
X0146625Y0114000D01*
X0146625Y0124000D01*
X0151000Y0128375D01*
X0151000Y0176500D01*
X0152250Y0177750D01*
X0152250Y0187750D01*
X0156000Y0191500D01*
X0150375Y0194000D02*
X0150375Y0184000D01*
X0146625Y0180250D01*
X0146625Y0132125D01*
X0146000Y0131500D01*
X0144750Y0130250D01*
X0144750Y0120250D01*
X0141000Y0116500D01*
X0135375Y0112750D02*
X0135375Y0124000D01*
X0130375Y0129000D01*
X0130375Y0135250D01*
X0117875Y0147750D01*
X0114125Y0146500D02*
X0114125Y0173375D01*
X0111000Y0176500D01*
X0106625Y0180250D02*
X0106625Y0132125D01*
X0106000Y0131500D01*
X0102250Y0127750D01*
X0102250Y0117750D01*
X0101000Y0116500D01*
X0101000Y0102750D01*
X0102875Y0100875D01*
X0099125Y0095875D02*
X0101000Y0094000D01*
X0101000Y0093600D01*
X0099125Y0095875D02*
X0099125Y0110250D01*
X0096625Y0112750D01*
X0096625Y0124000D01*
X0100375Y0127750D01*
X0100375Y0160250D01*
X0110375Y0147125D02*
X0110375Y0124000D01*
X0106625Y0120250D01*
X0106625Y0094625D01*
X0106000Y0094000D01*
X0106000Y0093600D01*
X0106625Y0086500D02*
X0116000Y0086500D01*
X0119125Y0083375D01*
X0119125Y0065250D01*
X0112875Y0059000D01*
X0112875Y0037750D01*
X0146000Y0037750D01*
X0146000Y0028375D01*
X0146000Y0019400D01*
X0142875Y0017125D02*
X0142875Y0012125D01*
X0141625Y0008375D02*
X0151625Y0008375D01*
X0151625Y0026500D01*
X0146000Y0037750D02*
X0146000Y0043600D01*
X0155375Y0041500D02*
X0161000Y0047125D01*
X0155375Y0046500D02*
X0155375Y0068375D01*
X0156000Y0069000D01*
X0156000Y0069400D01*
X0151000Y0069400D02*
X0151000Y0069000D01*
X0149125Y0067125D01*
X0149125Y0065250D01*
X0140375Y0056500D01*
X0140375Y0061500D02*
X0144125Y0065250D01*
X0144125Y0067125D01*
X0146000Y0069000D01*
X0146000Y0069400D01*
X0141000Y0069400D02*
X0141000Y0069625D01*
X0139125Y0071500D01*
X0139125Y0082750D01*
X0132875Y0089000D01*
X0134125Y0077750D02*
X0134125Y0071500D01*
X0136000Y0069625D01*
X0136000Y0069400D01*
X0136000Y0069000D01*
X0133500Y0066500D01*
X0133500Y0062750D01*
X0129750Y0059000D02*
X0133500Y0055250D01*
X0133500Y0050250D02*
X0127875Y0055875D01*
X0127875Y0105250D01*
X0135375Y0112750D01*
X0131625Y0104000D02*
X0129750Y0102125D01*
X0129750Y0059000D01*
X0124125Y0067125D02*
X0125375Y0068375D01*
X0125375Y0110250D01*
X0121000Y0116500D02*
X0126000Y0121500D01*
X0126000Y0131500D01*
X0120375Y0126500D02*
X0122250Y0124625D01*
X0120375Y0126500D02*
X0120375Y0140250D01*
X0114125Y0146500D01*
X0116625Y0154000D02*
X0122875Y0147750D01*
X0126625Y0144625D02*
X0126625Y0180250D01*
X0130375Y0184000D01*
X0130375Y0211500D01*
X0124125Y0217750D01*
X0120375Y0203375D02*
X0114750Y0203375D01*
X0108500Y0197125D01*
X0108500Y0194000D01*
X0106000Y0191500D01*
X0104750Y0190250D01*
X0104750Y0180250D01*
X0101000Y0176500D01*
X0096625Y0180250D02*
X0096625Y0132125D01*
X0096000Y0131500D01*
X0094750Y0130250D01*
X0094750Y0120250D01*
X0091000Y0116500D01*
X0085375Y0124000D02*
X0081625Y0127750D01*
X0081625Y0165875D01*
X0081000Y0176500D02*
X0070375Y0165875D01*
X0070375Y0124000D01*
X0066625Y0120250D01*
X0066625Y0100875D01*
X0066000Y0093600D02*
X0066000Y0093375D01*
X0071000Y0093375D01*
X0074750Y0097750D02*
X0074750Y0049625D01*
X0075375Y0049000D01*
X0069125Y0052750D02*
X0067250Y0050875D01*
X0069125Y0052750D02*
X0069125Y0076500D01*
X0062250Y0083375D01*
X0066000Y0086500D02*
X0071000Y0081500D01*
X0071000Y0032125D01*
X0067250Y0028375D01*
X0061000Y0025250D02*
X0065375Y0020875D01*
X0065375Y0019000D01*
X0116000Y0019000D01*
X0116000Y0019400D01*
X0111000Y0032125D02*
X0111000Y0062125D01*
X0116000Y0067125D01*
X0116000Y0069400D01*
X0111000Y0069400D02*
X0111000Y0072125D01*
X0104750Y0078375D01*
X0104750Y0083375D01*
X0094750Y0083375D01*
X0097250Y0079000D02*
X0099125Y0079000D01*
X0104125Y0074000D01*
X0104125Y0071500D01*
X0106000Y0069625D01*
X0106000Y0069400D01*
X0101000Y0069400D02*
X0101000Y0069000D01*
X0099750Y0067750D01*
X0099750Y0053375D01*
X0097250Y0050875D01*
X0091000Y0050875D01*
X0091000Y0054625D01*
X0096000Y0054625D02*
X0096000Y0069400D01*
X0091000Y0069400D02*
X0091000Y0069625D01*
X0089125Y0071500D01*
X0089125Y0074000D01*
X0087250Y0075875D01*
X0082875Y0075875D01*
X0082875Y0095250D01*
X0070375Y0107750D01*
X0071000Y0116500D02*
X0076000Y0121500D01*
X0076000Y0131500D01*
X0086000Y0131500D02*
X0086625Y0132125D01*
X0086625Y0180250D01*
X0090375Y0184000D01*
X0090375Y0200250D01*
X0097250Y0207125D01*
X0101000Y0211500D02*
X0111000Y0221500D01*
X0111000Y0236500D01*
X0136000Y0211500D01*
X0136000Y0191500D01*
X0134125Y0189625D01*
X0134125Y0179625D01*
X0131000Y0176500D01*
X0136000Y0179625D02*
X0136000Y0131500D01*
X0156000Y0131500D02*
X0156000Y0179625D01*
X0160375Y0184000D01*
X0160375Y0227125D01*
X0146000Y0241500D01*
X0156000Y0241500D02*
X0156000Y0257760D01*
X0156000Y0264625D02*
X0156000Y0265240D01*
X0156000Y0264625D02*
X0111000Y0264625D01*
X0111000Y0241500D01*
X0111000Y0236500D01*
X0106000Y0230250D02*
X0091000Y0215250D01*
X0091000Y0220250D01*
X0089750Y0221500D01*
X0089740Y0221500D01*
X0085375Y0224000D02*
X0082875Y0221500D01*
X0082260Y0221500D01*
X0082250Y0221500D01*
X0081000Y0220250D01*
X0081000Y0211500D01*
X0091000Y0211500D02*
X0091000Y0215250D01*
X0106000Y0230250D02*
X0106000Y0283375D01*
X0102250Y0287125D01*
X0056000Y0314625D02*
X0056000Y0315240D01*
X0056000Y0314625D02*
X0011000Y0314625D01*
X0011000Y0281500D01*
X0011000Y0280250D01*
X0031937Y0259312D01*
X0031625Y0259000D01*
X0031625Y0230250D01*
X0014750Y0213375D01*
X0014750Y0105250D01*
X0019750Y0100250D01*
X0023500Y0102125D02*
X0016625Y0109000D01*
X0016625Y0136500D01*
X0027250Y0147125D01*
X0027250Y0154625D01*
X0021000Y0145875D02*
X0021000Y0176500D01*
X0021000Y0186500D01*
X0026000Y0191500D01*
X0031000Y0186500D02*
X0031000Y0176500D01*
X0031000Y0128375D01*
X0026625Y0124000D01*
X0026625Y0112750D01*
X0031000Y0108375D01*
X0031000Y0084625D01*
X0030375Y0084000D01*
X0030375Y0043375D01*
X0032875Y0040875D01*
X0028500Y0037125D02*
X0028500Y0085250D01*
X0029125Y0085875D01*
X0029125Y0101500D01*
X0026625Y0104000D01*
X0023500Y0102125D02*
X0023500Y0087125D01*
X0024750Y0085875D01*
X0032875Y0087750D02*
X0032875Y0097750D01*
X0036625Y0101500D01*
X0036625Y0124000D01*
X0040375Y0127750D01*
X0040375Y0134000D01*
X0045375Y0139000D01*
X0045375Y0160875D01*
X0061000Y0176500D01*
X0066000Y0181500D01*
X0066000Y0191500D01*
X0071000Y0186500D02*
X0071000Y0176500D01*
X0071000Y0186500D02*
X0076000Y0191500D01*
X0084750Y0190250D02*
X0086000Y0191500D01*
X0084750Y0190250D02*
X0084750Y0180250D01*
X0081000Y0176500D01*
X0091000Y0176500D02*
X0091000Y0124625D01*
X0085375Y0124000D02*
X0085375Y0094625D01*
X0086000Y0094000D01*
X0086000Y0093600D01*
X0079125Y0087125D02*
X0079125Y0060250D01*
X0079125Y0037125D01*
X0081000Y0035250D01*
X0081000Y0035240D01*
X0081000Y0035250D02*
X0098500Y0035250D01*
X0098500Y0037750D01*
X0099000Y0038193D01*
X0101000Y0032125D02*
X0111000Y0032125D01*
X0098500Y0027750D02*
X0098500Y0025250D01*
X0099000Y0024807D01*
X0099125Y0025250D01*
X0127875Y0025250D01*
X0129125Y0024000D01*
X0129125Y0021500D01*
X0131000Y0019625D01*
X0131000Y0019400D01*
X0127875Y0017125D02*
X0127875Y0015250D01*
X0136625Y0006500D01*
X0171000Y0006500D01*
X0171000Y0012125D01*
X0172875Y0017125D02*
X0171000Y0019000D01*
X0171000Y0019400D01*
X0181000Y0019400D02*
X0181000Y0019625D01*
X0182875Y0021500D01*
X0182875Y0024000D01*
X0185375Y0026500D01*
X0188500Y0026500D01*
X0191625Y0020250D02*
X0191000Y0019625D01*
X0191000Y0019400D01*
X0186000Y0019400D02*
X0186000Y0017125D01*
X0181000Y0012125D01*
X0142875Y0017125D02*
X0141000Y0019000D01*
X0141000Y0019400D01*
X0137875Y0017125D02*
X0137875Y0012125D01*
X0141625Y0008375D01*
X0137875Y0017125D02*
X0136000Y0019000D01*
X0136000Y0019400D01*
X0127875Y0017125D02*
X0126000Y0019000D01*
X0126000Y0019400D01*
X0098500Y0027750D02*
X0081000Y0027750D01*
X0081000Y0027760D01*
X0081000Y0027750D02*
X0076000Y0022750D01*
X0074750Y0028375D02*
X0075375Y0029000D01*
X0075375Y0040875D01*
X0061000Y0037760D02*
X0061000Y0025250D01*
X0061000Y0025240D01*
X0061000Y0025250D02*
X0054750Y0019000D01*
X0051000Y0017750D02*
X0054750Y0014000D01*
X0051000Y0017750D02*
X0051000Y0049625D01*
X0054125Y0052750D01*
X0054125Y0067125D01*
X0056000Y0069000D01*
X0056000Y0069400D01*
X0052875Y0071500D02*
X0052875Y0077125D01*
X0057250Y0081500D01*
X0052875Y0071500D02*
X0051000Y0069625D01*
X0051000Y0069400D01*
X0046000Y0069400D02*
X0046000Y0069625D01*
X0044125Y0071500D01*
X0044125Y0078375D01*
X0039125Y0078375D02*
X0039125Y0086500D01*
X0037875Y0087750D01*
X0037875Y0091500D01*
X0036000Y0093375D01*
X0036000Y0093600D01*
X0041000Y0093600D02*
X0041000Y0094000D01*
X0042875Y0095875D01*
X0042875Y0110250D01*
X0046625Y0114000D01*
X0046625Y0124000D01*
X0051625Y0129000D01*
X0051625Y0154625D01*
X0041625Y0150875D02*
X0036000Y0145250D01*
X0036000Y0131500D01*
X0034750Y0130250D01*
X0034750Y0120250D01*
X0031000Y0116500D01*
X0041000Y0116500D02*
X0041000Y0125250D01*
X0042875Y0127125D01*
X0044125Y0127125D01*
X0046000Y0129000D01*
X0046000Y0131500D01*
X0056000Y0131500D02*
X0056000Y0121500D01*
X0051000Y0116500D01*
X0061000Y0116500D02*
X0064750Y0120250D01*
X0064750Y0130250D01*
X0066000Y0131500D01*
X0051000Y0176500D02*
X0056000Y0181500D01*
X0056000Y0191500D01*
X0046000Y0191500D02*
X0041000Y0186500D01*
X0041000Y0176500D01*
X0031000Y0186500D02*
X0036000Y0191500D01*
X0012875Y0167125D02*
X0012875Y0217125D01*
X0036000Y0255240D02*
X0036000Y0255250D01*
X0031937Y0259312D01*
X0096000Y0191500D02*
X0094750Y0190250D01*
X0094750Y0180250D01*
X0091000Y0176500D01*
X0096625Y0180250D02*
X0100375Y0184000D01*
X0100375Y0194000D01*
X0109750Y0203375D01*
X0116000Y0199625D02*
X0110375Y0194000D01*
X0110375Y0184000D01*
X0106625Y0180250D01*
X0116625Y0180250D02*
X0116625Y0154000D01*
X0116000Y0131500D02*
X0112250Y0127750D01*
X0112250Y0117750D01*
X0111000Y0116500D01*
X0111000Y0102125D01*
X0112250Y0100875D01*
X0116000Y0107750D02*
X0116000Y0122125D01*
X0116000Y0107750D02*
X0121000Y0102750D01*
X0116000Y0093600D02*
X0116000Y0086500D01*
X0086000Y0069400D02*
X0086000Y0069000D01*
X0084125Y0067125D01*
X0084125Y0060250D01*
X0061000Y0045250D02*
X0061000Y0045240D01*
X0061000Y0045250D02*
X0058500Y0047750D01*
X0058500Y0060250D01*
X0054750Y0048375D02*
X0054750Y0032125D01*
X0047250Y0040875D02*
X0047250Y0022125D01*
X0037250Y0012125D01*
X0025375Y0012125D01*
X0025375Y0035250D01*
X0024750Y0035875D01*
X0024750Y0039625D01*
X0026625Y0041500D01*
X0026625Y0053375D01*
X0011000Y0069000D01*
X0011000Y0075875D01*
X0011000Y0081500D02*
X0011500Y0081500D01*
X0011000Y0081500D02*
X0011000Y0165250D01*
X0012875Y0167125D01*
X0009125Y0168375D02*
X0007250Y0166500D01*
X0007250Y0060875D01*
X0014750Y0053375D01*
X0016625Y0053375D01*
X0021625Y0046500D02*
X0022000Y0046500D01*
X0021625Y0046500D02*
X0021625Y0030250D01*
X0034750Y0030875D02*
X0034750Y0016500D01*
X0035375Y0015875D01*
X0038500Y0019625D02*
X0038500Y0022750D01*
X0041000Y0025250D01*
X0041000Y0025594D01*
X0034750Y0030875D02*
X0041000Y0037125D01*
X0041000Y0037406D01*
X0041000Y0037750D01*
X0037875Y0040875D01*
X0037875Y0051500D01*
X0037875Y0067125D01*
X0036000Y0069000D01*
X0036000Y0069400D01*
X0036000Y0076500D01*
X0034125Y0078375D01*
X0034750Y0085875D02*
X0032875Y0087750D01*
X0019125Y0076500D02*
X0024750Y0070875D01*
X0024750Y0063375D01*
X0019750Y0065250D02*
X0014750Y0070250D01*
X0014750Y0079000D01*
X0016000Y0080250D01*
X0016000Y0083375D01*
X0014750Y0084625D01*
X0014750Y0093375D01*
X0019000Y0076500D02*
X0019125Y0076500D01*
X0041000Y0069400D02*
X0041000Y0069000D01*
X0042875Y0067125D01*
X0042875Y0045250D01*
X0047250Y0040875D01*
X0061000Y0017760D02*
X0061000Y0017750D01*
X0069125Y0009625D01*
X0156625Y0112750D02*
X0156625Y0120250D01*
X0160375Y0124000D01*
X0160375Y0155875D01*
X0159750Y0156500D01*
X0161000Y0176500D02*
X0166000Y0181500D01*
X0166000Y0191500D01*
X0170375Y0195875D01*
X0170375Y0225875D01*
X0186000Y0241500D01*
X0174125Y0224000D02*
X0180375Y0217750D01*
X0180375Y0184000D01*
X0175375Y0179000D01*
X0175375Y0140875D01*
X0176000Y0131500D02*
X0176000Y0121500D01*
X0171000Y0116500D01*
X0181000Y0116500D02*
X0183500Y0119000D01*
X0183500Y0129000D01*
X0186000Y0131500D01*
X0190375Y0127750D02*
X0190375Y0164000D01*
X0191000Y0176500D02*
X0196000Y0181500D01*
X0190375Y0184000D02*
X0190375Y0207125D01*
X0186000Y0211500D01*
X0186000Y0191500D02*
X0184750Y0190250D01*
X0184750Y0180250D01*
X0181000Y0176500D01*
X0173500Y0179000D02*
X0173500Y0189000D01*
X0176000Y0191500D01*
X0173500Y0179000D02*
X0171000Y0176500D01*
X0150375Y0194000D02*
X0156000Y0199625D01*
X0146000Y0191500D02*
X0144750Y0190250D01*
X0144750Y0180250D01*
X0141000Y0176500D01*
X0136000Y0179625D02*
X0140375Y0184000D01*
X0140375Y0205875D01*
X0146000Y0211500D01*
X0126000Y0191500D02*
X0122250Y0187750D01*
X0122250Y0177750D01*
X0121000Y0176500D01*
X0116625Y0180250D02*
X0120375Y0184000D01*
X0120375Y0203375D01*
X0190375Y0127750D02*
X0186625Y0124000D01*
X0186625Y0104000D01*
X0186625Y0094625D01*
X0186000Y0094000D01*
X0186000Y0093600D01*
X0191000Y0093600D02*
X0191000Y0094000D01*
X0192875Y0095875D01*
X0192875Y0107750D01*
X0191000Y0116500D02*
X0196000Y0121500D01*
X0196000Y0131500D01*
X0204750Y0130250D02*
X0204750Y0120250D01*
X0201000Y0116500D01*
X0206625Y0124000D02*
X0211000Y0128375D01*
X0211000Y0176500D01*
X0211000Y0186500D01*
X0216000Y0191500D01*
X0216000Y0131500D02*
X0216000Y0121500D01*
X0211000Y0116500D01*
X0206625Y0124000D02*
X0206625Y0094625D01*
X0206000Y0094000D01*
X0206000Y0093600D01*
X0202875Y0091500D02*
X0202875Y0084625D01*
X0202875Y0091500D02*
X0201000Y0093375D01*
X0201000Y0093600D01*
X0196000Y0093600D02*
X0196000Y0090875D01*
X0191625Y0086500D01*
X0204750Y0130250D02*
X0206000Y0131500D01*
X0021000Y0145875D02*
X0018500Y0143375D01*
D21*
X0021625Y0030250D03*
X0028500Y0037125D03*
X0032875Y0040875D03*
X0037875Y0051500D03*
X0024750Y0063375D03*
X0019750Y0065250D03*
X0016625Y0053375D03*
X0011000Y0075875D03*
X0014750Y0093375D03*
X0019750Y0100250D03*
X0026625Y0104000D03*
X0024750Y0085875D03*
X0034750Y0085875D03*
X0034125Y0078375D03*
X0039125Y0078375D03*
X0044125Y0078375D03*
X0057250Y0081500D03*
X0062250Y0083375D03*
X0066000Y0086500D03*
X0071000Y0093375D03*
X0074750Y0097750D03*
X0066625Y0100875D03*
X0070375Y0107750D03*
X0079125Y0087125D03*
X0082875Y0075875D03*
X0094750Y0083375D03*
X0097250Y0079000D03*
X0106625Y0086500D03*
X0102875Y0100875D03*
X0112250Y0100875D03*
X0121000Y0102750D03*
X0125375Y0110250D03*
X0131625Y0104000D03*
X0122250Y0124625D03*
X0116000Y0122125D03*
X0126625Y0144625D03*
X0122875Y0147750D03*
X0117875Y0147750D03*
X0110375Y0147125D03*
X0100375Y0160250D03*
X0081625Y0165875D03*
X0091000Y0124625D03*
X0051625Y0154625D03*
X0041625Y0150875D03*
X0027250Y0154625D03*
X0018500Y0143375D03*
X0009125Y0168375D03*
X0012875Y0217125D03*
X0042250Y0247750D03*
X0084125Y0307750D03*
X0102250Y0287125D03*
X0122250Y0282125D03*
X0127250Y0269000D03*
X0142250Y0274625D03*
X0149750Y0282125D03*
X0153500Y0301500D03*
X0149750Y0305875D03*
X0164125Y0282125D03*
X0167875Y0274625D03*
X0174125Y0224000D03*
X0156000Y0199625D03*
X0124125Y0217750D03*
X0116000Y0199625D03*
X0109750Y0203375D03*
X0097250Y0207125D03*
X0098500Y0252125D03*
X0102250Y0255875D03*
X0085375Y0254625D03*
X0159750Y0156500D03*
X0186625Y0149000D03*
X0190375Y0164000D03*
X0207875Y0203375D03*
X0192875Y0107750D03*
X0186625Y0104000D03*
X0175375Y0097125D03*
X0162875Y0079000D03*
X0160375Y0086500D03*
X0154750Y0079000D03*
X0169750Y0062750D03*
X0179750Y0062750D03*
X0174125Y0050875D03*
X0172875Y0036500D03*
X0176625Y0030250D03*
X0188500Y0026500D03*
X0200375Y0022750D03*
X0206625Y0032125D03*
X0212250Y0032750D03*
X0216000Y0036500D03*
X0220375Y0030875D03*
X0216625Y0022125D03*
X0196000Y0057125D03*
X0190375Y0062125D03*
X0199125Y0077750D03*
X0196000Y0082750D03*
X0191625Y0086500D03*
X0202875Y0084625D03*
X0209750Y0077750D03*
X0215375Y0086500D03*
X0223500Y0082750D03*
X0220375Y0074000D03*
X0206000Y0062125D03*
X0216000Y0100875D03*
X0223500Y0105875D03*
X0159125Y0019000D03*
X0155375Y0015250D03*
X0151625Y0026500D03*
X0146000Y0028375D03*
X0155375Y0034625D03*
X0155375Y0041500D03*
X0155375Y0046500D03*
X0140375Y0056500D03*
X0140375Y0061500D03*
X0133500Y0062750D03*
X0133500Y0055250D03*
X0133500Y0050250D03*
X0124125Y0067125D03*
X0134125Y0077750D03*
X0101000Y0032125D03*
X0096000Y0054625D03*
X0091000Y0054625D03*
X0084125Y0060250D03*
X0079125Y0060250D03*
X0075375Y0049000D03*
X0075375Y0040875D03*
X0067250Y0050875D03*
X0058500Y0060250D03*
X0054750Y0048375D03*
X0054750Y0032125D03*
X0054750Y0019000D03*
X0054750Y0014000D03*
X0067250Y0028375D03*
X0074750Y0028375D03*
X0076000Y0022750D03*
X0069125Y0009625D03*
X0038500Y0019625D03*
X0035375Y0015875D03*
X0142875Y0012125D03*
X0171000Y0012125D03*
X0181000Y0012125D03*
X0188500Y0009625D03*
M02*
