%
M48
M72
T01C0.02400
T02C0.03200
T03C0.04000
%
T01
X22250Y28500
X31000Y13500
X41000Y26000
X42250Y33500
X51000Y43500
X54750Y39750
X51000Y51000
X57250Y66000
X66000Y76000
X63500Y89750
X56000Y91000
X54750Y108500
X57250Y113500
X71000Y112250
X81000Y109750
X81000Y114750
X77250Y93500
X77250Y86000
X76000Y81000
X93500Y89750
X101000Y92250
X106000Y91000
X114750Y91000
X127250Y93500
X128500Y86000
X131000Y76000
X137250Y66000
X142250Y66000
X153500Y52250
X158500Y52250
X156000Y66000
X161000Y72250
X171000Y63500
X178500Y71000
X183500Y71000
X191000Y76000
X196000Y76000
X201000Y76000
X206000Y76000
X202250Y66000
X197250Y66000
X208500Y52250
X214750Y49750
X223500Y58500
X211000Y66000
X223500Y81000
X227250Y97250
X211000Y92250
X197250Y93500
X197250Y108500
X192250Y109750
X192250Y123500
X181000Y122250
X178500Y142250
X186000Y148500
X176000Y154750
X161000Y142250
X156000Y154750
X136000Y167250
X133500Y144750
X131000Y137250
X118500Y144750
X112250Y141000
X107250Y139750
X112250Y149750
X96000Y142250
X86000Y149750
X96000Y167250
X71000Y169750
X62250Y178500
X61000Y149750
X56000Y149750
X64750Y142250
X69750Y142250
X42250Y123500
X32250Y113500
X19750Y109750
X16000Y129750
X19750Y142250
X26000Y167250
X39750Y182250
X12250Y194750
X36000Y231000
X69750Y246000
X102250Y276000
X89750Y293500
X129750Y279750
X143500Y289750
X163500Y284750
X147250Y248500
X144750Y223500
X132250Y221000
X119750Y213500
X112250Y206000
X132250Y198500
X166000Y182250
X197250Y143500
X201000Y169750
X223500Y212250
X213500Y217250
X159750Y118500
X176000Y94750
X177250Y84750
X171000Y81000
X179750Y52250
X181000Y42250
X172250Y29750
X181000Y18500
X181000Y9750
X171000Y13500
X147250Y31000
X136000Y24750
X131000Y13500
X119750Y18500
X126000Y31000
X131000Y46000
X134750Y49750
X131000Y53500
X123500Y53500
X123500Y48500
X121000Y61000
X121000Y66000
X111000Y76000
X98500Y52250
X93500Y52250
X88500Y52250
X83500Y49750
X81000Y59750
X96000Y42250
X99750Y38500
X106000Y38500
X102250Y46000
X89750Y38500
X83500Y27250
X81000Y11000
X61000Y19750
X39750Y66000
X31000Y79750
X29750Y89750
X37250Y91000
X101000Y118500
X123500Y114750
X127250Y118500
X127250Y108500
X137250Y122250
X197250Y22250
X204750Y21000
X218500Y24750
T02
X211000Y101000
X201000Y101000
X191000Y101000
X181000Y101000
X171000Y101000
X161000Y101000
X151000Y101000
X141000Y101000
X131000Y101000
X121000Y101000
X111000Y101000
X101000Y101000
X91000Y101000
X81000Y101000
X71000Y101000
X61000Y101000
X51000Y101000
X41000Y101000
X31000Y101000
X21000Y101000
X19000Y81000
X19000Y71000
X11500Y76000
X26000Y131000
X36000Y131000
X46000Y131000
X56000Y131000
X66000Y131000
X76000Y131000
X86000Y131000
X96000Y131000
X106000Y131000
X116000Y131000
X126000Y131000
X136000Y131000
X146000Y131000
X156000Y131000
X166000Y131000
X176000Y131000
X186000Y131000
X196000Y131000
X206000Y131000
X216000Y131000
X211000Y161000
X201000Y161000
X191000Y161000
X181000Y161000
X171000Y161000
X161000Y161000
X151000Y161000
X141000Y161000
X131000Y161000
X121000Y161000
X111000Y161000
X101000Y161000
X91000Y161000
X81000Y161000
X71000Y161000
X61000Y161000
X51000Y161000
X41000Y161000
X31000Y161000
X21000Y161000
X26000Y191000
X36000Y191000
X46000Y191000
X56000Y191000
X66000Y191000
X76000Y191000
X86000Y191000
X96000Y191000
X106000Y191000
X116000Y191000
X106000Y206000
X96000Y206000
X86000Y206000
X76000Y206000
X76000Y236000
X86000Y236000
X96000Y236000
X106000Y236000
X136000Y236000
X146000Y236000
X156000Y236000
X166000Y236000
X176000Y236000
X186000Y236000
X196000Y236000
X206000Y236000
X216000Y236000
X216000Y206000
X216000Y191000
X206000Y191000
X196000Y191000
X186000Y191000
X176000Y191000
X166000Y191000
X166000Y206000
X176000Y206000
X186000Y206000
X196000Y206000
X206000Y206000
X156000Y206000
X146000Y206000
X136000Y206000
X136000Y191000
X126000Y191000
X146000Y191000
X156000Y191000
X53000Y271000
X45500Y276000
X53000Y281000
T03
X31000Y276000
X21000Y276000
X11000Y276000
X12000Y46000
X22000Y46000
X206000Y276000
X216000Y276000
X226000Y276000
M30
