G75*
%MOIN*%
%OFA0B0*%
%FSLAX25Y25*%
%IPPOS*%
%LPD*%
%AMOC8*
5,1,8,0,0,1.08239X$1,22.5*
%
%ADD10C,0.00000*%
%ADD11C,0.00400*%
%ADD12C,0.00300*%
%ADD13C,0.00500*%
%ADD14C,0.01000*%
%ADD15C,0.00600*%
%ADD16C,0.03000*%
%ADD17R,0.03000X0.02000*%
%ADD18R,0.03000X0.04000*%
%ADD19C,0.00800*%
D10*
X0001000Y0001000D02*
X0001000Y0320961D01*
X0236000Y0320961D01*
X0236000Y0001000D01*
X0001000Y0001000D01*
X0236000Y0320961D02*
X0236000Y0321000D01*
D11*
X0222710Y0260804D02*
X0223477Y0260037D01*
X0223477Y0259269D01*
X0222710Y0258502D01*
X0223477Y0257735D01*
X0223477Y0256967D01*
X0222710Y0256200D01*
X0221175Y0256200D01*
X0220408Y0256967D01*
X0221942Y0258502D02*
X0222710Y0258502D01*
X0222710Y0260804D02*
X0221175Y0260804D01*
X0220408Y0260037D01*
X0218873Y0260037D02*
X0218873Y0258502D01*
X0218106Y0257735D01*
X0215804Y0257735D01*
X0215804Y0256200D02*
X0215804Y0260804D01*
X0218106Y0260804D01*
X0218873Y0260037D01*
X0214269Y0260804D02*
X0212735Y0260804D01*
X0213502Y0260804D02*
X0213502Y0256967D01*
X0212735Y0256200D01*
X0211967Y0256200D01*
X0211200Y0256967D01*
X0211967Y0253804D02*
X0211200Y0253037D01*
X0211200Y0249967D01*
X0211967Y0249200D01*
X0213502Y0249200D01*
X0214269Y0249967D01*
X0214269Y0253037D01*
X0213502Y0253804D01*
X0211967Y0253804D01*
X0215804Y0253804D02*
X0215804Y0249967D01*
X0216571Y0249200D01*
X0218106Y0249200D01*
X0218873Y0249967D01*
X0218873Y0253804D01*
X0220408Y0253804D02*
X0223477Y0253804D01*
X0221942Y0253804D02*
X0221942Y0249200D01*
X0187289Y0220037D02*
X0187289Y0219269D01*
X0186522Y0218502D01*
X0187289Y0217735D01*
X0187289Y0216967D01*
X0186522Y0216200D01*
X0184987Y0216200D01*
X0184220Y0216967D01*
X0182685Y0216200D02*
X0179616Y0216200D01*
X0181150Y0216200D02*
X0181150Y0220804D01*
X0179616Y0219269D01*
X0178081Y0218502D02*
X0175012Y0218502D01*
X0177314Y0220804D01*
X0177314Y0216200D01*
X0173477Y0216200D02*
X0170408Y0216200D01*
X0173477Y0219269D01*
X0173477Y0220037D01*
X0172710Y0220804D01*
X0171175Y0220804D01*
X0170408Y0220037D01*
X0168873Y0220804D02*
X0168873Y0216200D01*
X0167339Y0219269D02*
X0168873Y0220804D01*
X0167339Y0219269D02*
X0165804Y0220804D01*
X0165804Y0216200D01*
X0162735Y0216200D02*
X0162735Y0218502D01*
X0164269Y0220037D01*
X0164269Y0220804D01*
X0162735Y0218502D02*
X0161200Y0220037D01*
X0161200Y0220804D01*
X0184220Y0220037D02*
X0184987Y0220804D01*
X0186522Y0220804D01*
X0187289Y0220037D01*
X0186522Y0218502D02*
X0185754Y0218502D01*
X0160234Y0180804D02*
X0161001Y0180037D01*
X0161001Y0178502D01*
X0160234Y0177735D01*
X0157932Y0177735D01*
X0159467Y0177735D02*
X0161001Y0176200D01*
X0157932Y0176200D02*
X0157932Y0180804D01*
X0160234Y0180804D01*
X0156397Y0180037D02*
X0156397Y0176967D01*
X0155630Y0176200D01*
X0154095Y0176200D01*
X0153328Y0176967D01*
X0153328Y0180037D01*
X0154095Y0180804D01*
X0155630Y0180804D01*
X0156397Y0180037D01*
X0151794Y0180804D02*
X0148724Y0180804D01*
X0150259Y0180804D02*
X0150259Y0176200D01*
X0147190Y0176967D02*
X0146422Y0176200D01*
X0144888Y0176200D01*
X0144120Y0176967D01*
X0144120Y0180037D01*
X0144888Y0180804D01*
X0146422Y0180804D01*
X0147190Y0180037D01*
X0142586Y0180804D02*
X0139516Y0180804D01*
X0139516Y0176200D01*
X0142586Y0176200D01*
X0141051Y0178502D02*
X0139516Y0178502D01*
X0137982Y0176200D02*
X0137982Y0180804D01*
X0134912Y0180804D02*
X0134912Y0176200D01*
X0133378Y0176200D02*
X0133378Y0180804D01*
X0134912Y0180804D02*
X0137982Y0176200D01*
X0133378Y0176200D02*
X0130309Y0180804D01*
X0130309Y0176200D01*
X0128774Y0176967D02*
X0128774Y0180037D01*
X0128007Y0180804D01*
X0126472Y0180804D01*
X0125705Y0180037D01*
X0125705Y0176967D01*
X0126472Y0176200D01*
X0128007Y0176200D01*
X0128774Y0176967D01*
X0124170Y0176967D02*
X0123403Y0176200D01*
X0121868Y0176200D01*
X0121101Y0176967D01*
X0121101Y0180037D01*
X0121868Y0180804D01*
X0123403Y0180804D01*
X0124170Y0180037D01*
X0114962Y0180037D02*
X0114962Y0179269D01*
X0114195Y0178502D01*
X0111893Y0178502D01*
X0114195Y0178502D02*
X0114962Y0177735D01*
X0114962Y0176967D01*
X0114195Y0176200D01*
X0111893Y0176200D01*
X0111893Y0180804D01*
X0114195Y0180804D01*
X0114962Y0180037D01*
X0110358Y0180804D02*
X0110358Y0176200D01*
X0107289Y0176200D02*
X0107289Y0180804D01*
X0108824Y0179269D01*
X0110358Y0180804D01*
X0101150Y0180037D02*
X0101150Y0176967D01*
X0100383Y0176200D01*
X0098848Y0176200D01*
X0098081Y0176967D01*
X0101150Y0180037D01*
X0100383Y0180804D01*
X0098848Y0180804D01*
X0098081Y0180037D01*
X0098081Y0176967D01*
X0096546Y0178502D02*
X0093477Y0178502D01*
X0095779Y0180804D01*
X0095779Y0176200D01*
X0091942Y0178502D02*
X0091175Y0177735D01*
X0088873Y0177735D01*
X0088873Y0176200D02*
X0088873Y0180804D01*
X0091175Y0180804D01*
X0091942Y0180037D01*
X0091942Y0178502D01*
X0087339Y0180804D02*
X0085804Y0180804D01*
X0086571Y0180804D02*
X0086571Y0176200D01*
X0085804Y0176200D02*
X0087339Y0176200D01*
X0084269Y0176967D02*
X0084269Y0180037D01*
X0083502Y0180804D01*
X0081200Y0180804D01*
X0081200Y0176200D01*
X0083502Y0176200D01*
X0084269Y0176967D01*
X0084269Y0216200D02*
X0081200Y0216200D01*
X0081200Y0220804D01*
X0085804Y0220804D02*
X0085804Y0216200D01*
X0088873Y0216200D02*
X0088873Y0220804D01*
X0087339Y0219269D01*
X0085804Y0220804D01*
X0090408Y0218502D02*
X0093477Y0218502D01*
X0095012Y0218502D02*
X0096546Y0219269D01*
X0097314Y0219269D01*
X0098081Y0218502D01*
X0098081Y0216967D01*
X0097314Y0216200D01*
X0095779Y0216200D01*
X0095012Y0216967D01*
X0095012Y0218502D02*
X0095012Y0220804D01*
X0098081Y0220804D01*
X0099616Y0220804D02*
X0099616Y0218502D01*
X0101150Y0219269D01*
X0101918Y0219269D01*
X0102685Y0218502D01*
X0102685Y0216967D01*
X0101918Y0216200D01*
X0100383Y0216200D01*
X0099616Y0216967D01*
X0099616Y0220804D02*
X0102685Y0220804D01*
X0104220Y0220037D02*
X0104220Y0219269D01*
X0104987Y0218502D01*
X0106522Y0218502D01*
X0107289Y0217735D01*
X0107289Y0216967D01*
X0106522Y0216200D01*
X0104987Y0216200D01*
X0104220Y0216967D01*
X0104220Y0217735D01*
X0104987Y0218502D01*
X0106522Y0218502D02*
X0107289Y0219269D01*
X0107289Y0220037D01*
X0106522Y0220804D01*
X0104987Y0220804D01*
X0104220Y0220037D01*
X0092710Y0220804D02*
X0092710Y0216200D01*
X0090408Y0218502D02*
X0092710Y0220804D01*
X0065800Y0221571D02*
X0065033Y0222339D01*
X0065800Y0221571D02*
X0065800Y0220037D01*
X0065033Y0219269D01*
X0061963Y0219269D01*
X0061196Y0220037D01*
X0061196Y0221571D01*
X0061963Y0222339D01*
X0063498Y0223873D02*
X0063498Y0226942D01*
X0061196Y0226175D02*
X0063498Y0223873D01*
X0065800Y0226175D02*
X0061196Y0226175D01*
X0061196Y0217735D02*
X0061196Y0216200D01*
X0061196Y0216967D02*
X0065800Y0216967D01*
X0065800Y0216200D02*
X0065800Y0217735D01*
X0052498Y0231596D02*
X0052498Y0234665D01*
X0050963Y0233131D02*
X0054033Y0233131D01*
X0031033Y0203131D02*
X0027963Y0203131D01*
X0029498Y0201596D02*
X0029498Y0204665D01*
X0015800Y0183477D02*
X0015800Y0180408D01*
X0015800Y0181942D02*
X0011196Y0181942D01*
X0012731Y0180408D01*
X0011196Y0178873D02*
X0015800Y0178873D01*
X0011196Y0175804D01*
X0015800Y0175804D01*
X0015033Y0174269D02*
X0015800Y0173502D01*
X0015800Y0171967D01*
X0015033Y0171200D01*
X0011963Y0171200D01*
X0011196Y0171967D01*
X0011196Y0173502D01*
X0011963Y0174269D01*
X0010033Y0134665D02*
X0008498Y0134665D01*
X0007731Y0133898D01*
X0007731Y0133131D01*
X0008498Y0131596D01*
X0006196Y0131596D01*
X0006196Y0134665D01*
X0006963Y0130061D02*
X0006196Y0129294D01*
X0006196Y0127759D01*
X0006963Y0126992D01*
X0010033Y0126992D01*
X0010800Y0127759D01*
X0010800Y0129294D01*
X0010033Y0130061D01*
X0010033Y0131596D02*
X0010800Y0132363D01*
X0010800Y0133898D01*
X0010033Y0134665D01*
X0010800Y0125457D02*
X0010800Y0123923D01*
X0010800Y0124690D02*
X0006196Y0124690D01*
X0006196Y0123923D02*
X0006196Y0125457D01*
X0013923Y0058804D02*
X0015457Y0058804D01*
X0014690Y0058804D02*
X0014690Y0054967D01*
X0013923Y0054200D01*
X0013156Y0054200D01*
X0012388Y0054967D01*
X0016992Y0054200D02*
X0016992Y0058804D01*
X0019294Y0058804D01*
X0020061Y0058037D01*
X0020061Y0056502D01*
X0019294Y0055735D01*
X0016992Y0055735D01*
X0021596Y0054200D02*
X0024665Y0057269D01*
X0024665Y0058037D01*
X0023898Y0058804D01*
X0022363Y0058804D01*
X0021596Y0058037D01*
X0021596Y0054200D02*
X0024665Y0054200D01*
X0008800Y0025685D02*
X0008800Y0022616D01*
X0004196Y0022616D01*
X0004196Y0025685D01*
X0006498Y0024150D02*
X0006498Y0022616D01*
X0004963Y0021081D02*
X0004196Y0020314D01*
X0004196Y0018779D01*
X0004963Y0018012D01*
X0008033Y0018012D01*
X0008800Y0018779D01*
X0008800Y0020314D01*
X0008033Y0021081D01*
X0004196Y0016477D02*
X0008800Y0013408D01*
X0008800Y0011873D02*
X0008800Y0008804D01*
X0004196Y0008804D01*
X0004196Y0011873D01*
X0006498Y0010339D02*
X0006498Y0008804D01*
X0004963Y0007269D02*
X0004196Y0006502D01*
X0004196Y0004967D01*
X0004963Y0004200D01*
X0008033Y0004200D01*
X0008800Y0004967D01*
X0008800Y0006502D01*
X0008033Y0007269D01*
X0004963Y0007269D01*
X0078576Y0046200D02*
X0081646Y0049269D01*
X0081646Y0050037D01*
X0080878Y0050804D01*
X0079344Y0050804D01*
X0078576Y0050037D01*
X0078576Y0046200D02*
X0081646Y0046200D01*
X0083180Y0046200D02*
X0083180Y0046967D01*
X0086250Y0050037D01*
X0086250Y0050804D01*
X0083180Y0050804D01*
X0087784Y0050037D02*
X0087784Y0046967D01*
X0088552Y0046200D01*
X0090086Y0046200D01*
X0090854Y0046967D01*
X0092388Y0046200D02*
X0095457Y0046200D01*
X0093923Y0046200D02*
X0093923Y0050804D01*
X0092388Y0049269D01*
X0090854Y0050037D02*
X0090086Y0050804D01*
X0088552Y0050804D01*
X0087784Y0050037D01*
X0096992Y0050037D02*
X0097759Y0050804D01*
X0099294Y0050804D01*
X0100061Y0050037D01*
X0100061Y0049269D01*
X0096992Y0046200D01*
X0100061Y0046200D01*
X0101596Y0046967D02*
X0101596Y0047735D01*
X0102363Y0048502D01*
X0103898Y0048502D01*
X0104665Y0047735D01*
X0104665Y0046967D01*
X0103898Y0046200D01*
X0102363Y0046200D01*
X0101596Y0046967D01*
X0102363Y0048502D02*
X0101596Y0049269D01*
X0101596Y0050037D01*
X0102363Y0050804D01*
X0103898Y0050804D01*
X0104665Y0050037D01*
X0104665Y0049269D01*
X0103898Y0048502D01*
X0098898Y0081200D02*
X0097363Y0081200D01*
X0096596Y0081967D01*
X0099665Y0085037D01*
X0099665Y0081967D01*
X0098898Y0081200D01*
X0096596Y0081967D02*
X0096596Y0085037D01*
X0097363Y0085804D01*
X0098898Y0085804D01*
X0099665Y0085037D01*
X0095061Y0081200D02*
X0091992Y0081200D01*
X0093527Y0081200D02*
X0093527Y0085804D01*
X0091992Y0084269D01*
X0090457Y0085037D02*
X0089690Y0085804D01*
X0088155Y0085804D01*
X0087388Y0085037D01*
X0087388Y0081967D01*
X0088155Y0081200D01*
X0089690Y0081200D01*
X0090457Y0081967D01*
X0085854Y0081200D02*
X0084319Y0081200D01*
X0085086Y0081200D02*
X0085086Y0085804D01*
X0084319Y0085804D02*
X0085854Y0085804D01*
X0101200Y0111200D02*
X0104269Y0111200D01*
X0105804Y0111967D02*
X0105804Y0112735D01*
X0106571Y0113502D01*
X0108106Y0113502D01*
X0108873Y0112735D01*
X0108873Y0111967D01*
X0108106Y0111200D01*
X0106571Y0111200D01*
X0105804Y0111967D01*
X0106571Y0113502D02*
X0105804Y0114269D01*
X0105804Y0115037D01*
X0106571Y0115804D01*
X0108106Y0115804D01*
X0108873Y0115037D01*
X0108873Y0114269D01*
X0108106Y0113502D01*
X0110408Y0111967D02*
X0110408Y0115037D01*
X0111175Y0115804D01*
X0112710Y0115804D01*
X0113477Y0115037D01*
X0110408Y0111967D01*
X0111175Y0111200D01*
X0112710Y0111200D01*
X0113477Y0111967D01*
X0113477Y0115037D01*
X0119616Y0115037D02*
X0119616Y0111967D01*
X0120383Y0111200D01*
X0121918Y0111200D01*
X0122685Y0111967D01*
X0124220Y0111200D02*
X0124220Y0115804D01*
X0126522Y0115804D01*
X0127289Y0115037D01*
X0127289Y0113502D01*
X0126522Y0112735D01*
X0124220Y0112735D01*
X0122685Y0115037D02*
X0121918Y0115804D01*
X0120383Y0115804D01*
X0119616Y0115037D01*
X0128824Y0115804D02*
X0128824Y0111967D01*
X0129591Y0111200D01*
X0131126Y0111200D01*
X0131893Y0111967D01*
X0131893Y0115804D01*
X0151200Y0092502D02*
X0154269Y0092502D01*
X0152735Y0094037D02*
X0152735Y0090967D01*
X0153498Y0029665D02*
X0153498Y0026596D01*
X0151963Y0028131D02*
X0155033Y0028131D01*
X0101200Y0111200D02*
X0101200Y0111967D01*
X0104269Y0115037D01*
X0104269Y0115804D01*
X0101200Y0115804D01*
X0121196Y0216200D02*
X0121196Y0217735D01*
X0121196Y0216967D02*
X0125800Y0216967D01*
X0125800Y0216200D02*
X0125800Y0217735D01*
X0125033Y0219269D02*
X0125800Y0220037D01*
X0125800Y0221571D01*
X0125033Y0222339D01*
X0125800Y0223873D02*
X0125800Y0226942D01*
X0125800Y0225408D02*
X0121196Y0225408D01*
X0122731Y0223873D01*
X0121963Y0222339D02*
X0121196Y0221571D01*
X0121196Y0220037D01*
X0121963Y0219269D01*
X0125033Y0219269D01*
X0028477Y0249200D02*
X0026942Y0250735D01*
X0027710Y0250735D02*
X0025408Y0250735D01*
X0025408Y0249200D02*
X0025408Y0253804D01*
X0027710Y0253804D01*
X0028477Y0253037D01*
X0028477Y0251502D01*
X0027710Y0250735D01*
X0023873Y0249200D02*
X0023873Y0253804D01*
X0025408Y0256200D02*
X0028477Y0256200D01*
X0026942Y0256200D02*
X0026942Y0260804D01*
X0025408Y0259269D01*
X0023873Y0258502D02*
X0023106Y0257735D01*
X0020804Y0257735D01*
X0020804Y0256200D02*
X0020804Y0260804D01*
X0023106Y0260804D01*
X0023873Y0260037D01*
X0023873Y0258502D01*
X0019269Y0260804D02*
X0017735Y0260804D01*
X0018502Y0260804D02*
X0018502Y0256967D01*
X0017735Y0256200D01*
X0016967Y0256200D01*
X0016200Y0256967D01*
X0016200Y0253804D02*
X0018502Y0253804D01*
X0019269Y0253037D01*
X0019269Y0251502D01*
X0018502Y0250735D01*
X0016200Y0250735D01*
X0016200Y0249200D02*
X0016200Y0253804D01*
X0020804Y0253804D02*
X0020804Y0249200D01*
X0022339Y0250735D01*
X0023873Y0249200D01*
D12*
X0022302Y0239853D02*
X0019833Y0239853D01*
X0018002Y0239853D02*
X0018002Y0236150D01*
X0019833Y0236150D02*
X0019833Y0236767D01*
X0022302Y0239236D01*
X0022302Y0239853D01*
X0023516Y0238619D02*
X0023516Y0236767D01*
X0024133Y0236150D01*
X0025985Y0236150D01*
X0025985Y0238619D01*
X0027199Y0238002D02*
X0028434Y0238002D01*
X0029668Y0239853D02*
X0027199Y0239853D01*
X0027199Y0236150D01*
X0018619Y0238002D02*
X0016150Y0238002D01*
X0018002Y0239853D01*
X0017634Y0266150D02*
X0018601Y0266150D01*
X0019085Y0266634D01*
X0019085Y0267601D01*
X0018117Y0267601D01*
X0017150Y0266634D02*
X0017150Y0268569D01*
X0017634Y0269052D01*
X0018601Y0269052D01*
X0019085Y0268569D01*
X0020097Y0269052D02*
X0022031Y0266150D01*
X0022031Y0269052D01*
X0023043Y0269052D02*
X0024494Y0269052D01*
X0024978Y0268569D01*
X0024978Y0266634D01*
X0024494Y0266150D01*
X0023043Y0266150D01*
X0023043Y0269052D01*
X0020097Y0269052D02*
X0020097Y0266150D01*
X0017634Y0266150D02*
X0017150Y0266634D01*
X0013978Y0266150D02*
X0012043Y0266150D01*
X0013978Y0268085D01*
X0013978Y0268569D01*
X0013494Y0269052D01*
X0012527Y0269052D01*
X0012043Y0268569D01*
X0010064Y0269052D02*
X0010064Y0266150D01*
X0009097Y0266150D02*
X0011031Y0266150D01*
X0009097Y0268085D02*
X0010064Y0269052D01*
X0008085Y0267601D02*
X0006150Y0267601D01*
X0007117Y0266634D02*
X0007117Y0268569D01*
X0010097Y0287150D02*
X0012031Y0287150D01*
X0011064Y0287150D02*
X0011064Y0290052D01*
X0010097Y0289085D01*
X0009085Y0288601D02*
X0007150Y0288601D01*
X0008117Y0287634D02*
X0008117Y0289569D01*
X0013043Y0289569D02*
X0013527Y0290052D01*
X0014494Y0290052D01*
X0014978Y0289569D01*
X0014978Y0289085D01*
X0013043Y0287150D01*
X0014978Y0287150D01*
X0017150Y0287634D02*
X0017634Y0287150D01*
X0018601Y0287150D01*
X0019085Y0287634D01*
X0019085Y0288601D01*
X0018117Y0288601D01*
X0017150Y0287634D02*
X0017150Y0289569D01*
X0017634Y0290052D01*
X0018601Y0290052D01*
X0019085Y0289569D01*
X0020097Y0290052D02*
X0022031Y0287150D01*
X0022031Y0290052D01*
X0023043Y0290052D02*
X0024494Y0290052D01*
X0024978Y0289569D01*
X0024978Y0287634D01*
X0024494Y0287150D01*
X0023043Y0287150D01*
X0023043Y0290052D01*
X0020097Y0290052D02*
X0020097Y0287150D01*
X0027150Y0288601D02*
X0029085Y0288601D01*
X0030097Y0289085D02*
X0031064Y0290052D01*
X0031064Y0287150D01*
X0030097Y0287150D02*
X0032031Y0287150D01*
X0033043Y0287150D02*
X0034978Y0289085D01*
X0034978Y0289569D01*
X0034494Y0290052D01*
X0033527Y0290052D01*
X0033043Y0289569D01*
X0033043Y0287150D02*
X0034978Y0287150D01*
X0046150Y0292384D02*
X0047384Y0291150D01*
X0048619Y0292384D01*
X0048619Y0294853D01*
X0049833Y0294853D02*
X0049833Y0291150D01*
X0049833Y0292384D02*
X0051685Y0292384D01*
X0052302Y0293002D01*
X0052302Y0294236D01*
X0051685Y0294853D01*
X0049833Y0294853D01*
X0051068Y0292384D02*
X0052302Y0291150D01*
X0053516Y0291150D02*
X0055985Y0291150D01*
X0057199Y0291767D02*
X0057199Y0294236D01*
X0057817Y0294853D01*
X0059051Y0294853D01*
X0059668Y0294236D01*
X0059668Y0293002D02*
X0058434Y0293002D01*
X0059668Y0293002D02*
X0059668Y0291767D01*
X0059051Y0291150D01*
X0057817Y0291150D01*
X0057199Y0291767D01*
X0054751Y0293002D02*
X0053516Y0293002D01*
X0053516Y0294853D02*
X0053516Y0291150D01*
X0053516Y0294853D02*
X0055985Y0294853D01*
X0060883Y0293619D02*
X0062117Y0294853D01*
X0062117Y0291150D01*
X0060883Y0291150D02*
X0063351Y0291150D01*
X0063998Y0283351D02*
X0063381Y0282734D01*
X0063381Y0282117D01*
X0063998Y0280883D01*
X0062147Y0280883D01*
X0062147Y0283351D01*
X0063998Y0283351D02*
X0065233Y0283351D01*
X0065850Y0282734D01*
X0065850Y0281500D01*
X0065233Y0280883D01*
X0065233Y0279668D02*
X0062764Y0279668D01*
X0065233Y0277199D01*
X0065850Y0277817D01*
X0065850Y0279051D01*
X0065233Y0279668D01*
X0065233Y0277199D02*
X0062764Y0277199D01*
X0062147Y0277817D01*
X0062147Y0279051D01*
X0062764Y0279668D01*
X0065850Y0275985D02*
X0065850Y0273516D01*
X0062147Y0273516D01*
X0062764Y0272302D02*
X0063381Y0272302D01*
X0063998Y0271685D01*
X0063998Y0270450D01*
X0063381Y0269833D01*
X0062764Y0269833D01*
X0062147Y0270450D01*
X0062147Y0271685D01*
X0062764Y0272302D01*
X0063998Y0271685D02*
X0064616Y0272302D01*
X0065233Y0272302D01*
X0065850Y0271685D01*
X0065850Y0270450D01*
X0065233Y0269833D01*
X0064616Y0269833D01*
X0063998Y0270450D01*
X0062764Y0268619D02*
X0065233Y0266150D01*
X0065850Y0266150D01*
X0062147Y0266150D02*
X0062147Y0268619D01*
X0062764Y0268619D01*
X0046150Y0292384D02*
X0046150Y0294853D01*
X0034494Y0269052D02*
X0033527Y0269052D01*
X0033043Y0268569D01*
X0034494Y0269052D02*
X0034978Y0268569D01*
X0034978Y0268085D01*
X0033043Y0266150D01*
X0034978Y0266150D01*
X0032031Y0266150D02*
X0030097Y0266150D01*
X0031064Y0266150D02*
X0031064Y0269052D01*
X0030097Y0268085D01*
X0029085Y0267601D02*
X0027150Y0267601D01*
X0041002Y0239853D02*
X0039150Y0238002D01*
X0041619Y0238002D01*
X0042833Y0236767D02*
X0042833Y0236150D01*
X0042833Y0236767D02*
X0045302Y0239236D01*
X0045302Y0239853D01*
X0042833Y0239853D01*
X0041002Y0239853D02*
X0041002Y0236150D01*
X0046516Y0236767D02*
X0047133Y0236150D01*
X0048985Y0236150D01*
X0048985Y0238619D01*
X0050199Y0238002D02*
X0051434Y0238002D01*
X0052668Y0239853D02*
X0050199Y0239853D01*
X0050199Y0236150D01*
X0046516Y0236767D02*
X0046516Y0238619D01*
X0045936Y0205853D02*
X0043467Y0205853D01*
X0043467Y0204002D01*
X0044701Y0204619D01*
X0045318Y0204619D01*
X0045936Y0204002D01*
X0045936Y0202767D01*
X0045318Y0202150D01*
X0044084Y0202150D01*
X0043467Y0202767D01*
X0042252Y0202767D02*
X0041635Y0202150D01*
X0040401Y0202150D01*
X0039784Y0202767D01*
X0039784Y0205236D01*
X0040401Y0205853D01*
X0041635Y0205853D01*
X0042252Y0205236D01*
X0023936Y0205853D02*
X0022701Y0205236D01*
X0021467Y0204002D01*
X0023318Y0204002D01*
X0023936Y0203384D01*
X0023936Y0202767D01*
X0023318Y0202150D01*
X0022084Y0202150D01*
X0021467Y0202767D01*
X0021467Y0204002D01*
X0020252Y0205236D02*
X0019635Y0205853D01*
X0018401Y0205853D01*
X0017784Y0205236D01*
X0017784Y0202767D01*
X0018401Y0202150D01*
X0019635Y0202150D01*
X0020252Y0202767D01*
X0026150Y0154853D02*
X0028619Y0154853D01*
X0029833Y0153002D02*
X0032302Y0153002D01*
X0031685Y0154853D02*
X0031685Y0151150D01*
X0032302Y0149853D02*
X0032302Y0146150D01*
X0033516Y0146150D02*
X0033516Y0149853D01*
X0035368Y0149853D01*
X0035985Y0149236D01*
X0035985Y0148002D01*
X0035368Y0147384D01*
X0033516Y0147384D01*
X0033516Y0144853D02*
X0033516Y0141150D01*
X0032302Y0141150D02*
X0030450Y0141150D01*
X0029833Y0141767D01*
X0029833Y0143002D01*
X0030450Y0143619D01*
X0032302Y0143619D01*
X0033516Y0143002D02*
X0034133Y0143619D01*
X0035368Y0143619D01*
X0035985Y0143002D01*
X0035985Y0141150D01*
X0037199Y0141767D02*
X0037199Y0143002D01*
X0037817Y0143619D01*
X0039051Y0143619D01*
X0039668Y0143002D01*
X0039668Y0142384D01*
X0037199Y0142384D01*
X0037199Y0141767D02*
X0037817Y0141150D01*
X0039051Y0141150D01*
X0040883Y0141150D02*
X0040883Y0143619D01*
X0041500Y0143619D01*
X0042117Y0143002D01*
X0042734Y0143619D01*
X0043351Y0143002D01*
X0043351Y0141150D01*
X0042117Y0141150D02*
X0042117Y0143002D01*
X0044566Y0141767D02*
X0045183Y0142384D01*
X0047034Y0142384D01*
X0047034Y0143002D02*
X0047034Y0141150D01*
X0045183Y0141150D01*
X0044566Y0141767D01*
X0045183Y0143619D02*
X0046417Y0143619D01*
X0047034Y0143002D01*
X0048249Y0143619D02*
X0049483Y0143619D01*
X0048866Y0144236D02*
X0048866Y0141767D01*
X0049483Y0141150D01*
X0050704Y0141150D02*
X0051939Y0141150D01*
X0051321Y0141150D02*
X0051321Y0143619D01*
X0050704Y0143619D01*
X0051321Y0144853D02*
X0051321Y0145470D01*
X0050718Y0146150D02*
X0048249Y0146150D01*
X0048249Y0149853D01*
X0048866Y0151150D02*
X0048249Y0151767D01*
X0048249Y0153002D01*
X0048866Y0153619D01*
X0050100Y0153619D01*
X0050718Y0153002D01*
X0050718Y0152384D01*
X0048249Y0152384D01*
X0047034Y0153002D02*
X0047034Y0151150D01*
X0048866Y0151150D02*
X0050100Y0151150D01*
X0051932Y0151150D02*
X0051932Y0153619D01*
X0052549Y0153619D01*
X0053166Y0153002D01*
X0053784Y0153619D01*
X0054401Y0153002D01*
X0054401Y0151150D01*
X0053166Y0151150D02*
X0053166Y0153002D01*
X0052549Y0150470D02*
X0052549Y0149853D01*
X0052549Y0148619D02*
X0052549Y0146150D01*
X0051932Y0146150D02*
X0053166Y0146150D01*
X0054387Y0146767D02*
X0055005Y0146150D01*
X0056856Y0146150D01*
X0056856Y0145533D02*
X0056856Y0148619D01*
X0055005Y0148619D01*
X0054387Y0148002D01*
X0054387Y0146767D01*
X0055622Y0144916D02*
X0056239Y0144916D01*
X0056856Y0145533D01*
X0058071Y0146150D02*
X0058071Y0149853D01*
X0058084Y0151150D02*
X0056232Y0151150D01*
X0055615Y0151767D01*
X0056232Y0152384D01*
X0058084Y0152384D01*
X0058084Y0153002D02*
X0058084Y0151150D01*
X0058084Y0153002D02*
X0057467Y0153619D01*
X0056232Y0153619D01*
X0058688Y0148619D02*
X0059922Y0148619D01*
X0060539Y0148002D01*
X0060539Y0146150D01*
X0062371Y0146767D02*
X0062371Y0149236D01*
X0061754Y0148619D02*
X0062988Y0148619D01*
X0062371Y0146767D02*
X0062988Y0146150D01*
X0062995Y0144853D02*
X0062995Y0141150D01*
X0061143Y0141150D01*
X0060526Y0141767D01*
X0060526Y0143002D01*
X0061143Y0143619D01*
X0062995Y0143619D01*
X0064209Y0143619D02*
X0064209Y0141150D01*
X0064209Y0142384D02*
X0065444Y0143619D01*
X0066061Y0143619D01*
X0067896Y0143619D02*
X0069130Y0143619D01*
X0069747Y0143002D01*
X0069747Y0141150D01*
X0067896Y0141150D01*
X0067278Y0141767D01*
X0067896Y0142384D01*
X0069747Y0142384D01*
X0070962Y0141767D02*
X0070962Y0143619D01*
X0070962Y0141767D02*
X0071579Y0141150D01*
X0072196Y0141767D01*
X0072813Y0141150D01*
X0073430Y0141767D01*
X0073430Y0143619D01*
X0074645Y0143619D02*
X0075262Y0143619D01*
X0075262Y0141150D01*
X0074645Y0141150D02*
X0075879Y0141150D01*
X0075262Y0140470D02*
X0075262Y0139853D01*
X0075262Y0138619D02*
X0075262Y0136150D01*
X0074645Y0136150D02*
X0075879Y0136150D01*
X0077100Y0136150D02*
X0077100Y0138619D01*
X0078952Y0138619D01*
X0079569Y0138002D01*
X0079569Y0136150D01*
X0080783Y0136767D02*
X0081400Y0136150D01*
X0083252Y0136150D01*
X0083252Y0135533D02*
X0083252Y0138619D01*
X0081400Y0138619D01*
X0080783Y0138002D01*
X0080783Y0136767D01*
X0082018Y0134916D02*
X0082635Y0134916D01*
X0083252Y0135533D01*
X0082635Y0139916D02*
X0083252Y0140533D01*
X0083252Y0143619D01*
X0081400Y0143619D01*
X0080783Y0143002D01*
X0080783Y0141767D01*
X0081400Y0141150D01*
X0083252Y0141150D01*
X0082635Y0139916D02*
X0082018Y0139916D01*
X0079569Y0141150D02*
X0079569Y0143002D01*
X0078952Y0143619D01*
X0077100Y0143619D01*
X0077100Y0141150D01*
X0075262Y0138619D02*
X0074645Y0138619D01*
X0073430Y0138619D02*
X0073430Y0135533D01*
X0072813Y0134916D01*
X0072196Y0134916D01*
X0071579Y0136150D02*
X0070962Y0136767D01*
X0070962Y0138002D01*
X0071579Y0138619D01*
X0073430Y0138619D01*
X0073430Y0136150D02*
X0071579Y0136150D01*
X0069744Y0138619D02*
X0069127Y0138619D01*
X0067892Y0137384D01*
X0066678Y0137384D02*
X0064209Y0137384D01*
X0064209Y0136767D02*
X0064209Y0138002D01*
X0064826Y0138619D01*
X0066061Y0138619D01*
X0066678Y0138002D01*
X0066678Y0137384D01*
X0066061Y0136150D02*
X0064826Y0136150D01*
X0064209Y0136767D01*
X0062995Y0136150D02*
X0062995Y0138002D01*
X0062378Y0138619D01*
X0061760Y0138002D01*
X0061760Y0136150D01*
X0060526Y0136150D02*
X0060526Y0138619D01*
X0061143Y0138619D01*
X0061760Y0138002D01*
X0067892Y0138619D02*
X0067892Y0136150D01*
X0067892Y0146150D02*
X0069744Y0146150D01*
X0070361Y0146767D01*
X0069744Y0147384D01*
X0068509Y0147384D01*
X0067892Y0148002D01*
X0068509Y0148619D01*
X0070361Y0148619D01*
X0071575Y0148002D02*
X0071575Y0146767D01*
X0072193Y0146150D01*
X0074044Y0146150D01*
X0075259Y0146150D02*
X0075259Y0149853D01*
X0076493Y0149916D02*
X0077110Y0149916D01*
X0077727Y0150533D01*
X0077727Y0153619D01*
X0075259Y0153619D02*
X0075259Y0151767D01*
X0075876Y0151150D01*
X0077727Y0151150D01*
X0077110Y0148619D02*
X0077727Y0148002D01*
X0077727Y0146150D01*
X0078942Y0146767D02*
X0078942Y0148002D01*
X0079559Y0148619D01*
X0080793Y0148619D01*
X0081411Y0148002D01*
X0081411Y0147384D01*
X0078942Y0147384D01*
X0078942Y0146767D02*
X0079559Y0146150D01*
X0080793Y0146150D01*
X0082625Y0146150D02*
X0082625Y0148619D01*
X0083242Y0148619D01*
X0083859Y0148002D01*
X0084476Y0148619D01*
X0085094Y0148002D01*
X0085094Y0146150D01*
X0083859Y0146150D02*
X0083859Y0148002D01*
X0086308Y0146767D02*
X0086925Y0147384D01*
X0088777Y0147384D01*
X0088777Y0148002D02*
X0088777Y0146150D01*
X0086925Y0146150D01*
X0086308Y0146767D01*
X0086925Y0148619D02*
X0088160Y0148619D01*
X0088777Y0148002D01*
X0089991Y0148619D02*
X0091226Y0148619D01*
X0090608Y0149236D02*
X0090608Y0146767D01*
X0091226Y0146150D01*
X0092447Y0146150D02*
X0093681Y0146150D01*
X0093064Y0146150D02*
X0093064Y0148619D01*
X0092447Y0148619D01*
X0093064Y0149853D02*
X0093064Y0150470D01*
X0092460Y0151150D02*
X0092460Y0153002D01*
X0091843Y0153619D01*
X0091226Y0153002D01*
X0091226Y0151150D01*
X0089991Y0151150D02*
X0089991Y0153619D01*
X0090608Y0153619D01*
X0091226Y0153002D01*
X0088777Y0153002D02*
X0088777Y0151150D01*
X0086925Y0151150D01*
X0086308Y0151767D01*
X0086925Y0152384D01*
X0088777Y0152384D01*
X0088777Y0153002D02*
X0088160Y0153619D01*
X0086925Y0153619D01*
X0085094Y0154853D02*
X0082625Y0152384D01*
X0083242Y0153002D02*
X0085094Y0151150D01*
X0082625Y0151150D02*
X0082625Y0154853D01*
X0077110Y0148619D02*
X0075876Y0148619D01*
X0075259Y0148002D01*
X0074044Y0148619D02*
X0072193Y0148619D01*
X0071575Y0148002D01*
X0071575Y0151150D02*
X0073427Y0151150D01*
X0074044Y0151767D01*
X0074044Y0153002D01*
X0073427Y0153619D01*
X0071575Y0153619D01*
X0071575Y0154853D02*
X0071575Y0151150D01*
X0075262Y0145470D02*
X0075262Y0144853D01*
X0066678Y0151150D02*
X0064826Y0151150D01*
X0064209Y0151767D01*
X0064209Y0153002D01*
X0064826Y0153619D01*
X0066678Y0153619D01*
X0062371Y0153619D02*
X0062371Y0151150D01*
X0061754Y0151150D02*
X0062988Y0151150D01*
X0060533Y0151150D02*
X0059915Y0151767D01*
X0059915Y0154236D01*
X0059298Y0153619D02*
X0060533Y0153619D01*
X0061754Y0153619D02*
X0062371Y0153619D01*
X0062371Y0154853D02*
X0062371Y0155470D01*
X0058688Y0148619D02*
X0058071Y0148002D01*
X0055628Y0143619D02*
X0053777Y0143619D01*
X0053160Y0143002D01*
X0053160Y0141767D01*
X0053777Y0141150D01*
X0055628Y0141150D01*
X0055628Y0138619D02*
X0053777Y0138619D01*
X0053160Y0138002D01*
X0053160Y0136767D01*
X0053777Y0136150D01*
X0055628Y0136150D01*
X0051939Y0136150D02*
X0050704Y0136150D01*
X0051321Y0136150D02*
X0051321Y0138619D01*
X0050704Y0138619D01*
X0049483Y0138619D02*
X0048249Y0138619D01*
X0048866Y0139236D02*
X0048866Y0136767D01*
X0049483Y0136150D01*
X0047034Y0136150D02*
X0045183Y0136150D01*
X0044566Y0136767D01*
X0045183Y0137384D01*
X0047034Y0137384D01*
X0047034Y0138002D02*
X0047034Y0136150D01*
X0047034Y0138002D02*
X0046417Y0138619D01*
X0045183Y0138619D01*
X0043351Y0138002D02*
X0043351Y0136150D01*
X0042117Y0136150D02*
X0042117Y0138002D01*
X0042734Y0138619D01*
X0043351Y0138002D01*
X0042117Y0138002D02*
X0041500Y0138619D01*
X0040883Y0138619D01*
X0040883Y0136150D01*
X0039668Y0137384D02*
X0037199Y0137384D01*
X0037199Y0136767D02*
X0037199Y0138002D01*
X0037817Y0138619D01*
X0039051Y0138619D01*
X0039668Y0138002D01*
X0039668Y0137384D01*
X0039051Y0136150D02*
X0037817Y0136150D01*
X0037199Y0136767D01*
X0035985Y0136150D02*
X0035985Y0138002D01*
X0035368Y0138619D01*
X0034133Y0138619D01*
X0033516Y0138002D01*
X0032302Y0138619D02*
X0030450Y0138619D01*
X0029833Y0138002D01*
X0029833Y0136767D01*
X0030450Y0136150D01*
X0032302Y0136150D01*
X0033516Y0136150D02*
X0033516Y0139853D01*
X0028619Y0139236D02*
X0028002Y0139853D01*
X0026767Y0139853D01*
X0026150Y0139236D01*
X0026150Y0138619D01*
X0026767Y0138002D01*
X0028002Y0138002D01*
X0028619Y0137384D01*
X0028619Y0136767D01*
X0028002Y0136150D01*
X0026767Y0136150D01*
X0026150Y0136767D01*
X0026767Y0141150D02*
X0026150Y0141767D01*
X0026767Y0141150D02*
X0028002Y0141150D01*
X0028619Y0141767D01*
X0028619Y0142384D01*
X0028002Y0143002D01*
X0026767Y0143002D01*
X0026150Y0143619D01*
X0026150Y0144236D01*
X0026767Y0144853D01*
X0028002Y0144853D01*
X0028619Y0144236D01*
X0029833Y0146150D02*
X0029833Y0149853D01*
X0031068Y0148619D01*
X0032302Y0149853D01*
X0028619Y0149853D02*
X0026150Y0149853D01*
X0026150Y0146150D01*
X0026150Y0148002D02*
X0027384Y0148002D01*
X0026150Y0151150D02*
X0026150Y0154853D01*
X0026150Y0153002D02*
X0027384Y0153002D01*
X0029833Y0153002D02*
X0031685Y0154853D01*
X0037199Y0153002D02*
X0037817Y0153619D01*
X0039668Y0153619D01*
X0040883Y0153002D02*
X0040883Y0151767D01*
X0041500Y0151150D01*
X0043351Y0151150D01*
X0044566Y0151150D02*
X0044566Y0154853D01*
X0045183Y0153619D02*
X0044566Y0153002D01*
X0045183Y0153619D02*
X0046417Y0153619D01*
X0047034Y0153002D01*
X0043351Y0153619D02*
X0041500Y0153619D01*
X0040883Y0153002D01*
X0039668Y0151767D02*
X0039051Y0151150D01*
X0037199Y0151150D01*
X0037817Y0152384D02*
X0037199Y0153002D01*
X0037817Y0152384D02*
X0039051Y0152384D01*
X0039668Y0151767D01*
X0038434Y0149853D02*
X0037199Y0148619D01*
X0037199Y0146150D01*
X0037199Y0148002D02*
X0039668Y0148002D01*
X0039668Y0148619D02*
X0039668Y0146150D01*
X0040883Y0146767D02*
X0040883Y0149236D01*
X0041500Y0149853D01*
X0042734Y0149853D01*
X0043351Y0149236D01*
X0043351Y0146767D02*
X0042734Y0146150D01*
X0041500Y0146150D01*
X0040883Y0146767D01*
X0039668Y0148619D02*
X0038434Y0149853D01*
X0051932Y0148619D02*
X0052549Y0148619D01*
X0051321Y0140470D02*
X0051321Y0139853D01*
X0024936Y0090853D02*
X0022467Y0090853D01*
X0022467Y0089002D01*
X0023701Y0089619D01*
X0024318Y0089619D01*
X0024936Y0089002D01*
X0024936Y0087767D01*
X0024318Y0087150D01*
X0023084Y0087150D01*
X0022467Y0087767D01*
X0021252Y0087767D02*
X0020635Y0087150D01*
X0019401Y0087150D01*
X0018784Y0087767D01*
X0021252Y0090236D01*
X0021252Y0087767D01*
X0018784Y0087767D02*
X0018784Y0090236D01*
X0019401Y0090853D01*
X0020635Y0090853D01*
X0021252Y0090236D01*
X0017569Y0087150D02*
X0015101Y0087150D01*
X0015101Y0090853D01*
X0013886Y0090236D02*
X0013886Y0089619D01*
X0013269Y0089002D01*
X0012035Y0089002D01*
X0011417Y0089619D01*
X0011417Y0090236D01*
X0012035Y0090853D01*
X0013269Y0090853D01*
X0013886Y0090236D01*
X0013269Y0089002D02*
X0013886Y0088384D01*
X0013886Y0087767D01*
X0013269Y0087150D01*
X0012035Y0087150D01*
X0011417Y0087767D01*
X0011417Y0088384D01*
X0012035Y0089002D01*
X0010203Y0090236D02*
X0010203Y0090853D01*
X0007734Y0090853D01*
X0010203Y0090236D02*
X0007734Y0087767D01*
X0007734Y0087150D01*
X0006850Y0083351D02*
X0006850Y0080883D01*
X0004381Y0083351D01*
X0003764Y0083351D01*
X0003147Y0082734D01*
X0003147Y0081500D01*
X0003764Y0080883D01*
X0003764Y0079668D02*
X0003147Y0079051D01*
X0003147Y0077817D01*
X0003764Y0077199D01*
X0006233Y0077199D01*
X0006850Y0077817D01*
X0006850Y0079051D01*
X0006233Y0079668D01*
X0004998Y0079668D01*
X0004998Y0078434D01*
X0003147Y0075985D02*
X0003147Y0073516D01*
X0006850Y0073516D01*
X0006850Y0075985D01*
X0004998Y0074751D02*
X0004998Y0073516D01*
X0004998Y0072302D02*
X0005616Y0071685D01*
X0005616Y0069833D01*
X0005616Y0068619D02*
X0003147Y0068619D01*
X0003147Y0069833D02*
X0003147Y0071685D01*
X0003764Y0072302D01*
X0004998Y0072302D01*
X0005616Y0071068D02*
X0006850Y0072302D01*
X0006850Y0069833D02*
X0003147Y0069833D01*
X0005616Y0068619D02*
X0006850Y0067384D01*
X0005616Y0066150D01*
X0003147Y0066150D01*
X0005850Y0057818D02*
X0005850Y0055883D01*
X0002948Y0055883D01*
X0002948Y0054871D02*
X0002948Y0052936D01*
X0005850Y0052936D01*
X0005850Y0054871D01*
X0004399Y0053904D02*
X0004399Y0052936D01*
X0004883Y0051925D02*
X0004399Y0051441D01*
X0004399Y0050473D01*
X0003915Y0049990D01*
X0003431Y0049990D01*
X0002948Y0050473D01*
X0002948Y0051441D01*
X0003431Y0051925D01*
X0004883Y0051925D02*
X0005366Y0051925D01*
X0005850Y0051441D01*
X0005850Y0050473D01*
X0005366Y0049990D01*
X0005850Y0048011D02*
X0002948Y0048011D01*
X0002948Y0048978D02*
X0002948Y0047043D01*
X0002948Y0044097D02*
X0005850Y0044097D01*
X0005850Y0046031D01*
X0005366Y0043085D02*
X0005850Y0042601D01*
X0005850Y0041634D01*
X0005366Y0041150D01*
X0004399Y0041634D02*
X0004399Y0042601D01*
X0004883Y0043085D01*
X0005366Y0043085D01*
X0004399Y0041634D02*
X0003915Y0041150D01*
X0003431Y0041150D01*
X0002948Y0041634D01*
X0002948Y0042601D01*
X0003431Y0043085D01*
X0008634Y0034052D02*
X0008150Y0033569D01*
X0008150Y0033085D01*
X0008634Y0032601D01*
X0009601Y0032601D01*
X0010085Y0032117D01*
X0010085Y0031634D01*
X0009601Y0031150D01*
X0008634Y0031150D01*
X0008150Y0031634D01*
X0008634Y0034052D02*
X0009601Y0034052D01*
X0010085Y0033569D01*
X0011097Y0034052D02*
X0011097Y0031150D01*
X0013031Y0031150D01*
X0015011Y0031150D02*
X0015011Y0034052D01*
X0015978Y0034052D02*
X0014043Y0034052D01*
X0018150Y0033569D02*
X0018150Y0031634D01*
X0018634Y0031150D01*
X0019601Y0031150D01*
X0020085Y0031634D01*
X0021097Y0031634D02*
X0021580Y0031150D01*
X0022548Y0031150D01*
X0023031Y0031634D01*
X0023031Y0032117D01*
X0022548Y0032601D01*
X0021580Y0032601D01*
X0021097Y0033085D01*
X0021097Y0033569D01*
X0021580Y0034052D01*
X0022548Y0034052D01*
X0023031Y0033569D01*
X0024043Y0033085D02*
X0025011Y0034052D01*
X0025011Y0031150D01*
X0025978Y0031150D02*
X0024043Y0031150D01*
X0020085Y0033569D02*
X0019601Y0034052D01*
X0018634Y0034052D01*
X0018150Y0033569D01*
X0027948Y0041634D02*
X0028431Y0041150D01*
X0030366Y0041150D01*
X0030850Y0041634D01*
X0030850Y0042601D01*
X0030366Y0043085D01*
X0030366Y0044097D02*
X0030850Y0044580D01*
X0030850Y0045548D01*
X0030366Y0046031D01*
X0029883Y0046031D01*
X0029399Y0045548D01*
X0029399Y0044580D01*
X0028915Y0044097D01*
X0028431Y0044097D01*
X0027948Y0044580D01*
X0027948Y0045548D01*
X0028431Y0046031D01*
X0028915Y0047043D02*
X0027948Y0048011D01*
X0030850Y0048011D01*
X0030850Y0048978D02*
X0030850Y0047043D01*
X0028431Y0043085D02*
X0027948Y0042601D01*
X0027948Y0041634D01*
X0037384Y0027853D02*
X0037384Y0024150D01*
X0036150Y0024150D02*
X0038619Y0024150D01*
X0039833Y0024767D02*
X0042302Y0027236D01*
X0042302Y0024767D01*
X0041685Y0024150D01*
X0040450Y0024150D01*
X0039833Y0024767D01*
X0039833Y0027236D01*
X0040450Y0027853D01*
X0041685Y0027853D01*
X0042302Y0027236D01*
X0043516Y0027236D02*
X0043516Y0024767D01*
X0045985Y0027236D01*
X0045985Y0024767D01*
X0045368Y0024150D01*
X0044133Y0024150D01*
X0043516Y0024767D01*
X0043516Y0027236D02*
X0044133Y0027853D01*
X0045368Y0027853D01*
X0045985Y0027236D01*
X0047199Y0026619D02*
X0049051Y0026619D01*
X0049668Y0026002D01*
X0049668Y0024150D01*
X0050883Y0024150D02*
X0050883Y0027853D01*
X0053351Y0027853D01*
X0052117Y0026002D02*
X0050883Y0026002D01*
X0047199Y0026619D02*
X0047199Y0024150D01*
X0037384Y0027853D02*
X0036150Y0026619D01*
X0035233Y0017302D02*
X0035850Y0016685D01*
X0035850Y0015450D01*
X0035233Y0014833D01*
X0034616Y0014833D01*
X0033998Y0015450D01*
X0033998Y0016685D01*
X0034616Y0017302D01*
X0035233Y0017302D01*
X0033998Y0016685D02*
X0033381Y0017302D01*
X0032764Y0017302D01*
X0032147Y0016685D01*
X0032147Y0015450D01*
X0032764Y0014833D01*
X0033381Y0014833D01*
X0033998Y0015450D01*
X0032764Y0013619D02*
X0032147Y0013002D01*
X0032147Y0011767D01*
X0032764Y0011150D01*
X0035233Y0011150D01*
X0035850Y0011767D01*
X0035850Y0013002D01*
X0035233Y0013619D01*
X0070635Y0010236D02*
X0070635Y0007767D01*
X0071253Y0007150D01*
X0072487Y0007150D01*
X0073104Y0007767D01*
X0073104Y0010236D01*
X0072487Y0010853D01*
X0071253Y0010853D01*
X0070635Y0010236D01*
X0074319Y0009619D02*
X0074319Y0005916D01*
X0074319Y0007150D02*
X0076170Y0007150D01*
X0076787Y0007767D01*
X0076787Y0009002D01*
X0076170Y0009619D01*
X0074319Y0009619D01*
X0078002Y0009619D02*
X0079236Y0009619D01*
X0078619Y0010236D02*
X0078619Y0007767D01*
X0079236Y0007150D01*
X0080457Y0007150D02*
X0081691Y0007150D01*
X0081074Y0007150D02*
X0081074Y0009619D01*
X0080457Y0009619D01*
X0081074Y0010853D02*
X0081074Y0011470D01*
X0083530Y0009619D02*
X0082913Y0009002D01*
X0082913Y0007767D01*
X0083530Y0007150D01*
X0084764Y0007150D01*
X0085381Y0007767D01*
X0085381Y0009002D01*
X0084764Y0009619D01*
X0083530Y0009619D01*
X0086596Y0009619D02*
X0088447Y0009619D01*
X0089064Y0009002D01*
X0089064Y0007150D01*
X0090279Y0007767D02*
X0090896Y0008384D01*
X0092748Y0008384D01*
X0092748Y0009002D02*
X0092748Y0007150D01*
X0090896Y0007150D01*
X0090279Y0007767D01*
X0090896Y0009619D02*
X0092130Y0009619D01*
X0092748Y0009002D01*
X0093962Y0010853D02*
X0094579Y0010853D01*
X0094579Y0007150D01*
X0093962Y0007150D02*
X0095196Y0007150D01*
X0100101Y0007150D02*
X0100101Y0010853D01*
X0101952Y0010853D01*
X0102569Y0010236D01*
X0102569Y0009002D01*
X0101952Y0008384D01*
X0100101Y0008384D01*
X0101335Y0008384D02*
X0102569Y0007150D01*
X0103784Y0007767D02*
X0104401Y0007150D01*
X0105635Y0007150D01*
X0106252Y0007767D01*
X0106252Y0010236D01*
X0105635Y0010853D01*
X0104401Y0010853D01*
X0103784Y0010236D01*
X0103784Y0007767D01*
X0107467Y0007150D02*
X0107467Y0010853D01*
X0108701Y0009619D01*
X0109936Y0010853D01*
X0109936Y0007150D01*
X0086596Y0007150D02*
X0086596Y0009619D01*
X0043685Y0069150D02*
X0042450Y0069150D01*
X0041833Y0069767D01*
X0041833Y0070384D01*
X0042450Y0071002D01*
X0043685Y0071002D01*
X0044302Y0070384D01*
X0044302Y0069767D01*
X0043685Y0069150D01*
X0043685Y0071002D02*
X0044302Y0071619D01*
X0044302Y0072236D01*
X0043685Y0072853D01*
X0042450Y0072853D01*
X0041833Y0072236D01*
X0041833Y0071619D01*
X0042450Y0071002D01*
X0040619Y0070384D02*
X0040002Y0071002D01*
X0038150Y0071002D01*
X0038150Y0069767D01*
X0038767Y0069150D01*
X0040002Y0069150D01*
X0040619Y0069767D01*
X0040619Y0070384D01*
X0039384Y0072236D02*
X0038150Y0071002D01*
X0039384Y0072236D02*
X0040619Y0072853D01*
X0035850Y0076150D02*
X0032147Y0076150D01*
X0032147Y0078002D01*
X0032764Y0078619D01*
X0033998Y0078619D01*
X0034616Y0078002D01*
X0034616Y0076150D01*
X0034616Y0077384D02*
X0035850Y0078619D01*
X0035850Y0079833D02*
X0035850Y0082302D01*
X0035850Y0081068D02*
X0032147Y0081068D01*
X0033381Y0079833D01*
X0033998Y0083516D02*
X0033998Y0085368D01*
X0034616Y0085985D01*
X0035233Y0085985D01*
X0035850Y0085368D01*
X0035850Y0084133D01*
X0035233Y0083516D01*
X0033998Y0083516D01*
X0032764Y0084751D01*
X0032147Y0085985D01*
X0088150Y0136767D02*
X0088767Y0137384D01*
X0090618Y0137384D01*
X0090618Y0138002D02*
X0090618Y0136150D01*
X0088767Y0136150D01*
X0088150Y0136767D01*
X0088767Y0138619D02*
X0090001Y0138619D01*
X0090618Y0138002D01*
X0091833Y0138619D02*
X0091833Y0136150D01*
X0094302Y0136150D02*
X0094302Y0138002D01*
X0093684Y0138619D01*
X0091833Y0138619D01*
X0093067Y0139916D02*
X0093684Y0139916D01*
X0094302Y0140533D01*
X0094302Y0143619D01*
X0094302Y0141150D02*
X0092450Y0141150D01*
X0091833Y0141767D01*
X0091833Y0143619D01*
X0090618Y0143002D02*
X0090001Y0143619D01*
X0088150Y0143619D01*
X0088150Y0144853D02*
X0088150Y0141150D01*
X0090001Y0141150D01*
X0090618Y0141767D01*
X0090618Y0143002D01*
X0094902Y0146767D02*
X0095519Y0146150D01*
X0097371Y0146150D01*
X0099199Y0144853D02*
X0101051Y0144853D01*
X0101668Y0144236D01*
X0101668Y0141767D01*
X0101051Y0141150D01*
X0099199Y0141150D01*
X0099199Y0144853D01*
X0094902Y0146767D02*
X0094902Y0148002D01*
X0095519Y0148619D01*
X0097371Y0148619D01*
X0097364Y0151150D02*
X0096130Y0151150D01*
X0096747Y0151150D02*
X0096747Y0154853D01*
X0096130Y0154853D01*
X0094291Y0154853D02*
X0094291Y0155470D01*
X0094291Y0153619D02*
X0094291Y0151150D01*
X0093674Y0151150D02*
X0094909Y0151150D01*
X0094291Y0153619D02*
X0093674Y0153619D01*
X0102268Y0154853D02*
X0102268Y0151150D01*
X0102268Y0152384D02*
X0104737Y0154853D01*
X0106569Y0153619D02*
X0107803Y0153619D01*
X0108420Y0153002D01*
X0108420Y0151150D01*
X0106569Y0151150D01*
X0105951Y0151767D01*
X0106569Y0152384D01*
X0108420Y0152384D01*
X0109635Y0152384D02*
X0110869Y0153619D01*
X0111486Y0153619D01*
X0112704Y0153619D02*
X0113321Y0153619D01*
X0113321Y0151150D01*
X0112704Y0151150D02*
X0113938Y0151150D01*
X0115159Y0151150D02*
X0115159Y0153619D01*
X0115776Y0153619D01*
X0116394Y0153002D01*
X0117011Y0153619D01*
X0117628Y0153002D01*
X0117628Y0151150D01*
X0117618Y0150470D02*
X0117618Y0149853D01*
X0117618Y0148619D02*
X0117618Y0146150D01*
X0117001Y0146150D02*
X0118235Y0146150D01*
X0119456Y0146150D02*
X0121308Y0146150D01*
X0121925Y0146767D01*
X0121925Y0148002D01*
X0121308Y0148619D01*
X0119456Y0148619D01*
X0119456Y0144916D01*
X0121912Y0144853D02*
X0121912Y0141150D01*
X0121912Y0142384D02*
X0123763Y0142384D01*
X0124380Y0143002D01*
X0124380Y0144236D01*
X0123763Y0144853D01*
X0121912Y0144853D01*
X0123757Y0146150D02*
X0123139Y0146767D01*
X0123139Y0148002D01*
X0123757Y0148619D01*
X0124991Y0148619D01*
X0125608Y0148002D01*
X0125608Y0147384D01*
X0123139Y0147384D01*
X0123757Y0146150D02*
X0124991Y0146150D01*
X0125595Y0143619D02*
X0125595Y0141767D01*
X0126212Y0141150D01*
X0128064Y0141150D01*
X0128064Y0143619D01*
X0129278Y0143002D02*
X0129278Y0141767D01*
X0129895Y0141150D01*
X0131747Y0141150D01*
X0131747Y0140533D02*
X0131747Y0143619D01*
X0129895Y0143619D01*
X0129278Y0143002D01*
X0130512Y0139916D02*
X0131130Y0139916D01*
X0131747Y0140533D01*
X0132961Y0141767D02*
X0133578Y0142384D01*
X0135430Y0142384D01*
X0135430Y0143002D02*
X0135430Y0141150D01*
X0133578Y0141150D01*
X0132961Y0141767D01*
X0133578Y0143619D02*
X0134813Y0143619D01*
X0135430Y0143002D01*
X0136644Y0143002D02*
X0136644Y0141767D01*
X0137261Y0141150D01*
X0139113Y0141150D01*
X0140327Y0141150D02*
X0140327Y0144853D01*
X0140327Y0146150D02*
X0142796Y0146150D01*
X0141562Y0146150D02*
X0141562Y0149853D01*
X0140327Y0148619D01*
X0139113Y0149236D02*
X0139113Y0146767D01*
X0138496Y0146150D01*
X0137262Y0146150D01*
X0136644Y0146767D01*
X0139113Y0149236D01*
X0138496Y0149853D01*
X0137262Y0149853D01*
X0136644Y0149236D01*
X0136644Y0146767D01*
X0135430Y0146150D02*
X0132961Y0146150D01*
X0135430Y0148619D01*
X0135430Y0149236D01*
X0134813Y0149853D01*
X0133578Y0149853D01*
X0132961Y0149236D01*
X0131740Y0149853D02*
X0130506Y0148619D01*
X0130506Y0147384D01*
X0131740Y0146150D01*
X0132347Y0151150D02*
X0134816Y0153619D01*
X0134816Y0154236D01*
X0134199Y0154853D01*
X0132964Y0154853D01*
X0132347Y0154236D01*
X0131126Y0154853D02*
X0129892Y0153619D01*
X0129892Y0152384D01*
X0131126Y0151150D01*
X0132347Y0151150D02*
X0134816Y0151150D01*
X0136030Y0151767D02*
X0138499Y0154236D01*
X0138499Y0151767D01*
X0137882Y0151150D01*
X0136648Y0151150D01*
X0136030Y0151767D01*
X0136030Y0154236D01*
X0136648Y0154853D01*
X0137882Y0154853D01*
X0138499Y0154236D01*
X0139714Y0153619D02*
X0140948Y0154853D01*
X0140948Y0151150D01*
X0139714Y0151150D02*
X0142182Y0151150D01*
X0143397Y0151150D02*
X0145866Y0151150D01*
X0147080Y0151150D02*
X0148314Y0152384D01*
X0148314Y0153619D01*
X0147080Y0154853D01*
X0144631Y0154853D02*
X0144631Y0151150D01*
X0144628Y0149853D02*
X0145862Y0149853D01*
X0146479Y0149236D01*
X0144011Y0146767D01*
X0144628Y0146150D01*
X0145862Y0146150D01*
X0146479Y0146767D01*
X0146479Y0149236D01*
X0147694Y0149853D02*
X0148928Y0148619D01*
X0148928Y0147384D01*
X0147694Y0146150D01*
X0147694Y0143619D02*
X0148928Y0141150D01*
X0150163Y0143619D01*
X0150773Y0138619D02*
X0151390Y0138002D01*
X0151390Y0137384D01*
X0148921Y0137384D01*
X0148921Y0136767D02*
X0148921Y0138002D01*
X0149539Y0138619D01*
X0150773Y0138619D01*
X0152605Y0138619D02*
X0152605Y0136767D01*
X0153222Y0136150D01*
X0155073Y0136150D01*
X0155073Y0135533D02*
X0154456Y0134916D01*
X0153839Y0134916D01*
X0155073Y0135533D02*
X0155073Y0138619D01*
X0156294Y0141150D02*
X0155060Y0142384D01*
X0155060Y0143619D01*
X0156294Y0144853D01*
X0157515Y0144236D02*
X0158133Y0144853D01*
X0159367Y0144853D01*
X0159984Y0144236D01*
X0159984Y0143619D01*
X0157515Y0141150D01*
X0159984Y0141150D01*
X0159971Y0139853D02*
X0161822Y0139853D01*
X0162440Y0139236D01*
X0162440Y0138002D01*
X0161822Y0137384D01*
X0159971Y0137384D01*
X0159971Y0136150D02*
X0159971Y0139853D01*
X0161816Y0141150D02*
X0161199Y0141767D01*
X0163667Y0144236D01*
X0163667Y0141767D01*
X0163050Y0141150D01*
X0161816Y0141150D01*
X0161199Y0141767D02*
X0161199Y0144236D01*
X0161816Y0144853D01*
X0163050Y0144853D01*
X0163667Y0144236D01*
X0164882Y0143619D02*
X0166116Y0144853D01*
X0166116Y0141150D01*
X0164882Y0141150D02*
X0167351Y0141150D01*
X0168565Y0141767D02*
X0169182Y0141150D01*
X0170416Y0141150D01*
X0171034Y0141767D01*
X0171034Y0143002D01*
X0170416Y0143619D01*
X0169799Y0143619D01*
X0168565Y0143002D01*
X0168565Y0144853D01*
X0171034Y0144853D01*
X0172248Y0144853D02*
X0173482Y0143619D01*
X0173482Y0142384D01*
X0172248Y0141150D01*
X0172255Y0138619D02*
X0172872Y0138619D01*
X0172255Y0138619D02*
X0171020Y0137384D01*
X0171020Y0136150D02*
X0171020Y0138619D01*
X0169806Y0138619D02*
X0167954Y0138619D01*
X0167337Y0138002D01*
X0167337Y0136767D01*
X0167954Y0136150D01*
X0169806Y0136150D01*
X0169806Y0139853D01*
X0166123Y0138002D02*
X0165506Y0138619D01*
X0164271Y0138619D01*
X0163654Y0138002D01*
X0163654Y0136767D01*
X0164271Y0136150D01*
X0165506Y0136150D01*
X0166123Y0136767D01*
X0166123Y0138002D01*
X0174090Y0138002D02*
X0174707Y0138619D01*
X0175941Y0138619D01*
X0176558Y0138002D01*
X0176558Y0137384D01*
X0174090Y0137384D01*
X0174090Y0136767D02*
X0174090Y0138002D01*
X0174090Y0136767D02*
X0174707Y0136150D01*
X0175941Y0136150D01*
X0177773Y0136150D02*
X0180242Y0136150D01*
X0181456Y0136767D02*
X0182073Y0136150D01*
X0183307Y0136150D01*
X0183925Y0136767D01*
X0183925Y0138002D01*
X0183307Y0138619D01*
X0182073Y0138619D01*
X0181456Y0138002D01*
X0181456Y0136767D01*
X0180242Y0138619D02*
X0177773Y0138619D01*
X0180242Y0138619D02*
X0177773Y0136150D01*
X0185139Y0138619D02*
X0186373Y0136150D01*
X0187608Y0138619D01*
X0192505Y0138619D02*
X0192505Y0137384D01*
X0193740Y0136150D01*
X0194961Y0136150D02*
X0197430Y0138619D01*
X0197430Y0139236D01*
X0196812Y0139853D01*
X0195578Y0139853D01*
X0194961Y0139236D01*
X0193740Y0139853D02*
X0192505Y0138619D01*
X0194961Y0136150D02*
X0197430Y0136150D01*
X0198644Y0136767D02*
X0201113Y0139236D01*
X0201113Y0136767D01*
X0200495Y0136150D01*
X0199261Y0136150D01*
X0198644Y0136767D01*
X0198644Y0139236D01*
X0199261Y0139853D01*
X0200495Y0139853D01*
X0201113Y0139236D01*
X0202327Y0138619D02*
X0203561Y0139853D01*
X0203561Y0136150D01*
X0202327Y0136150D02*
X0204796Y0136150D01*
X0206010Y0136767D02*
X0206627Y0136150D01*
X0207862Y0136150D01*
X0208479Y0136767D01*
X0208479Y0138002D01*
X0207862Y0138619D01*
X0207245Y0138619D01*
X0206010Y0138002D01*
X0206010Y0139853D01*
X0208479Y0139853D01*
X0209693Y0139853D02*
X0210928Y0138619D01*
X0210928Y0137384D01*
X0209693Y0136150D01*
X0150773Y0136150D02*
X0149539Y0136150D01*
X0148921Y0136767D01*
X0147707Y0136150D02*
X0145238Y0138619D01*
X0144024Y0138002D02*
X0144024Y0137384D01*
X0141555Y0137384D01*
X0141555Y0136767D02*
X0141555Y0138002D01*
X0142172Y0138619D01*
X0143407Y0138619D01*
X0144024Y0138002D01*
X0143407Y0136150D02*
X0142172Y0136150D01*
X0141555Y0136767D01*
X0140334Y0136150D02*
X0139100Y0136150D01*
X0139717Y0136150D02*
X0139717Y0139853D01*
X0139100Y0139853D01*
X0137885Y0138619D02*
X0137885Y0136150D01*
X0137885Y0138002D02*
X0135417Y0138002D01*
X0135417Y0138619D02*
X0135417Y0136150D01*
X0135417Y0138619D02*
X0136651Y0139853D01*
X0137885Y0138619D01*
X0136644Y0143002D02*
X0137261Y0143619D01*
X0139113Y0143619D01*
X0140327Y0143002D02*
X0140945Y0143619D01*
X0142179Y0143619D01*
X0142796Y0143002D01*
X0142796Y0141150D01*
X0144011Y0141767D02*
X0144011Y0143002D01*
X0144628Y0143619D01*
X0145862Y0143619D01*
X0146479Y0143002D01*
X0146479Y0142384D01*
X0144011Y0142384D01*
X0144011Y0141767D02*
X0144628Y0141150D01*
X0145862Y0141150D01*
X0147707Y0138619D02*
X0145238Y0136150D01*
X0144011Y0146767D02*
X0144011Y0149236D01*
X0144628Y0149853D01*
X0143397Y0153619D02*
X0144631Y0154853D01*
X0130519Y0138619D02*
X0130519Y0135533D01*
X0129902Y0134916D01*
X0129285Y0134916D01*
X0128667Y0136150D02*
X0130519Y0136150D01*
X0128667Y0136150D02*
X0128050Y0136767D01*
X0128050Y0138619D01*
X0126836Y0138002D02*
X0126219Y0138619D01*
X0124367Y0138619D01*
X0124367Y0139853D02*
X0124367Y0136150D01*
X0126219Y0136150D01*
X0126836Y0136767D01*
X0126836Y0138002D01*
X0119470Y0138619D02*
X0117618Y0138619D01*
X0117001Y0138002D01*
X0117001Y0136767D01*
X0117618Y0136150D01*
X0119470Y0136150D01*
X0119470Y0139853D01*
X0117014Y0140533D02*
X0117014Y0143619D01*
X0114545Y0143619D02*
X0114545Y0141767D01*
X0115163Y0141150D01*
X0117014Y0141150D01*
X0117014Y0140533D02*
X0116397Y0139916D01*
X0115780Y0139916D01*
X0115783Y0138619D02*
X0115166Y0138619D01*
X0113932Y0137384D01*
X0112717Y0137384D02*
X0110866Y0137384D01*
X0110248Y0136767D01*
X0110866Y0136150D01*
X0112717Y0136150D01*
X0112717Y0138002D01*
X0112100Y0138619D01*
X0110866Y0138619D01*
X0109034Y0138002D02*
X0108417Y0138619D01*
X0107182Y0138619D01*
X0106565Y0138002D01*
X0106565Y0136767D01*
X0107182Y0136150D01*
X0108417Y0136150D01*
X0109034Y0136767D01*
X0109034Y0138002D01*
X0110255Y0141150D02*
X0109638Y0141767D01*
X0109638Y0144236D01*
X0109021Y0143619D02*
X0110255Y0143619D01*
X0111476Y0143619D02*
X0111476Y0141150D01*
X0111476Y0142384D02*
X0112711Y0143619D01*
X0113328Y0143619D01*
X0113935Y0146150D02*
X0113318Y0146767D01*
X0113935Y0146150D02*
X0114552Y0146150D01*
X0115169Y0146767D01*
X0115169Y0149853D01*
X0114552Y0149853D02*
X0115787Y0149853D01*
X0116394Y0151150D02*
X0116394Y0153002D01*
X0118842Y0153002D02*
X0118842Y0151767D01*
X0119460Y0151150D01*
X0120694Y0151150D01*
X0121311Y0151767D01*
X0121311Y0153002D01*
X0120694Y0153619D01*
X0119460Y0153619D01*
X0118842Y0153002D01*
X0122526Y0153619D02*
X0123760Y0151150D01*
X0124994Y0153619D01*
X0117618Y0148619D02*
X0117001Y0148619D01*
X0113321Y0154853D02*
X0113321Y0155470D01*
X0109635Y0153619D02*
X0109635Y0151150D01*
X0108420Y0148619D02*
X0108420Y0145533D01*
X0107803Y0144916D01*
X0107186Y0144916D01*
X0107182Y0144853D02*
X0107182Y0145470D01*
X0106569Y0146150D02*
X0108420Y0146150D01*
X0106569Y0146150D02*
X0105951Y0146767D01*
X0105951Y0148619D01*
X0104737Y0148002D02*
X0104120Y0148619D01*
X0102268Y0148619D01*
X0102268Y0149853D02*
X0102268Y0146150D01*
X0104120Y0146150D01*
X0104737Y0146767D01*
X0104737Y0148002D01*
X0104737Y0151150D02*
X0102885Y0153002D01*
X0102882Y0143619D02*
X0103499Y0143619D01*
X0104117Y0143002D01*
X0104734Y0143619D01*
X0105351Y0143002D01*
X0105351Y0141150D01*
X0106565Y0141150D02*
X0107800Y0141150D01*
X0107182Y0141150D02*
X0107182Y0143619D01*
X0106565Y0143619D01*
X0104117Y0143002D02*
X0104117Y0141150D01*
X0102882Y0141150D02*
X0102882Y0143619D01*
X0102882Y0139853D02*
X0102882Y0136150D01*
X0104734Y0136150D01*
X0105351Y0136767D01*
X0105351Y0138002D01*
X0104734Y0138619D01*
X0102882Y0138619D01*
X0097985Y0138619D02*
X0096133Y0138619D01*
X0095516Y0138002D01*
X0095516Y0136767D01*
X0096133Y0136150D01*
X0097985Y0136150D01*
X0097985Y0139853D01*
X0113932Y0138619D02*
X0113932Y0136150D01*
X0135764Y0084936D02*
X0136381Y0084936D01*
X0136998Y0084318D01*
X0137616Y0084936D01*
X0138233Y0084936D01*
X0138850Y0084318D01*
X0138850Y0083084D01*
X0138233Y0082467D01*
X0138850Y0081252D02*
X0138850Y0078784D01*
X0138850Y0080018D02*
X0135147Y0080018D01*
X0136381Y0078784D01*
X0135764Y0077569D02*
X0135147Y0076952D01*
X0135147Y0075718D01*
X0135764Y0075101D01*
X0138233Y0075101D01*
X0138850Y0075718D01*
X0138850Y0076952D01*
X0138233Y0077569D01*
X0135764Y0082467D02*
X0135147Y0083084D01*
X0135147Y0084318D01*
X0135764Y0084936D01*
X0136998Y0084318D02*
X0136998Y0083701D01*
X0141335Y0070853D02*
X0141335Y0067150D01*
X0140101Y0067150D02*
X0142569Y0067150D01*
X0143784Y0067767D02*
X0144401Y0067150D01*
X0146252Y0067150D01*
X0146252Y0069619D01*
X0147467Y0069002D02*
X0148701Y0069002D01*
X0147467Y0070853D02*
X0149936Y0070853D01*
X0147467Y0070853D02*
X0147467Y0067150D01*
X0143784Y0067767D02*
X0143784Y0069619D01*
X0141335Y0070853D02*
X0140101Y0069619D01*
X0141335Y0030853D02*
X0141335Y0027150D01*
X0140101Y0027150D02*
X0142569Y0027150D01*
X0143784Y0027767D02*
X0144401Y0027150D01*
X0146252Y0027150D01*
X0146252Y0029619D01*
X0147467Y0029002D02*
X0148701Y0029002D01*
X0147467Y0030853D02*
X0147467Y0027150D01*
X0147467Y0030853D02*
X0149936Y0030853D01*
X0143784Y0029619D02*
X0143784Y0027767D01*
X0141335Y0030853D02*
X0140101Y0029619D01*
X0138233Y0020985D02*
X0135764Y0020985D01*
X0138233Y0018516D01*
X0138850Y0019133D01*
X0138850Y0020368D01*
X0138233Y0020985D01*
X0138233Y0018516D02*
X0135764Y0018516D01*
X0135147Y0019133D01*
X0135147Y0020368D01*
X0135764Y0020985D01*
X0138850Y0017302D02*
X0138850Y0014833D01*
X0138850Y0016068D02*
X0135147Y0016068D01*
X0136381Y0014833D01*
X0135764Y0013619D02*
X0135147Y0013002D01*
X0135147Y0011767D01*
X0135764Y0011150D01*
X0138233Y0011150D01*
X0138850Y0011767D01*
X0138850Y0013002D01*
X0138233Y0013619D01*
X0130850Y0246150D02*
X0127147Y0246150D01*
X0127147Y0248002D01*
X0127764Y0248619D01*
X0128998Y0248619D01*
X0129616Y0248002D01*
X0129616Y0246150D01*
X0129616Y0247384D02*
X0130850Y0248619D01*
X0128998Y0249833D02*
X0128998Y0252302D01*
X0127147Y0251685D02*
X0128998Y0249833D01*
X0127147Y0251685D02*
X0130850Y0251685D01*
X0131150Y0259150D02*
X0133619Y0261619D01*
X0133619Y0262236D01*
X0133002Y0262853D01*
X0131767Y0262853D01*
X0131150Y0262236D01*
X0131150Y0259150D02*
X0133619Y0259150D01*
X0134833Y0259150D02*
X0135450Y0259150D01*
X0135450Y0259767D01*
X0134833Y0259767D01*
X0134833Y0259150D01*
X0136675Y0259150D02*
X0139143Y0261619D01*
X0139143Y0262236D01*
X0138526Y0262853D01*
X0137292Y0262853D01*
X0136675Y0262236D01*
X0136675Y0259150D02*
X0139143Y0259150D01*
X0140358Y0259150D02*
X0140358Y0262853D01*
X0142209Y0261619D02*
X0140358Y0260384D01*
X0142209Y0259150D01*
X0147764Y0252302D02*
X0147147Y0251685D01*
X0147147Y0250450D01*
X0147764Y0249833D01*
X0148381Y0249833D01*
X0148998Y0250450D01*
X0148998Y0252302D01*
X0147764Y0252302D02*
X0150233Y0252302D01*
X0150850Y0251685D01*
X0150850Y0250450D01*
X0150233Y0249833D01*
X0150850Y0248619D02*
X0149616Y0247384D01*
X0149616Y0248002D02*
X0149616Y0246150D01*
X0150850Y0246150D02*
X0147147Y0246150D01*
X0147147Y0248002D01*
X0147764Y0248619D01*
X0148998Y0248619D01*
X0149616Y0248002D01*
X0151150Y0259150D02*
X0153619Y0261619D01*
X0153619Y0262236D01*
X0153002Y0262853D01*
X0151767Y0262853D01*
X0151150Y0262236D01*
X0151150Y0259150D02*
X0153619Y0259150D01*
X0154833Y0259150D02*
X0157302Y0261619D01*
X0157302Y0262236D01*
X0156685Y0262853D01*
X0155450Y0262853D01*
X0154833Y0262236D01*
X0154833Y0259150D02*
X0157302Y0259150D01*
X0158516Y0259150D02*
X0158516Y0262853D01*
X0160368Y0261619D02*
X0158516Y0260384D01*
X0160368Y0259150D01*
X0150850Y0271150D02*
X0147147Y0271150D01*
X0147147Y0273002D01*
X0147764Y0273619D01*
X0148998Y0273619D01*
X0149616Y0273002D01*
X0149616Y0271150D01*
X0149616Y0272384D02*
X0150850Y0273619D01*
X0150233Y0274833D02*
X0148998Y0274833D01*
X0148998Y0276685D01*
X0149616Y0277302D01*
X0150233Y0277302D01*
X0150850Y0276685D01*
X0150850Y0275450D01*
X0150233Y0274833D01*
X0148998Y0274833D02*
X0147764Y0276068D01*
X0147147Y0277302D01*
X0151150Y0284150D02*
X0153619Y0286619D01*
X0153619Y0287236D01*
X0153002Y0287853D01*
X0151767Y0287853D01*
X0151150Y0287236D01*
X0151150Y0284150D02*
X0153619Y0284150D01*
X0154833Y0284150D02*
X0155450Y0284150D01*
X0155450Y0284767D01*
X0154833Y0284767D01*
X0154833Y0284150D01*
X0156675Y0284150D02*
X0159143Y0286619D01*
X0159143Y0287236D01*
X0158526Y0287853D01*
X0157292Y0287853D01*
X0156675Y0287236D01*
X0156675Y0284150D02*
X0159143Y0284150D01*
X0160358Y0284150D02*
X0160358Y0287853D01*
X0162209Y0286619D02*
X0160358Y0285384D01*
X0162209Y0284150D01*
X0150233Y0296150D02*
X0150850Y0296767D01*
X0150850Y0298002D01*
X0150233Y0298619D01*
X0148998Y0299833D02*
X0148998Y0302302D01*
X0147147Y0301685D02*
X0148998Y0299833D01*
X0147764Y0298619D02*
X0147147Y0298002D01*
X0147147Y0296767D01*
X0147764Y0296150D01*
X0150233Y0296150D01*
X0150850Y0301685D02*
X0147147Y0301685D01*
X0151150Y0309150D02*
X0153619Y0311619D01*
X0153619Y0312236D01*
X0153002Y0312853D01*
X0151767Y0312853D01*
X0151150Y0312236D01*
X0151150Y0309150D02*
X0153619Y0309150D01*
X0154833Y0309150D02*
X0157302Y0311619D01*
X0157302Y0312236D01*
X0156685Y0312853D01*
X0155450Y0312853D01*
X0154833Y0312236D01*
X0154833Y0309150D02*
X0157302Y0309150D01*
X0158516Y0309150D02*
X0160368Y0309150D01*
X0160985Y0309767D01*
X0160985Y0311002D01*
X0160368Y0311619D01*
X0158516Y0311619D01*
X0158516Y0307916D01*
X0162199Y0309150D02*
X0162199Y0312853D01*
X0164668Y0312853D01*
X0163434Y0311002D02*
X0162199Y0311002D01*
X0142209Y0311619D02*
X0140358Y0310384D01*
X0142209Y0309150D01*
X0140358Y0309150D02*
X0140358Y0312853D01*
X0139143Y0312236D02*
X0138526Y0312853D01*
X0137292Y0312853D01*
X0136675Y0312236D01*
X0139143Y0312236D02*
X0139143Y0311619D01*
X0136675Y0309150D01*
X0139143Y0309150D01*
X0135450Y0309150D02*
X0135450Y0309767D01*
X0134833Y0309767D01*
X0134833Y0309150D01*
X0135450Y0309150D01*
X0133619Y0309150D02*
X0131150Y0309150D01*
X0133619Y0311619D01*
X0133619Y0312236D01*
X0133002Y0312853D01*
X0131767Y0312853D01*
X0131150Y0312236D01*
X0127764Y0302302D02*
X0130233Y0299833D01*
X0130850Y0299833D01*
X0130850Y0298619D02*
X0129616Y0297384D01*
X0129616Y0298002D02*
X0129616Y0296150D01*
X0130850Y0296150D02*
X0127147Y0296150D01*
X0127147Y0298002D01*
X0127764Y0298619D01*
X0128998Y0298619D01*
X0129616Y0298002D01*
X0127147Y0299833D02*
X0127147Y0302302D01*
X0127764Y0302302D01*
X0122209Y0309150D02*
X0120358Y0310384D01*
X0122209Y0311619D01*
X0120358Y0312853D02*
X0120358Y0309150D01*
X0119143Y0309150D02*
X0116675Y0309150D01*
X0119143Y0311619D01*
X0119143Y0312236D01*
X0118526Y0312853D01*
X0117292Y0312853D01*
X0116675Y0312236D01*
X0115450Y0309767D02*
X0115450Y0309150D01*
X0114833Y0309150D01*
X0114833Y0309767D01*
X0115450Y0309767D01*
X0113619Y0309150D02*
X0111150Y0309150D01*
X0113619Y0311619D01*
X0113619Y0312236D01*
X0113002Y0312853D01*
X0111767Y0312853D01*
X0111150Y0312236D01*
X0104668Y0312853D02*
X0102199Y0312853D01*
X0102199Y0309150D01*
X0100985Y0309767D02*
X0100368Y0309150D01*
X0098516Y0309150D01*
X0097302Y0309150D02*
X0094833Y0309150D01*
X0097302Y0311619D01*
X0097302Y0312236D01*
X0096685Y0312853D01*
X0095450Y0312853D01*
X0094833Y0312236D01*
X0093619Y0312236D02*
X0093002Y0312853D01*
X0091767Y0312853D01*
X0091150Y0312236D01*
X0093619Y0312236D02*
X0093619Y0311619D01*
X0091150Y0309150D01*
X0093619Y0309150D01*
X0098516Y0307916D02*
X0098516Y0311619D01*
X0100368Y0311619D01*
X0100985Y0311002D01*
X0100985Y0309767D01*
X0102199Y0311002D02*
X0103434Y0311002D01*
X0107147Y0302302D02*
X0107147Y0299833D01*
X0108998Y0299833D01*
X0108381Y0301068D01*
X0108381Y0301685D01*
X0108998Y0302302D01*
X0110233Y0302302D01*
X0110850Y0301685D01*
X0110850Y0300450D01*
X0110233Y0299833D01*
X0110850Y0298619D02*
X0109616Y0297384D01*
X0109616Y0298002D02*
X0109616Y0296150D01*
X0110850Y0296150D02*
X0107147Y0296150D01*
X0107147Y0298002D01*
X0107764Y0298619D01*
X0108998Y0298619D01*
X0109616Y0298002D01*
X0111767Y0287853D02*
X0111150Y0287236D01*
X0111767Y0287853D02*
X0113002Y0287853D01*
X0113619Y0287236D01*
X0113619Y0286619D01*
X0111150Y0284150D01*
X0113619Y0284150D01*
X0114833Y0284150D02*
X0117302Y0286619D01*
X0117302Y0287236D01*
X0116685Y0287853D01*
X0115450Y0287853D01*
X0114833Y0287236D01*
X0114833Y0284150D02*
X0117302Y0284150D01*
X0118516Y0284150D02*
X0118516Y0287853D01*
X0120368Y0286619D02*
X0118516Y0285384D01*
X0120368Y0284150D01*
X0127764Y0277302D02*
X0127147Y0276685D01*
X0127147Y0275450D01*
X0127764Y0274833D01*
X0128381Y0274833D01*
X0128998Y0275450D01*
X0128998Y0276685D01*
X0129616Y0277302D01*
X0130233Y0277302D01*
X0130850Y0276685D01*
X0130850Y0275450D01*
X0130233Y0274833D01*
X0129616Y0274833D01*
X0128998Y0275450D01*
X0128998Y0276685D02*
X0128381Y0277302D01*
X0127764Y0277302D01*
X0127764Y0273619D02*
X0128998Y0273619D01*
X0129616Y0273002D01*
X0129616Y0271150D01*
X0130850Y0271150D02*
X0127147Y0271150D01*
X0127147Y0273002D01*
X0127764Y0273619D01*
X0129616Y0272384D02*
X0130850Y0273619D01*
X0131150Y0284150D02*
X0133619Y0286619D01*
X0133619Y0287236D01*
X0133002Y0287853D01*
X0131767Y0287853D01*
X0131150Y0287236D01*
X0131150Y0284150D02*
X0133619Y0284150D01*
X0134833Y0284150D02*
X0135450Y0284150D01*
X0135450Y0284767D01*
X0134833Y0284767D01*
X0134833Y0284150D01*
X0136675Y0284150D02*
X0139143Y0286619D01*
X0139143Y0287236D01*
X0138526Y0287853D01*
X0137292Y0287853D01*
X0136675Y0287236D01*
X0136675Y0284150D02*
X0139143Y0284150D01*
X0140358Y0284150D02*
X0140358Y0287853D01*
X0142209Y0286619D02*
X0140358Y0285384D01*
X0142209Y0284150D01*
X0120368Y0261619D02*
X0118516Y0260384D01*
X0120368Y0259150D01*
X0118516Y0259150D02*
X0118516Y0262853D01*
X0117302Y0262236D02*
X0116685Y0262853D01*
X0115450Y0262853D01*
X0114833Y0262236D01*
X0113619Y0262236D02*
X0113002Y0262853D01*
X0111767Y0262853D01*
X0111150Y0262236D01*
X0113619Y0262236D02*
X0113619Y0261619D01*
X0111150Y0259150D01*
X0113619Y0259150D01*
X0114833Y0259150D02*
X0117302Y0261619D01*
X0117302Y0262236D01*
X0117302Y0259150D02*
X0114833Y0259150D01*
X0110850Y0252302D02*
X0110850Y0249833D01*
X0110850Y0248619D02*
X0109616Y0247384D01*
X0109616Y0248002D02*
X0109616Y0246150D01*
X0110850Y0246150D02*
X0107147Y0246150D01*
X0107147Y0248002D01*
X0107764Y0248619D01*
X0108998Y0248619D01*
X0109616Y0248002D01*
X0108381Y0249833D02*
X0107147Y0251068D01*
X0110850Y0251068D01*
X0100368Y0259150D02*
X0098516Y0260384D01*
X0100368Y0261619D01*
X0098516Y0262853D02*
X0098516Y0259150D01*
X0097302Y0259150D02*
X0094833Y0259150D01*
X0097302Y0261619D01*
X0097302Y0262236D01*
X0096685Y0262853D01*
X0095450Y0262853D01*
X0094833Y0262236D01*
X0093619Y0262236D02*
X0093002Y0262853D01*
X0091767Y0262853D01*
X0091150Y0262236D01*
X0093619Y0262236D02*
X0093619Y0261619D01*
X0091150Y0259150D01*
X0093619Y0259150D01*
X0090850Y0252302D02*
X0090850Y0249833D01*
X0088381Y0252302D01*
X0087764Y0252302D01*
X0087147Y0251685D01*
X0087147Y0250450D01*
X0087764Y0249833D01*
X0087764Y0248619D02*
X0088998Y0248619D01*
X0089616Y0248002D01*
X0089616Y0246150D01*
X0090850Y0246150D02*
X0087147Y0246150D01*
X0087147Y0248002D01*
X0087764Y0248619D01*
X0089616Y0247384D02*
X0090850Y0248619D01*
X0090850Y0271150D02*
X0087147Y0271150D01*
X0087147Y0273002D01*
X0087764Y0273619D01*
X0088998Y0273619D01*
X0089616Y0273002D01*
X0089616Y0271150D01*
X0089616Y0272384D02*
X0090850Y0273619D01*
X0090233Y0274833D02*
X0090850Y0275450D01*
X0090850Y0276685D01*
X0090233Y0277302D01*
X0089616Y0277302D01*
X0088998Y0276685D01*
X0088998Y0276068D01*
X0088998Y0276685D02*
X0088381Y0277302D01*
X0087764Y0277302D01*
X0087147Y0276685D01*
X0087147Y0275450D01*
X0087764Y0274833D01*
X0091150Y0284150D02*
X0093619Y0284150D01*
X0094833Y0284150D02*
X0094833Y0284767D01*
X0097302Y0287236D01*
X0097302Y0287853D01*
X0094833Y0287853D01*
X0098516Y0287236D02*
X0098516Y0284767D01*
X0100985Y0287236D01*
X0100985Y0284767D01*
X0100368Y0284150D01*
X0099133Y0284150D01*
X0098516Y0284767D01*
X0098516Y0287236D02*
X0099133Y0287853D01*
X0100368Y0287853D01*
X0100985Y0287236D01*
X0102199Y0287853D02*
X0102199Y0284150D01*
X0102199Y0285384D02*
X0104051Y0286619D01*
X0102199Y0285384D02*
X0104051Y0284150D01*
X0107764Y0280985D02*
X0107147Y0280368D01*
X0107147Y0279133D01*
X0107764Y0278516D01*
X0110233Y0278516D01*
X0107764Y0280985D01*
X0110233Y0280985D01*
X0110850Y0280368D01*
X0110850Y0279133D01*
X0110233Y0278516D01*
X0110850Y0277302D02*
X0110850Y0274833D01*
X0110850Y0273619D02*
X0109616Y0272384D01*
X0109616Y0273002D02*
X0109616Y0271150D01*
X0110850Y0271150D02*
X0107147Y0271150D01*
X0107147Y0273002D01*
X0107764Y0273619D01*
X0108998Y0273619D01*
X0109616Y0273002D01*
X0108381Y0274833D02*
X0107147Y0276068D01*
X0110850Y0276068D01*
X0092384Y0284150D02*
X0092384Y0287853D01*
X0091150Y0286619D01*
X0090233Y0296150D02*
X0087764Y0296150D01*
X0087147Y0296767D01*
X0087147Y0298002D01*
X0087764Y0298619D01*
X0087764Y0299833D02*
X0087147Y0300450D01*
X0087147Y0301685D01*
X0087764Y0302302D01*
X0088381Y0302302D01*
X0088998Y0301685D01*
X0089616Y0302302D01*
X0090233Y0302302D01*
X0090850Y0301685D01*
X0090850Y0300450D01*
X0090233Y0299833D01*
X0090233Y0298619D02*
X0090850Y0298002D01*
X0090850Y0296767D01*
X0090233Y0296150D01*
X0088998Y0301068D02*
X0088998Y0301685D01*
X0201150Y0268569D02*
X0201150Y0268085D01*
X0201634Y0267601D01*
X0202601Y0267601D01*
X0203085Y0267117D01*
X0203085Y0266634D01*
X0202601Y0266150D01*
X0201634Y0266150D01*
X0201150Y0266634D01*
X0201150Y0268569D02*
X0201634Y0269052D01*
X0202601Y0269052D01*
X0203085Y0268569D01*
X0204097Y0269052D02*
X0204097Y0266150D01*
X0204097Y0267117D02*
X0205548Y0267117D01*
X0206031Y0267601D01*
X0206031Y0268569D01*
X0205548Y0269052D01*
X0204097Y0269052D01*
X0207043Y0269052D02*
X0207043Y0266150D01*
X0207043Y0267117D02*
X0208978Y0269052D01*
X0207527Y0267601D02*
X0208978Y0266150D01*
X0212150Y0266634D02*
X0212150Y0268569D01*
X0212634Y0269052D01*
X0213601Y0269052D01*
X0214085Y0268569D01*
X0214085Y0267601D02*
X0213117Y0267601D01*
X0214085Y0267601D02*
X0214085Y0266634D01*
X0213601Y0266150D01*
X0212634Y0266150D01*
X0212150Y0266634D01*
X0215097Y0266150D02*
X0215097Y0269052D01*
X0217031Y0266150D01*
X0217031Y0269052D01*
X0218043Y0269052D02*
X0218043Y0266150D01*
X0219494Y0266150D01*
X0219978Y0266634D01*
X0219978Y0268569D01*
X0219494Y0269052D01*
X0218043Y0269052D01*
X0222150Y0268569D02*
X0222150Y0268085D01*
X0222634Y0267601D01*
X0223601Y0267601D01*
X0224085Y0267117D01*
X0224085Y0266634D01*
X0223601Y0266150D01*
X0222634Y0266150D01*
X0222150Y0266634D01*
X0222150Y0268569D02*
X0222634Y0269052D01*
X0223601Y0269052D01*
X0224085Y0268569D01*
X0225097Y0269052D02*
X0227031Y0266150D01*
X0227031Y0269052D01*
X0228043Y0269052D02*
X0228043Y0266150D01*
X0229494Y0266150D01*
X0229978Y0266634D01*
X0229978Y0268569D01*
X0229494Y0269052D01*
X0228043Y0269052D01*
X0225097Y0269052D02*
X0225097Y0266150D01*
X0225097Y0286150D02*
X0225097Y0289052D01*
X0227031Y0286150D01*
X0227031Y0289052D01*
X0228043Y0289052D02*
X0228043Y0286150D01*
X0229494Y0286150D01*
X0229978Y0286634D01*
X0229978Y0288569D01*
X0229494Y0289052D01*
X0228043Y0289052D01*
X0224085Y0288569D02*
X0223601Y0289052D01*
X0222634Y0289052D01*
X0222150Y0288569D01*
X0222150Y0288085D01*
X0222634Y0287601D01*
X0223601Y0287601D01*
X0224085Y0287117D01*
X0224085Y0286634D01*
X0223601Y0286150D01*
X0222634Y0286150D01*
X0222150Y0286634D01*
X0219978Y0286634D02*
X0219978Y0288569D01*
X0219494Y0289052D01*
X0218043Y0289052D01*
X0218043Y0286150D01*
X0219494Y0286150D01*
X0219978Y0286634D01*
X0217031Y0286150D02*
X0217031Y0289052D01*
X0215097Y0289052D02*
X0215097Y0286150D01*
X0214085Y0286634D02*
X0214085Y0287601D01*
X0213117Y0287601D01*
X0212150Y0286634D02*
X0212150Y0288569D01*
X0212634Y0289052D01*
X0213601Y0289052D01*
X0214085Y0288569D01*
X0215097Y0289052D02*
X0217031Y0286150D01*
X0214085Y0286634D02*
X0213601Y0286150D01*
X0212634Y0286150D01*
X0212150Y0286634D01*
X0209978Y0286150D02*
X0208527Y0287601D01*
X0208043Y0287117D02*
X0209978Y0289052D01*
X0208043Y0289052D02*
X0208043Y0286150D01*
X0207031Y0287601D02*
X0206548Y0287117D01*
X0205097Y0287117D01*
X0205097Y0286150D02*
X0205097Y0289052D01*
X0206548Y0289052D01*
X0207031Y0288569D01*
X0207031Y0287601D01*
X0204085Y0287117D02*
X0204085Y0286634D01*
X0203601Y0286150D01*
X0202634Y0286150D01*
X0202150Y0286634D01*
X0202634Y0287601D02*
X0203601Y0287601D01*
X0204085Y0287117D01*
X0204085Y0288569D02*
X0203601Y0289052D01*
X0202634Y0289052D01*
X0202150Y0288569D01*
X0202150Y0288085D01*
X0202634Y0287601D01*
D13*
X0224645Y0229774D02*
X0230750Y0229774D01*
X0230750Y0226721D01*
X0229732Y0225704D01*
X0227697Y0225704D01*
X0226680Y0226721D01*
X0226680Y0229774D01*
X0226680Y0223692D02*
X0226680Y0222674D01*
X0228715Y0220639D01*
X0228715Y0218632D02*
X0228715Y0215580D01*
X0229732Y0214562D01*
X0230750Y0215580D01*
X0230750Y0218632D01*
X0227697Y0218632D01*
X0226680Y0217615D01*
X0226680Y0215580D01*
X0227697Y0212555D02*
X0226680Y0211538D01*
X0226680Y0209503D01*
X0227697Y0208485D01*
X0229732Y0208485D01*
X0230750Y0209503D01*
X0230750Y0211538D01*
X0229732Y0212555D01*
X0227697Y0212555D01*
X0226680Y0206478D02*
X0227697Y0205460D01*
X0227697Y0202408D01*
X0224645Y0202408D02*
X0230750Y0202408D01*
X0230750Y0205460D01*
X0229732Y0206478D01*
X0228715Y0206478D01*
X0227697Y0205460D01*
X0226680Y0206478D02*
X0225662Y0206478D01*
X0224645Y0205460D01*
X0224645Y0202408D01*
X0227697Y0194324D02*
X0226680Y0193306D01*
X0226680Y0191271D01*
X0227697Y0190253D01*
X0229732Y0190253D01*
X0230750Y0191271D01*
X0230750Y0193306D01*
X0229732Y0194324D01*
X0227697Y0194324D01*
X0227697Y0188246D02*
X0226680Y0187229D01*
X0226680Y0184176D01*
X0224645Y0184176D02*
X0230750Y0184176D01*
X0230750Y0187229D01*
X0229732Y0188246D01*
X0227697Y0188246D01*
X0227697Y0182169D02*
X0226680Y0181152D01*
X0227697Y0180134D01*
X0230750Y0180134D01*
X0230750Y0178099D02*
X0226680Y0178099D01*
X0226680Y0179117D01*
X0227697Y0180134D01*
X0227697Y0182169D02*
X0230750Y0182169D01*
X0229732Y0176092D02*
X0227697Y0176092D01*
X0226680Y0175075D01*
X0226680Y0173039D01*
X0227697Y0172022D01*
X0229732Y0172022D01*
X0230750Y0173039D01*
X0230750Y0175075D01*
X0229732Y0176092D01*
X0229732Y0170015D02*
X0230750Y0168997D01*
X0230750Y0166962D01*
X0229732Y0165945D01*
X0225662Y0165945D01*
X0224645Y0166962D01*
X0224645Y0168997D01*
X0225662Y0170015D01*
X0225662Y0157860D02*
X0224645Y0156843D01*
X0224645Y0154808D01*
X0225662Y0153790D01*
X0229732Y0153790D01*
X0230750Y0154808D01*
X0230750Y0156843D01*
X0229732Y0157860D01*
X0230750Y0151783D02*
X0226680Y0151783D01*
X0224645Y0149748D01*
X0226680Y0147713D01*
X0230750Y0147713D01*
X0227697Y0147713D02*
X0227697Y0151783D01*
X0227697Y0145706D02*
X0225662Y0145706D01*
X0224645Y0144689D01*
X0224645Y0141636D01*
X0230750Y0141636D01*
X0230750Y0139629D02*
X0224645Y0139629D01*
X0226680Y0137594D01*
X0224645Y0135559D01*
X0230750Y0135559D01*
X0228715Y0141636D02*
X0228715Y0144689D01*
X0227697Y0145706D01*
X0224645Y0133552D02*
X0224645Y0129482D01*
X0230750Y0129482D01*
X0227697Y0129482D02*
X0227697Y0131517D01*
X0224645Y0127475D02*
X0230750Y0123404D01*
X0230750Y0120380D02*
X0224645Y0120380D01*
X0227697Y0117327D01*
X0227697Y0121397D01*
X0224645Y0115320D02*
X0224645Y0111250D01*
X0230750Y0111250D01*
X0227697Y0111250D02*
X0227697Y0113285D01*
X0226680Y0220639D02*
X0230750Y0220639D01*
D14*
X0131000Y0091000D02*
X0131000Y0006000D01*
X0051000Y0006000D01*
X0051000Y0091000D01*
X0131000Y0091000D01*
D15*
X0216000Y0104500D02*
X0216000Y0157500D01*
X0016000Y0157500D01*
X0016000Y0134500D01*
X0016126Y0134498D01*
X0016251Y0134492D01*
X0016376Y0134482D01*
X0016501Y0134468D01*
X0016626Y0134451D01*
X0016750Y0134429D01*
X0016873Y0134404D01*
X0016995Y0134374D01*
X0017116Y0134341D01*
X0017236Y0134304D01*
X0017355Y0134264D01*
X0017472Y0134219D01*
X0017589Y0134171D01*
X0017703Y0134119D01*
X0017816Y0134064D01*
X0017927Y0134005D01*
X0018036Y0133943D01*
X0018143Y0133877D01*
X0018248Y0133808D01*
X0018351Y0133736D01*
X0018452Y0133661D01*
X0018550Y0133582D01*
X0018645Y0133500D01*
X0018738Y0133416D01*
X0018828Y0133328D01*
X0018916Y0133238D01*
X0019000Y0133145D01*
X0019082Y0133050D01*
X0019161Y0132952D01*
X0019236Y0132851D01*
X0019308Y0132748D01*
X0019377Y0132643D01*
X0019443Y0132536D01*
X0019505Y0132427D01*
X0019564Y0132316D01*
X0019619Y0132203D01*
X0019671Y0132089D01*
X0019719Y0131972D01*
X0019764Y0131855D01*
X0019804Y0131736D01*
X0019841Y0131616D01*
X0019874Y0131495D01*
X0019904Y0131373D01*
X0019929Y0131250D01*
X0019951Y0131126D01*
X0019968Y0131001D01*
X0019982Y0130876D01*
X0019992Y0130751D01*
X0019998Y0130626D01*
X0020000Y0130500D01*
X0019998Y0130374D01*
X0019992Y0130249D01*
X0019982Y0130124D01*
X0019968Y0129999D01*
X0019951Y0129874D01*
X0019929Y0129750D01*
X0019904Y0129627D01*
X0019874Y0129505D01*
X0019841Y0129384D01*
X0019804Y0129264D01*
X0019764Y0129145D01*
X0019719Y0129028D01*
X0019671Y0128911D01*
X0019619Y0128797D01*
X0019564Y0128684D01*
X0019505Y0128573D01*
X0019443Y0128464D01*
X0019377Y0128357D01*
X0019308Y0128252D01*
X0019236Y0128149D01*
X0019161Y0128048D01*
X0019082Y0127950D01*
X0019000Y0127855D01*
X0018916Y0127762D01*
X0018828Y0127672D01*
X0018738Y0127584D01*
X0018645Y0127500D01*
X0018550Y0127418D01*
X0018452Y0127339D01*
X0018351Y0127264D01*
X0018248Y0127192D01*
X0018143Y0127123D01*
X0018036Y0127057D01*
X0017927Y0126995D01*
X0017816Y0126936D01*
X0017703Y0126881D01*
X0017589Y0126829D01*
X0017472Y0126781D01*
X0017355Y0126736D01*
X0017236Y0126696D01*
X0017116Y0126659D01*
X0016995Y0126626D01*
X0016873Y0126596D01*
X0016750Y0126571D01*
X0016626Y0126549D01*
X0016501Y0126532D01*
X0016376Y0126518D01*
X0016251Y0126508D01*
X0016126Y0126502D01*
X0016000Y0126500D01*
X0016000Y0104500D01*
X0216000Y0104500D01*
X0221000Y0134500D02*
X0221000Y0187500D01*
X0021000Y0187500D01*
X0021000Y0164500D01*
X0021126Y0164498D01*
X0021251Y0164492D01*
X0021376Y0164482D01*
X0021501Y0164468D01*
X0021626Y0164451D01*
X0021750Y0164429D01*
X0021873Y0164404D01*
X0021995Y0164374D01*
X0022116Y0164341D01*
X0022236Y0164304D01*
X0022355Y0164264D01*
X0022472Y0164219D01*
X0022589Y0164171D01*
X0022703Y0164119D01*
X0022816Y0164064D01*
X0022927Y0164005D01*
X0023036Y0163943D01*
X0023143Y0163877D01*
X0023248Y0163808D01*
X0023351Y0163736D01*
X0023452Y0163661D01*
X0023550Y0163582D01*
X0023645Y0163500D01*
X0023738Y0163416D01*
X0023828Y0163328D01*
X0023916Y0163238D01*
X0024000Y0163145D01*
X0024082Y0163050D01*
X0024161Y0162952D01*
X0024236Y0162851D01*
X0024308Y0162748D01*
X0024377Y0162643D01*
X0024443Y0162536D01*
X0024505Y0162427D01*
X0024564Y0162316D01*
X0024619Y0162203D01*
X0024671Y0162089D01*
X0024719Y0161972D01*
X0024764Y0161855D01*
X0024804Y0161736D01*
X0024841Y0161616D01*
X0024874Y0161495D01*
X0024904Y0161373D01*
X0024929Y0161250D01*
X0024951Y0161126D01*
X0024968Y0161001D01*
X0024982Y0160876D01*
X0024992Y0160751D01*
X0024998Y0160626D01*
X0025000Y0160500D01*
X0024998Y0160374D01*
X0024992Y0160249D01*
X0024982Y0160124D01*
X0024968Y0159999D01*
X0024951Y0159874D01*
X0024929Y0159750D01*
X0024904Y0159627D01*
X0024874Y0159505D01*
X0024841Y0159384D01*
X0024804Y0159264D01*
X0024764Y0159145D01*
X0024719Y0159028D01*
X0024671Y0158911D01*
X0024619Y0158797D01*
X0024564Y0158684D01*
X0024505Y0158573D01*
X0024443Y0158464D01*
X0024377Y0158357D01*
X0024308Y0158252D01*
X0024236Y0158149D01*
X0024161Y0158048D01*
X0024082Y0157950D01*
X0024000Y0157855D01*
X0023916Y0157762D01*
X0023828Y0157672D01*
X0023738Y0157584D01*
X0023645Y0157500D01*
X0023550Y0157418D01*
X0023452Y0157339D01*
X0023351Y0157264D01*
X0023248Y0157192D01*
X0023143Y0157123D01*
X0023036Y0157057D01*
X0022927Y0156995D01*
X0022816Y0156936D01*
X0022703Y0156881D01*
X0022589Y0156829D01*
X0022472Y0156781D01*
X0022355Y0156736D01*
X0022236Y0156696D01*
X0022116Y0156659D01*
X0021995Y0156626D01*
X0021873Y0156596D01*
X0021750Y0156571D01*
X0021626Y0156549D01*
X0021501Y0156532D01*
X0021376Y0156518D01*
X0021251Y0156508D01*
X0021126Y0156502D01*
X0021000Y0156500D01*
X0021000Y0134500D01*
X0221000Y0134500D01*
X0221000Y0209500D02*
X0221000Y0232500D01*
X0131000Y0232500D01*
X0131000Y0225000D01*
X0131126Y0224998D01*
X0131251Y0224992D01*
X0131376Y0224982D01*
X0131501Y0224968D01*
X0131626Y0224951D01*
X0131750Y0224929D01*
X0131873Y0224904D01*
X0131995Y0224874D01*
X0132116Y0224841D01*
X0132236Y0224804D01*
X0132355Y0224764D01*
X0132472Y0224719D01*
X0132589Y0224671D01*
X0132703Y0224619D01*
X0132816Y0224564D01*
X0132927Y0224505D01*
X0133036Y0224443D01*
X0133143Y0224377D01*
X0133248Y0224308D01*
X0133351Y0224236D01*
X0133452Y0224161D01*
X0133550Y0224082D01*
X0133645Y0224000D01*
X0133738Y0223916D01*
X0133828Y0223828D01*
X0133916Y0223738D01*
X0134000Y0223645D01*
X0134082Y0223550D01*
X0134161Y0223452D01*
X0134236Y0223351D01*
X0134308Y0223248D01*
X0134377Y0223143D01*
X0134443Y0223036D01*
X0134505Y0222927D01*
X0134564Y0222816D01*
X0134619Y0222703D01*
X0134671Y0222589D01*
X0134719Y0222472D01*
X0134764Y0222355D01*
X0134804Y0222236D01*
X0134841Y0222116D01*
X0134874Y0221995D01*
X0134904Y0221873D01*
X0134929Y0221750D01*
X0134951Y0221626D01*
X0134968Y0221501D01*
X0134982Y0221376D01*
X0134992Y0221251D01*
X0134998Y0221126D01*
X0135000Y0221000D01*
X0134998Y0220874D01*
X0134992Y0220749D01*
X0134982Y0220624D01*
X0134968Y0220499D01*
X0134951Y0220374D01*
X0134929Y0220250D01*
X0134904Y0220127D01*
X0134874Y0220005D01*
X0134841Y0219884D01*
X0134804Y0219764D01*
X0134764Y0219645D01*
X0134719Y0219528D01*
X0134671Y0219411D01*
X0134619Y0219297D01*
X0134564Y0219184D01*
X0134505Y0219073D01*
X0134443Y0218964D01*
X0134377Y0218857D01*
X0134308Y0218752D01*
X0134236Y0218649D01*
X0134161Y0218548D01*
X0134082Y0218450D01*
X0134000Y0218355D01*
X0133916Y0218262D01*
X0133828Y0218172D01*
X0133738Y0218084D01*
X0133645Y0218000D01*
X0133550Y0217918D01*
X0133452Y0217839D01*
X0133351Y0217764D01*
X0133248Y0217692D01*
X0133143Y0217623D01*
X0133036Y0217557D01*
X0132927Y0217495D01*
X0132816Y0217436D01*
X0132703Y0217381D01*
X0132589Y0217329D01*
X0132472Y0217281D01*
X0132355Y0217236D01*
X0132236Y0217196D01*
X0132116Y0217159D01*
X0131995Y0217126D01*
X0131873Y0217096D01*
X0131750Y0217071D01*
X0131626Y0217049D01*
X0131501Y0217032D01*
X0131376Y0217018D01*
X0131251Y0217008D01*
X0131126Y0217002D01*
X0131000Y0217000D01*
X0131000Y0209500D01*
X0221000Y0209500D01*
X0221000Y0283500D02*
X0211000Y0283500D01*
X0211000Y0293500D01*
X0221000Y0293500D01*
X0231000Y0293500D01*
X0231000Y0283500D01*
X0221000Y0283500D01*
X0221000Y0293500D01*
X0211000Y0293500D02*
X0201000Y0293500D01*
X0201000Y0283500D01*
X0211000Y0283500D01*
X0111000Y0232500D02*
X0111000Y0209500D01*
X0071000Y0209500D01*
X0071000Y0217000D01*
X0071126Y0217002D01*
X0071251Y0217008D01*
X0071376Y0217018D01*
X0071501Y0217032D01*
X0071626Y0217049D01*
X0071750Y0217071D01*
X0071873Y0217096D01*
X0071995Y0217126D01*
X0072116Y0217159D01*
X0072236Y0217196D01*
X0072355Y0217236D01*
X0072472Y0217281D01*
X0072589Y0217329D01*
X0072703Y0217381D01*
X0072816Y0217436D01*
X0072927Y0217495D01*
X0073036Y0217557D01*
X0073143Y0217623D01*
X0073248Y0217692D01*
X0073351Y0217764D01*
X0073452Y0217839D01*
X0073550Y0217918D01*
X0073645Y0218000D01*
X0073738Y0218084D01*
X0073828Y0218172D01*
X0073916Y0218262D01*
X0074000Y0218355D01*
X0074082Y0218450D01*
X0074161Y0218548D01*
X0074236Y0218649D01*
X0074308Y0218752D01*
X0074377Y0218857D01*
X0074443Y0218964D01*
X0074505Y0219073D01*
X0074564Y0219184D01*
X0074619Y0219297D01*
X0074671Y0219411D01*
X0074719Y0219528D01*
X0074764Y0219645D01*
X0074804Y0219764D01*
X0074841Y0219884D01*
X0074874Y0220005D01*
X0074904Y0220127D01*
X0074929Y0220250D01*
X0074951Y0220374D01*
X0074968Y0220499D01*
X0074982Y0220624D01*
X0074992Y0220749D01*
X0074998Y0220874D01*
X0075000Y0221000D01*
X0074998Y0221126D01*
X0074992Y0221251D01*
X0074982Y0221376D01*
X0074968Y0221501D01*
X0074951Y0221626D01*
X0074929Y0221750D01*
X0074904Y0221873D01*
X0074874Y0221995D01*
X0074841Y0222116D01*
X0074804Y0222236D01*
X0074764Y0222355D01*
X0074719Y0222472D01*
X0074671Y0222589D01*
X0074619Y0222703D01*
X0074564Y0222816D01*
X0074505Y0222927D01*
X0074443Y0223036D01*
X0074377Y0223143D01*
X0074308Y0223248D01*
X0074236Y0223351D01*
X0074161Y0223452D01*
X0074082Y0223550D01*
X0074000Y0223645D01*
X0073916Y0223738D01*
X0073828Y0223828D01*
X0073738Y0223916D01*
X0073645Y0224000D01*
X0073550Y0224082D01*
X0073452Y0224161D01*
X0073351Y0224236D01*
X0073248Y0224308D01*
X0073143Y0224377D01*
X0073036Y0224443D01*
X0072927Y0224505D01*
X0072816Y0224564D01*
X0072703Y0224619D01*
X0072589Y0224671D01*
X0072472Y0224719D01*
X0072355Y0224764D01*
X0072236Y0224804D01*
X0072116Y0224841D01*
X0071995Y0224874D01*
X0071873Y0224904D01*
X0071750Y0224929D01*
X0071626Y0224951D01*
X0071501Y0224968D01*
X0071376Y0224982D01*
X0071251Y0224992D01*
X0071126Y0224998D01*
X0071000Y0225000D01*
X0071000Y0232500D01*
X0111000Y0232500D01*
X0059500Y0267752D02*
X0059500Y0284248D01*
X0054000Y0284874D02*
X0054000Y0286453D01*
X0054000Y0277126D02*
X0054000Y0274874D01*
X0059500Y0267752D02*
X0059298Y0267597D01*
X0059093Y0267447D01*
X0058884Y0267301D01*
X0058671Y0267161D01*
X0058456Y0267027D01*
X0058236Y0266897D01*
X0058014Y0266773D01*
X0057789Y0266654D01*
X0057561Y0266541D01*
X0057331Y0266433D01*
X0057098Y0266331D01*
X0056862Y0266234D01*
X0056625Y0266143D01*
X0056385Y0266058D01*
X0056143Y0265979D01*
X0055899Y0265906D01*
X0055654Y0265839D01*
X0055407Y0265778D01*
X0055158Y0265722D01*
X0054909Y0265673D01*
X0054658Y0265630D01*
X0054406Y0265593D01*
X0054153Y0265562D01*
X0053900Y0265537D01*
X0053646Y0265518D01*
X0053392Y0265505D01*
X0053138Y0265499D01*
X0052883Y0265499D01*
X0052629Y0265505D01*
X0052375Y0265517D01*
X0052121Y0265535D01*
X0051867Y0265559D01*
X0051615Y0265590D01*
X0051363Y0265626D01*
X0051112Y0265669D01*
X0050862Y0265718D01*
X0050614Y0265773D01*
X0050367Y0265834D01*
X0050121Y0265900D01*
X0049877Y0265973D01*
X0049635Y0266052D01*
X0049395Y0266136D01*
X0049157Y0266226D01*
X0048922Y0266322D01*
X0048688Y0266424D01*
X0048457Y0266531D01*
X0048229Y0266644D01*
X0048004Y0266763D01*
X0047782Y0266886D01*
X0047562Y0267016D01*
X0047346Y0267150D01*
X0047134Y0267290D01*
X0046924Y0267434D01*
X0046719Y0267584D01*
X0046516Y0267739D01*
X0046318Y0267898D01*
X0046124Y0268063D01*
X0045934Y0268232D01*
X0045747Y0268405D01*
X0045566Y0268583D01*
X0045388Y0268766D01*
X0045215Y0268952D01*
X0045046Y0269143D01*
X0044883Y0269338D01*
X0044724Y0269536D01*
X0044569Y0269739D01*
X0044420Y0269945D01*
X0044276Y0270155D01*
X0044137Y0270368D01*
X0044003Y0270584D01*
X0043875Y0270804D01*
X0043751Y0271027D01*
X0043634Y0271252D01*
X0043521Y0271481D01*
X0043415Y0271712D01*
X0043314Y0271945D01*
X0043218Y0272181D01*
X0043129Y0272419D01*
X0043045Y0272660D01*
X0042967Y0272902D01*
X0036000Y0283500D02*
X0036000Y0293500D01*
X0026000Y0293500D01*
X0016000Y0293500D01*
X0006000Y0293500D01*
X0006000Y0283500D01*
X0016000Y0283500D01*
X0026000Y0283500D01*
X0036000Y0283500D01*
X0026000Y0283500D02*
X0026000Y0293500D01*
X0016000Y0293500D02*
X0016000Y0283500D01*
X0042967Y0279098D02*
X0043045Y0279340D01*
X0043129Y0279581D01*
X0043218Y0279819D01*
X0043314Y0280055D01*
X0043415Y0280288D01*
X0043521Y0280519D01*
X0043634Y0280748D01*
X0043751Y0280973D01*
X0043875Y0281196D01*
X0044003Y0281416D01*
X0044137Y0281632D01*
X0044276Y0281845D01*
X0044420Y0282055D01*
X0044569Y0282261D01*
X0044724Y0282464D01*
X0044883Y0282662D01*
X0045046Y0282857D01*
X0045215Y0283048D01*
X0045388Y0283234D01*
X0045566Y0283417D01*
X0045747Y0283595D01*
X0045934Y0283768D01*
X0046124Y0283937D01*
X0046318Y0284102D01*
X0046516Y0284261D01*
X0046719Y0284416D01*
X0046924Y0284566D01*
X0047134Y0284710D01*
X0047346Y0284850D01*
X0047562Y0284984D01*
X0047782Y0285114D01*
X0048004Y0285237D01*
X0048229Y0285356D01*
X0048457Y0285469D01*
X0048688Y0285576D01*
X0048922Y0285678D01*
X0049157Y0285774D01*
X0049395Y0285864D01*
X0049635Y0285948D01*
X0049877Y0286027D01*
X0050121Y0286100D01*
X0050367Y0286166D01*
X0050614Y0286227D01*
X0050862Y0286282D01*
X0051112Y0286331D01*
X0051363Y0286374D01*
X0051615Y0286410D01*
X0051867Y0286441D01*
X0052121Y0286465D01*
X0052375Y0286483D01*
X0052629Y0286495D01*
X0052883Y0286501D01*
X0053138Y0286501D01*
X0053392Y0286495D01*
X0053646Y0286482D01*
X0053900Y0286463D01*
X0054153Y0286438D01*
X0054406Y0286407D01*
X0054658Y0286370D01*
X0054909Y0286327D01*
X0055158Y0286278D01*
X0055407Y0286222D01*
X0055654Y0286161D01*
X0055899Y0286094D01*
X0056143Y0286021D01*
X0056385Y0285942D01*
X0056625Y0285857D01*
X0056862Y0285766D01*
X0057098Y0285669D01*
X0057331Y0285567D01*
X0057561Y0285459D01*
X0057789Y0285346D01*
X0058014Y0285227D01*
X0058236Y0285103D01*
X0058456Y0284973D01*
X0058671Y0284839D01*
X0058884Y0284699D01*
X0059093Y0284553D01*
X0059298Y0284403D01*
X0059500Y0284248D01*
X0054000Y0267126D02*
X0054000Y0265547D01*
X0020000Y0086453D02*
X0020000Y0084874D01*
X0025500Y0084248D02*
X0025500Y0067752D01*
X0020000Y0067126D02*
X0020000Y0065547D01*
X0020000Y0074874D02*
X0020000Y0077126D01*
X0025500Y0084248D02*
X0025298Y0084403D01*
X0025093Y0084553D01*
X0024884Y0084699D01*
X0024671Y0084839D01*
X0024456Y0084973D01*
X0024236Y0085103D01*
X0024014Y0085227D01*
X0023789Y0085346D01*
X0023561Y0085459D01*
X0023331Y0085567D01*
X0023098Y0085669D01*
X0022862Y0085766D01*
X0022625Y0085857D01*
X0022385Y0085942D01*
X0022143Y0086021D01*
X0021899Y0086094D01*
X0021654Y0086161D01*
X0021407Y0086222D01*
X0021158Y0086278D01*
X0020909Y0086327D01*
X0020658Y0086370D01*
X0020406Y0086407D01*
X0020153Y0086438D01*
X0019900Y0086463D01*
X0019646Y0086482D01*
X0019392Y0086495D01*
X0019138Y0086501D01*
X0018883Y0086501D01*
X0018629Y0086495D01*
X0018375Y0086483D01*
X0018121Y0086465D01*
X0017867Y0086441D01*
X0017615Y0086410D01*
X0017363Y0086374D01*
X0017112Y0086331D01*
X0016862Y0086282D01*
X0016614Y0086227D01*
X0016367Y0086166D01*
X0016121Y0086100D01*
X0015877Y0086027D01*
X0015635Y0085948D01*
X0015395Y0085864D01*
X0015157Y0085774D01*
X0014922Y0085678D01*
X0014688Y0085576D01*
X0014457Y0085469D01*
X0014229Y0085356D01*
X0014004Y0085237D01*
X0013782Y0085114D01*
X0013562Y0084984D01*
X0013346Y0084850D01*
X0013134Y0084710D01*
X0012924Y0084566D01*
X0012719Y0084416D01*
X0012516Y0084261D01*
X0012318Y0084102D01*
X0012124Y0083937D01*
X0011934Y0083768D01*
X0011747Y0083595D01*
X0011566Y0083417D01*
X0011388Y0083234D01*
X0011215Y0083048D01*
X0011046Y0082857D01*
X0010883Y0082662D01*
X0010724Y0082464D01*
X0010569Y0082261D01*
X0010420Y0082055D01*
X0010276Y0081845D01*
X0010137Y0081632D01*
X0010003Y0081416D01*
X0009875Y0081196D01*
X0009751Y0080973D01*
X0009634Y0080748D01*
X0009521Y0080519D01*
X0009415Y0080288D01*
X0009314Y0080055D01*
X0009218Y0079819D01*
X0009129Y0079581D01*
X0009045Y0079340D01*
X0008967Y0079098D01*
X0008967Y0072902D02*
X0009045Y0072660D01*
X0009129Y0072419D01*
X0009218Y0072181D01*
X0009314Y0071945D01*
X0009415Y0071712D01*
X0009521Y0071481D01*
X0009634Y0071252D01*
X0009751Y0071027D01*
X0009875Y0070804D01*
X0010003Y0070584D01*
X0010137Y0070368D01*
X0010276Y0070155D01*
X0010420Y0069945D01*
X0010569Y0069739D01*
X0010724Y0069536D01*
X0010883Y0069338D01*
X0011046Y0069143D01*
X0011215Y0068952D01*
X0011388Y0068766D01*
X0011566Y0068583D01*
X0011747Y0068405D01*
X0011934Y0068232D01*
X0012124Y0068063D01*
X0012318Y0067898D01*
X0012516Y0067739D01*
X0012719Y0067584D01*
X0012924Y0067434D01*
X0013134Y0067290D01*
X0013346Y0067150D01*
X0013562Y0067016D01*
X0013782Y0066886D01*
X0014004Y0066763D01*
X0014229Y0066644D01*
X0014457Y0066531D01*
X0014688Y0066424D01*
X0014922Y0066322D01*
X0015157Y0066226D01*
X0015395Y0066136D01*
X0015635Y0066052D01*
X0015877Y0065973D01*
X0016121Y0065900D01*
X0016367Y0065834D01*
X0016614Y0065773D01*
X0016862Y0065718D01*
X0017112Y0065669D01*
X0017363Y0065626D01*
X0017615Y0065590D01*
X0017867Y0065559D01*
X0018121Y0065535D01*
X0018375Y0065517D01*
X0018629Y0065505D01*
X0018883Y0065499D01*
X0019138Y0065499D01*
X0019392Y0065505D01*
X0019646Y0065518D01*
X0019900Y0065537D01*
X0020153Y0065562D01*
X0020406Y0065593D01*
X0020658Y0065630D01*
X0020909Y0065673D01*
X0021158Y0065722D01*
X0021407Y0065778D01*
X0021654Y0065839D01*
X0021899Y0065906D01*
X0022143Y0065979D01*
X0022385Y0066058D01*
X0022625Y0066143D01*
X0022862Y0066234D01*
X0023098Y0066331D01*
X0023331Y0066433D01*
X0023561Y0066541D01*
X0023789Y0066654D01*
X0024014Y0066773D01*
X0024236Y0066897D01*
X0024456Y0067027D01*
X0024671Y0067161D01*
X0024884Y0067301D01*
X0025093Y0067447D01*
X0025298Y0067597D01*
X0025500Y0067752D01*
X0027000Y0038500D02*
X0017000Y0038500D01*
X0007000Y0038500D01*
X0007000Y0028500D01*
X0017000Y0028500D01*
X0027000Y0028500D01*
X0027000Y0038500D01*
X0017000Y0038500D02*
X0017000Y0028500D01*
D16*
X0012000Y0026000D02*
X0012000Y0003500D01*
X0022000Y0003500D02*
X0022000Y0026000D01*
X0021000Y0296000D02*
X0021000Y0318500D01*
X0011000Y0318500D02*
X0011000Y0296000D01*
X0031000Y0296000D02*
X0031000Y0318500D01*
X0206000Y0318500D02*
X0206000Y0296000D01*
X0216000Y0296000D02*
X0216000Y0318500D01*
X0226000Y0318500D02*
X0226000Y0296000D01*
D17*
X0226000Y0294500D03*
X0216000Y0294500D03*
X0206000Y0294500D03*
X0031000Y0294500D03*
X0021000Y0294500D03*
X0011000Y0294500D03*
X0012000Y0027500D03*
X0022000Y0027500D03*
D18*
X0022000Y0040500D03*
X0012000Y0040500D03*
X0011000Y0281500D03*
X0021000Y0281500D03*
X0031000Y0281500D03*
X0206000Y0281500D03*
X0216000Y0281500D03*
X0226000Y0281500D03*
D19*
X0111453Y0075252D02*
X0115252Y0071453D01*
X0114953Y0024248D02*
X0067047Y0024248D01*
X0066748Y0020547D02*
X0070547Y0016748D01*
X0107953Y0016748D02*
X0115252Y0024047D01*
X0066748Y0071453D02*
X0070547Y0075252D01*
M02*
