G75*
%MOIN*%
%OFA0B0*%
%FSLAX25Y25*%
%IPPOS*%
%LPD*%
%AMOC8*
5,1,8,0,0,1.08239X$1,22.5*
%
%ADD10R,0.09449X0.06299*%
%ADD11C,0.05200*%
%ADD12R,0.02600X0.08000*%
%ADD13C,0.05200*%
%ADD14C,0.06000*%
%ADD15R,0.05906X0.05118*%
%ADD16R,0.06299X0.05118*%
%ADD17R,0.07087X0.05512*%
%ADD18OC8,0.05200*%
%ADD19R,0.05118X0.05906*%
%ADD20C,0.01000*%
%ADD21C,0.04000*%
D10*
X0041000Y0026019D03*
X0041000Y0037831D03*
X0076000Y0271019D03*
X0076000Y0282831D03*
X0076000Y0301019D03*
X0076000Y0312831D03*
X0176000Y0312831D03*
X0176000Y0301019D03*
X0176000Y0282831D03*
X0176000Y0271019D03*
D11*
X0176000Y0244525D02*
X0176000Y0239325D01*
X0166000Y0239325D02*
X0166000Y0244525D01*
X0156000Y0244525D02*
X0156000Y0239325D01*
X0146000Y0239325D02*
X0146000Y0244525D01*
X0136000Y0244525D02*
X0136000Y0239325D01*
X0136000Y0214525D02*
X0136000Y0209325D01*
X0146000Y0209325D02*
X0146000Y0214525D01*
X0156000Y0214525D02*
X0156000Y0209325D01*
X0166000Y0209325D02*
X0166000Y0214525D01*
X0176000Y0214525D02*
X0176000Y0209325D01*
X0176000Y0194525D02*
X0176000Y0189325D01*
X0171000Y0179525D02*
X0171000Y0174325D01*
X0161000Y0174325D02*
X0161000Y0179525D01*
X0156000Y0189325D02*
X0156000Y0194525D01*
X0146000Y0194525D02*
X0146000Y0189325D01*
X0141000Y0179525D02*
X0141000Y0174325D01*
X0131000Y0174325D02*
X0131000Y0179525D01*
X0126000Y0189325D02*
X0126000Y0194525D01*
X0116000Y0194525D02*
X0116000Y0189325D01*
X0111000Y0179525D02*
X0111000Y0174325D01*
X0101000Y0174325D02*
X0101000Y0179525D01*
X0096000Y0189325D02*
X0096000Y0194525D01*
X0086000Y0194525D02*
X0086000Y0189325D01*
X0081000Y0179525D02*
X0081000Y0174325D01*
X0091000Y0174325D02*
X0091000Y0179525D01*
X0106000Y0189325D02*
X0106000Y0194525D01*
X0121000Y0179525D02*
X0121000Y0174325D01*
X0136000Y0189325D02*
X0136000Y0194525D01*
X0151000Y0179525D02*
X0151000Y0174325D01*
X0166000Y0189325D02*
X0166000Y0194525D01*
X0181000Y0179525D02*
X0181000Y0174325D01*
X0191000Y0174325D02*
X0191000Y0179525D01*
X0186000Y0189325D02*
X0186000Y0194525D01*
X0196000Y0194525D02*
X0196000Y0189325D01*
X0201000Y0179525D02*
X0201000Y0174325D01*
X0211000Y0174325D02*
X0211000Y0179525D01*
X0206000Y0189325D02*
X0206000Y0194525D01*
X0216000Y0194525D02*
X0216000Y0189325D01*
X0216000Y0209325D02*
X0216000Y0214525D01*
X0206000Y0214525D02*
X0206000Y0209325D01*
X0196000Y0209325D02*
X0196000Y0214525D01*
X0186000Y0214525D02*
X0186000Y0209325D01*
X0186000Y0239325D02*
X0186000Y0244525D01*
X0196000Y0244525D02*
X0196000Y0239325D01*
X0206000Y0239325D02*
X0206000Y0244525D01*
X0216000Y0244525D02*
X0216000Y0239325D01*
X0216000Y0134525D02*
X0216000Y0129325D01*
X0211000Y0119525D02*
X0211000Y0114325D01*
X0201000Y0114325D02*
X0201000Y0119525D01*
X0196000Y0129325D02*
X0196000Y0134525D01*
X0186000Y0134525D02*
X0186000Y0129325D01*
X0181000Y0119525D02*
X0181000Y0114325D01*
X0191000Y0114325D02*
X0191000Y0119525D01*
X0206000Y0129325D02*
X0206000Y0134525D01*
X0176000Y0134525D02*
X0176000Y0129325D01*
X0171000Y0119525D02*
X0171000Y0114325D01*
X0161000Y0114325D02*
X0161000Y0119525D01*
X0156000Y0129325D02*
X0156000Y0134525D01*
X0146000Y0134525D02*
X0146000Y0129325D01*
X0141000Y0119525D02*
X0141000Y0114325D01*
X0131000Y0114325D02*
X0131000Y0119525D01*
X0126000Y0129325D02*
X0126000Y0134525D01*
X0116000Y0134525D02*
X0116000Y0129325D01*
X0111000Y0119525D02*
X0111000Y0114325D01*
X0101000Y0114325D02*
X0101000Y0119525D01*
X0096000Y0129325D02*
X0096000Y0134525D01*
X0086000Y0134525D02*
X0086000Y0129325D01*
X0081000Y0119525D02*
X0081000Y0114325D01*
X0091000Y0114325D02*
X0091000Y0119525D01*
X0106000Y0129325D02*
X0106000Y0134525D01*
X0121000Y0119525D02*
X0121000Y0114325D01*
X0136000Y0129325D02*
X0136000Y0134525D01*
X0151000Y0119525D02*
X0151000Y0114325D01*
X0166000Y0129325D02*
X0166000Y0134525D01*
X0076000Y0134525D02*
X0076000Y0129325D01*
X0071000Y0119525D02*
X0071000Y0114325D01*
X0061000Y0114325D02*
X0061000Y0119525D01*
X0056000Y0129325D02*
X0056000Y0134525D01*
X0046000Y0134525D02*
X0046000Y0129325D01*
X0041000Y0119525D02*
X0041000Y0114325D01*
X0031000Y0114325D02*
X0031000Y0119525D01*
X0026000Y0129325D02*
X0026000Y0134525D01*
X0036000Y0134525D02*
X0036000Y0129325D01*
X0051000Y0119525D02*
X0051000Y0114325D01*
X0066000Y0129325D02*
X0066000Y0134525D01*
X0061000Y0174325D02*
X0061000Y0179525D01*
X0056000Y0189325D02*
X0056000Y0194525D01*
X0046000Y0194525D02*
X0046000Y0189325D01*
X0041000Y0179525D02*
X0041000Y0174325D01*
X0031000Y0174325D02*
X0031000Y0179525D01*
X0026000Y0189325D02*
X0026000Y0194525D01*
X0036000Y0194525D02*
X0036000Y0189325D01*
X0051000Y0179525D02*
X0051000Y0174325D01*
X0066000Y0189325D02*
X0066000Y0194525D01*
X0076000Y0194525D02*
X0076000Y0189325D01*
X0071000Y0179525D02*
X0071000Y0174325D01*
X0021000Y0174325D02*
X0021000Y0179525D01*
X0021000Y0119525D02*
X0021000Y0114325D01*
D12*
X0036000Y0094025D03*
X0041000Y0094025D03*
X0046000Y0094025D03*
X0051000Y0094025D03*
X0056000Y0094025D03*
X0061000Y0094025D03*
X0066000Y0094025D03*
X0066000Y0069825D03*
X0061000Y0069825D03*
X0056000Y0069825D03*
X0051000Y0069825D03*
X0046000Y0069825D03*
X0041000Y0069825D03*
X0036000Y0069825D03*
X0086000Y0069825D03*
X0091000Y0069825D03*
X0096000Y0069825D03*
X0101000Y0069825D03*
X0106000Y0069825D03*
X0111000Y0069825D03*
X0116000Y0069825D03*
X0116000Y0094025D03*
X0111000Y0094025D03*
X0106000Y0094025D03*
X0101000Y0094025D03*
X0096000Y0094025D03*
X0091000Y0094025D03*
X0086000Y0094025D03*
X0116000Y0044025D03*
X0121000Y0044025D03*
X0126000Y0044025D03*
X0131000Y0044025D03*
X0136000Y0044025D03*
X0141000Y0044025D03*
X0146000Y0044025D03*
X0146000Y0019825D03*
X0141000Y0019825D03*
X0136000Y0019825D03*
X0131000Y0019825D03*
X0126000Y0019825D03*
X0121000Y0019825D03*
X0116000Y0019825D03*
X0136000Y0069825D03*
X0141000Y0069825D03*
X0146000Y0069825D03*
X0151000Y0069825D03*
X0156000Y0069825D03*
X0161000Y0069825D03*
X0166000Y0069825D03*
X0166000Y0094025D03*
X0161000Y0094025D03*
X0156000Y0094025D03*
X0151000Y0094025D03*
X0146000Y0094025D03*
X0141000Y0094025D03*
X0136000Y0094025D03*
X0166000Y0044025D03*
X0171000Y0044025D03*
X0176000Y0044025D03*
X0181000Y0044025D03*
X0186000Y0044025D03*
X0191000Y0044025D03*
X0196000Y0044025D03*
X0196000Y0019825D03*
X0191000Y0019825D03*
X0186000Y0019825D03*
X0181000Y0019825D03*
X0176000Y0019825D03*
X0171000Y0019825D03*
X0166000Y0019825D03*
X0186000Y0069825D03*
X0191000Y0069825D03*
X0196000Y0069825D03*
X0201000Y0069825D03*
X0206000Y0069825D03*
X0211000Y0069825D03*
X0216000Y0069825D03*
X0216000Y0094025D03*
X0211000Y0094025D03*
X0206000Y0094025D03*
X0201000Y0094025D03*
X0196000Y0094025D03*
X0191000Y0094025D03*
X0186000Y0094025D03*
D13*
X0111000Y0211925D03*
X0101000Y0211925D03*
X0091000Y0211925D03*
X0081000Y0211925D03*
X0081000Y0241925D03*
X0091000Y0241925D03*
X0101000Y0241925D03*
X0111000Y0241925D03*
D14*
X0031000Y0278925D02*
X0031000Y0284925D01*
X0021000Y0284925D02*
X0021000Y0278925D01*
X0011000Y0278925D02*
X0011000Y0284925D01*
X0012000Y0049925D02*
X0012000Y0043925D01*
X0022000Y0043925D02*
X0022000Y0049925D01*
X0206000Y0278925D02*
X0206000Y0284925D01*
X0216000Y0284925D02*
X0216000Y0278925D01*
X0226000Y0278925D02*
X0226000Y0284925D01*
X0225000Y0049925D02*
X0225000Y0043925D01*
X0215000Y0043925D02*
X0215000Y0049925D01*
D15*
X0061000Y0045665D03*
X0061000Y0038185D03*
X0061000Y0025665D03*
X0061000Y0018185D03*
X0056000Y0248185D03*
X0056000Y0255665D03*
X0036000Y0255665D03*
X0036000Y0248185D03*
X0056000Y0308185D03*
X0056000Y0315665D03*
D16*
X0081000Y0035665D03*
X0081000Y0028185D03*
D17*
X0099000Y0025232D03*
X0099000Y0038618D03*
D18*
X0019000Y0076925D03*
X0011500Y0081925D03*
X0019000Y0086925D03*
X0053000Y0276925D03*
X0045500Y0281925D03*
X0053000Y0286925D03*
D19*
X0092260Y0231925D03*
X0099740Y0231925D03*
X0089740Y0221925D03*
X0082260Y0221925D03*
X0147260Y0226925D03*
X0154740Y0226925D03*
D20*
X0004750Y0164425D02*
X0004750Y0031300D01*
X0025375Y0031300D01*
X0027875Y0033800D01*
X0027875Y0042550D01*
X0022250Y0046925D02*
X0022000Y0046925D01*
X0022250Y0046925D02*
X0022250Y0066925D01*
X0026000Y0070675D01*
X0016625Y0073175D02*
X0014750Y0075050D01*
X0014750Y0079425D01*
X0018500Y0083175D01*
X0018500Y0086925D01*
X0019000Y0086925D01*
X0016625Y0073175D02*
X0016625Y0042550D01*
X0024125Y0035050D01*
X0027875Y0030675D02*
X0027875Y0030050D01*
X0023500Y0025675D01*
X0027875Y0030675D02*
X0044125Y0030675D01*
X0047250Y0033800D01*
X0047250Y0068175D01*
X0046000Y0069425D01*
X0046000Y0069825D01*
X0042875Y0071925D02*
X0042875Y0086925D01*
X0041000Y0094025D02*
X0041000Y0094425D01*
X0042875Y0096300D01*
X0042875Y0110675D01*
X0046625Y0114425D01*
X0046625Y0124425D01*
X0051625Y0129425D01*
X0051625Y0153175D01*
X0046625Y0150675D02*
X0046625Y0184425D01*
X0051625Y0189425D01*
X0051625Y0198175D01*
X0060375Y0184425D02*
X0056625Y0180675D01*
X0056625Y0139425D01*
X0061000Y0135050D01*
X0061000Y0126300D01*
X0063500Y0123800D02*
X0066000Y0126300D01*
X0066000Y0131925D01*
X0070375Y0135675D02*
X0066625Y0139425D01*
X0066625Y0183175D01*
X0067250Y0183800D01*
X0071000Y0186925D02*
X0071000Y0176925D01*
X0071000Y0168175D01*
X0072875Y0166300D01*
X0080375Y0176300D02*
X0080375Y0145675D01*
X0087875Y0144425D02*
X0080375Y0136925D01*
X0080375Y0124425D01*
X0075375Y0119425D01*
X0075375Y0106300D01*
X0069125Y0100050D01*
X0069125Y0065675D01*
X0062875Y0059425D01*
X0062875Y0058800D01*
X0066625Y0060050D02*
X0066625Y0021925D01*
X0061000Y0018185D02*
X0061000Y0018175D01*
X0076000Y0018175D01*
X0079125Y0021925D02*
X0074750Y0026300D01*
X0074750Y0029425D01*
X0081000Y0028185D02*
X0081000Y0028175D01*
X0098500Y0028175D01*
X0098500Y0025675D01*
X0099000Y0025232D01*
X0099125Y0025050D01*
X0099125Y0021925D01*
X0101937Y0019113D01*
X0101625Y0018800D01*
X0101625Y0011925D01*
X0052875Y0011925D01*
X0049125Y0015675D01*
X0049125Y0017550D01*
X0041000Y0025675D01*
X0041000Y0026019D01*
X0041000Y0037831D02*
X0041000Y0038175D01*
X0037875Y0041300D01*
X0037875Y0051300D01*
X0037875Y0067550D01*
X0036000Y0069425D01*
X0036000Y0069825D01*
X0036000Y0080675D01*
X0035375Y0081300D01*
X0037875Y0086925D02*
X0036000Y0088800D01*
X0036000Y0094025D01*
X0031625Y0107550D02*
X0041000Y0116925D01*
X0041000Y0126925D01*
X0046000Y0131925D01*
X0056000Y0131925D02*
X0056000Y0121925D01*
X0051000Y0116925D01*
X0061000Y0116925D02*
X0063500Y0119425D01*
X0063500Y0123800D01*
X0066000Y0120050D02*
X0066000Y0101300D01*
X0066000Y0094025D02*
X0066000Y0093800D01*
X0064750Y0092550D01*
X0064750Y0084425D01*
X0059750Y0084425D02*
X0064750Y0079425D01*
X0071000Y0070675D02*
X0071000Y0064425D01*
X0066625Y0060050D01*
X0070375Y0056300D02*
X0072875Y0053800D01*
X0072875Y0043175D01*
X0076625Y0040050D02*
X0081000Y0035675D01*
X0081000Y0035665D01*
X0081000Y0035675D02*
X0098500Y0035675D01*
X0108500Y0025675D01*
X0116000Y0030050D02*
X0116000Y0019825D01*
X0116000Y0005675D01*
X0115375Y0005050D01*
X0112250Y0008800D02*
X0101937Y0019113D01*
X0097875Y0018175D02*
X0097875Y0013800D01*
X0054750Y0013800D01*
X0051000Y0017550D01*
X0051000Y0069825D01*
X0056000Y0069825D02*
X0056000Y0083800D01*
X0052875Y0086925D01*
X0056000Y0069825D02*
X0056000Y0031300D01*
X0061000Y0025675D02*
X0061000Y0025665D01*
X0061000Y0025675D02*
X0054750Y0019425D01*
X0061000Y0025675D02*
X0061000Y0038185D01*
X0061000Y0045665D02*
X0061000Y0045675D01*
X0059125Y0047550D01*
X0059125Y0061925D01*
X0059750Y0062550D01*
X0071000Y0070675D02*
X0077250Y0076925D01*
X0080375Y0080675D02*
X0080375Y0090050D01*
X0077875Y0092550D01*
X0077875Y0095050D01*
X0085375Y0102550D01*
X0085375Y0119425D01*
X0091625Y0125675D01*
X0091625Y0167550D01*
X0101000Y0176925D01*
X0103500Y0179425D01*
X0103500Y0189425D01*
X0106000Y0191925D01*
X0110375Y0194425D02*
X0110375Y0184425D01*
X0105375Y0179425D01*
X0105375Y0172550D01*
X0096000Y0163175D01*
X0096000Y0131925D01*
X0093500Y0129425D01*
X0093500Y0119425D01*
X0091000Y0116925D01*
X0096625Y0113175D02*
X0096625Y0124425D01*
X0098812Y0126612D01*
X0100375Y0125050D01*
X0098812Y0126612D02*
X0100375Y0128175D01*
X0100375Y0162550D01*
X0107250Y0151300D02*
X0106000Y0150050D01*
X0106000Y0131925D01*
X0104125Y0130050D01*
X0104125Y0120050D01*
X0101000Y0116925D01*
X0096625Y0113175D02*
X0099125Y0110675D01*
X0099125Y0096300D01*
X0101000Y0094425D01*
X0101000Y0094025D01*
X0106000Y0094025D02*
X0106000Y0120050D01*
X0110375Y0124425D01*
X0110375Y0147550D01*
X0113500Y0149425D02*
X0115375Y0147550D01*
X0115375Y0131925D01*
X0116000Y0131925D01*
X0112250Y0128175D01*
X0112250Y0118175D01*
X0111000Y0116925D01*
X0111000Y0105050D01*
X0114125Y0101300D02*
X0116625Y0103800D01*
X0116625Y0124425D01*
X0120375Y0128175D01*
X0120375Y0166925D01*
X0117250Y0170050D01*
X0115375Y0173175D02*
X0113500Y0171300D01*
X0113500Y0149425D01*
X0126000Y0131925D02*
X0126000Y0121925D01*
X0121000Y0116925D01*
X0125375Y0110675D02*
X0124750Y0110050D01*
X0124750Y0080675D01*
X0128500Y0076925D01*
X0124750Y0075675D02*
X0124750Y0066925D01*
X0132250Y0059425D01*
X0136000Y0059425D01*
X0136000Y0054425D01*
X0136000Y0059425D02*
X0151000Y0059425D01*
X0151000Y0069825D01*
X0154125Y0067550D02*
X0154125Y0058800D01*
X0150375Y0055050D01*
X0150375Y0051925D01*
X0146625Y0050675D02*
X0149750Y0047550D01*
X0149750Y0035050D01*
X0154125Y0030675D01*
X0159750Y0031300D02*
X0150375Y0021925D01*
X0146000Y0019825D02*
X0146000Y0034425D01*
X0146000Y0044025D01*
X0146625Y0050675D02*
X0114125Y0050675D01*
X0114125Y0064425D01*
X0111000Y0067550D01*
X0111000Y0069825D01*
X0107875Y0067550D02*
X0107875Y0060675D01*
X0110375Y0058175D01*
X0106625Y0051925D02*
X0092875Y0065675D01*
X0092875Y0067550D01*
X0091000Y0069425D01*
X0091000Y0069825D01*
X0091000Y0075050D01*
X0087875Y0078175D01*
X0084125Y0075675D02*
X0076625Y0068175D01*
X0076625Y0062550D01*
X0074125Y0062550D01*
X0076625Y0062550D02*
X0076625Y0040050D01*
X0084125Y0053800D02*
X0088187Y0057862D01*
X0087875Y0058175D01*
X0087875Y0067550D01*
X0086000Y0069425D01*
X0086000Y0069825D01*
X0081625Y0068175D02*
X0080375Y0066925D01*
X0080375Y0058175D01*
X0088187Y0057862D02*
X0116000Y0030050D01*
X0126000Y0019825D02*
X0126000Y0019425D01*
X0127250Y0018175D01*
X0127250Y0007550D01*
X0129750Y0005050D01*
X0166625Y0005050D01*
X0166625Y0007550D01*
X0170375Y0008800D02*
X0170375Y0016300D01*
X0171000Y0019825D01*
X0171000Y0017550D01*
X0166000Y0012550D01*
X0164125Y0016925D02*
X0156000Y0008800D01*
X0155375Y0013175D02*
X0155375Y0020050D01*
X0160375Y0018175D02*
X0162875Y0020675D01*
X0162875Y0030050D01*
X0163500Y0030675D01*
X0159750Y0031300D02*
X0159750Y0038175D01*
X0159750Y0058175D01*
X0166000Y0064425D01*
X0166000Y0069825D01*
X0161000Y0069825D02*
X0161000Y0075675D01*
X0167250Y0081925D01*
X0169125Y0075675D02*
X0169125Y0051925D01*
X0171625Y0049425D01*
X0196000Y0049425D01*
X0196000Y0044025D01*
X0196000Y0036925D01*
X0198500Y0034425D02*
X0191000Y0026925D01*
X0186000Y0026925D01*
X0186000Y0019825D01*
X0182250Y0021300D02*
X0182250Y0034425D01*
X0180375Y0038175D02*
X0191000Y0038175D01*
X0191000Y0036925D01*
X0198500Y0034425D02*
X0201625Y0034425D01*
X0200375Y0039425D02*
X0200375Y0051300D01*
X0191000Y0051300D01*
X0186000Y0056300D01*
X0186000Y0069825D01*
X0186000Y0070050D01*
X0177875Y0078175D01*
X0176625Y0083175D02*
X0169125Y0075675D01*
X0172875Y0074425D02*
X0172875Y0053175D01*
X0180375Y0038175D02*
X0167875Y0025675D01*
X0167875Y0021925D01*
X0166000Y0020050D01*
X0166000Y0019825D01*
X0166000Y0019425D01*
X0164125Y0017550D01*
X0164125Y0016925D01*
X0155375Y0013175D02*
X0140375Y0013175D01*
X0136000Y0017550D01*
X0136000Y0019825D01*
X0131000Y0019825D02*
X0131000Y0008800D01*
X0141000Y0019825D02*
X0141000Y0020050D01*
X0142250Y0021300D01*
X0142250Y0026925D01*
X0154125Y0048800D02*
X0154125Y0055675D01*
X0159125Y0060675D01*
X0159125Y0067550D01*
X0161000Y0069425D01*
X0161000Y0069825D01*
X0156000Y0069825D02*
X0156000Y0069425D01*
X0154125Y0067550D01*
X0146000Y0069425D02*
X0146000Y0069825D01*
X0146000Y0069425D02*
X0144125Y0067550D01*
X0144125Y0065675D01*
X0141625Y0063175D01*
X0133500Y0063175D01*
X0131000Y0067550D02*
X0132250Y0068800D01*
X0132250Y0083800D01*
X0129750Y0086300D01*
X0129750Y0106925D01*
X0136625Y0113800D01*
X0136625Y0120675D01*
X0140375Y0124425D01*
X0140375Y0162550D01*
X0131625Y0155050D02*
X0131625Y0126925D01*
X0134750Y0123800D01*
X0131000Y0116925D02*
X0131000Y0111300D01*
X0127875Y0108175D01*
X0127875Y0082550D01*
X0128500Y0081925D01*
X0124750Y0075675D02*
X0108500Y0075675D01*
X0108500Y0081925D01*
X0108500Y0075675D02*
X0104125Y0075675D01*
X0102875Y0074425D01*
X0102875Y0071925D01*
X0101000Y0070050D01*
X0101000Y0069825D01*
X0097875Y0071925D02*
X0097875Y0076300D01*
X0107250Y0085675D01*
X0113500Y0085675D01*
X0113500Y0081925D01*
X0112250Y0087550D02*
X0084125Y0087550D01*
X0084125Y0084425D01*
X0084125Y0075675D01*
X0076000Y0089425D02*
X0076000Y0103800D01*
X0081000Y0108800D01*
X0081000Y0116925D02*
X0082250Y0118175D01*
X0082250Y0128175D01*
X0086000Y0131925D01*
X0076625Y0132550D02*
X0076000Y0131925D01*
X0073500Y0129425D01*
X0073500Y0119425D01*
X0071000Y0116925D01*
X0066000Y0120050D02*
X0070375Y0124425D01*
X0070375Y0135675D01*
X0076625Y0132550D02*
X0076625Y0180675D01*
X0080375Y0184425D01*
X0080375Y0198800D01*
X0093500Y0198800D01*
X0105375Y0210675D01*
X0105375Y0211925D01*
X0109125Y0215675D01*
X0109125Y0220675D01*
X0116000Y0227550D01*
X0115375Y0223800D02*
X0115375Y0199425D01*
X0110375Y0194425D01*
X0116000Y0191925D02*
X0112250Y0188175D01*
X0112250Y0178175D01*
X0111000Y0176925D01*
X0115375Y0179425D02*
X0115375Y0173175D01*
X0115375Y0179425D02*
X0120375Y0184425D01*
X0120375Y0220050D01*
X0135375Y0220050D01*
X0136000Y0223800D02*
X0115375Y0223800D01*
X0107250Y0228800D02*
X0111000Y0232550D01*
X0111000Y0241925D01*
X0106000Y0230675D02*
X0091000Y0215675D01*
X0091000Y0220675D01*
X0089750Y0221925D01*
X0089740Y0221925D01*
X0085375Y0224425D02*
X0085375Y0255050D01*
X0081000Y0241925D02*
X0042250Y0241925D01*
X0036000Y0248175D01*
X0036000Y0248185D01*
X0031625Y0245050D02*
X0031625Y0259425D01*
X0031937Y0259737D01*
X0036000Y0255675D01*
X0036000Y0255665D01*
X0031937Y0259737D02*
X0011000Y0280675D01*
X0011000Y0281925D01*
X0011000Y0315050D01*
X0056000Y0315050D01*
X0056000Y0315665D01*
X0056000Y0308185D02*
X0056000Y0308175D01*
X0053500Y0305675D01*
X0053500Y0301300D01*
X0076000Y0301300D01*
X0076000Y0301019D01*
X0082250Y0306300D02*
X0082250Y0289425D01*
X0076000Y0283175D01*
X0076000Y0282831D01*
X0076000Y0282550D01*
X0046000Y0282550D01*
X0046000Y0281925D01*
X0045500Y0281925D01*
X0053000Y0276925D02*
X0053500Y0276925D01*
X0053500Y0271300D01*
X0076000Y0271300D01*
X0076000Y0271019D01*
X0056000Y0255675D02*
X0056000Y0255665D01*
X0056000Y0255675D02*
X0031000Y0280675D01*
X0031000Y0281925D01*
X0053000Y0286925D02*
X0053500Y0286925D01*
X0053500Y0301300D01*
X0076000Y0312550D02*
X0076000Y0312831D01*
X0076000Y0312550D02*
X0082250Y0306300D01*
X0084125Y0308175D01*
X0102250Y0287550D02*
X0102875Y0287550D01*
X0102875Y0312550D01*
X0176000Y0312550D01*
X0176000Y0312831D01*
X0176000Y0301019D02*
X0176000Y0300675D01*
X0166625Y0300675D01*
X0133813Y0267863D01*
X0122250Y0279425D01*
X0133813Y0267863D02*
X0127250Y0261300D01*
X0142875Y0271925D02*
X0150375Y0279425D01*
X0162250Y0286925D02*
X0162250Y0245675D01*
X0166000Y0241925D01*
X0170375Y0238175D02*
X0161625Y0229425D01*
X0161625Y0185675D01*
X0156000Y0180050D01*
X0156000Y0131925D01*
X0154750Y0130675D01*
X0154750Y0120675D01*
X0151000Y0116925D01*
X0146625Y0120675D02*
X0146625Y0110675D01*
X0141000Y0116925D02*
X0144750Y0120675D01*
X0144750Y0130675D01*
X0146000Y0131925D01*
X0146625Y0132550D01*
X0146625Y0180675D01*
X0150375Y0184425D01*
X0150375Y0194425D01*
X0157250Y0201300D01*
X0156000Y0191925D02*
X0152250Y0188175D01*
X0152250Y0178175D01*
X0151000Y0176925D01*
X0144750Y0180675D02*
X0144750Y0190675D01*
X0146000Y0191925D01*
X0140375Y0184425D02*
X0136000Y0180050D01*
X0136000Y0131925D01*
X0146625Y0120675D02*
X0150375Y0124425D01*
X0150375Y0162550D01*
X0159750Y0166925D02*
X0159750Y0151300D01*
X0161625Y0138175D02*
X0161625Y0129425D01*
X0156625Y0124425D01*
X0156625Y0114425D01*
X0152875Y0110675D01*
X0152875Y0096300D01*
X0151000Y0094425D01*
X0151000Y0094025D01*
X0156000Y0094025D02*
X0156000Y0093800D01*
X0157875Y0091925D01*
X0157875Y0089425D01*
X0159125Y0088175D01*
X0182875Y0088175D01*
X0182875Y0099425D01*
X0189750Y0106300D01*
X0194750Y0106300D01*
X0194750Y0095675D01*
X0196000Y0094425D01*
X0196000Y0094025D01*
X0201000Y0094025D02*
X0201000Y0091300D01*
X0209125Y0083175D01*
X0209125Y0071925D01*
X0211000Y0070050D01*
X0211000Y0069825D01*
X0207250Y0068175D02*
X0207250Y0058175D01*
X0210375Y0056300D02*
X0212250Y0058175D01*
X0210375Y0056300D02*
X0210375Y0044425D01*
X0209125Y0043175D01*
X0214750Y0046925D02*
X0215000Y0046925D01*
X0214750Y0046925D02*
X0214750Y0028800D01*
X0209125Y0023175D01*
X0205375Y0020675D02*
X0200375Y0015675D01*
X0196000Y0019425D02*
X0196000Y0019825D01*
X0196000Y0019425D02*
X0194125Y0017550D01*
X0194125Y0015675D01*
X0187250Y0008800D01*
X0170375Y0008800D01*
X0176000Y0019825D02*
X0176000Y0020050D01*
X0177875Y0021925D01*
X0177875Y0030675D01*
X0182250Y0021300D02*
X0181000Y0020050D01*
X0181000Y0019825D01*
X0186000Y0012550D02*
X0191000Y0017550D01*
X0191000Y0019825D01*
X0205375Y0020675D02*
X0205375Y0052550D01*
X0202875Y0055050D01*
X0194125Y0061925D02*
X0194125Y0067550D01*
X0196000Y0069425D01*
X0196000Y0069825D01*
X0196000Y0070050D01*
X0194125Y0071925D01*
X0194125Y0082550D01*
X0189750Y0086925D01*
X0191000Y0094025D02*
X0191000Y0102550D01*
X0196625Y0100675D02*
X0201000Y0096300D01*
X0201000Y0094025D01*
X0206000Y0094025D02*
X0206000Y0094425D01*
X0206625Y0095050D01*
X0206625Y0124425D01*
X0211000Y0128800D01*
X0211000Y0176925D01*
X0211000Y0186925D01*
X0216000Y0191925D01*
X0217250Y0198800D02*
X0210375Y0198800D01*
X0210375Y0237550D01*
X0206000Y0241925D01*
X0216000Y0241925D02*
X0227875Y0230050D01*
X0227875Y0091300D01*
X0229750Y0089425D01*
X0233500Y0092550D02*
X0232875Y0093175D01*
X0233500Y0092550D02*
X0233500Y0055050D01*
X0225375Y0046925D01*
X0225000Y0046925D01*
X0219750Y0051300D02*
X0216000Y0055050D01*
X0216000Y0069825D01*
X0222250Y0063800D02*
X0222250Y0140675D01*
X0219125Y0143800D01*
X0216000Y0140050D02*
X0220375Y0135675D01*
X0220375Y0090050D01*
X0217250Y0086925D01*
X0211000Y0088175D02*
X0219125Y0080050D01*
X0219125Y0060050D01*
X0219750Y0059425D01*
X0222875Y0063175D02*
X0222250Y0063800D01*
X0226000Y0059425D02*
X0229750Y0063175D01*
X0229750Y0084425D01*
X0226000Y0088175D01*
X0226000Y0190050D01*
X0217250Y0198800D01*
X0210375Y0198800D02*
X0206000Y0198800D01*
X0206000Y0191925D01*
X0206000Y0181925D01*
X0201000Y0176925D01*
X0196625Y0174425D02*
X0196625Y0183175D01*
X0192875Y0178800D02*
X0192875Y0188800D01*
X0196000Y0191925D01*
X0186000Y0191925D02*
X0186000Y0181925D01*
X0181000Y0176925D01*
X0175375Y0179425D02*
X0180375Y0184425D01*
X0180375Y0226925D01*
X0172250Y0235050D01*
X0170375Y0238175D02*
X0170375Y0245675D01*
X0166000Y0250050D01*
X0160375Y0245675D02*
X0157250Y0248800D01*
X0150375Y0248800D01*
X0150375Y0238175D01*
X0136000Y0223800D01*
X0136000Y0215675D02*
X0136000Y0211925D01*
X0136000Y0191925D01*
X0134125Y0190050D01*
X0134125Y0180050D01*
X0131000Y0176925D01*
X0126625Y0180675D02*
X0126625Y0170675D01*
X0121000Y0176925D02*
X0124750Y0180675D01*
X0124750Y0190675D01*
X0126000Y0191925D01*
X0126000Y0215675D01*
X0136000Y0215675D02*
X0147250Y0226925D01*
X0147260Y0226925D01*
X0154740Y0226925D02*
X0154750Y0226925D01*
X0156000Y0228175D01*
X0156000Y0241925D01*
X0160375Y0245675D02*
X0160375Y0238175D01*
X0159750Y0237550D01*
X0159750Y0215675D01*
X0156000Y0211925D01*
X0146000Y0211925D02*
X0140375Y0206300D01*
X0140375Y0184425D01*
X0144750Y0180675D02*
X0141000Y0176925D01*
X0130375Y0184425D02*
X0126625Y0180675D01*
X0130375Y0184425D02*
X0130375Y0198175D01*
X0129750Y0198800D01*
X0107250Y0218175D02*
X0107250Y0228800D01*
X0106000Y0230675D02*
X0106000Y0283800D01*
X0102250Y0287550D01*
X0102250Y0256300D02*
X0102250Y0243175D01*
X0101000Y0241925D01*
X0101000Y0233175D01*
X0099750Y0231925D01*
X0099740Y0231925D01*
X0092260Y0231925D02*
X0092250Y0231925D01*
X0091000Y0233175D01*
X0091000Y0241925D01*
X0098500Y0249425D01*
X0098500Y0252550D01*
X0081625Y0233175D02*
X0060375Y0211925D01*
X0060375Y0184425D01*
X0063500Y0189425D02*
X0066000Y0191925D01*
X0063500Y0189425D02*
X0063500Y0179425D01*
X0061000Y0176925D01*
X0071000Y0186925D02*
X0076000Y0191925D01*
X0086000Y0191925D02*
X0086000Y0181925D01*
X0081000Y0176925D01*
X0080375Y0176300D01*
X0081000Y0211925D02*
X0081000Y0220675D01*
X0082250Y0221925D01*
X0082260Y0221925D01*
X0082875Y0221925D01*
X0085375Y0224425D01*
X0091000Y0215675D02*
X0091000Y0211925D01*
X0101000Y0211925D02*
X0107250Y0218175D01*
X0146000Y0241925D02*
X0148500Y0244425D01*
X0148500Y0252550D01*
X0164750Y0265675D02*
X0164750Y0284425D01*
X0166000Y0285675D01*
X0166000Y0290050D01*
X0176000Y0282831D02*
X0176000Y0282550D01*
X0169750Y0276300D01*
X0169750Y0268175D01*
X0168500Y0266925D01*
X0164750Y0265675D02*
X0172250Y0258175D01*
X0172250Y0245675D01*
X0176000Y0241925D01*
X0168500Y0231300D02*
X0168500Y0214425D01*
X0166000Y0211925D01*
X0170375Y0206300D02*
X0170375Y0184425D01*
X0165375Y0179425D01*
X0165375Y0172550D01*
X0159750Y0166925D01*
X0166000Y0170050D02*
X0166000Y0131925D01*
X0163500Y0129425D01*
X0163500Y0119425D01*
X0161000Y0116925D01*
X0161000Y0108175D01*
X0156625Y0103800D01*
X0163500Y0103800D02*
X0166625Y0106925D01*
X0166625Y0124425D01*
X0170375Y0128175D01*
X0170375Y0166300D01*
X0172250Y0170050D02*
X0166000Y0170050D01*
X0161000Y0176925D02*
X0163500Y0179425D01*
X0163500Y0189425D01*
X0166000Y0191925D01*
X0173500Y0189425D02*
X0176000Y0191925D01*
X0173500Y0189425D02*
X0173500Y0179425D01*
X0171000Y0176925D01*
X0175375Y0179425D02*
X0175375Y0173175D01*
X0172250Y0170050D01*
X0181625Y0159425D02*
X0196625Y0174425D01*
X0192875Y0178800D02*
X0191000Y0176925D01*
X0181625Y0159425D02*
X0181625Y0129425D01*
X0176625Y0124425D01*
X0176625Y0100050D01*
X0177875Y0093800D02*
X0166000Y0093800D01*
X0166000Y0094025D01*
X0166000Y0085675D02*
X0171625Y0085675D01*
X0171625Y0084425D01*
X0166000Y0085675D02*
X0162250Y0081925D01*
X0146625Y0086925D02*
X0142875Y0083175D01*
X0142875Y0071925D01*
X0141000Y0070050D01*
X0141000Y0069825D01*
X0136000Y0069825D02*
X0136000Y0079425D01*
X0136000Y0094025D02*
X0136000Y0094425D01*
X0137250Y0095675D01*
X0137250Y0109425D01*
X0120375Y0108800D02*
X0120375Y0102550D01*
X0119125Y0101300D01*
X0116000Y0094025D02*
X0116000Y0093800D01*
X0114125Y0091925D01*
X0114125Y0089425D01*
X0112250Y0087550D01*
X0116000Y0069825D02*
X0116000Y0069425D01*
X0120375Y0069425D01*
X0107875Y0067550D02*
X0106000Y0069425D01*
X0106000Y0069825D01*
X0097875Y0071925D02*
X0096000Y0070050D01*
X0096000Y0069825D01*
X0086000Y0093800D02*
X0081625Y0093800D01*
X0086000Y0093800D02*
X0086000Y0094025D01*
X0099000Y0038618D02*
X0098500Y0038175D01*
X0098500Y0035675D01*
X0042875Y0071925D02*
X0041000Y0070050D01*
X0041000Y0069825D01*
X0029750Y0056300D02*
X0029750Y0115675D01*
X0031000Y0116925D01*
X0031000Y0126925D01*
X0036000Y0131925D01*
X0041625Y0145675D02*
X0046625Y0150675D01*
X0041000Y0173800D02*
X0041000Y0176925D01*
X0041000Y0173800D02*
X0019125Y0151925D01*
X0015375Y0153175D02*
X0036625Y0174425D01*
X0036625Y0184425D01*
X0040375Y0188175D01*
X0040375Y0236300D01*
X0031625Y0245050D01*
X0042250Y0248175D02*
X0056000Y0248175D01*
X0056000Y0248185D01*
X0036000Y0198800D02*
X0024750Y0198800D01*
X0016625Y0190675D01*
X0016625Y0176300D01*
X0004750Y0164425D01*
X0007250Y0163175D02*
X0021000Y0176925D01*
X0021000Y0186925D01*
X0026000Y0191925D01*
X0036000Y0191925D02*
X0036000Y0198800D01*
X0007250Y0163175D02*
X0007250Y0075050D01*
X0008500Y0073800D01*
X0027875Y0054425D02*
X0029750Y0056300D01*
X0031625Y0036300D02*
X0031625Y0107550D01*
X0021000Y0108800D02*
X0015375Y0114425D01*
X0015375Y0153175D01*
X0026000Y0131925D02*
X0021000Y0126925D01*
X0021000Y0116925D01*
X0031625Y0036300D02*
X0032875Y0035050D01*
X0171000Y0116925D02*
X0174750Y0120675D01*
X0174750Y0130675D01*
X0176000Y0131925D01*
X0190375Y0142550D02*
X0185375Y0147550D01*
X0190375Y0142550D02*
X0190375Y0125675D01*
X0191000Y0125050D01*
X0194750Y0120675D02*
X0194750Y0130675D01*
X0196000Y0131925D01*
X0200375Y0124425D02*
X0200375Y0140050D01*
X0185375Y0155050D01*
X0186000Y0131925D02*
X0186000Y0121925D01*
X0181000Y0116925D01*
X0191000Y0116925D02*
X0194750Y0120675D01*
X0196625Y0120675D02*
X0196625Y0100675D01*
X0186000Y0094025D02*
X0186000Y0093800D01*
X0184750Y0092550D01*
X0184750Y0080050D01*
X0191000Y0069825D02*
X0191000Y0069425D01*
X0189750Y0068175D01*
X0189750Y0062550D01*
X0194125Y0061925D02*
X0189750Y0057550D01*
X0201000Y0069825D02*
X0201000Y0076925D01*
X0205375Y0081300D01*
X0211000Y0088175D02*
X0211000Y0094025D01*
X0214750Y0095675D02*
X0214750Y0101300D01*
X0214750Y0095675D02*
X0216000Y0094425D01*
X0216000Y0094025D01*
X0224125Y0073800D02*
X0226000Y0071925D01*
X0224125Y0073800D02*
X0224125Y0174425D01*
X0214750Y0183800D01*
X0206000Y0211925D02*
X0195375Y0222550D01*
X0195375Y0227550D01*
X0176000Y0211925D02*
X0170375Y0206300D01*
X0176000Y0271019D02*
X0176000Y0271300D01*
X0226000Y0271300D01*
X0226000Y0281925D01*
X0216000Y0131925D02*
X0216000Y0121925D01*
X0211000Y0116925D01*
X0204750Y0120675D02*
X0204750Y0130675D01*
X0206000Y0131925D01*
X0200375Y0124425D02*
X0196625Y0120675D01*
X0201000Y0116925D02*
X0204750Y0120675D01*
X0206000Y0069825D02*
X0206000Y0069425D01*
X0207250Y0068175D01*
X0219750Y0051300D02*
X0219750Y0023175D01*
X0216000Y0019425D01*
D21*
X0216000Y0019425D03*
X0209125Y0023175D03*
X0200375Y0015675D03*
X0186000Y0012550D03*
X0186000Y0026925D03*
X0182250Y0034425D03*
X0177875Y0030675D03*
X0163500Y0030675D03*
X0159750Y0038175D03*
X0154125Y0030675D03*
X0146000Y0034425D03*
X0142250Y0026925D03*
X0150375Y0021925D03*
X0155375Y0020050D03*
X0160375Y0018175D03*
X0166000Y0012550D03*
X0166625Y0007550D03*
X0156000Y0008800D03*
X0131000Y0008800D03*
X0115375Y0005050D03*
X0112250Y0008800D03*
X0108500Y0025675D03*
X0097875Y0018175D03*
X0079125Y0021925D03*
X0076000Y0018175D03*
X0074750Y0029425D03*
X0066625Y0021925D03*
X0054750Y0019425D03*
X0056000Y0031300D03*
X0072875Y0043175D03*
X0070375Y0056300D03*
X0074125Y0062550D03*
X0080375Y0058175D03*
X0084125Y0053800D03*
X0081625Y0068175D03*
X0077250Y0076925D03*
X0080375Y0080675D03*
X0084125Y0084425D03*
X0087875Y0078175D03*
X0076000Y0089425D03*
X0081625Y0093800D03*
X0081000Y0108800D03*
X0066000Y0101300D03*
X0064750Y0084425D03*
X0064750Y0079425D03*
X0059750Y0084425D03*
X0052875Y0086925D03*
X0042875Y0086925D03*
X0037875Y0086925D03*
X0035375Y0081300D03*
X0026000Y0070675D03*
X0027875Y0054425D03*
X0037875Y0051300D03*
X0027875Y0042550D03*
X0024125Y0035050D03*
X0032875Y0035050D03*
X0023500Y0025675D03*
X0008500Y0073800D03*
X0021000Y0108800D03*
X0041625Y0145675D03*
X0051625Y0153175D03*
X0061000Y0126300D03*
X0080375Y0145675D03*
X0087875Y0144425D03*
X0100375Y0162550D03*
X0107250Y0151300D03*
X0110375Y0147550D03*
X0100375Y0125050D03*
X0111000Y0105050D03*
X0114125Y0101300D03*
X0119125Y0101300D03*
X0120375Y0108800D03*
X0125375Y0110675D03*
X0134750Y0123800D03*
X0137250Y0109425D03*
X0146625Y0110675D03*
X0156625Y0103800D03*
X0163500Y0103800D03*
X0176625Y0100050D03*
X0177875Y0093800D03*
X0176625Y0083175D03*
X0177875Y0078175D03*
X0172875Y0074425D03*
X0167250Y0081925D03*
X0162250Y0081925D03*
X0171625Y0084425D03*
X0184750Y0080050D03*
X0189750Y0086925D03*
X0191000Y0102550D03*
X0191000Y0125050D03*
X0185375Y0147550D03*
X0185375Y0155050D03*
X0170375Y0166300D03*
X0159750Y0151300D03*
X0161625Y0138175D03*
X0150375Y0162550D03*
X0140375Y0162550D03*
X0131625Y0155050D03*
X0126625Y0170675D03*
X0117250Y0170050D03*
X0129750Y0198800D03*
X0126000Y0215675D03*
X0135375Y0220050D03*
X0116000Y0227550D03*
X0098500Y0252550D03*
X0102250Y0256300D03*
X0085375Y0255050D03*
X0081625Y0233175D03*
X0051625Y0198175D03*
X0067250Y0183800D03*
X0072875Y0166300D03*
X0019125Y0151925D03*
X0059750Y0062550D03*
X0062875Y0058800D03*
X0106625Y0051925D03*
X0110375Y0058175D03*
X0120375Y0069425D03*
X0128500Y0076925D03*
X0128500Y0081925D03*
X0136000Y0079425D03*
X0131000Y0067550D03*
X0133500Y0063175D03*
X0136000Y0054425D03*
X0150375Y0051925D03*
X0154125Y0048800D03*
X0172875Y0053175D03*
X0189750Y0057550D03*
X0189750Y0062550D03*
X0202875Y0055050D03*
X0207250Y0058175D03*
X0212250Y0058175D03*
X0219750Y0059425D03*
X0222875Y0063175D03*
X0226000Y0059425D03*
X0226000Y0071925D03*
X0217250Y0086925D03*
X0214750Y0101300D03*
X0229750Y0089425D03*
X0232875Y0093175D03*
X0205375Y0081300D03*
X0209125Y0043175D03*
X0200375Y0039425D03*
X0196000Y0036925D03*
X0191000Y0036925D03*
X0201625Y0034425D03*
X0146625Y0086925D03*
X0113500Y0081925D03*
X0108500Y0081925D03*
X0157250Y0201300D03*
X0168500Y0231300D03*
X0172250Y0235050D03*
X0166000Y0250050D03*
X0168500Y0266925D03*
X0162250Y0286925D03*
X0166000Y0290050D03*
X0150375Y0279425D03*
X0142875Y0271925D03*
X0148500Y0252550D03*
X0127250Y0261300D03*
X0122250Y0279425D03*
X0102250Y0287550D03*
X0084125Y0308175D03*
X0042250Y0248175D03*
X0195375Y0227550D03*
X0214750Y0183800D03*
X0196625Y0183175D03*
X0219125Y0143800D03*
X0216000Y0140050D03*
M02*
