G75*
%MOIN*%
%OFA0B0*%
%FSLAX25Y25*%
%IPPOS*%
%LPD*%
%AMOC8*
5,1,8,0,0,1.08239X$1,22.5*
%
%ADD10C,0.00000*%
%ADD11C,0.00400*%
%ADD12C,0.00300*%
%ADD13C,0.01000*%
%ADD14C,0.00500*%
%ADD15C,0.00600*%
%ADD16C,0.00200*%
%ADD17C,0.00800*%
%ADD18R,0.06200X0.02400*%
D10*
X0001000Y0001500D02*
X0001000Y0326461D01*
X0236000Y0326461D01*
X0236000Y0001500D01*
X0001000Y0001500D01*
X0236000Y0326461D02*
X0236000Y0326500D01*
D11*
X0185037Y0303631D02*
X0181967Y0303631D01*
X0183502Y0302096D02*
X0183502Y0305165D01*
X0183502Y0275165D02*
X0183502Y0272096D01*
X0185037Y0273631D02*
X0181967Y0273631D01*
X0191318Y0165804D02*
X0190634Y0165120D01*
X0190634Y0163752D01*
X0191318Y0163068D01*
X0193369Y0163068D01*
X0193369Y0161700D02*
X0193369Y0165804D01*
X0191318Y0165804D01*
X0189226Y0163752D02*
X0189226Y0162384D01*
X0188542Y0161700D01*
X0187174Y0161700D01*
X0186490Y0162384D01*
X0186490Y0163752D01*
X0187174Y0164436D01*
X0188542Y0164436D01*
X0189226Y0163752D01*
X0185082Y0164436D02*
X0185082Y0161700D01*
X0185082Y0163068D02*
X0183714Y0164436D01*
X0183031Y0164436D01*
X0181629Y0164436D02*
X0180262Y0164436D01*
X0180945Y0165120D02*
X0180945Y0162384D01*
X0180262Y0161700D01*
X0180255Y0157436D02*
X0179571Y0156752D01*
X0178887Y0157436D01*
X0178203Y0156752D01*
X0178203Y0154700D01*
X0179571Y0154700D02*
X0179571Y0156752D01*
X0180255Y0157436D02*
X0180939Y0157436D01*
X0180939Y0154700D01*
X0176795Y0155384D02*
X0176111Y0154700D01*
X0174743Y0154700D01*
X0174060Y0155384D01*
X0174060Y0156752D01*
X0174743Y0157436D01*
X0176111Y0157436D01*
X0176795Y0156752D01*
X0176795Y0155384D01*
X0172652Y0154700D02*
X0172652Y0157436D01*
X0170600Y0157436D01*
X0169916Y0156752D01*
X0169916Y0154700D01*
X0168508Y0155384D02*
X0167824Y0154700D01*
X0166456Y0154700D01*
X0165772Y0155384D01*
X0165772Y0156752D01*
X0166456Y0157436D01*
X0167824Y0157436D01*
X0168508Y0156752D01*
X0168508Y0155384D01*
X0167844Y0161700D02*
X0169896Y0161700D01*
X0170580Y0162384D01*
X0170580Y0163752D01*
X0169896Y0164436D01*
X0167844Y0164436D01*
X0166436Y0163752D02*
X0165752Y0164436D01*
X0164385Y0164436D01*
X0163701Y0163752D01*
X0163701Y0161700D01*
X0162293Y0162384D02*
X0162293Y0163752D01*
X0161609Y0164436D01*
X0160241Y0164436D01*
X0159557Y0163752D01*
X0159557Y0163068D01*
X0162293Y0163068D01*
X0162293Y0162384D02*
X0161609Y0161700D01*
X0160241Y0161700D01*
X0158149Y0161700D02*
X0158149Y0164436D01*
X0157465Y0164436D01*
X0156781Y0163752D01*
X0156098Y0164436D01*
X0155414Y0163752D01*
X0155414Y0161700D01*
X0156781Y0161700D02*
X0156781Y0163752D01*
X0157485Y0157436D02*
X0159537Y0157436D01*
X0160221Y0156752D01*
X0159537Y0156068D01*
X0158169Y0156068D01*
X0157485Y0155384D01*
X0158169Y0154700D01*
X0160221Y0154700D01*
X0156078Y0155384D02*
X0155394Y0154700D01*
X0153342Y0154700D01*
X0151934Y0154700D02*
X0151934Y0158804D01*
X0151250Y0157436D02*
X0151934Y0156752D01*
X0151250Y0157436D02*
X0149882Y0157436D01*
X0149198Y0156752D01*
X0149198Y0154700D01*
X0147790Y0155384D02*
X0147790Y0156752D01*
X0147107Y0157436D01*
X0145739Y0157436D01*
X0145055Y0156752D01*
X0145055Y0156068D01*
X0147790Y0156068D01*
X0147790Y0155384D02*
X0147107Y0154700D01*
X0145739Y0154700D01*
X0143647Y0154700D02*
X0143647Y0157436D01*
X0142963Y0157436D01*
X0142279Y0156752D01*
X0141595Y0157436D01*
X0140911Y0156752D01*
X0140911Y0154700D01*
X0142279Y0154700D02*
X0142279Y0156752D01*
X0139503Y0155384D02*
X0138819Y0156068D01*
X0136768Y0156068D01*
X0136768Y0156752D02*
X0136768Y0154700D01*
X0138819Y0154700D01*
X0139503Y0155384D01*
X0138819Y0157436D02*
X0137452Y0157436D01*
X0136768Y0156752D01*
X0135360Y0157436D02*
X0133992Y0157436D01*
X0134676Y0158120D02*
X0134676Y0155384D01*
X0133992Y0154700D01*
X0132597Y0154700D02*
X0131230Y0154700D01*
X0131914Y0154700D02*
X0131914Y0157436D01*
X0132597Y0157436D01*
X0131914Y0158804D02*
X0131914Y0159487D01*
X0131907Y0161700D02*
X0129855Y0161700D01*
X0129171Y0162384D01*
X0129171Y0163752D01*
X0129855Y0164436D01*
X0131907Y0164436D01*
X0131907Y0165804D02*
X0131907Y0161700D01*
X0129151Y0157436D02*
X0129835Y0156752D01*
X0129835Y0155384D01*
X0129151Y0154700D01*
X0127099Y0154700D01*
X0125692Y0154700D02*
X0123640Y0154700D01*
X0122956Y0155384D01*
X0123640Y0156068D01*
X0125008Y0156068D01*
X0125692Y0156752D01*
X0125008Y0157436D01*
X0122956Y0157436D01*
X0125712Y0160332D02*
X0125028Y0161016D01*
X0125028Y0164436D01*
X0127763Y0164436D02*
X0127763Y0162384D01*
X0127079Y0161700D01*
X0125028Y0161700D01*
X0125712Y0160332D02*
X0126396Y0160332D01*
X0127099Y0157436D02*
X0129151Y0157436D01*
X0137458Y0162384D02*
X0138142Y0163068D01*
X0139510Y0163068D01*
X0140194Y0163752D01*
X0139510Y0164436D01*
X0137458Y0164436D01*
X0137458Y0162384D02*
X0138142Y0161700D01*
X0140194Y0161700D01*
X0141602Y0161700D02*
X0143654Y0161700D01*
X0144338Y0162384D01*
X0144338Y0163752D01*
X0143654Y0164436D01*
X0141602Y0164436D01*
X0146416Y0164436D02*
X0146416Y0161700D01*
X0147100Y0161700D02*
X0145732Y0161700D01*
X0148494Y0161700D02*
X0149178Y0162384D01*
X0149178Y0165120D01*
X0149862Y0164436D02*
X0148494Y0164436D01*
X0147100Y0164436D02*
X0146416Y0164436D01*
X0146416Y0165804D02*
X0146416Y0166487D01*
X0151270Y0163752D02*
X0151270Y0161700D01*
X0153322Y0161700D01*
X0154006Y0162384D01*
X0153322Y0163068D01*
X0151270Y0163068D01*
X0151270Y0163752D02*
X0151954Y0164436D01*
X0153322Y0164436D01*
X0153342Y0157436D02*
X0155394Y0157436D01*
X0156078Y0156752D01*
X0156078Y0155384D01*
X0153322Y0144436D02*
X0151954Y0144436D01*
X0151270Y0143752D01*
X0151270Y0141700D01*
X0153322Y0141700D01*
X0154006Y0142384D01*
X0153322Y0143068D01*
X0151270Y0143068D01*
X0149862Y0141700D02*
X0149862Y0144436D01*
X0147810Y0144436D01*
X0147127Y0143752D01*
X0147127Y0141700D01*
X0145719Y0142384D02*
X0145719Y0143752D01*
X0145035Y0144436D01*
X0142983Y0144436D01*
X0142983Y0145804D02*
X0142983Y0141700D01*
X0145035Y0141700D01*
X0145719Y0142384D01*
X0137432Y0141700D02*
X0136064Y0141700D01*
X0136748Y0141700D02*
X0136748Y0144436D01*
X0137432Y0144436D01*
X0136748Y0145804D02*
X0136748Y0146487D01*
X0134669Y0144436D02*
X0134669Y0141700D01*
X0133301Y0141700D02*
X0133301Y0143752D01*
X0132617Y0144436D01*
X0131934Y0143752D01*
X0131934Y0141700D01*
X0130526Y0141700D02*
X0128474Y0141700D01*
X0127790Y0142384D01*
X0127790Y0143752D01*
X0128474Y0144436D01*
X0130526Y0144436D01*
X0130526Y0140332D01*
X0133301Y0143752D02*
X0133985Y0144436D01*
X0134669Y0144436D01*
X0126382Y0144436D02*
X0126382Y0141700D01*
X0126382Y0143068D02*
X0125014Y0144436D01*
X0124330Y0144436D01*
X0122929Y0143752D02*
X0122929Y0142384D01*
X0122245Y0141700D01*
X0120877Y0141700D01*
X0120194Y0142384D01*
X0120194Y0143752D01*
X0120877Y0144436D01*
X0122245Y0144436D01*
X0122929Y0143752D01*
X0118786Y0144436D02*
X0117418Y0141700D01*
X0116050Y0144436D01*
X0114642Y0143752D02*
X0113958Y0144436D01*
X0112590Y0144436D01*
X0111906Y0143752D01*
X0111906Y0143068D01*
X0114642Y0143068D01*
X0114642Y0142384D02*
X0114642Y0143752D01*
X0114642Y0142384D02*
X0113958Y0141700D01*
X0112590Y0141700D01*
X0110499Y0141700D02*
X0110499Y0144436D01*
X0109815Y0144436D01*
X0109131Y0143752D01*
X0108447Y0144436D01*
X0107763Y0143752D01*
X0107763Y0141700D01*
X0109131Y0141700D02*
X0109131Y0143752D01*
X0106355Y0143752D02*
X0105671Y0144436D01*
X0104303Y0144436D01*
X0103619Y0143752D01*
X0103619Y0143068D01*
X0106355Y0143068D01*
X0106355Y0142384D02*
X0106355Y0143752D01*
X0106355Y0142384D02*
X0105671Y0141700D01*
X0104303Y0141700D01*
X0102212Y0141700D02*
X0102212Y0144436D01*
X0100160Y0144436D01*
X0099476Y0143752D01*
X0099476Y0141700D01*
X0097384Y0142384D02*
X0096700Y0141700D01*
X0097384Y0142384D02*
X0097384Y0145120D01*
X0098068Y0144436D02*
X0096700Y0144436D01*
X0095306Y0143752D02*
X0094622Y0143068D01*
X0093254Y0143068D01*
X0092570Y0142384D01*
X0093254Y0141700D01*
X0095306Y0141700D01*
X0095306Y0143752D02*
X0094622Y0144436D01*
X0092570Y0144436D01*
X0098068Y0153332D02*
X0098068Y0157436D01*
X0096016Y0157436D01*
X0095332Y0156752D01*
X0095332Y0155384D01*
X0096016Y0154700D01*
X0098068Y0154700D01*
X0099462Y0154700D02*
X0100830Y0154700D01*
X0100146Y0154700D02*
X0100146Y0157436D01*
X0100830Y0157436D01*
X0100146Y0158804D02*
X0100146Y0159487D01*
X0102238Y0158804D02*
X0103606Y0158804D01*
X0102922Y0158804D02*
X0102922Y0155384D01*
X0103606Y0154700D01*
X0104290Y0154700D01*
X0104974Y0155384D01*
X0110525Y0154700D02*
X0112577Y0154700D01*
X0113261Y0155384D01*
X0113261Y0157436D01*
X0114669Y0156752D02*
X0115353Y0157436D01*
X0117404Y0157436D01*
X0117404Y0158804D02*
X0117404Y0154700D01*
X0115353Y0154700D01*
X0114669Y0155384D01*
X0114669Y0156752D01*
X0111893Y0153332D02*
X0111209Y0153332D01*
X0110525Y0154016D01*
X0110525Y0157436D01*
X0111189Y0161700D02*
X0111189Y0164436D01*
X0109821Y0164436D02*
X0109137Y0164436D01*
X0109821Y0164436D02*
X0111189Y0163068D01*
X0112597Y0163068D02*
X0114649Y0163068D01*
X0115333Y0162384D01*
X0114649Y0161700D01*
X0112597Y0161700D01*
X0112597Y0163752D01*
X0113281Y0164436D01*
X0114649Y0164436D01*
X0116741Y0165120D02*
X0117425Y0165804D01*
X0118792Y0165804D01*
X0119476Y0165120D01*
X0119476Y0162384D01*
X0118792Y0161700D01*
X0117425Y0161700D01*
X0116741Y0162384D01*
X0107736Y0162384D02*
X0107052Y0161700D01*
X0105684Y0161700D01*
X0105001Y0162384D01*
X0105001Y0163752D01*
X0105684Y0164436D01*
X0107052Y0164436D01*
X0107736Y0163752D01*
X0107736Y0162384D01*
X0099449Y0163068D02*
X0099449Y0164436D01*
X0098081Y0165804D01*
X0096687Y0165120D02*
X0096003Y0165804D01*
X0094635Y0165804D01*
X0093951Y0165120D01*
X0093951Y0164436D01*
X0096687Y0161700D01*
X0093951Y0161700D01*
X0092543Y0162384D02*
X0089808Y0165120D01*
X0089808Y0162384D01*
X0090492Y0161700D01*
X0091859Y0161700D01*
X0092543Y0162384D01*
X0092543Y0165120D01*
X0091859Y0165804D01*
X0090492Y0165804D01*
X0089808Y0165120D01*
X0088400Y0164436D02*
X0087032Y0165804D01*
X0087032Y0161700D01*
X0088400Y0161700D02*
X0085664Y0161700D01*
X0084256Y0161700D02*
X0081521Y0161700D01*
X0082888Y0161700D02*
X0082888Y0165804D01*
X0084256Y0164436D01*
X0080113Y0165804D02*
X0078745Y0164436D01*
X0078745Y0163068D01*
X0080113Y0161700D01*
X0080823Y0158804D02*
X0080139Y0158120D01*
X0080139Y0157436D01*
X0082875Y0154700D01*
X0080139Y0154700D01*
X0078731Y0155384D02*
X0075996Y0158120D01*
X0075996Y0155384D01*
X0076680Y0154700D01*
X0078048Y0154700D01*
X0078731Y0155384D01*
X0078731Y0158120D01*
X0078048Y0158804D01*
X0076680Y0158804D01*
X0075996Y0158120D01*
X0074588Y0157436D02*
X0073220Y0158804D01*
X0073220Y0154700D01*
X0074588Y0154700D02*
X0071852Y0154700D01*
X0070444Y0155384D02*
X0070444Y0158120D01*
X0069760Y0158804D01*
X0068393Y0158804D01*
X0067709Y0158120D01*
X0070444Y0155384D01*
X0069760Y0154700D01*
X0068393Y0154700D01*
X0067709Y0155384D01*
X0067709Y0158120D01*
X0066301Y0158804D02*
X0064933Y0157436D01*
X0064933Y0156068D01*
X0066301Y0154700D01*
X0065617Y0145804D02*
X0066301Y0145120D01*
X0066301Y0144436D01*
X0065617Y0143752D01*
X0064249Y0143752D01*
X0063565Y0143068D01*
X0063565Y0142384D01*
X0064249Y0141700D01*
X0065617Y0141700D01*
X0066301Y0142384D01*
X0067709Y0142384D02*
X0068393Y0141700D01*
X0070444Y0141700D01*
X0070444Y0145804D01*
X0068393Y0145804D01*
X0067709Y0145120D01*
X0067709Y0144436D01*
X0068393Y0143752D01*
X0070444Y0143752D01*
X0071852Y0143752D02*
X0071852Y0145120D01*
X0072536Y0145804D01*
X0074588Y0145804D01*
X0074588Y0141700D01*
X0074588Y0143068D02*
X0072536Y0143068D01*
X0071852Y0143752D01*
X0073220Y0143068D02*
X0071852Y0141700D01*
X0068393Y0143752D02*
X0067709Y0143068D01*
X0067709Y0142384D01*
X0065617Y0145804D02*
X0064249Y0145804D01*
X0063565Y0145120D01*
X0062157Y0145120D02*
X0062157Y0142384D01*
X0061473Y0141700D01*
X0060106Y0141700D01*
X0059422Y0142384D01*
X0059422Y0145120D02*
X0060106Y0145804D01*
X0061473Y0145804D01*
X0062157Y0145120D01*
X0053870Y0144436D02*
X0053870Y0143068D01*
X0052502Y0141700D01*
X0051108Y0141700D02*
X0048372Y0144436D01*
X0048372Y0145120D01*
X0049056Y0145804D01*
X0050424Y0145804D01*
X0051108Y0145120D01*
X0052502Y0145804D02*
X0053870Y0144436D01*
X0051108Y0141700D02*
X0048372Y0141700D01*
X0046964Y0142384D02*
X0046964Y0145120D01*
X0046280Y0145804D01*
X0044913Y0145804D01*
X0044229Y0145120D01*
X0046964Y0142384D01*
X0046280Y0141700D01*
X0044913Y0141700D01*
X0044229Y0142384D01*
X0044229Y0145120D01*
X0042821Y0144436D02*
X0041453Y0145804D01*
X0041453Y0141700D01*
X0042821Y0141700D02*
X0040085Y0141700D01*
X0038677Y0142384D02*
X0037993Y0141700D01*
X0036625Y0141700D01*
X0035942Y0142384D01*
X0035942Y0143068D01*
X0036625Y0143752D01*
X0038677Y0143752D01*
X0038677Y0142384D01*
X0038677Y0143752D02*
X0037309Y0145120D01*
X0035942Y0145804D01*
X0034534Y0145804D02*
X0033166Y0144436D01*
X0033166Y0143068D01*
X0034534Y0141700D01*
X0071967Y0085165D02*
X0071200Y0084398D01*
X0071200Y0082863D01*
X0071967Y0082096D01*
X0071967Y0080561D02*
X0071200Y0079794D01*
X0071200Y0078259D01*
X0071967Y0077492D01*
X0075037Y0077492D01*
X0075804Y0078259D01*
X0075804Y0079794D01*
X0075037Y0080561D01*
X0075037Y0082096D02*
X0075804Y0082863D01*
X0075804Y0084398D01*
X0075037Y0085165D01*
X0074269Y0085165D01*
X0073502Y0084398D01*
X0072735Y0085165D01*
X0071967Y0085165D01*
X0073502Y0084398D02*
X0073502Y0083631D01*
X0075804Y0075957D02*
X0075804Y0074423D01*
X0075804Y0075190D02*
X0071200Y0075190D01*
X0071200Y0074423D02*
X0071200Y0075957D01*
X0063424Y0076700D02*
X0063424Y0077467D01*
X0060354Y0080537D01*
X0060354Y0081304D01*
X0063424Y0081304D01*
X0058820Y0079002D02*
X0055750Y0079002D01*
X0056518Y0081304D02*
X0058820Y0079002D01*
X0056518Y0076700D02*
X0056518Y0081304D01*
X0054216Y0081304D02*
X0054216Y0076700D01*
X0051146Y0076700D01*
X0049612Y0077467D02*
X0048845Y0076700D01*
X0047310Y0076700D01*
X0046543Y0077467D01*
X0046543Y0078235D01*
X0047310Y0079002D01*
X0048845Y0079002D01*
X0049612Y0079769D01*
X0049612Y0080537D01*
X0048845Y0081304D01*
X0047310Y0081304D01*
X0046543Y0080537D01*
X0045008Y0080537D02*
X0045008Y0077467D01*
X0041939Y0080537D01*
X0041939Y0077467D01*
X0042706Y0076700D01*
X0044241Y0076700D01*
X0045008Y0077467D01*
X0045008Y0080537D02*
X0044241Y0081304D01*
X0042706Y0081304D01*
X0041939Y0080537D01*
X0040404Y0079002D02*
X0037335Y0079002D01*
X0038102Y0076700D02*
X0038102Y0081304D01*
X0040404Y0079002D01*
X0033869Y0021537D02*
X0033869Y0018467D01*
X0035404Y0020002D02*
X0032335Y0020002D01*
X0072252Y0011436D02*
X0073620Y0011436D01*
X0072936Y0012120D02*
X0072936Y0009384D01*
X0072252Y0008700D01*
X0075021Y0011436D02*
X0075705Y0011436D01*
X0077073Y0010068D01*
X0077073Y0008700D02*
X0077073Y0011436D01*
X0078481Y0010752D02*
X0078481Y0009384D01*
X0079165Y0008700D01*
X0080532Y0008700D01*
X0081216Y0009384D01*
X0081216Y0010752D01*
X0080532Y0011436D01*
X0079165Y0011436D01*
X0078481Y0010752D01*
X0082624Y0010752D02*
X0083308Y0010068D01*
X0085360Y0010068D01*
X0085360Y0008700D02*
X0085360Y0012804D01*
X0083308Y0012804D01*
X0082624Y0012120D01*
X0082624Y0010752D01*
X0090911Y0010752D02*
X0093647Y0010752D01*
X0091595Y0012804D01*
X0091595Y0008700D01*
X0096423Y0010752D02*
X0097790Y0010752D01*
X0097790Y0012804D02*
X0095055Y0012804D01*
X0097790Y0012804D02*
X0097790Y0008700D01*
X0103342Y0010752D02*
X0106078Y0010752D01*
X0107485Y0011436D02*
X0107485Y0012120D01*
X0108169Y0012804D01*
X0109537Y0012804D01*
X0110221Y0012120D01*
X0111629Y0012804D02*
X0114365Y0008700D01*
X0115772Y0009384D02*
X0116456Y0008700D01*
X0117824Y0008700D01*
X0118508Y0009384D01*
X0117824Y0010752D02*
X0116456Y0010752D01*
X0115772Y0010068D01*
X0115772Y0009384D01*
X0117824Y0010752D02*
X0118508Y0011436D01*
X0118508Y0012120D01*
X0117824Y0012804D01*
X0116456Y0012804D01*
X0115772Y0012120D01*
X0114365Y0012804D02*
X0111629Y0008700D01*
X0110221Y0008700D02*
X0107485Y0011436D01*
X0107485Y0008700D02*
X0110221Y0008700D01*
X0104710Y0009384D02*
X0104710Y0012120D01*
X0118102Y0026700D02*
X0118102Y0031304D01*
X0120404Y0029002D01*
X0117335Y0029002D01*
X0121939Y0030537D02*
X0125008Y0027467D01*
X0125008Y0026700D01*
X0126543Y0027467D02*
X0127310Y0026700D01*
X0128845Y0026700D01*
X0129612Y0027467D01*
X0131146Y0026700D02*
X0134216Y0026700D01*
X0134216Y0031304D01*
X0136518Y0031304D02*
X0136518Y0026700D01*
X0135750Y0029002D02*
X0138820Y0029002D01*
X0136518Y0031304D01*
X0140354Y0031304D02*
X0140354Y0030537D01*
X0143424Y0027467D01*
X0143424Y0026700D01*
X0143424Y0031304D02*
X0140354Y0031304D01*
X0151200Y0029794D02*
X0151200Y0028259D01*
X0151967Y0027492D01*
X0155037Y0027492D01*
X0155804Y0028259D01*
X0155804Y0029794D01*
X0155037Y0030561D01*
X0155037Y0032096D02*
X0154269Y0032096D01*
X0153502Y0032863D01*
X0153502Y0034398D01*
X0152735Y0035165D01*
X0151967Y0035165D01*
X0151200Y0034398D01*
X0151200Y0032863D01*
X0151967Y0032096D01*
X0152735Y0032096D01*
X0153502Y0032863D01*
X0153502Y0034398D02*
X0154269Y0035165D01*
X0155037Y0035165D01*
X0155804Y0034398D01*
X0155804Y0032863D01*
X0155037Y0032096D01*
X0151967Y0030561D02*
X0151200Y0029794D01*
X0151200Y0025957D02*
X0151200Y0024423D01*
X0151200Y0025190D02*
X0155804Y0025190D01*
X0155804Y0024423D02*
X0155804Y0025957D01*
X0165107Y0027467D02*
X0165874Y0026700D01*
X0167409Y0026700D01*
X0168176Y0027467D01*
X0168176Y0029002D02*
X0166642Y0029769D01*
X0165874Y0029769D01*
X0165107Y0029002D01*
X0165107Y0027467D01*
X0168176Y0029002D02*
X0168176Y0031304D01*
X0165107Y0031304D01*
X0169711Y0030537D02*
X0170478Y0031304D01*
X0172013Y0031304D01*
X0172780Y0030537D01*
X0169711Y0030537D02*
X0169711Y0029769D01*
X0172780Y0026700D01*
X0169711Y0026700D01*
X0174315Y0026700D02*
X0177384Y0026700D01*
X0175850Y0026700D02*
X0175850Y0031304D01*
X0177384Y0029769D01*
X0178919Y0030537D02*
X0179686Y0031304D01*
X0181221Y0031304D01*
X0181988Y0030537D01*
X0181988Y0029769D01*
X0181221Y0029002D01*
X0179686Y0029002D01*
X0178919Y0028235D01*
X0178919Y0027467D01*
X0179686Y0026700D01*
X0181221Y0026700D01*
X0181988Y0027467D01*
X0183523Y0026700D02*
X0186592Y0026700D01*
X0186592Y0031304D01*
X0188894Y0031304D02*
X0188894Y0026700D01*
X0188127Y0029002D02*
X0191196Y0029002D01*
X0188894Y0031304D01*
X0192731Y0031304D02*
X0192731Y0030537D01*
X0195800Y0027467D01*
X0195800Y0026700D01*
X0195800Y0031304D02*
X0192731Y0031304D01*
X0201200Y0029794D02*
X0201200Y0028259D01*
X0201967Y0027492D01*
X0205037Y0027492D01*
X0205804Y0028259D01*
X0205804Y0029794D01*
X0205037Y0030561D01*
X0205037Y0032096D02*
X0204269Y0032096D01*
X0203502Y0032863D01*
X0203502Y0035165D01*
X0201967Y0035165D02*
X0205037Y0035165D01*
X0205804Y0034398D01*
X0205804Y0032863D01*
X0205037Y0032096D01*
X0201967Y0032096D02*
X0201200Y0032863D01*
X0201200Y0034398D01*
X0201967Y0035165D01*
X0201967Y0030561D02*
X0201200Y0029794D01*
X0201200Y0025957D02*
X0201200Y0024423D01*
X0201200Y0025190D02*
X0205804Y0025190D01*
X0205804Y0024423D02*
X0205804Y0025957D01*
X0221200Y0074423D02*
X0221200Y0075957D01*
X0221200Y0075190D02*
X0225804Y0075190D01*
X0225804Y0074423D02*
X0225804Y0075957D01*
X0225037Y0077492D02*
X0225804Y0078259D01*
X0225804Y0079794D01*
X0225037Y0080561D01*
X0225804Y0082096D02*
X0225804Y0085165D01*
X0225037Y0085165D01*
X0221967Y0082096D01*
X0221200Y0082096D01*
X0221967Y0080561D02*
X0221200Y0079794D01*
X0221200Y0078259D01*
X0221967Y0077492D01*
X0225037Y0077492D01*
X0213424Y0077467D02*
X0213424Y0076700D01*
X0213424Y0077467D02*
X0210354Y0080537D01*
X0210354Y0081304D01*
X0213424Y0081304D01*
X0208820Y0079002D02*
X0205750Y0079002D01*
X0206518Y0076700D02*
X0206518Y0081304D01*
X0208820Y0079002D01*
X0204216Y0081304D02*
X0204216Y0076700D01*
X0201146Y0076700D01*
X0199612Y0077467D02*
X0198845Y0076700D01*
X0197310Y0076700D01*
X0196543Y0077467D01*
X0196543Y0078235D01*
X0197310Y0079002D01*
X0198845Y0079002D01*
X0199612Y0079769D01*
X0199612Y0080537D01*
X0198845Y0081304D01*
X0197310Y0081304D01*
X0196543Y0080537D01*
X0195008Y0080537D02*
X0194241Y0081304D01*
X0192706Y0081304D01*
X0191939Y0080537D01*
X0195008Y0077467D01*
X0194241Y0076700D01*
X0192706Y0076700D01*
X0191939Y0077467D01*
X0191939Y0080537D01*
X0190404Y0080537D02*
X0189637Y0081304D01*
X0188102Y0081304D01*
X0187335Y0080537D01*
X0187335Y0079769D01*
X0190404Y0076700D01*
X0187335Y0076700D01*
X0195008Y0077467D02*
X0195008Y0080537D01*
X0175804Y0079794D02*
X0175804Y0078259D01*
X0175037Y0077492D01*
X0171967Y0077492D01*
X0171200Y0078259D01*
X0171200Y0079794D01*
X0171967Y0080561D01*
X0171967Y0082096D02*
X0171200Y0082863D01*
X0171200Y0084398D01*
X0171967Y0085165D01*
X0172735Y0085165D01*
X0173502Y0084398D01*
X0173502Y0082096D01*
X0171967Y0082096D01*
X0173502Y0082096D02*
X0175037Y0083631D01*
X0175804Y0085165D01*
X0175037Y0080561D02*
X0175804Y0079794D01*
X0175804Y0075957D02*
X0175804Y0074423D01*
X0175804Y0075190D02*
X0171200Y0075190D01*
X0171200Y0074423D02*
X0171200Y0075957D01*
X0163424Y0076700D02*
X0163424Y0077467D01*
X0160354Y0080537D01*
X0160354Y0081304D01*
X0163424Y0081304D01*
X0158820Y0079002D02*
X0155750Y0079002D01*
X0156518Y0076700D02*
X0156518Y0081304D01*
X0158820Y0079002D01*
X0154216Y0081304D02*
X0154216Y0076700D01*
X0151146Y0076700D01*
X0149612Y0077467D02*
X0148845Y0076700D01*
X0147310Y0076700D01*
X0146543Y0077467D01*
X0146543Y0078235D01*
X0147310Y0079002D01*
X0148845Y0079002D01*
X0149612Y0079769D01*
X0149612Y0080537D01*
X0148845Y0081304D01*
X0147310Y0081304D01*
X0146543Y0080537D01*
X0145008Y0080537D02*
X0144241Y0081304D01*
X0142706Y0081304D01*
X0141939Y0080537D01*
X0141939Y0079769D01*
X0142706Y0079002D01*
X0141939Y0078235D01*
X0141939Y0077467D01*
X0142706Y0076700D01*
X0144241Y0076700D01*
X0145008Y0077467D01*
X0143473Y0079002D02*
X0142706Y0079002D01*
X0140404Y0077467D02*
X0140404Y0080537D01*
X0139637Y0081304D01*
X0138102Y0081304D01*
X0137335Y0080537D01*
X0140404Y0077467D01*
X0139637Y0076700D01*
X0138102Y0076700D01*
X0137335Y0077467D01*
X0137335Y0080537D01*
X0125804Y0079794D02*
X0125804Y0078259D01*
X0125037Y0077492D01*
X0121967Y0077492D01*
X0121200Y0078259D01*
X0121200Y0079794D01*
X0121967Y0080561D01*
X0121200Y0082096D02*
X0124269Y0085165D01*
X0125037Y0085165D01*
X0125804Y0084398D01*
X0125804Y0082863D01*
X0125037Y0082096D01*
X0125037Y0080561D02*
X0125804Y0079794D01*
X0125804Y0075957D02*
X0125804Y0074423D01*
X0125804Y0075190D02*
X0121200Y0075190D01*
X0121200Y0074423D02*
X0121200Y0075957D01*
X0121200Y0082096D02*
X0121200Y0085165D01*
X0113424Y0081304D02*
X0110354Y0081304D01*
X0110354Y0080537D01*
X0113424Y0077467D01*
X0113424Y0076700D01*
X0108820Y0079002D02*
X0105750Y0079002D01*
X0106518Y0081304D02*
X0108820Y0079002D01*
X0106518Y0076700D02*
X0106518Y0081304D01*
X0104216Y0081304D02*
X0104216Y0076700D01*
X0101146Y0076700D01*
X0099612Y0077467D02*
X0098845Y0076700D01*
X0097310Y0076700D01*
X0096543Y0077467D01*
X0096543Y0078235D01*
X0097310Y0079002D01*
X0098845Y0079002D01*
X0099612Y0079769D01*
X0099612Y0080537D01*
X0098845Y0081304D01*
X0097310Y0081304D01*
X0096543Y0080537D01*
X0095008Y0080537D02*
X0094241Y0081304D01*
X0092706Y0081304D01*
X0091939Y0080537D01*
X0091939Y0079769D01*
X0092706Y0079002D01*
X0091939Y0078235D01*
X0091939Y0077467D01*
X0092706Y0076700D01*
X0094241Y0076700D01*
X0095008Y0077467D01*
X0093473Y0079002D02*
X0092706Y0079002D01*
X0090404Y0077467D02*
X0090404Y0080537D01*
X0089637Y0081304D01*
X0088102Y0081304D01*
X0087335Y0080537D01*
X0090404Y0077467D01*
X0089637Y0076700D01*
X0088102Y0076700D01*
X0087335Y0077467D01*
X0087335Y0080537D01*
X0121939Y0031304D02*
X0121939Y0030537D01*
X0121939Y0031304D02*
X0125008Y0031304D01*
X0126543Y0030537D02*
X0127310Y0031304D01*
X0128845Y0031304D01*
X0129612Y0030537D01*
X0129612Y0029769D01*
X0128845Y0029002D01*
X0127310Y0029002D01*
X0126543Y0028235D01*
X0126543Y0027467D01*
X0128874Y0012804D02*
X0128874Y0008700D01*
X0129558Y0008700D02*
X0128190Y0008700D01*
X0130965Y0008700D02*
X0130965Y0010752D01*
X0131649Y0011436D01*
X0133017Y0011436D01*
X0133017Y0010068D02*
X0130965Y0010068D01*
X0130965Y0008700D02*
X0133017Y0008700D01*
X0133701Y0009384D01*
X0133017Y0010068D01*
X0135109Y0010752D02*
X0135109Y0008700D01*
X0135109Y0010752D02*
X0135793Y0011436D01*
X0137845Y0011436D01*
X0137845Y0008700D01*
X0139253Y0009384D02*
X0139253Y0010752D01*
X0139936Y0011436D01*
X0141304Y0011436D01*
X0141988Y0010752D01*
X0141988Y0009384D01*
X0141304Y0008700D01*
X0139936Y0008700D01*
X0139253Y0009384D01*
X0143383Y0008700D02*
X0144751Y0008700D01*
X0144067Y0008700D02*
X0144067Y0011436D01*
X0144751Y0011436D01*
X0146145Y0011436D02*
X0147513Y0011436D01*
X0146829Y0012120D02*
X0146829Y0009384D01*
X0146145Y0008700D01*
X0148921Y0009384D02*
X0148921Y0010752D01*
X0149605Y0011436D01*
X0151656Y0011436D01*
X0151656Y0007332D01*
X0151656Y0008700D02*
X0149605Y0008700D01*
X0148921Y0009384D01*
X0153064Y0009384D02*
X0153064Y0012120D01*
X0153748Y0012804D01*
X0155116Y0012804D01*
X0155800Y0012120D01*
X0155800Y0009384D01*
X0155116Y0008700D01*
X0153748Y0008700D01*
X0153064Y0009384D01*
X0144067Y0012804D02*
X0144067Y0013487D01*
X0129558Y0012804D02*
X0128874Y0012804D01*
X0122652Y0012804D02*
X0122652Y0008700D01*
X0119916Y0008700D02*
X0119916Y0012804D01*
X0121284Y0011436D01*
X0122652Y0012804D01*
X0081507Y0140332D02*
X0080823Y0140332D01*
X0080139Y0141016D01*
X0080139Y0144436D01*
X0080139Y0141700D02*
X0082191Y0141700D01*
X0082875Y0142384D01*
X0082875Y0144436D01*
X0084283Y0143752D02*
X0084967Y0144436D01*
X0087019Y0144436D01*
X0087019Y0145804D02*
X0087019Y0141700D01*
X0084967Y0141700D01*
X0084283Y0142384D01*
X0084283Y0143752D01*
X0084270Y0154700D02*
X0085637Y0156068D01*
X0085637Y0157436D01*
X0084270Y0158804D01*
X0082875Y0158120D02*
X0082191Y0158804D01*
X0080823Y0158804D01*
X0091189Y0156752D02*
X0091189Y0156068D01*
X0093924Y0156068D01*
X0093924Y0156752D02*
X0093241Y0157436D01*
X0091873Y0157436D01*
X0091189Y0156752D01*
X0091873Y0154700D02*
X0093241Y0154700D01*
X0093924Y0155384D01*
X0093924Y0156752D01*
X0098081Y0161700D02*
X0099449Y0163068D01*
X0159557Y0143752D02*
X0159557Y0141700D01*
X0159557Y0143752D02*
X0160241Y0144436D01*
X0162293Y0144436D01*
X0162293Y0141700D01*
X0163701Y0141700D02*
X0165752Y0141700D01*
X0166436Y0142384D01*
X0166436Y0143752D01*
X0165752Y0144436D01*
X0163701Y0144436D01*
X0163701Y0141016D01*
X0164385Y0140332D01*
X0165069Y0140332D01*
X0167831Y0141700D02*
X0169199Y0141700D01*
X0168515Y0141700D02*
X0168515Y0144436D01*
X0169199Y0144436D01*
X0170607Y0144436D02*
X0172658Y0144436D01*
X0173342Y0143752D01*
X0172658Y0143068D01*
X0171291Y0143068D01*
X0170607Y0142384D01*
X0171291Y0141700D01*
X0173342Y0141700D01*
X0174750Y0143068D02*
X0177486Y0143068D01*
X0177486Y0143752D02*
X0176802Y0144436D01*
X0175434Y0144436D01*
X0174750Y0143752D01*
X0174750Y0143068D01*
X0175434Y0141700D02*
X0176802Y0141700D01*
X0177486Y0142384D01*
X0177486Y0143752D01*
X0178894Y0144436D02*
X0180945Y0144436D01*
X0181629Y0143752D01*
X0181629Y0142384D01*
X0180945Y0141700D01*
X0178894Y0141700D01*
X0178894Y0145804D01*
X0187181Y0145804D02*
X0187181Y0141700D01*
X0189233Y0141700D01*
X0189916Y0142384D01*
X0189916Y0143752D01*
X0189233Y0144436D01*
X0187181Y0144436D01*
X0191318Y0144436D02*
X0192002Y0144436D01*
X0193369Y0143068D01*
X0193369Y0141700D02*
X0193369Y0144436D01*
X0194777Y0143752D02*
X0194777Y0141700D01*
X0196829Y0141700D01*
X0197513Y0142384D01*
X0196829Y0143068D01*
X0194777Y0143068D01*
X0194777Y0143752D02*
X0195461Y0144436D01*
X0196829Y0144436D01*
X0198921Y0143752D02*
X0199605Y0144436D01*
X0200973Y0144436D01*
X0201656Y0143752D01*
X0201656Y0142384D01*
X0200973Y0141700D01*
X0199605Y0141700D01*
X0198921Y0142384D01*
X0198921Y0143752D01*
X0203064Y0144436D02*
X0203748Y0143752D01*
X0205800Y0143752D01*
X0205800Y0141700D02*
X0205800Y0145804D01*
X0203748Y0145804D01*
X0203064Y0145120D01*
X0203064Y0144436D01*
X0203748Y0143752D02*
X0203064Y0143068D01*
X0203064Y0142384D01*
X0203748Y0141700D01*
X0205800Y0141700D01*
X0205800Y0154700D02*
X0205800Y0158804D01*
X0203064Y0158804D01*
X0201656Y0158804D02*
X0200289Y0157436D01*
X0198921Y0158804D01*
X0198921Y0154700D01*
X0197513Y0154700D02*
X0197513Y0158804D01*
X0195461Y0158804D01*
X0194777Y0158120D01*
X0194777Y0156752D01*
X0195461Y0156068D01*
X0197513Y0156068D01*
X0193369Y0156752D02*
X0190634Y0156752D01*
X0190634Y0157436D02*
X0190634Y0154700D01*
X0189226Y0155384D02*
X0189226Y0158120D01*
X0188542Y0158804D01*
X0187174Y0158804D01*
X0186490Y0158120D01*
X0186490Y0155384D02*
X0187174Y0154700D01*
X0188542Y0154700D01*
X0189226Y0155384D01*
X0190634Y0157436D02*
X0192002Y0158804D01*
X0193369Y0157436D01*
X0193369Y0154700D01*
X0198921Y0163752D02*
X0201656Y0163752D01*
X0199605Y0165804D01*
X0199605Y0161700D01*
X0201656Y0158804D02*
X0201656Y0154700D01*
X0204432Y0156752D02*
X0205800Y0156752D01*
X0205800Y0161700D02*
X0205800Y0165804D01*
X0203064Y0165804D01*
X0204432Y0163752D02*
X0205800Y0163752D01*
X0174723Y0163752D02*
X0174040Y0164436D01*
X0171988Y0164436D01*
X0172672Y0163068D02*
X0174040Y0163068D01*
X0174723Y0163752D01*
X0174723Y0161700D02*
X0172672Y0161700D01*
X0171988Y0162384D01*
X0172672Y0163068D01*
X0166436Y0161700D02*
X0166436Y0165804D01*
X0168515Y0146487D02*
X0168515Y0145804D01*
X0083502Y0272096D02*
X0083502Y0275165D01*
X0085037Y0273631D02*
X0081967Y0273631D01*
X0083502Y0302096D02*
X0083502Y0305165D01*
X0085037Y0303631D02*
X0081967Y0303631D01*
X0010804Y0249398D02*
X0010804Y0247863D01*
X0010037Y0247096D01*
X0008502Y0248631D02*
X0008502Y0249398D01*
X0007735Y0250165D01*
X0006967Y0250165D01*
X0006200Y0249398D01*
X0006200Y0247863D01*
X0006967Y0247096D01*
X0006967Y0245561D02*
X0006200Y0245561D01*
X0006200Y0244794D01*
X0006967Y0244794D01*
X0006967Y0245561D01*
X0006200Y0243259D02*
X0006200Y0240190D01*
X0006200Y0241725D02*
X0010804Y0241725D01*
X0009269Y0240190D01*
X0008502Y0234052D02*
X0006200Y0234052D01*
X0008502Y0234052D02*
X0009269Y0233284D01*
X0009269Y0230982D01*
X0006200Y0230982D01*
X0006967Y0229448D02*
X0008502Y0229448D01*
X0009269Y0228680D01*
X0009269Y0227146D01*
X0008502Y0226378D01*
X0006967Y0226378D01*
X0006200Y0227146D01*
X0006200Y0228680D01*
X0006967Y0229448D01*
X0006200Y0224844D02*
X0006200Y0223309D01*
X0006200Y0224076D02*
X0009269Y0224076D01*
X0009269Y0223309D01*
X0009269Y0221774D02*
X0009269Y0219472D01*
X0008502Y0218705D01*
X0007735Y0219472D01*
X0007735Y0221007D01*
X0006967Y0221774D01*
X0006200Y0221007D01*
X0006200Y0218705D01*
X0009269Y0217170D02*
X0009269Y0216403D01*
X0007735Y0214869D01*
X0009269Y0214869D02*
X0006200Y0214869D01*
X0007735Y0213334D02*
X0007735Y0210265D01*
X0008502Y0210265D02*
X0009269Y0211032D01*
X0009269Y0212567D01*
X0008502Y0213334D01*
X0007735Y0213334D01*
X0006200Y0212567D02*
X0006200Y0211032D01*
X0006967Y0210265D01*
X0008502Y0210265D01*
X0007735Y0208730D02*
X0006200Y0207195D01*
X0007735Y0205661D01*
X0010804Y0205661D01*
X0010804Y0208730D02*
X0007735Y0208730D01*
X0010804Y0224076D02*
X0011571Y0224076D01*
X0010804Y0249398D02*
X0010037Y0250165D01*
X0009269Y0250165D01*
X0008502Y0249398D01*
D12*
X0031015Y0260267D02*
X0031632Y0259650D01*
X0032867Y0259650D01*
X0033484Y0260267D01*
X0031015Y0262736D01*
X0031015Y0260267D01*
X0033484Y0260267D02*
X0033484Y0262736D01*
X0032867Y0263353D01*
X0031632Y0263353D01*
X0031015Y0262736D01*
X0034698Y0262736D02*
X0034698Y0260267D01*
X0035315Y0259650D01*
X0036550Y0259650D01*
X0037167Y0260267D01*
X0034698Y0262736D01*
X0035315Y0263353D01*
X0036550Y0263353D01*
X0037167Y0262736D01*
X0037167Y0260267D01*
X0038381Y0259650D02*
X0040850Y0259650D01*
X0039616Y0259650D02*
X0039616Y0263353D01*
X0040850Y0262119D01*
X0041150Y0256485D02*
X0041150Y0254016D01*
X0043619Y0256485D01*
X0044236Y0256485D01*
X0044853Y0255868D01*
X0044853Y0254633D01*
X0044236Y0254016D01*
X0044853Y0251568D02*
X0041150Y0251568D01*
X0041150Y0252802D02*
X0041150Y0250333D01*
X0041150Y0249119D02*
X0042384Y0247884D01*
X0042384Y0248502D02*
X0042384Y0246650D01*
X0041150Y0246650D02*
X0044853Y0246650D01*
X0044853Y0248502D01*
X0044236Y0249119D01*
X0043002Y0249119D01*
X0042384Y0248502D01*
X0043619Y0250333D02*
X0044853Y0251568D01*
X0051632Y0259650D02*
X0052867Y0259650D01*
X0053484Y0260267D01*
X0051015Y0262736D01*
X0051015Y0260267D01*
X0051632Y0259650D01*
X0053484Y0260267D02*
X0053484Y0262736D01*
X0052867Y0263353D01*
X0051632Y0263353D01*
X0051015Y0262736D01*
X0054698Y0262736D02*
X0054698Y0260267D01*
X0055315Y0259650D01*
X0056550Y0259650D01*
X0057167Y0260267D01*
X0054698Y0262736D01*
X0055315Y0263353D01*
X0056550Y0263353D01*
X0057167Y0262736D01*
X0057167Y0260267D01*
X0058381Y0259650D02*
X0060850Y0259650D01*
X0059616Y0259650D02*
X0059616Y0263353D01*
X0060850Y0262119D01*
X0061767Y0256485D02*
X0061150Y0255868D01*
X0061150Y0254633D01*
X0061767Y0254016D01*
X0061150Y0252802D02*
X0061150Y0250333D01*
X0061150Y0249119D02*
X0062384Y0247884D01*
X0062384Y0248502D02*
X0062384Y0246650D01*
X0061150Y0246650D02*
X0064853Y0246650D01*
X0064853Y0248502D01*
X0064236Y0249119D01*
X0063002Y0249119D01*
X0062384Y0248502D01*
X0063619Y0250333D02*
X0064853Y0251568D01*
X0061150Y0251568D01*
X0063002Y0255251D02*
X0063002Y0255868D01*
X0062384Y0256485D01*
X0061767Y0256485D01*
X0063002Y0255868D02*
X0063619Y0256485D01*
X0064236Y0256485D01*
X0064853Y0255868D01*
X0064853Y0254633D01*
X0064236Y0254016D01*
X0082767Y0278101D02*
X0082150Y0278718D01*
X0082150Y0279952D01*
X0082767Y0280569D01*
X0082150Y0281784D02*
X0082150Y0284252D01*
X0082150Y0285467D02*
X0084619Y0287936D01*
X0085236Y0287936D01*
X0085853Y0287318D01*
X0085853Y0286084D01*
X0085236Y0285467D01*
X0085853Y0283018D02*
X0082150Y0283018D01*
X0082150Y0285467D02*
X0082150Y0287936D01*
X0080850Y0291650D02*
X0078381Y0291650D01*
X0079616Y0291650D02*
X0079616Y0295353D01*
X0080850Y0294119D01*
X0077167Y0294119D02*
X0077167Y0292267D01*
X0076550Y0291650D01*
X0074698Y0291650D01*
X0074698Y0294119D01*
X0073484Y0293502D02*
X0072249Y0293502D01*
X0071015Y0295353D02*
X0073484Y0295353D01*
X0073484Y0291650D01*
X0084619Y0281784D02*
X0085853Y0283018D01*
X0085236Y0280569D02*
X0085853Y0279952D01*
X0085853Y0278718D01*
X0085236Y0278101D01*
X0082767Y0278101D01*
X0064853Y0306650D02*
X0061150Y0306650D01*
X0062384Y0306650D02*
X0062384Y0308502D01*
X0063002Y0309119D01*
X0064236Y0309119D01*
X0064853Y0308502D01*
X0064853Y0306650D01*
X0062384Y0307884D02*
X0061150Y0309119D01*
X0061150Y0310333D02*
X0061150Y0312802D01*
X0061150Y0314016D02*
X0061150Y0316485D01*
X0061150Y0315251D02*
X0064853Y0315251D01*
X0063619Y0314016D01*
X0064853Y0311568D02*
X0063619Y0310333D01*
X0064853Y0311568D02*
X0061150Y0311568D01*
X0060233Y0319650D02*
X0058998Y0319650D01*
X0058381Y0320267D01*
X0058381Y0320884D01*
X0058998Y0321502D01*
X0060850Y0321502D01*
X0060850Y0320267D01*
X0060233Y0319650D01*
X0060850Y0321502D02*
X0059616Y0322736D01*
X0058381Y0323353D01*
X0057167Y0322736D02*
X0057167Y0322119D01*
X0056550Y0321502D01*
X0055315Y0321502D01*
X0054698Y0320884D01*
X0054698Y0320267D01*
X0055315Y0319650D01*
X0056550Y0319650D01*
X0057167Y0320267D01*
X0057167Y0320884D01*
X0056550Y0321502D01*
X0055315Y0321502D02*
X0054698Y0322119D01*
X0054698Y0322736D01*
X0055315Y0323353D01*
X0056550Y0323353D01*
X0057167Y0322736D01*
X0071015Y0325353D02*
X0073484Y0325353D01*
X0073484Y0321650D01*
X0074698Y0321650D02*
X0074698Y0324119D01*
X0073484Y0323502D02*
X0072249Y0323502D01*
X0074698Y0321650D02*
X0076550Y0321650D01*
X0077167Y0322267D01*
X0077167Y0324119D01*
X0079616Y0325353D02*
X0079616Y0321650D01*
X0080850Y0321650D02*
X0078381Y0321650D01*
X0080850Y0324119D02*
X0079616Y0325353D01*
X0085236Y0315436D02*
X0082767Y0312967D01*
X0082150Y0312967D01*
X0082767Y0311752D02*
X0082150Y0311135D01*
X0082150Y0309901D01*
X0082767Y0309284D01*
X0085236Y0309284D01*
X0085853Y0309901D01*
X0085853Y0311135D01*
X0085236Y0311752D01*
X0085853Y0312967D02*
X0085853Y0315436D01*
X0085236Y0315436D01*
X0106015Y0235353D02*
X0107249Y0234736D01*
X0108484Y0233502D01*
X0106632Y0233502D01*
X0106015Y0232884D01*
X0106015Y0232267D01*
X0106632Y0231650D01*
X0107867Y0231650D01*
X0108484Y0232267D01*
X0108484Y0233502D01*
X0109698Y0231650D02*
X0112167Y0231650D01*
X0110932Y0231650D02*
X0110932Y0235353D01*
X0112167Y0234119D01*
X0113381Y0234736D02*
X0113998Y0235353D01*
X0115233Y0235353D01*
X0115850Y0234736D01*
X0115850Y0232267D01*
X0115233Y0231650D01*
X0113998Y0231650D01*
X0113381Y0232267D01*
X0114616Y0230353D02*
X0114616Y0226650D01*
X0115850Y0226650D02*
X0113381Y0226650D01*
X0112167Y0226650D02*
X0112167Y0229119D01*
X0110315Y0229119D01*
X0109698Y0228502D01*
X0109698Y0226650D01*
X0108484Y0226650D02*
X0108484Y0230353D01*
X0106015Y0230353D01*
X0107249Y0228502D02*
X0108484Y0228502D01*
X0114616Y0230353D02*
X0115850Y0229119D01*
X0148299Y0270502D02*
X0149533Y0270502D01*
X0150748Y0270502D02*
X0150748Y0268650D01*
X0149533Y0268650D02*
X0149533Y0272353D01*
X0147064Y0272353D01*
X0150748Y0270502D02*
X0151365Y0271119D01*
X0153216Y0271119D01*
X0153216Y0268650D01*
X0154431Y0269267D02*
X0155048Y0268650D01*
X0156282Y0268650D01*
X0156899Y0269267D01*
X0154431Y0271736D01*
X0154431Y0269267D01*
X0156899Y0269267D02*
X0156899Y0271736D01*
X0156282Y0272353D01*
X0155048Y0272353D01*
X0154431Y0271736D01*
X0158114Y0271736D02*
X0158731Y0272353D01*
X0159965Y0272353D01*
X0160583Y0271736D01*
X0160583Y0269267D01*
X0158114Y0271736D01*
X0158114Y0269267D01*
X0158731Y0268650D01*
X0159965Y0268650D01*
X0160583Y0269267D01*
X0161797Y0268650D02*
X0164266Y0268650D01*
X0163031Y0268650D02*
X0163031Y0272353D01*
X0164266Y0271119D01*
X0164853Y0266485D02*
X0164853Y0264016D01*
X0163002Y0264016D01*
X0163619Y0265251D01*
X0163619Y0265868D01*
X0163002Y0266485D01*
X0161767Y0266485D01*
X0161150Y0265868D01*
X0161150Y0264633D01*
X0161767Y0264016D01*
X0161150Y0262802D02*
X0161150Y0260333D01*
X0161150Y0261568D02*
X0164853Y0261568D01*
X0163619Y0260333D01*
X0164236Y0259119D02*
X0164853Y0258502D01*
X0164853Y0257267D01*
X0164236Y0256650D01*
X0161767Y0256650D01*
X0161150Y0257267D01*
X0161150Y0258502D01*
X0161767Y0259119D01*
X0182150Y0279901D02*
X0182150Y0281135D01*
X0182767Y0281752D01*
X0182150Y0282967D02*
X0182150Y0285436D01*
X0182150Y0284201D02*
X0185853Y0284201D01*
X0184619Y0282967D01*
X0185236Y0281752D02*
X0185853Y0281135D01*
X0185853Y0279901D01*
X0185236Y0279284D01*
X0182767Y0279284D01*
X0182150Y0279901D01*
X0180850Y0291650D02*
X0178381Y0291650D01*
X0180850Y0291650D01*
X0178381Y0294119D01*
X0178381Y0294736D01*
X0178998Y0295353D01*
X0180233Y0295353D01*
X0180850Y0294736D01*
X0180233Y0295353D01*
X0178998Y0295353D01*
X0178381Y0294736D01*
X0178381Y0294119D01*
X0180850Y0291650D01*
X0177167Y0291650D02*
X0176550Y0291650D01*
X0176550Y0292267D01*
X0177167Y0292267D01*
X0177167Y0291650D01*
X0176550Y0291650D01*
X0176550Y0292267D01*
X0177167Y0292267D01*
X0177167Y0291650D01*
X0175325Y0291650D02*
X0172857Y0294119D01*
X0172857Y0294736D01*
X0173474Y0295353D01*
X0174708Y0295353D01*
X0175325Y0294736D01*
X0174708Y0295353D01*
X0173474Y0295353D01*
X0172857Y0294736D01*
X0172857Y0294119D01*
X0175325Y0291650D01*
X0172857Y0291650D01*
X0175325Y0291650D01*
X0171642Y0292267D02*
X0171025Y0291650D01*
X0169173Y0291650D01*
X0169173Y0294119D01*
X0169173Y0291650D01*
X0171025Y0291650D01*
X0171642Y0292267D01*
X0171642Y0294119D01*
X0171642Y0292267D01*
X0167959Y0291650D02*
X0167959Y0295353D01*
X0165490Y0295353D01*
X0167959Y0295353D01*
X0167959Y0291650D01*
X0167959Y0293502D02*
X0166725Y0293502D01*
X0167959Y0293502D01*
X0182767Y0309284D02*
X0182150Y0309901D01*
X0182150Y0311135D01*
X0182767Y0311752D01*
X0182150Y0312967D02*
X0182150Y0315436D01*
X0182150Y0312967D02*
X0184619Y0315436D01*
X0185236Y0315436D01*
X0185853Y0314818D01*
X0185853Y0313584D01*
X0185236Y0312967D01*
X0185236Y0311752D02*
X0185853Y0311135D01*
X0185853Y0309901D01*
X0185236Y0309284D01*
X0182767Y0309284D01*
X0180850Y0321650D02*
X0178381Y0324119D01*
X0178381Y0324736D01*
X0178998Y0325353D01*
X0180233Y0325353D01*
X0180850Y0324736D01*
X0180850Y0321650D02*
X0178381Y0321650D01*
X0177167Y0321650D02*
X0176550Y0321650D01*
X0176550Y0322267D01*
X0177167Y0322267D01*
X0177167Y0321650D01*
X0175325Y0321650D02*
X0172857Y0324119D01*
X0172857Y0324736D01*
X0173474Y0325353D01*
X0174708Y0325353D01*
X0175325Y0324736D01*
X0175325Y0321650D02*
X0172857Y0321650D01*
X0171642Y0322267D02*
X0171025Y0321650D01*
X0169173Y0321650D01*
X0169173Y0324119D01*
X0167959Y0323502D02*
X0166725Y0323502D01*
X0167959Y0325353D02*
X0167959Y0321650D01*
X0167959Y0325353D02*
X0165490Y0325353D01*
X0171642Y0324119D02*
X0171642Y0322267D01*
X0075233Y0225353D02*
X0075850Y0224736D01*
X0075850Y0222267D01*
X0075233Y0221650D01*
X0073998Y0221650D01*
X0073381Y0222267D01*
X0072167Y0221650D02*
X0069698Y0221650D01*
X0070932Y0221650D02*
X0070932Y0225353D01*
X0072167Y0224119D01*
X0073381Y0224736D02*
X0073998Y0225353D01*
X0075233Y0225353D01*
X0074616Y0220353D02*
X0074616Y0216650D01*
X0075850Y0216650D02*
X0073381Y0216650D01*
X0072167Y0216650D02*
X0072167Y0219119D01*
X0070315Y0219119D01*
X0069698Y0218502D01*
X0069698Y0216650D01*
X0068484Y0216650D02*
X0068484Y0220353D01*
X0066015Y0220353D01*
X0066632Y0221650D02*
X0066632Y0225353D01*
X0068484Y0223502D01*
X0066015Y0223502D01*
X0067249Y0218502D02*
X0068484Y0218502D01*
X0074616Y0220353D02*
X0075850Y0219119D01*
X0064616Y0055353D02*
X0064616Y0051650D01*
X0065850Y0051650D02*
X0063381Y0051650D01*
X0062167Y0052267D02*
X0059698Y0054736D01*
X0059698Y0052267D01*
X0060315Y0051650D01*
X0061550Y0051650D01*
X0062167Y0052267D01*
X0062167Y0054736D01*
X0061550Y0055353D01*
X0060315Y0055353D01*
X0059698Y0054736D01*
X0058484Y0054736D02*
X0058484Y0052267D01*
X0056015Y0054736D01*
X0056015Y0052267D01*
X0056632Y0051650D01*
X0057867Y0051650D01*
X0058484Y0052267D01*
X0058484Y0054736D02*
X0057867Y0055353D01*
X0056632Y0055353D01*
X0056015Y0054736D01*
X0054801Y0054119D02*
X0052949Y0054119D01*
X0052332Y0053502D01*
X0052332Y0051650D01*
X0051117Y0051650D02*
X0051117Y0055353D01*
X0048649Y0055353D01*
X0049883Y0053502D02*
X0051117Y0053502D01*
X0054801Y0054119D02*
X0054801Y0051650D01*
X0052150Y0045436D02*
X0052150Y0042967D01*
X0052150Y0041752D02*
X0052150Y0039284D01*
X0052150Y0040518D02*
X0055853Y0040518D01*
X0054619Y0039284D01*
X0055236Y0038069D02*
X0055853Y0037452D01*
X0055853Y0036218D01*
X0055236Y0035601D01*
X0052767Y0035601D01*
X0052150Y0036218D01*
X0052150Y0037452D01*
X0052767Y0038069D01*
X0054619Y0042967D02*
X0055853Y0044201D01*
X0052150Y0044201D01*
X0045583Y0045119D02*
X0044348Y0046353D01*
X0044348Y0042650D01*
X0043114Y0042650D02*
X0045583Y0042650D01*
X0041899Y0043267D02*
X0039431Y0045736D01*
X0039431Y0043267D01*
X0040048Y0042650D01*
X0041282Y0042650D01*
X0041899Y0043267D01*
X0041899Y0045736D01*
X0041282Y0046353D01*
X0040048Y0046353D01*
X0039431Y0045736D01*
X0038216Y0045119D02*
X0038216Y0043267D01*
X0037599Y0042650D01*
X0035748Y0042650D01*
X0035748Y0045119D01*
X0034533Y0044502D02*
X0033299Y0044502D01*
X0034533Y0046353D02*
X0034533Y0042650D01*
X0034533Y0046353D02*
X0032064Y0046353D01*
X0032002Y0035436D02*
X0032002Y0033584D01*
X0032619Y0032967D01*
X0033236Y0032967D01*
X0033853Y0033584D01*
X0033853Y0034818D01*
X0033236Y0035436D01*
X0030767Y0035436D01*
X0030150Y0034818D01*
X0030150Y0033584D01*
X0030767Y0032967D01*
X0030767Y0031752D02*
X0030150Y0031135D01*
X0030150Y0029901D01*
X0030767Y0029284D01*
X0033236Y0029284D01*
X0033853Y0029901D01*
X0033853Y0031135D01*
X0033236Y0031752D01*
X0052150Y0024818D02*
X0055853Y0024818D01*
X0054002Y0022967D01*
X0054002Y0025436D01*
X0052150Y0021752D02*
X0052150Y0019284D01*
X0052150Y0018069D02*
X0053384Y0016835D01*
X0053384Y0017452D02*
X0053384Y0015601D01*
X0052150Y0015601D02*
X0055853Y0015601D01*
X0055853Y0017452D01*
X0055236Y0018069D01*
X0054002Y0018069D01*
X0053384Y0017452D01*
X0054619Y0019284D02*
X0055853Y0020518D01*
X0052150Y0020518D01*
X0059068Y0010119D02*
X0060919Y0008884D01*
X0059068Y0007650D01*
X0060919Y0007650D02*
X0060919Y0011353D01*
X0063368Y0011353D02*
X0063368Y0007650D01*
X0064602Y0007650D02*
X0062134Y0007650D01*
X0064602Y0010119D02*
X0063368Y0011353D01*
X0072150Y0025601D02*
X0075853Y0025601D01*
X0075853Y0027452D01*
X0075236Y0028069D01*
X0074002Y0028069D01*
X0073384Y0027452D01*
X0073384Y0025601D01*
X0073384Y0026835D02*
X0072150Y0028069D01*
X0072150Y0029284D02*
X0072150Y0031752D01*
X0072150Y0030518D02*
X0075853Y0030518D01*
X0074619Y0029284D01*
X0074002Y0032967D02*
X0074619Y0034201D01*
X0074619Y0034818D01*
X0074002Y0035436D01*
X0072767Y0035436D01*
X0072150Y0034818D01*
X0072150Y0033584D01*
X0072767Y0032967D01*
X0074002Y0032967D02*
X0075853Y0032967D01*
X0075853Y0035436D01*
X0076642Y0041650D02*
X0076642Y0045353D01*
X0077857Y0045353D02*
X0077857Y0044736D01*
X0080325Y0042267D01*
X0080325Y0041650D01*
X0081550Y0041650D02*
X0082167Y0041650D01*
X0082167Y0042267D01*
X0081550Y0042267D01*
X0081550Y0041650D01*
X0083998Y0041650D02*
X0083998Y0045353D01*
X0085850Y0043502D01*
X0083381Y0043502D01*
X0080325Y0045353D02*
X0077857Y0045353D01*
X0076642Y0042884D02*
X0074791Y0044119D01*
X0076642Y0042884D02*
X0074791Y0041650D01*
X0065850Y0054119D02*
X0064616Y0055353D01*
X0087583Y0020353D02*
X0086966Y0019736D01*
X0086966Y0019119D01*
X0087583Y0018502D01*
X0088817Y0018502D01*
X0089434Y0019119D01*
X0089434Y0019736D01*
X0088817Y0020353D01*
X0087583Y0020353D01*
X0087583Y0018502D02*
X0086966Y0017884D01*
X0086966Y0017267D01*
X0087583Y0016650D01*
X0088817Y0016650D01*
X0089434Y0017267D01*
X0089434Y0017884D01*
X0088817Y0018502D01*
X0090649Y0018502D02*
X0093117Y0018502D01*
X0091266Y0020353D01*
X0091266Y0016650D01*
X0094332Y0016650D02*
X0096801Y0016650D01*
X0095566Y0016650D02*
X0095566Y0020353D01*
X0096801Y0019119D01*
X0098015Y0018502D02*
X0100484Y0018502D01*
X0098632Y0020353D01*
X0098632Y0016650D01*
X0101698Y0016650D02*
X0101698Y0020353D01*
X0104167Y0020353D02*
X0101698Y0016650D01*
X0104167Y0016650D02*
X0104167Y0020353D01*
X0106616Y0020353D02*
X0106616Y0016650D01*
X0107850Y0016650D02*
X0105381Y0016650D01*
X0107850Y0019119D02*
X0106616Y0020353D01*
X0093853Y0029284D02*
X0093853Y0031135D01*
X0093236Y0031752D01*
X0090767Y0031752D01*
X0090150Y0031135D01*
X0090150Y0029284D01*
X0093853Y0029284D01*
X0092619Y0032967D02*
X0093853Y0034201D01*
X0090150Y0034201D01*
X0090150Y0032967D02*
X0090150Y0035436D01*
D13*
X0128500Y0056500D02*
X0128500Y0106500D01*
X0231000Y0106500D01*
X0231000Y0006500D01*
X0006000Y0006500D01*
X0006000Y0056500D01*
X0128500Y0056500D01*
D14*
X0224650Y0116219D02*
X0230755Y0116219D01*
X0230755Y0120289D01*
X0227703Y0122296D02*
X0227703Y0126366D01*
X0230755Y0125349D02*
X0227703Y0122296D01*
X0227703Y0118254D02*
X0227703Y0116219D01*
X0224650Y0125349D02*
X0230755Y0125349D01*
X0224650Y0128373D02*
X0230755Y0132444D01*
X0230755Y0134451D02*
X0230755Y0138521D01*
X0230755Y0140528D02*
X0228720Y0142563D01*
X0230755Y0144598D01*
X0224650Y0144598D01*
X0224650Y0146605D02*
X0230755Y0146605D01*
X0230755Y0149658D01*
X0229738Y0150675D01*
X0227703Y0150675D01*
X0226685Y0149658D01*
X0226685Y0146605D01*
X0227703Y0152682D02*
X0227703Y0156752D01*
X0228720Y0156752D02*
X0224650Y0156752D01*
X0225668Y0158759D02*
X0224650Y0159777D01*
X0224650Y0161812D01*
X0225668Y0162829D01*
X0229738Y0162829D02*
X0230755Y0161812D01*
X0230755Y0159777D01*
X0229738Y0158759D01*
X0225668Y0158759D01*
X0228720Y0156752D02*
X0230755Y0154717D01*
X0228720Y0152682D01*
X0224650Y0152682D01*
X0224650Y0140528D02*
X0230755Y0140528D01*
X0227703Y0136486D02*
X0227703Y0134451D01*
X0230755Y0134451D02*
X0224650Y0134451D01*
X0225668Y0170914D02*
X0224650Y0171931D01*
X0224650Y0173966D01*
X0225668Y0174984D01*
X0225668Y0176991D02*
X0224650Y0178008D01*
X0224650Y0180043D01*
X0225668Y0181061D01*
X0227703Y0181061D01*
X0228720Y0180043D01*
X0228720Y0178008D01*
X0227703Y0176991D01*
X0225668Y0176991D01*
X0229738Y0174984D02*
X0230755Y0173966D01*
X0230755Y0171931D01*
X0229738Y0170914D01*
X0225668Y0170914D01*
X0224650Y0183068D02*
X0228720Y0183068D01*
X0228720Y0184086D01*
X0227703Y0185103D01*
X0228720Y0186121D01*
X0227703Y0187138D01*
X0224650Y0187138D01*
X0224650Y0189145D02*
X0224650Y0192198D01*
X0225668Y0193215D01*
X0227703Y0193215D01*
X0228720Y0192198D01*
X0228720Y0189145D01*
X0230755Y0189145D02*
X0224650Y0189145D01*
X0224650Y0185103D02*
X0227703Y0185103D01*
X0227703Y0195222D02*
X0225668Y0195222D01*
X0224650Y0196240D01*
X0224650Y0198275D01*
X0225668Y0199293D01*
X0227703Y0199293D01*
X0228720Y0198275D01*
X0228720Y0196240D01*
X0227703Y0195222D01*
X0227703Y0207377D02*
X0227703Y0210429D01*
X0226685Y0211447D01*
X0225668Y0211447D01*
X0224650Y0210429D01*
X0224650Y0207377D01*
X0230755Y0207377D01*
X0230755Y0210429D01*
X0229738Y0211447D01*
X0228720Y0211447D01*
X0227703Y0210429D01*
X0227703Y0213454D02*
X0225668Y0213454D01*
X0224650Y0214472D01*
X0224650Y0216507D01*
X0225668Y0217524D01*
X0227703Y0217524D01*
X0228720Y0216507D01*
X0228720Y0214472D01*
X0227703Y0213454D01*
X0225668Y0219531D02*
X0226685Y0220549D01*
X0226685Y0223601D01*
X0227703Y0223601D02*
X0228720Y0222584D01*
X0228720Y0220549D01*
X0227703Y0223601D02*
X0224650Y0223601D01*
X0224650Y0220549D01*
X0225668Y0219531D01*
X0226685Y0225608D02*
X0228720Y0227643D01*
X0228720Y0228661D01*
X0227703Y0230673D02*
X0225668Y0230673D01*
X0224650Y0231690D01*
X0224650Y0234743D01*
X0230755Y0234743D01*
X0228720Y0234743D02*
X0228720Y0231690D01*
X0227703Y0230673D01*
X0228720Y0225608D02*
X0224650Y0225608D01*
D15*
X0162700Y0283935D02*
X0162700Y0286070D01*
X0160565Y0288205D01*
X0158403Y0287138D02*
X0158403Y0282868D01*
X0157335Y0281800D01*
X0155200Y0281800D01*
X0154133Y0282868D01*
X0151958Y0281800D02*
X0149822Y0283935D01*
X0149822Y0286070D01*
X0151958Y0288205D01*
X0154133Y0287138D02*
X0155200Y0288205D01*
X0157335Y0288205D01*
X0158403Y0287138D01*
X0159497Y0292300D02*
X0158430Y0293368D01*
X0158430Y0294435D01*
X0159497Y0295503D01*
X0161632Y0295503D01*
X0162700Y0296570D01*
X0162700Y0297638D01*
X0161632Y0298705D01*
X0159497Y0298705D01*
X0158430Y0297638D01*
X0156255Y0295503D02*
X0156255Y0293368D01*
X0155187Y0292300D01*
X0153052Y0292300D01*
X0151984Y0294435D02*
X0156255Y0294435D01*
X0156255Y0295503D02*
X0155187Y0296570D01*
X0153052Y0296570D01*
X0151984Y0295503D01*
X0151984Y0294435D01*
X0149809Y0294435D02*
X0147674Y0296570D01*
X0146606Y0296570D01*
X0144438Y0296570D02*
X0142303Y0292300D01*
X0140167Y0296570D01*
X0137992Y0296570D02*
X0136925Y0296570D01*
X0136925Y0292300D01*
X0137992Y0292300D02*
X0135857Y0292300D01*
X0133695Y0293368D02*
X0133695Y0295503D01*
X0132628Y0296570D01*
X0129425Y0296570D01*
X0127250Y0295503D02*
X0127250Y0293368D01*
X0126182Y0292300D01*
X0124047Y0292300D01*
X0122979Y0294435D02*
X0122979Y0295503D01*
X0124047Y0296570D01*
X0126182Y0296570D01*
X0127250Y0295503D01*
X0127250Y0294435D02*
X0122979Y0294435D01*
X0126189Y0288205D02*
X0126189Y0281800D01*
X0128324Y0281800D02*
X0124054Y0281800D01*
X0121879Y0282868D02*
X0120811Y0281800D01*
X0118676Y0281800D01*
X0117608Y0282868D01*
X0117608Y0283935D01*
X0118676Y0285003D01*
X0121879Y0285003D01*
X0121879Y0282868D01*
X0121879Y0285003D02*
X0119743Y0287138D01*
X0117608Y0288205D01*
X0113291Y0292300D02*
X0111156Y0292300D01*
X0110088Y0293368D01*
X0107913Y0294435D02*
X0105778Y0296570D01*
X0104711Y0296570D01*
X0102542Y0295503D02*
X0102542Y0293368D01*
X0101474Y0292300D01*
X0099339Y0292300D01*
X0098272Y0294435D02*
X0102542Y0294435D01*
X0102542Y0295503D02*
X0101474Y0296570D01*
X0099339Y0296570D01*
X0098272Y0295503D01*
X0098272Y0294435D01*
X0096097Y0293368D02*
X0096097Y0296570D01*
X0096097Y0293368D02*
X0095029Y0292300D01*
X0093961Y0293368D01*
X0092894Y0292300D01*
X0091826Y0293368D01*
X0091826Y0296570D01*
X0093948Y0302800D02*
X0093948Y0307070D01*
X0093948Y0304935D02*
X0091813Y0307070D01*
X0090745Y0307070D01*
X0096123Y0306003D02*
X0096123Y0302800D01*
X0099326Y0302800D01*
X0100394Y0303868D01*
X0099326Y0304935D01*
X0096123Y0304935D01*
X0096123Y0306003D02*
X0097191Y0307070D01*
X0099326Y0307070D01*
X0102569Y0306003D02*
X0102569Y0304935D01*
X0106839Y0304935D01*
X0106839Y0303868D02*
X0106839Y0306003D01*
X0105771Y0307070D01*
X0103636Y0307070D01*
X0102569Y0306003D01*
X0103636Y0302800D02*
X0105771Y0302800D01*
X0106839Y0303868D01*
X0109014Y0303868D02*
X0110082Y0302800D01*
X0113285Y0302800D01*
X0113285Y0309205D01*
X0110082Y0309205D01*
X0109014Y0308138D01*
X0109014Y0307070D01*
X0110082Y0306003D01*
X0113285Y0306003D01*
X0110082Y0306003D02*
X0109014Y0304935D01*
X0109014Y0303868D01*
X0111156Y0298705D02*
X0113291Y0298705D01*
X0114359Y0297638D01*
X0114359Y0293368D01*
X0113291Y0292300D01*
X0110088Y0297638D02*
X0111156Y0298705D01*
X0107913Y0296570D02*
X0107913Y0292300D01*
X0121905Y0302800D02*
X0121905Y0306003D01*
X0122973Y0307070D01*
X0126176Y0307070D01*
X0126176Y0302800D01*
X0128351Y0302800D02*
X0128351Y0306003D01*
X0129418Y0307070D01*
X0131553Y0307070D01*
X0131553Y0304935D02*
X0128351Y0304935D01*
X0128351Y0302800D02*
X0131553Y0302800D01*
X0132621Y0303868D01*
X0131553Y0304935D01*
X0134783Y0302800D02*
X0136918Y0302800D01*
X0135850Y0302800D02*
X0135850Y0307070D01*
X0136918Y0307070D01*
X0139093Y0307070D02*
X0142296Y0307070D01*
X0143364Y0306003D01*
X0142296Y0304935D01*
X0140161Y0304935D01*
X0139093Y0303868D01*
X0140161Y0302800D01*
X0143364Y0302800D01*
X0145539Y0303868D02*
X0146606Y0304935D01*
X0148741Y0304935D01*
X0149809Y0306003D01*
X0148741Y0307070D01*
X0145539Y0307070D01*
X0145539Y0303868D02*
X0146606Y0302800D01*
X0149809Y0302800D01*
X0151984Y0302800D02*
X0151984Y0307070D01*
X0151984Y0302800D02*
X0155187Y0302800D01*
X0156255Y0303868D01*
X0156255Y0307070D01*
X0158430Y0306003D02*
X0159497Y0304935D01*
X0162700Y0304935D01*
X0162700Y0302800D02*
X0162700Y0309205D01*
X0159497Y0309205D01*
X0158430Y0308138D01*
X0158430Y0306003D01*
X0160565Y0304935D02*
X0158430Y0302800D01*
X0162700Y0293368D02*
X0161632Y0292300D01*
X0159497Y0292300D01*
X0162700Y0283935D02*
X0160565Y0281800D01*
X0149809Y0292300D02*
X0149809Y0296570D01*
X0141215Y0287138D02*
X0140147Y0288205D01*
X0138012Y0288205D01*
X0136945Y0287138D01*
X0136945Y0286070D01*
X0141215Y0281800D01*
X0136945Y0281800D01*
X0134770Y0282868D02*
X0130499Y0287138D01*
X0130499Y0282868D01*
X0131567Y0281800D01*
X0133702Y0281800D01*
X0134770Y0282868D01*
X0134770Y0287138D01*
X0133702Y0288205D01*
X0131567Y0288205D01*
X0130499Y0287138D01*
X0128324Y0286070D02*
X0126189Y0288205D01*
X0129425Y0292300D02*
X0132628Y0292300D01*
X0133695Y0293368D01*
X0136925Y0298705D02*
X0136925Y0299773D01*
X0135850Y0309205D02*
X0135850Y0310273D01*
X0135000Y0089200D02*
X0134924Y0089198D01*
X0134848Y0089192D01*
X0134773Y0089183D01*
X0134698Y0089169D01*
X0134624Y0089152D01*
X0134551Y0089131D01*
X0134479Y0089107D01*
X0134408Y0089078D01*
X0134339Y0089047D01*
X0134272Y0089012D01*
X0134207Y0088973D01*
X0134143Y0088931D01*
X0134082Y0088886D01*
X0134023Y0088838D01*
X0133967Y0088787D01*
X0133913Y0088733D01*
X0133862Y0088677D01*
X0133814Y0088618D01*
X0133769Y0088557D01*
X0133727Y0088493D01*
X0133688Y0088428D01*
X0133653Y0088361D01*
X0133622Y0088292D01*
X0133593Y0088221D01*
X0133569Y0088149D01*
X0133548Y0088076D01*
X0133531Y0088002D01*
X0133517Y0087927D01*
X0133508Y0087852D01*
X0133502Y0087776D01*
X0133500Y0087700D01*
X0133500Y0075300D01*
X0133502Y0075224D01*
X0133508Y0075148D01*
X0133517Y0075073D01*
X0133531Y0074998D01*
X0133548Y0074924D01*
X0133569Y0074851D01*
X0133593Y0074779D01*
X0133622Y0074708D01*
X0133653Y0074639D01*
X0133688Y0074572D01*
X0133727Y0074507D01*
X0133769Y0074443D01*
X0133814Y0074382D01*
X0133862Y0074323D01*
X0133913Y0074267D01*
X0133967Y0074213D01*
X0134023Y0074162D01*
X0134082Y0074114D01*
X0134143Y0074069D01*
X0134207Y0074027D01*
X0134272Y0073988D01*
X0134339Y0073953D01*
X0134408Y0073922D01*
X0134479Y0073893D01*
X0134551Y0073869D01*
X0134624Y0073848D01*
X0134698Y0073831D01*
X0134773Y0073817D01*
X0134848Y0073808D01*
X0134924Y0073802D01*
X0135000Y0073800D01*
X0118500Y0075300D02*
X0118500Y0079500D01*
X0118500Y0083500D01*
X0118500Y0087700D01*
X0118498Y0087776D01*
X0118492Y0087852D01*
X0118483Y0087927D01*
X0118469Y0088002D01*
X0118452Y0088076D01*
X0118431Y0088149D01*
X0118407Y0088221D01*
X0118378Y0088292D01*
X0118347Y0088361D01*
X0118312Y0088428D01*
X0118273Y0088493D01*
X0118231Y0088557D01*
X0118186Y0088618D01*
X0118138Y0088677D01*
X0118087Y0088733D01*
X0118033Y0088787D01*
X0117977Y0088838D01*
X0117918Y0088886D01*
X0117857Y0088931D01*
X0117793Y0088973D01*
X0117728Y0089012D01*
X0117661Y0089047D01*
X0117592Y0089078D01*
X0117521Y0089107D01*
X0117449Y0089131D01*
X0117376Y0089152D01*
X0117302Y0089169D01*
X0117227Y0089183D01*
X0117152Y0089192D01*
X0117076Y0089198D01*
X0117000Y0089200D01*
X0118500Y0083500D02*
X0118412Y0083498D01*
X0118323Y0083492D01*
X0118235Y0083482D01*
X0118148Y0083469D01*
X0118061Y0083451D01*
X0117975Y0083430D01*
X0117890Y0083405D01*
X0117807Y0083376D01*
X0117724Y0083343D01*
X0117644Y0083307D01*
X0117565Y0083268D01*
X0117487Y0083225D01*
X0117412Y0083178D01*
X0117339Y0083128D01*
X0117268Y0083075D01*
X0117199Y0083019D01*
X0117133Y0082960D01*
X0117070Y0082898D01*
X0117010Y0082834D01*
X0116952Y0082767D01*
X0116898Y0082697D01*
X0116846Y0082625D01*
X0116798Y0082551D01*
X0116753Y0082474D01*
X0116712Y0082396D01*
X0116674Y0082316D01*
X0116640Y0082235D01*
X0116609Y0082152D01*
X0116582Y0082067D01*
X0116559Y0081982D01*
X0116540Y0081896D01*
X0116524Y0081808D01*
X0116512Y0081721D01*
X0116504Y0081633D01*
X0116500Y0081544D01*
X0116500Y0081456D01*
X0116504Y0081367D01*
X0116512Y0081279D01*
X0116524Y0081192D01*
X0116540Y0081104D01*
X0116559Y0081018D01*
X0116582Y0080933D01*
X0116609Y0080848D01*
X0116640Y0080765D01*
X0116674Y0080684D01*
X0116712Y0080604D01*
X0116753Y0080526D01*
X0116798Y0080449D01*
X0116846Y0080375D01*
X0116898Y0080303D01*
X0116952Y0080233D01*
X0117010Y0080166D01*
X0117070Y0080102D01*
X0117133Y0080040D01*
X0117199Y0079981D01*
X0117268Y0079925D01*
X0117339Y0079872D01*
X0117412Y0079822D01*
X0117487Y0079775D01*
X0117565Y0079732D01*
X0117644Y0079693D01*
X0117724Y0079657D01*
X0117807Y0079624D01*
X0117890Y0079595D01*
X0117975Y0079570D01*
X0118061Y0079549D01*
X0118148Y0079531D01*
X0118235Y0079518D01*
X0118323Y0079508D01*
X0118412Y0079502D01*
X0118500Y0079500D01*
X0118500Y0075300D02*
X0118498Y0075224D01*
X0118492Y0075148D01*
X0118483Y0075073D01*
X0118469Y0074998D01*
X0118452Y0074924D01*
X0118431Y0074851D01*
X0118407Y0074779D01*
X0118378Y0074708D01*
X0118347Y0074639D01*
X0118312Y0074572D01*
X0118273Y0074507D01*
X0118231Y0074443D01*
X0118186Y0074382D01*
X0118138Y0074323D01*
X0118087Y0074267D01*
X0118033Y0074213D01*
X0117977Y0074162D01*
X0117918Y0074114D01*
X0117857Y0074069D01*
X0117793Y0074027D01*
X0117728Y0073988D01*
X0117661Y0073953D01*
X0117592Y0073922D01*
X0117521Y0073893D01*
X0117449Y0073869D01*
X0117376Y0073848D01*
X0117302Y0073831D01*
X0117227Y0073817D01*
X0117152Y0073808D01*
X0117076Y0073802D01*
X0117000Y0073800D01*
X0115000Y0039200D02*
X0114924Y0039198D01*
X0114848Y0039192D01*
X0114773Y0039183D01*
X0114698Y0039169D01*
X0114624Y0039152D01*
X0114551Y0039131D01*
X0114479Y0039107D01*
X0114408Y0039078D01*
X0114339Y0039047D01*
X0114272Y0039012D01*
X0114207Y0038973D01*
X0114143Y0038931D01*
X0114082Y0038886D01*
X0114023Y0038838D01*
X0113967Y0038787D01*
X0113913Y0038733D01*
X0113862Y0038677D01*
X0113814Y0038618D01*
X0113769Y0038557D01*
X0113727Y0038493D01*
X0113688Y0038428D01*
X0113653Y0038361D01*
X0113622Y0038292D01*
X0113593Y0038221D01*
X0113569Y0038149D01*
X0113548Y0038076D01*
X0113531Y0038002D01*
X0113517Y0037927D01*
X0113508Y0037852D01*
X0113502Y0037776D01*
X0113500Y0037700D01*
X0113500Y0025300D01*
X0113502Y0025224D01*
X0113508Y0025148D01*
X0113517Y0025073D01*
X0113531Y0024998D01*
X0113548Y0024924D01*
X0113569Y0024851D01*
X0113593Y0024779D01*
X0113622Y0024708D01*
X0113653Y0024639D01*
X0113688Y0024572D01*
X0113727Y0024507D01*
X0113769Y0024443D01*
X0113814Y0024382D01*
X0113862Y0024323D01*
X0113913Y0024267D01*
X0113967Y0024213D01*
X0114023Y0024162D01*
X0114082Y0024114D01*
X0114143Y0024069D01*
X0114207Y0024027D01*
X0114272Y0023988D01*
X0114339Y0023953D01*
X0114408Y0023922D01*
X0114479Y0023893D01*
X0114551Y0023869D01*
X0114624Y0023848D01*
X0114698Y0023831D01*
X0114773Y0023817D01*
X0114848Y0023808D01*
X0114924Y0023802D01*
X0115000Y0023800D01*
X0147000Y0023800D02*
X0147076Y0023802D01*
X0147152Y0023808D01*
X0147227Y0023817D01*
X0147302Y0023831D01*
X0147376Y0023848D01*
X0147449Y0023869D01*
X0147521Y0023893D01*
X0147592Y0023922D01*
X0147661Y0023953D01*
X0147728Y0023988D01*
X0147793Y0024027D01*
X0147857Y0024069D01*
X0147918Y0024114D01*
X0147977Y0024162D01*
X0148033Y0024213D01*
X0148087Y0024267D01*
X0148138Y0024323D01*
X0148186Y0024382D01*
X0148231Y0024443D01*
X0148273Y0024507D01*
X0148312Y0024572D01*
X0148347Y0024639D01*
X0148378Y0024708D01*
X0148407Y0024779D01*
X0148431Y0024851D01*
X0148452Y0024924D01*
X0148469Y0024998D01*
X0148483Y0025073D01*
X0148492Y0025148D01*
X0148498Y0025224D01*
X0148500Y0025300D01*
X0148500Y0029500D01*
X0148500Y0033500D01*
X0148500Y0037700D01*
X0148498Y0037776D01*
X0148492Y0037852D01*
X0148483Y0037927D01*
X0148469Y0038002D01*
X0148452Y0038076D01*
X0148431Y0038149D01*
X0148407Y0038221D01*
X0148378Y0038292D01*
X0148347Y0038361D01*
X0148312Y0038428D01*
X0148273Y0038493D01*
X0148231Y0038557D01*
X0148186Y0038618D01*
X0148138Y0038677D01*
X0148087Y0038733D01*
X0148033Y0038787D01*
X0147977Y0038838D01*
X0147918Y0038886D01*
X0147857Y0038931D01*
X0147793Y0038973D01*
X0147728Y0039012D01*
X0147661Y0039047D01*
X0147592Y0039078D01*
X0147521Y0039107D01*
X0147449Y0039131D01*
X0147376Y0039152D01*
X0147302Y0039169D01*
X0147227Y0039183D01*
X0147152Y0039192D01*
X0147076Y0039198D01*
X0147000Y0039200D01*
X0148500Y0033500D02*
X0148412Y0033498D01*
X0148323Y0033492D01*
X0148235Y0033482D01*
X0148148Y0033469D01*
X0148061Y0033451D01*
X0147975Y0033430D01*
X0147890Y0033405D01*
X0147807Y0033376D01*
X0147724Y0033343D01*
X0147644Y0033307D01*
X0147565Y0033268D01*
X0147487Y0033225D01*
X0147412Y0033178D01*
X0147339Y0033128D01*
X0147268Y0033075D01*
X0147199Y0033019D01*
X0147133Y0032960D01*
X0147070Y0032898D01*
X0147010Y0032834D01*
X0146952Y0032767D01*
X0146898Y0032697D01*
X0146846Y0032625D01*
X0146798Y0032551D01*
X0146753Y0032474D01*
X0146712Y0032396D01*
X0146674Y0032316D01*
X0146640Y0032235D01*
X0146609Y0032152D01*
X0146582Y0032067D01*
X0146559Y0031982D01*
X0146540Y0031896D01*
X0146524Y0031808D01*
X0146512Y0031721D01*
X0146504Y0031633D01*
X0146500Y0031544D01*
X0146500Y0031456D01*
X0146504Y0031367D01*
X0146512Y0031279D01*
X0146524Y0031192D01*
X0146540Y0031104D01*
X0146559Y0031018D01*
X0146582Y0030933D01*
X0146609Y0030848D01*
X0146640Y0030765D01*
X0146674Y0030684D01*
X0146712Y0030604D01*
X0146753Y0030526D01*
X0146798Y0030449D01*
X0146846Y0030375D01*
X0146898Y0030303D01*
X0146952Y0030233D01*
X0147010Y0030166D01*
X0147070Y0030102D01*
X0147133Y0030040D01*
X0147199Y0029981D01*
X0147268Y0029925D01*
X0147339Y0029872D01*
X0147412Y0029822D01*
X0147487Y0029775D01*
X0147565Y0029732D01*
X0147644Y0029693D01*
X0147724Y0029657D01*
X0147807Y0029624D01*
X0147890Y0029595D01*
X0147975Y0029570D01*
X0148061Y0029549D01*
X0148148Y0029531D01*
X0148235Y0029518D01*
X0148323Y0029508D01*
X0148412Y0029502D01*
X0148500Y0029500D01*
X0163500Y0025300D02*
X0163500Y0037700D01*
X0163502Y0037776D01*
X0163508Y0037852D01*
X0163517Y0037927D01*
X0163531Y0038002D01*
X0163548Y0038076D01*
X0163569Y0038149D01*
X0163593Y0038221D01*
X0163622Y0038292D01*
X0163653Y0038361D01*
X0163688Y0038428D01*
X0163727Y0038493D01*
X0163769Y0038557D01*
X0163814Y0038618D01*
X0163862Y0038677D01*
X0163913Y0038733D01*
X0163967Y0038787D01*
X0164023Y0038838D01*
X0164082Y0038886D01*
X0164143Y0038931D01*
X0164207Y0038973D01*
X0164272Y0039012D01*
X0164339Y0039047D01*
X0164408Y0039078D01*
X0164479Y0039107D01*
X0164551Y0039131D01*
X0164624Y0039152D01*
X0164698Y0039169D01*
X0164773Y0039183D01*
X0164848Y0039192D01*
X0164924Y0039198D01*
X0165000Y0039200D01*
X0163500Y0025300D02*
X0163502Y0025224D01*
X0163508Y0025148D01*
X0163517Y0025073D01*
X0163531Y0024998D01*
X0163548Y0024924D01*
X0163569Y0024851D01*
X0163593Y0024779D01*
X0163622Y0024708D01*
X0163653Y0024639D01*
X0163688Y0024572D01*
X0163727Y0024507D01*
X0163769Y0024443D01*
X0163814Y0024382D01*
X0163862Y0024323D01*
X0163913Y0024267D01*
X0163967Y0024213D01*
X0164023Y0024162D01*
X0164082Y0024114D01*
X0164143Y0024069D01*
X0164207Y0024027D01*
X0164272Y0023988D01*
X0164339Y0023953D01*
X0164408Y0023922D01*
X0164479Y0023893D01*
X0164551Y0023869D01*
X0164624Y0023848D01*
X0164698Y0023831D01*
X0164773Y0023817D01*
X0164848Y0023808D01*
X0164924Y0023802D01*
X0165000Y0023800D01*
X0197000Y0023800D02*
X0197076Y0023802D01*
X0197152Y0023808D01*
X0197227Y0023817D01*
X0197302Y0023831D01*
X0197376Y0023848D01*
X0197449Y0023869D01*
X0197521Y0023893D01*
X0197592Y0023922D01*
X0197661Y0023953D01*
X0197728Y0023988D01*
X0197793Y0024027D01*
X0197857Y0024069D01*
X0197918Y0024114D01*
X0197977Y0024162D01*
X0198033Y0024213D01*
X0198087Y0024267D01*
X0198138Y0024323D01*
X0198186Y0024382D01*
X0198231Y0024443D01*
X0198273Y0024507D01*
X0198312Y0024572D01*
X0198347Y0024639D01*
X0198378Y0024708D01*
X0198407Y0024779D01*
X0198431Y0024851D01*
X0198452Y0024924D01*
X0198469Y0024998D01*
X0198483Y0025073D01*
X0198492Y0025148D01*
X0198498Y0025224D01*
X0198500Y0025300D01*
X0198500Y0029500D01*
X0198500Y0033500D01*
X0198500Y0037700D01*
X0198498Y0037776D01*
X0198492Y0037852D01*
X0198483Y0037927D01*
X0198469Y0038002D01*
X0198452Y0038076D01*
X0198431Y0038149D01*
X0198407Y0038221D01*
X0198378Y0038292D01*
X0198347Y0038361D01*
X0198312Y0038428D01*
X0198273Y0038493D01*
X0198231Y0038557D01*
X0198186Y0038618D01*
X0198138Y0038677D01*
X0198087Y0038733D01*
X0198033Y0038787D01*
X0197977Y0038838D01*
X0197918Y0038886D01*
X0197857Y0038931D01*
X0197793Y0038973D01*
X0197728Y0039012D01*
X0197661Y0039047D01*
X0197592Y0039078D01*
X0197521Y0039107D01*
X0197449Y0039131D01*
X0197376Y0039152D01*
X0197302Y0039169D01*
X0197227Y0039183D01*
X0197152Y0039192D01*
X0197076Y0039198D01*
X0197000Y0039200D01*
X0198500Y0033500D02*
X0198412Y0033498D01*
X0198323Y0033492D01*
X0198235Y0033482D01*
X0198148Y0033469D01*
X0198061Y0033451D01*
X0197975Y0033430D01*
X0197890Y0033405D01*
X0197807Y0033376D01*
X0197724Y0033343D01*
X0197644Y0033307D01*
X0197565Y0033268D01*
X0197487Y0033225D01*
X0197412Y0033178D01*
X0197339Y0033128D01*
X0197268Y0033075D01*
X0197199Y0033019D01*
X0197133Y0032960D01*
X0197070Y0032898D01*
X0197010Y0032834D01*
X0196952Y0032767D01*
X0196898Y0032697D01*
X0196846Y0032625D01*
X0196798Y0032551D01*
X0196753Y0032474D01*
X0196712Y0032396D01*
X0196674Y0032316D01*
X0196640Y0032235D01*
X0196609Y0032152D01*
X0196582Y0032067D01*
X0196559Y0031982D01*
X0196540Y0031896D01*
X0196524Y0031808D01*
X0196512Y0031721D01*
X0196504Y0031633D01*
X0196500Y0031544D01*
X0196500Y0031456D01*
X0196504Y0031367D01*
X0196512Y0031279D01*
X0196524Y0031192D01*
X0196540Y0031104D01*
X0196559Y0031018D01*
X0196582Y0030933D01*
X0196609Y0030848D01*
X0196640Y0030765D01*
X0196674Y0030684D01*
X0196712Y0030604D01*
X0196753Y0030526D01*
X0196798Y0030449D01*
X0196846Y0030375D01*
X0196898Y0030303D01*
X0196952Y0030233D01*
X0197010Y0030166D01*
X0197070Y0030102D01*
X0197133Y0030040D01*
X0197199Y0029981D01*
X0197268Y0029925D01*
X0197339Y0029872D01*
X0197412Y0029822D01*
X0197487Y0029775D01*
X0197565Y0029732D01*
X0197644Y0029693D01*
X0197724Y0029657D01*
X0197807Y0029624D01*
X0197890Y0029595D01*
X0197975Y0029570D01*
X0198061Y0029549D01*
X0198148Y0029531D01*
X0198235Y0029518D01*
X0198323Y0029508D01*
X0198412Y0029502D01*
X0198500Y0029500D01*
X0185000Y0073800D02*
X0184924Y0073802D01*
X0184848Y0073808D01*
X0184773Y0073817D01*
X0184698Y0073831D01*
X0184624Y0073848D01*
X0184551Y0073869D01*
X0184479Y0073893D01*
X0184408Y0073922D01*
X0184339Y0073953D01*
X0184272Y0073988D01*
X0184207Y0074027D01*
X0184143Y0074069D01*
X0184082Y0074114D01*
X0184023Y0074162D01*
X0183967Y0074213D01*
X0183913Y0074267D01*
X0183862Y0074323D01*
X0183814Y0074382D01*
X0183769Y0074443D01*
X0183727Y0074507D01*
X0183688Y0074572D01*
X0183653Y0074639D01*
X0183622Y0074708D01*
X0183593Y0074779D01*
X0183569Y0074851D01*
X0183548Y0074924D01*
X0183531Y0074998D01*
X0183517Y0075073D01*
X0183508Y0075148D01*
X0183502Y0075224D01*
X0183500Y0075300D01*
X0183500Y0087700D01*
X0183502Y0087776D01*
X0183508Y0087852D01*
X0183517Y0087927D01*
X0183531Y0088002D01*
X0183548Y0088076D01*
X0183569Y0088149D01*
X0183593Y0088221D01*
X0183622Y0088292D01*
X0183653Y0088361D01*
X0183688Y0088428D01*
X0183727Y0088493D01*
X0183769Y0088557D01*
X0183814Y0088618D01*
X0183862Y0088677D01*
X0183913Y0088733D01*
X0183967Y0088787D01*
X0184023Y0088838D01*
X0184082Y0088886D01*
X0184143Y0088931D01*
X0184207Y0088973D01*
X0184272Y0089012D01*
X0184339Y0089047D01*
X0184408Y0089078D01*
X0184479Y0089107D01*
X0184551Y0089131D01*
X0184624Y0089152D01*
X0184698Y0089169D01*
X0184773Y0089183D01*
X0184848Y0089192D01*
X0184924Y0089198D01*
X0185000Y0089200D01*
X0168500Y0087700D02*
X0168500Y0083500D01*
X0168500Y0079500D01*
X0168500Y0075300D01*
X0168498Y0075224D01*
X0168492Y0075148D01*
X0168483Y0075073D01*
X0168469Y0074998D01*
X0168452Y0074924D01*
X0168431Y0074851D01*
X0168407Y0074779D01*
X0168378Y0074708D01*
X0168347Y0074639D01*
X0168312Y0074572D01*
X0168273Y0074507D01*
X0168231Y0074443D01*
X0168186Y0074382D01*
X0168138Y0074323D01*
X0168087Y0074267D01*
X0168033Y0074213D01*
X0167977Y0074162D01*
X0167918Y0074114D01*
X0167857Y0074069D01*
X0167793Y0074027D01*
X0167728Y0073988D01*
X0167661Y0073953D01*
X0167592Y0073922D01*
X0167521Y0073893D01*
X0167449Y0073869D01*
X0167376Y0073848D01*
X0167302Y0073831D01*
X0167227Y0073817D01*
X0167152Y0073808D01*
X0167076Y0073802D01*
X0167000Y0073800D01*
X0168500Y0079500D02*
X0168412Y0079502D01*
X0168323Y0079508D01*
X0168235Y0079518D01*
X0168148Y0079531D01*
X0168061Y0079549D01*
X0167975Y0079570D01*
X0167890Y0079595D01*
X0167807Y0079624D01*
X0167724Y0079657D01*
X0167644Y0079693D01*
X0167565Y0079732D01*
X0167487Y0079775D01*
X0167412Y0079822D01*
X0167339Y0079872D01*
X0167268Y0079925D01*
X0167199Y0079981D01*
X0167133Y0080040D01*
X0167070Y0080102D01*
X0167010Y0080166D01*
X0166952Y0080233D01*
X0166898Y0080303D01*
X0166846Y0080375D01*
X0166798Y0080449D01*
X0166753Y0080526D01*
X0166712Y0080604D01*
X0166674Y0080684D01*
X0166640Y0080765D01*
X0166609Y0080848D01*
X0166582Y0080933D01*
X0166559Y0081018D01*
X0166540Y0081104D01*
X0166524Y0081192D01*
X0166512Y0081279D01*
X0166504Y0081367D01*
X0166500Y0081456D01*
X0166500Y0081544D01*
X0166504Y0081633D01*
X0166512Y0081721D01*
X0166524Y0081808D01*
X0166540Y0081896D01*
X0166559Y0081982D01*
X0166582Y0082067D01*
X0166609Y0082152D01*
X0166640Y0082235D01*
X0166674Y0082316D01*
X0166712Y0082396D01*
X0166753Y0082474D01*
X0166798Y0082551D01*
X0166846Y0082625D01*
X0166898Y0082697D01*
X0166952Y0082767D01*
X0167010Y0082834D01*
X0167070Y0082898D01*
X0167133Y0082960D01*
X0167199Y0083019D01*
X0167268Y0083075D01*
X0167339Y0083128D01*
X0167412Y0083178D01*
X0167487Y0083225D01*
X0167565Y0083268D01*
X0167644Y0083307D01*
X0167724Y0083343D01*
X0167807Y0083376D01*
X0167890Y0083405D01*
X0167975Y0083430D01*
X0168061Y0083451D01*
X0168148Y0083469D01*
X0168235Y0083482D01*
X0168323Y0083492D01*
X0168412Y0083498D01*
X0168500Y0083500D01*
X0168500Y0087700D02*
X0168498Y0087776D01*
X0168492Y0087852D01*
X0168483Y0087927D01*
X0168469Y0088002D01*
X0168452Y0088076D01*
X0168431Y0088149D01*
X0168407Y0088221D01*
X0168378Y0088292D01*
X0168347Y0088361D01*
X0168312Y0088428D01*
X0168273Y0088493D01*
X0168231Y0088557D01*
X0168186Y0088618D01*
X0168138Y0088677D01*
X0168087Y0088733D01*
X0168033Y0088787D01*
X0167977Y0088838D01*
X0167918Y0088886D01*
X0167857Y0088931D01*
X0167793Y0088973D01*
X0167728Y0089012D01*
X0167661Y0089047D01*
X0167592Y0089078D01*
X0167521Y0089107D01*
X0167449Y0089131D01*
X0167376Y0089152D01*
X0167302Y0089169D01*
X0167227Y0089183D01*
X0167152Y0089192D01*
X0167076Y0089198D01*
X0167000Y0089200D01*
X0217000Y0089200D02*
X0217076Y0089198D01*
X0217152Y0089192D01*
X0217227Y0089183D01*
X0217302Y0089169D01*
X0217376Y0089152D01*
X0217449Y0089131D01*
X0217521Y0089107D01*
X0217592Y0089078D01*
X0217661Y0089047D01*
X0217728Y0089012D01*
X0217793Y0088973D01*
X0217857Y0088931D01*
X0217918Y0088886D01*
X0217977Y0088838D01*
X0218033Y0088787D01*
X0218087Y0088733D01*
X0218138Y0088677D01*
X0218186Y0088618D01*
X0218231Y0088557D01*
X0218273Y0088493D01*
X0218312Y0088428D01*
X0218347Y0088361D01*
X0218378Y0088292D01*
X0218407Y0088221D01*
X0218431Y0088149D01*
X0218452Y0088076D01*
X0218469Y0088002D01*
X0218483Y0087927D01*
X0218492Y0087852D01*
X0218498Y0087776D01*
X0218500Y0087700D01*
X0218500Y0083500D01*
X0218500Y0079500D01*
X0218500Y0075300D01*
X0218498Y0075224D01*
X0218492Y0075148D01*
X0218483Y0075073D01*
X0218469Y0074998D01*
X0218452Y0074924D01*
X0218431Y0074851D01*
X0218407Y0074779D01*
X0218378Y0074708D01*
X0218347Y0074639D01*
X0218312Y0074572D01*
X0218273Y0074507D01*
X0218231Y0074443D01*
X0218186Y0074382D01*
X0218138Y0074323D01*
X0218087Y0074267D01*
X0218033Y0074213D01*
X0217977Y0074162D01*
X0217918Y0074114D01*
X0217857Y0074069D01*
X0217793Y0074027D01*
X0217728Y0073988D01*
X0217661Y0073953D01*
X0217592Y0073922D01*
X0217521Y0073893D01*
X0217449Y0073869D01*
X0217376Y0073848D01*
X0217302Y0073831D01*
X0217227Y0073817D01*
X0217152Y0073808D01*
X0217076Y0073802D01*
X0217000Y0073800D01*
X0218500Y0079500D02*
X0218412Y0079502D01*
X0218323Y0079508D01*
X0218235Y0079518D01*
X0218148Y0079531D01*
X0218061Y0079549D01*
X0217975Y0079570D01*
X0217890Y0079595D01*
X0217807Y0079624D01*
X0217724Y0079657D01*
X0217644Y0079693D01*
X0217565Y0079732D01*
X0217487Y0079775D01*
X0217412Y0079822D01*
X0217339Y0079872D01*
X0217268Y0079925D01*
X0217199Y0079981D01*
X0217133Y0080040D01*
X0217070Y0080102D01*
X0217010Y0080166D01*
X0216952Y0080233D01*
X0216898Y0080303D01*
X0216846Y0080375D01*
X0216798Y0080449D01*
X0216753Y0080526D01*
X0216712Y0080604D01*
X0216674Y0080684D01*
X0216640Y0080765D01*
X0216609Y0080848D01*
X0216582Y0080933D01*
X0216559Y0081018D01*
X0216540Y0081104D01*
X0216524Y0081192D01*
X0216512Y0081279D01*
X0216504Y0081367D01*
X0216500Y0081456D01*
X0216500Y0081544D01*
X0216504Y0081633D01*
X0216512Y0081721D01*
X0216524Y0081808D01*
X0216540Y0081896D01*
X0216559Y0081982D01*
X0216582Y0082067D01*
X0216609Y0082152D01*
X0216640Y0082235D01*
X0216674Y0082316D01*
X0216712Y0082396D01*
X0216753Y0082474D01*
X0216798Y0082551D01*
X0216846Y0082625D01*
X0216898Y0082697D01*
X0216952Y0082767D01*
X0217010Y0082834D01*
X0217070Y0082898D01*
X0217133Y0082960D01*
X0217199Y0083019D01*
X0217268Y0083075D01*
X0217339Y0083128D01*
X0217412Y0083178D01*
X0217487Y0083225D01*
X0217565Y0083268D01*
X0217644Y0083307D01*
X0217724Y0083343D01*
X0217807Y0083376D01*
X0217890Y0083405D01*
X0217975Y0083430D01*
X0218061Y0083451D01*
X0218148Y0083469D01*
X0218235Y0083482D01*
X0218323Y0083492D01*
X0218412Y0083498D01*
X0218500Y0083500D01*
X0085000Y0089200D02*
X0084924Y0089198D01*
X0084848Y0089192D01*
X0084773Y0089183D01*
X0084698Y0089169D01*
X0084624Y0089152D01*
X0084551Y0089131D01*
X0084479Y0089107D01*
X0084408Y0089078D01*
X0084339Y0089047D01*
X0084272Y0089012D01*
X0084207Y0088973D01*
X0084143Y0088931D01*
X0084082Y0088886D01*
X0084023Y0088838D01*
X0083967Y0088787D01*
X0083913Y0088733D01*
X0083862Y0088677D01*
X0083814Y0088618D01*
X0083769Y0088557D01*
X0083727Y0088493D01*
X0083688Y0088428D01*
X0083653Y0088361D01*
X0083622Y0088292D01*
X0083593Y0088221D01*
X0083569Y0088149D01*
X0083548Y0088076D01*
X0083531Y0088002D01*
X0083517Y0087927D01*
X0083508Y0087852D01*
X0083502Y0087776D01*
X0083500Y0087700D01*
X0083500Y0075300D01*
X0083502Y0075224D01*
X0083508Y0075148D01*
X0083517Y0075073D01*
X0083531Y0074998D01*
X0083548Y0074924D01*
X0083569Y0074851D01*
X0083593Y0074779D01*
X0083622Y0074708D01*
X0083653Y0074639D01*
X0083688Y0074572D01*
X0083727Y0074507D01*
X0083769Y0074443D01*
X0083814Y0074382D01*
X0083862Y0074323D01*
X0083913Y0074267D01*
X0083967Y0074213D01*
X0084023Y0074162D01*
X0084082Y0074114D01*
X0084143Y0074069D01*
X0084207Y0074027D01*
X0084272Y0073988D01*
X0084339Y0073953D01*
X0084408Y0073922D01*
X0084479Y0073893D01*
X0084551Y0073869D01*
X0084624Y0073848D01*
X0084698Y0073831D01*
X0084773Y0073817D01*
X0084848Y0073808D01*
X0084924Y0073802D01*
X0085000Y0073800D01*
X0068500Y0075300D02*
X0068500Y0079500D01*
X0068500Y0083500D01*
X0068500Y0087700D01*
X0068498Y0087776D01*
X0068492Y0087852D01*
X0068483Y0087927D01*
X0068469Y0088002D01*
X0068452Y0088076D01*
X0068431Y0088149D01*
X0068407Y0088221D01*
X0068378Y0088292D01*
X0068347Y0088361D01*
X0068312Y0088428D01*
X0068273Y0088493D01*
X0068231Y0088557D01*
X0068186Y0088618D01*
X0068138Y0088677D01*
X0068087Y0088733D01*
X0068033Y0088787D01*
X0067977Y0088838D01*
X0067918Y0088886D01*
X0067857Y0088931D01*
X0067793Y0088973D01*
X0067728Y0089012D01*
X0067661Y0089047D01*
X0067592Y0089078D01*
X0067521Y0089107D01*
X0067449Y0089131D01*
X0067376Y0089152D01*
X0067302Y0089169D01*
X0067227Y0089183D01*
X0067152Y0089192D01*
X0067076Y0089198D01*
X0067000Y0089200D01*
X0068500Y0083500D02*
X0068412Y0083498D01*
X0068323Y0083492D01*
X0068235Y0083482D01*
X0068148Y0083469D01*
X0068061Y0083451D01*
X0067975Y0083430D01*
X0067890Y0083405D01*
X0067807Y0083376D01*
X0067724Y0083343D01*
X0067644Y0083307D01*
X0067565Y0083268D01*
X0067487Y0083225D01*
X0067412Y0083178D01*
X0067339Y0083128D01*
X0067268Y0083075D01*
X0067199Y0083019D01*
X0067133Y0082960D01*
X0067070Y0082898D01*
X0067010Y0082834D01*
X0066952Y0082767D01*
X0066898Y0082697D01*
X0066846Y0082625D01*
X0066798Y0082551D01*
X0066753Y0082474D01*
X0066712Y0082396D01*
X0066674Y0082316D01*
X0066640Y0082235D01*
X0066609Y0082152D01*
X0066582Y0082067D01*
X0066559Y0081982D01*
X0066540Y0081896D01*
X0066524Y0081808D01*
X0066512Y0081721D01*
X0066504Y0081633D01*
X0066500Y0081544D01*
X0066500Y0081456D01*
X0066504Y0081367D01*
X0066512Y0081279D01*
X0066524Y0081192D01*
X0066540Y0081104D01*
X0066559Y0081018D01*
X0066582Y0080933D01*
X0066609Y0080848D01*
X0066640Y0080765D01*
X0066674Y0080684D01*
X0066712Y0080604D01*
X0066753Y0080526D01*
X0066798Y0080449D01*
X0066846Y0080375D01*
X0066898Y0080303D01*
X0066952Y0080233D01*
X0067010Y0080166D01*
X0067070Y0080102D01*
X0067133Y0080040D01*
X0067199Y0079981D01*
X0067268Y0079925D01*
X0067339Y0079872D01*
X0067412Y0079822D01*
X0067487Y0079775D01*
X0067565Y0079732D01*
X0067644Y0079693D01*
X0067724Y0079657D01*
X0067807Y0079624D01*
X0067890Y0079595D01*
X0067975Y0079570D01*
X0068061Y0079549D01*
X0068148Y0079531D01*
X0068235Y0079518D01*
X0068323Y0079508D01*
X0068412Y0079502D01*
X0068500Y0079500D01*
X0068500Y0075300D02*
X0068498Y0075224D01*
X0068492Y0075148D01*
X0068483Y0075073D01*
X0068469Y0074998D01*
X0068452Y0074924D01*
X0068431Y0074851D01*
X0068407Y0074779D01*
X0068378Y0074708D01*
X0068347Y0074639D01*
X0068312Y0074572D01*
X0068273Y0074507D01*
X0068231Y0074443D01*
X0068186Y0074382D01*
X0068138Y0074323D01*
X0068087Y0074267D01*
X0068033Y0074213D01*
X0067977Y0074162D01*
X0067918Y0074114D01*
X0067857Y0074069D01*
X0067793Y0074027D01*
X0067728Y0073988D01*
X0067661Y0073953D01*
X0067592Y0073922D01*
X0067521Y0073893D01*
X0067449Y0073869D01*
X0067376Y0073848D01*
X0067302Y0073831D01*
X0067227Y0073817D01*
X0067152Y0073808D01*
X0067076Y0073802D01*
X0067000Y0073800D01*
X0035000Y0073800D02*
X0034924Y0073802D01*
X0034848Y0073808D01*
X0034773Y0073817D01*
X0034698Y0073831D01*
X0034624Y0073848D01*
X0034551Y0073869D01*
X0034479Y0073893D01*
X0034408Y0073922D01*
X0034339Y0073953D01*
X0034272Y0073988D01*
X0034207Y0074027D01*
X0034143Y0074069D01*
X0034082Y0074114D01*
X0034023Y0074162D01*
X0033967Y0074213D01*
X0033913Y0074267D01*
X0033862Y0074323D01*
X0033814Y0074382D01*
X0033769Y0074443D01*
X0033727Y0074507D01*
X0033688Y0074572D01*
X0033653Y0074639D01*
X0033622Y0074708D01*
X0033593Y0074779D01*
X0033569Y0074851D01*
X0033548Y0074924D01*
X0033531Y0074998D01*
X0033517Y0075073D01*
X0033508Y0075148D01*
X0033502Y0075224D01*
X0033500Y0075300D01*
X0033500Y0087700D01*
X0033502Y0087776D01*
X0033508Y0087852D01*
X0033517Y0087927D01*
X0033531Y0088002D01*
X0033548Y0088076D01*
X0033569Y0088149D01*
X0033593Y0088221D01*
X0033622Y0088292D01*
X0033653Y0088361D01*
X0033688Y0088428D01*
X0033727Y0088493D01*
X0033769Y0088557D01*
X0033814Y0088618D01*
X0033862Y0088677D01*
X0033913Y0088733D01*
X0033967Y0088787D01*
X0034023Y0088838D01*
X0034082Y0088886D01*
X0034143Y0088931D01*
X0034207Y0088973D01*
X0034272Y0089012D01*
X0034339Y0089047D01*
X0034408Y0089078D01*
X0034479Y0089107D01*
X0034551Y0089131D01*
X0034624Y0089152D01*
X0034698Y0089169D01*
X0034773Y0089183D01*
X0034848Y0089192D01*
X0034924Y0089198D01*
X0035000Y0089200D01*
D16*
X0033500Y0075200D02*
X0068500Y0075200D01*
X0083500Y0075200D02*
X0118500Y0075200D01*
X0133500Y0075200D02*
X0168500Y0075200D01*
X0183500Y0075200D02*
X0218500Y0075200D01*
X0198500Y0025200D02*
X0163500Y0025200D01*
X0148500Y0025200D02*
X0113500Y0025200D01*
D17*
X0100969Y0029531D02*
X0097031Y0029531D01*
X0099000Y0033469D01*
X0100969Y0029531D01*
D18*
X0099000Y0033700D03*
M02*
