G75*
%MOIN*%
%OFA0B0*%
%FSLAX25Y25*%
%IPPOS*%
%LPD*%
%AMOC8*
5,1,8,0,0,1.08239X$1,22.5*
%
%ADD10R,0.05906X0.05118*%
%ADD11R,0.09449X0.09449*%
%ADD12C,0.05200*%
%ADD13C,0.05200*%
%ADD14C,0.06000*%
%ADD15OC8,0.05200*%
%ADD16R,0.09449X0.06299*%
%ADD17R,0.02362X0.08661*%
%ADD18R,0.08661X0.02362*%
%ADD19C,0.01000*%
%ADD20C,0.04000*%
D10*
X0046000Y0092760D03*
X0046000Y0100240D03*
X0096000Y0257760D03*
X0096000Y0265240D03*
X0096000Y0282760D03*
X0096000Y0290240D03*
X0096000Y0307760D03*
X0096000Y0315240D03*
X0116000Y0315240D03*
X0116000Y0307760D03*
X0116000Y0290240D03*
X0116000Y0282760D03*
X0116000Y0265240D03*
X0116000Y0257760D03*
X0136000Y0257760D03*
X0136000Y0265240D03*
X0136000Y0282760D03*
X0136000Y0290240D03*
X0136000Y0307760D03*
X0136000Y0315240D03*
X0156000Y0315240D03*
X0156000Y0307760D03*
X0156000Y0290240D03*
X0156000Y0282760D03*
X0156000Y0265240D03*
X0156000Y0257760D03*
X0206000Y0100240D03*
X0206000Y0092760D03*
X0226000Y0092760D03*
X0226000Y0100240D03*
D11*
X0049500Y0216657D03*
X0049500Y0236343D03*
X0021000Y0236343D03*
X0021000Y0216657D03*
D12*
X0026000Y0194100D02*
X0026000Y0188900D01*
X0021000Y0179100D02*
X0021000Y0173900D01*
X0031000Y0173900D02*
X0031000Y0179100D01*
X0036000Y0188900D02*
X0036000Y0194100D01*
X0046000Y0194100D02*
X0046000Y0188900D01*
X0041000Y0179100D02*
X0041000Y0173900D01*
X0051000Y0173900D02*
X0051000Y0179100D01*
X0056000Y0188900D02*
X0056000Y0194100D01*
X0066000Y0194100D02*
X0066000Y0188900D01*
X0061000Y0179100D02*
X0061000Y0173900D01*
X0071000Y0173900D02*
X0071000Y0179100D01*
X0076000Y0188900D02*
X0076000Y0194100D01*
X0086000Y0194100D02*
X0086000Y0188900D01*
X0081000Y0179100D02*
X0081000Y0173900D01*
X0091000Y0173900D02*
X0091000Y0179100D01*
X0096000Y0188900D02*
X0096000Y0194100D01*
X0106000Y0194100D02*
X0106000Y0188900D01*
X0101000Y0179100D02*
X0101000Y0173900D01*
X0111000Y0173900D02*
X0111000Y0179100D01*
X0116000Y0188900D02*
X0116000Y0194100D01*
X0126000Y0194100D02*
X0126000Y0188900D01*
X0121000Y0179100D02*
X0121000Y0173900D01*
X0131000Y0173900D02*
X0131000Y0179100D01*
X0136000Y0188900D02*
X0136000Y0194100D01*
X0146000Y0194100D02*
X0146000Y0188900D01*
X0141000Y0179100D02*
X0141000Y0173900D01*
X0151000Y0173900D02*
X0151000Y0179100D01*
X0156000Y0188900D02*
X0156000Y0194100D01*
X0156000Y0208900D02*
X0156000Y0214100D01*
X0146000Y0214100D02*
X0146000Y0208900D01*
X0136000Y0208900D02*
X0136000Y0214100D01*
X0136000Y0238900D02*
X0136000Y0244100D01*
X0146000Y0244100D02*
X0146000Y0238900D01*
X0156000Y0238900D02*
X0156000Y0244100D01*
X0166000Y0244100D02*
X0166000Y0238900D01*
X0176000Y0238900D02*
X0176000Y0244100D01*
X0186000Y0244100D02*
X0186000Y0238900D01*
X0196000Y0238900D02*
X0196000Y0244100D01*
X0206000Y0244100D02*
X0206000Y0238900D01*
X0216000Y0238900D02*
X0216000Y0244100D01*
X0216000Y0214100D02*
X0216000Y0208900D01*
X0216000Y0194100D02*
X0216000Y0188900D01*
X0211000Y0179100D02*
X0211000Y0173900D01*
X0206000Y0188900D02*
X0206000Y0194100D01*
X0196000Y0194100D02*
X0196000Y0188900D01*
X0191000Y0179100D02*
X0191000Y0173900D01*
X0181000Y0173900D02*
X0181000Y0179100D01*
X0176000Y0188900D02*
X0176000Y0194100D01*
X0166000Y0194100D02*
X0166000Y0188900D01*
X0161000Y0179100D02*
X0161000Y0173900D01*
X0171000Y0173900D02*
X0171000Y0179100D01*
X0186000Y0188900D02*
X0186000Y0194100D01*
X0186000Y0208900D02*
X0186000Y0214100D01*
X0176000Y0214100D02*
X0176000Y0208900D01*
X0166000Y0208900D02*
X0166000Y0214100D01*
X0196000Y0214100D02*
X0196000Y0208900D01*
X0206000Y0208900D02*
X0206000Y0214100D01*
X0201000Y0179100D02*
X0201000Y0173900D01*
X0196000Y0134100D02*
X0196000Y0128900D01*
X0191000Y0119100D02*
X0191000Y0113900D01*
X0181000Y0113900D02*
X0181000Y0119100D01*
X0176000Y0128900D02*
X0176000Y0134100D01*
X0166000Y0134100D02*
X0166000Y0128900D01*
X0161000Y0119100D02*
X0161000Y0113900D01*
X0151000Y0113900D02*
X0151000Y0119100D01*
X0146000Y0128900D02*
X0146000Y0134100D01*
X0136000Y0134100D02*
X0136000Y0128900D01*
X0131000Y0119100D02*
X0131000Y0113900D01*
X0121000Y0113900D02*
X0121000Y0119100D01*
X0116000Y0128900D02*
X0116000Y0134100D01*
X0106000Y0134100D02*
X0106000Y0128900D01*
X0101000Y0119100D02*
X0101000Y0113900D01*
X0091000Y0113900D02*
X0091000Y0119100D01*
X0086000Y0128900D02*
X0086000Y0134100D01*
X0076000Y0134100D02*
X0076000Y0128900D01*
X0071000Y0119100D02*
X0071000Y0113900D01*
X0061000Y0113900D02*
X0061000Y0119100D01*
X0056000Y0128900D02*
X0056000Y0134100D01*
X0046000Y0134100D02*
X0046000Y0128900D01*
X0041000Y0119100D02*
X0041000Y0113900D01*
X0031000Y0113900D02*
X0031000Y0119100D01*
X0026000Y0128900D02*
X0026000Y0134100D01*
X0021000Y0119100D02*
X0021000Y0113900D01*
X0036000Y0128900D02*
X0036000Y0134100D01*
X0051000Y0119100D02*
X0051000Y0113900D01*
X0066000Y0128900D02*
X0066000Y0134100D01*
X0081000Y0119100D02*
X0081000Y0113900D01*
X0096000Y0128900D02*
X0096000Y0134100D01*
X0111000Y0119100D02*
X0111000Y0113900D01*
X0126000Y0128900D02*
X0126000Y0134100D01*
X0141000Y0119100D02*
X0141000Y0113900D01*
X0156000Y0128900D02*
X0156000Y0134100D01*
X0171000Y0119100D02*
X0171000Y0113900D01*
X0186000Y0128900D02*
X0186000Y0134100D01*
X0201000Y0119100D02*
X0201000Y0113900D01*
X0211000Y0113900D02*
X0211000Y0119100D01*
X0206000Y0128900D02*
X0206000Y0134100D01*
X0216000Y0134100D02*
X0216000Y0128900D01*
D13*
X0111000Y0211500D03*
X0101000Y0211500D03*
X0091000Y0211500D03*
X0081000Y0211500D03*
X0081000Y0241500D03*
X0091000Y0241500D03*
X0101000Y0241500D03*
X0111000Y0241500D03*
D14*
X0031000Y0278500D02*
X0031000Y0284500D01*
X0021000Y0284500D02*
X0021000Y0278500D01*
X0011000Y0278500D02*
X0011000Y0284500D01*
X0012000Y0049500D02*
X0012000Y0043500D01*
X0022000Y0043500D02*
X0022000Y0049500D01*
X0206000Y0049500D02*
X0206000Y0043500D01*
X0216000Y0043500D02*
X0216000Y0049500D01*
X0226000Y0049500D02*
X0226000Y0043500D01*
X0226000Y0278500D02*
X0226000Y0284500D01*
X0216000Y0284500D02*
X0216000Y0278500D01*
X0206000Y0278500D02*
X0206000Y0284500D01*
D15*
X0053000Y0286500D03*
X0045500Y0281500D03*
X0053000Y0276500D03*
X0019000Y0086500D03*
X0019000Y0076500D03*
X0011500Y0081500D03*
D16*
X0046000Y0062406D03*
X0046000Y0050594D03*
X0046000Y0027406D03*
X0046000Y0015594D03*
D17*
X0111000Y0034610D03*
X0116000Y0034610D03*
X0121000Y0034610D03*
X0126000Y0034610D03*
X0131000Y0034610D03*
X0136000Y0034610D03*
X0141000Y0034610D03*
X0141000Y0088390D03*
X0136000Y0088390D03*
X0131000Y0088390D03*
X0126000Y0088390D03*
X0121000Y0088390D03*
X0116000Y0088390D03*
X0111000Y0088390D03*
D18*
X0104110Y0081500D03*
X0104110Y0076500D03*
X0104110Y0071500D03*
X0104110Y0066500D03*
X0104110Y0061500D03*
X0104110Y0056500D03*
X0104110Y0051500D03*
X0104110Y0046500D03*
X0104110Y0041500D03*
X0147890Y0041500D03*
X0147890Y0046500D03*
X0147890Y0051500D03*
X0147890Y0056500D03*
X0147890Y0061500D03*
X0147890Y0066500D03*
X0147890Y0071500D03*
X0147890Y0076500D03*
X0147890Y0081500D03*
D19*
X0147875Y0081500D01*
X0146625Y0082750D01*
X0139125Y0082750D01*
X0138500Y0083375D01*
X0138500Y0109625D01*
X0144125Y0109625D01*
X0151000Y0116500D01*
X0156000Y0116500D01*
X0156000Y0131500D01*
X0161000Y0116500D02*
X0161000Y0109000D01*
X0141000Y0089000D01*
X0141000Y0088390D01*
X0136000Y0088390D02*
X0136000Y0116500D01*
X0136000Y0131500D01*
X0126625Y0144625D02*
X0122250Y0140250D01*
X0080375Y0140250D01*
X0076000Y0135875D01*
X0076000Y0131500D01*
X0070375Y0134000D02*
X0070375Y0123375D01*
X0069750Y0123375D01*
X0066625Y0120250D01*
X0066625Y0107750D01*
X0070375Y0107750D01*
X0066625Y0105875D02*
X0053500Y0105875D01*
X0045375Y0114000D01*
X0045375Y0124625D01*
X0032875Y0124625D01*
X0031312Y0126187D01*
X0031000Y0125875D01*
X0030375Y0125875D01*
X0021000Y0116500D01*
X0026625Y0104000D02*
X0036625Y0114000D01*
X0036625Y0116500D01*
X0041000Y0116500D01*
X0031312Y0126187D02*
X0026000Y0131500D01*
X0018500Y0143375D02*
X0011000Y0143375D01*
X0011000Y0097125D01*
X0014750Y0093375D01*
X0019000Y0086500D02*
X0019125Y0086500D01*
X0022250Y0089625D01*
X0042875Y0089625D01*
X0046000Y0092750D01*
X0046000Y0092760D01*
X0046000Y0092125D01*
X0060375Y0092125D01*
X0066000Y0086500D01*
X0066625Y0090250D02*
X0067250Y0090250D01*
X0069750Y0087750D01*
X0069750Y0082750D01*
X0062875Y0082750D01*
X0062250Y0083375D01*
X0059125Y0079625D02*
X0078500Y0079625D01*
X0082250Y0083375D01*
X0094750Y0083375D01*
X0096625Y0079625D02*
X0097250Y0079000D01*
X0124125Y0079000D01*
X0128500Y0083375D01*
X0128500Y0094625D01*
X0132250Y0094625D01*
X0133500Y0093375D01*
X0133500Y0081500D01*
X0137250Y0081500D01*
X0139750Y0079000D01*
X0154750Y0079000D01*
X0160375Y0086500D02*
X0191625Y0086500D01*
X0196000Y0082750D02*
X0206000Y0092750D01*
X0206000Y0092760D01*
X0203500Y0097125D02*
X0175375Y0097125D01*
X0186625Y0104000D02*
X0194125Y0104000D01*
X0194750Y0104625D01*
X0222250Y0104625D01*
X0223500Y0105875D01*
X0226000Y0100250D02*
X0226000Y0100240D01*
X0226000Y0100250D02*
X0216000Y0100250D01*
X0216000Y0100875D01*
X0216000Y0100250D02*
X0206000Y0100250D01*
X0206000Y0100240D01*
X0206000Y0099625D01*
X0203500Y0097125D01*
X0204125Y0109625D02*
X0194750Y0109625D01*
X0192875Y0107750D01*
X0204125Y0109625D02*
X0211000Y0116500D01*
X0216000Y0131500D02*
X0194750Y0152750D01*
X0053500Y0152750D01*
X0051625Y0154625D01*
X0041625Y0150875D02*
X0114750Y0150875D01*
X0117875Y0147750D01*
X0122875Y0147750D02*
X0117250Y0142125D01*
X0078500Y0142125D01*
X0070375Y0134000D01*
X0081000Y0116500D02*
X0086000Y0116500D01*
X0086000Y0131500D01*
X0091000Y0124625D02*
X0096625Y0119000D01*
X0096625Y0106500D01*
X0129125Y0106500D01*
X0131625Y0104000D01*
X0125375Y0110250D02*
X0125375Y0124625D01*
X0122250Y0124625D01*
X0116000Y0122125D02*
X0113500Y0124625D01*
X0102875Y0124625D01*
X0096000Y0131500D01*
X0081000Y0116500D02*
X0092875Y0104625D01*
X0116000Y0104625D01*
X0116000Y0088390D01*
X0113500Y0083375D02*
X0113500Y0100875D01*
X0112250Y0100875D01*
X0102875Y0097125D02*
X0111000Y0089000D01*
X0111000Y0088390D01*
X0113500Y0083375D02*
X0112875Y0082750D01*
X0105375Y0082750D01*
X0104125Y0081500D01*
X0104110Y0081500D01*
X0104125Y0076500D02*
X0104110Y0076500D01*
X0104125Y0076500D02*
X0104750Y0075875D01*
X0131000Y0075875D01*
X0132875Y0074000D01*
X0220375Y0074000D01*
X0218500Y0070875D02*
X0219125Y0070250D01*
X0221625Y0070250D01*
X0224125Y0072750D01*
X0224125Y0082750D01*
X0223500Y0082750D01*
X0227250Y0086500D02*
X0215375Y0086500D01*
X0209750Y0077750D02*
X0202875Y0084625D01*
X0197875Y0079000D02*
X0199125Y0077750D01*
X0197875Y0079000D02*
X0162875Y0079000D01*
X0169750Y0062750D02*
X0179750Y0062750D01*
X0186000Y0066500D02*
X0147890Y0066500D01*
X0147875Y0066500D01*
X0147250Y0067125D01*
X0124125Y0067125D01*
X0129750Y0074000D02*
X0134750Y0069000D01*
X0188500Y0069000D01*
X0194125Y0063375D01*
X0194125Y0060250D01*
X0193500Y0060250D01*
X0191625Y0058375D01*
X0153500Y0058375D01*
X0150375Y0061500D01*
X0147890Y0061500D01*
X0140375Y0061500D01*
X0137875Y0059000D02*
X0140375Y0056500D01*
X0145375Y0051500D01*
X0147890Y0051500D01*
X0147890Y0046500D02*
X0155375Y0046500D01*
X0169125Y0032750D01*
X0174125Y0032750D01*
X0177875Y0036500D01*
X0216000Y0036500D01*
X0212250Y0032750D02*
X0207875Y0028375D01*
X0205375Y0028375D01*
X0203500Y0030250D01*
X0186000Y0030250D01*
X0178500Y0022750D01*
X0116000Y0022750D01*
X0116000Y0034610D01*
X0111000Y0034610D02*
X0111000Y0033375D01*
X0104750Y0033375D01*
X0102250Y0035875D01*
X0099125Y0035875D01*
X0097250Y0037750D01*
X0085375Y0037750D01*
X0084750Y0037125D01*
X0074750Y0037125D01*
X0074125Y0037750D01*
X0034125Y0037750D01*
X0033500Y0037125D01*
X0028500Y0037125D01*
X0026625Y0034000D02*
X0027250Y0033375D01*
X0029750Y0033375D01*
X0031625Y0035250D01*
X0052875Y0035250D01*
X0053500Y0035875D01*
X0072875Y0035875D01*
X0076625Y0032125D01*
X0101000Y0032125D01*
X0103500Y0041500D02*
X0104110Y0041500D01*
X0103500Y0041500D02*
X0101000Y0044000D01*
X0077250Y0044000D01*
X0076625Y0044625D01*
X0033500Y0044625D01*
X0024125Y0054000D01*
X0017250Y0054000D01*
X0016625Y0053375D01*
X0012250Y0046500D02*
X0012000Y0046500D01*
X0012250Y0046500D02*
X0012250Y0064000D01*
X0017250Y0069000D01*
X0101000Y0069000D01*
X0103500Y0071500D01*
X0104110Y0071500D01*
X0102875Y0067125D02*
X0021625Y0067125D01*
X0019750Y0065250D01*
X0024750Y0063375D02*
X0025375Y0062750D01*
X0046000Y0062750D01*
X0046000Y0062406D01*
X0046000Y0062125D01*
X0056625Y0062125D01*
X0058500Y0060250D01*
X0079125Y0060250D01*
X0080375Y0056500D02*
X0051625Y0056500D01*
X0046000Y0050875D01*
X0046000Y0050594D01*
X0046000Y0051500D01*
X0037875Y0051500D01*
X0032875Y0040875D02*
X0075375Y0040875D01*
X0075375Y0049000D02*
X0101000Y0049000D01*
X0103500Y0051500D01*
X0104110Y0051500D01*
X0104125Y0046500D02*
X0104110Y0046500D01*
X0104125Y0046500D02*
X0106625Y0044000D01*
X0109125Y0044000D01*
X0113500Y0039625D01*
X0113500Y0028375D01*
X0074750Y0028375D01*
X0076000Y0022750D02*
X0041625Y0022750D01*
X0038500Y0019625D01*
X0035375Y0015875D02*
X0046000Y0015875D01*
X0046000Y0015594D01*
X0046000Y0015875D02*
X0049125Y0019000D01*
X0054750Y0019000D01*
X0159125Y0019000D01*
X0155375Y0015250D02*
X0154750Y0015875D01*
X0056625Y0015875D01*
X0054750Y0014000D01*
X0046000Y0027406D02*
X0046000Y0027750D01*
X0046625Y0028375D01*
X0067250Y0028375D01*
X0054750Y0032125D02*
X0031625Y0032125D01*
X0029750Y0030250D01*
X0021625Y0030250D01*
X0026625Y0034000D02*
X0007250Y0034000D01*
X0007250Y0062125D01*
X0016000Y0070875D01*
X0031625Y0070875D01*
X0039125Y0078375D01*
X0040375Y0082125D02*
X0028500Y0082125D01*
X0024750Y0085875D01*
X0026625Y0080875D02*
X0029125Y0078375D01*
X0034125Y0078375D01*
X0036625Y0084000D02*
X0049750Y0084000D01*
X0056000Y0077750D01*
X0079750Y0077750D01*
X0081625Y0079625D01*
X0096625Y0079625D01*
X0106000Y0087125D02*
X0106625Y0086500D01*
X0106000Y0087125D02*
X0079125Y0087125D01*
X0077250Y0087125D01*
X0071000Y0093375D01*
X0066625Y0090250D02*
X0066625Y0100875D01*
X0066625Y0105875D02*
X0074750Y0097750D01*
X0082875Y0075875D02*
X0084750Y0074000D01*
X0129750Y0074000D01*
X0134125Y0077750D02*
X0131000Y0080875D01*
X0131000Y0088390D01*
X0121000Y0088390D02*
X0121000Y0102750D01*
X0131000Y0116500D02*
X0136000Y0116500D01*
X0116000Y0131500D02*
X0122875Y0138375D01*
X0176000Y0138375D01*
X0186625Y0149000D01*
X0190375Y0164000D02*
X0185062Y0169313D01*
X0185375Y0169625D01*
X0220375Y0169625D01*
X0220375Y0215250D01*
X0217250Y0218375D01*
X0216000Y0218375D01*
X0216000Y0241500D01*
X0211625Y0234625D02*
X0202875Y0234625D01*
X0196000Y0241500D01*
X0197250Y0220250D02*
X0126625Y0220250D01*
X0124125Y0217750D01*
X0129750Y0218375D02*
X0118500Y0207125D01*
X0097250Y0207125D01*
X0101000Y0211500D02*
X0096625Y0215875D01*
X0050375Y0215875D01*
X0049750Y0216500D01*
X0049500Y0216657D01*
X0049125Y0217125D01*
X0021000Y0217125D01*
X0021000Y0216657D01*
X0021000Y0217125D02*
X0012875Y0217125D01*
X0012250Y0217125D01*
X0012250Y0258375D01*
X0028187Y0274313D01*
X0021000Y0281500D01*
X0028187Y0274313D02*
X0028500Y0274000D01*
X0037875Y0274000D01*
X0045375Y0281500D01*
X0045500Y0281500D01*
X0053000Y0276500D02*
X0053500Y0276500D01*
X0081625Y0248375D01*
X0149125Y0248375D01*
X0156000Y0241500D01*
X0156000Y0257760D02*
X0156000Y0258375D01*
X0155375Y0258375D01*
X0151625Y0262125D01*
X0147875Y0262125D01*
X0137250Y0251500D01*
X0099125Y0251500D01*
X0098500Y0252125D01*
X0097875Y0255875D02*
X0096000Y0257750D01*
X0096000Y0257760D01*
X0097875Y0255875D02*
X0102250Y0255875D01*
X0110375Y0255875D01*
X0112875Y0253375D01*
X0131625Y0253375D01*
X0136000Y0257750D01*
X0136000Y0257760D01*
X0138500Y0262125D02*
X0147875Y0262125D01*
X0156000Y0265240D02*
X0156000Y0265250D01*
X0165375Y0274625D01*
X0167875Y0274625D01*
X0164125Y0282125D02*
X0156625Y0289625D01*
X0156000Y0289625D01*
X0156000Y0290240D01*
X0156000Y0290250D01*
X0136000Y0290250D01*
X0136000Y0290240D01*
X0136000Y0283375D02*
X0132875Y0283375D01*
X0126937Y0289313D01*
X0135375Y0297750D01*
X0154750Y0297750D01*
X0171625Y0314625D01*
X0182875Y0314625D01*
X0216000Y0281500D01*
X0206000Y0281500D02*
X0202875Y0278375D01*
X0096000Y0278375D01*
X0096000Y0265240D01*
X0096000Y0264625D01*
X0095375Y0264625D01*
X0085375Y0254625D01*
X0081000Y0241500D02*
X0054750Y0241500D01*
X0049750Y0236500D01*
X0049500Y0236343D01*
X0044125Y0230250D02*
X0034438Y0239937D01*
X0042250Y0247750D01*
X0034438Y0239937D02*
X0031000Y0236500D01*
X0021000Y0236500D01*
X0021000Y0236343D01*
X0044125Y0230250D02*
X0092250Y0230250D01*
X0111000Y0211500D01*
X0109750Y0203375D02*
X0147875Y0203375D01*
X0156000Y0211500D01*
X0159125Y0218375D02*
X0129750Y0218375D01*
X0116000Y0199625D02*
X0147250Y0199625D01*
X0151000Y0203375D01*
X0167875Y0203375D01*
X0176000Y0211500D01*
X0166000Y0211500D02*
X0159125Y0218375D01*
X0153500Y0224000D02*
X0174125Y0224000D01*
X0196000Y0211500D02*
X0184125Y0199625D01*
X0156000Y0199625D01*
X0153500Y0224000D02*
X0136000Y0241500D01*
X0138500Y0262125D02*
X0136000Y0264625D01*
X0136000Y0265240D01*
X0142250Y0274625D02*
X0125375Y0274625D01*
X0116000Y0265250D01*
X0116000Y0265240D01*
X0118500Y0260875D02*
X0116000Y0258375D01*
X0116000Y0257760D01*
X0118500Y0260875D02*
X0119125Y0260875D01*
X0127250Y0269000D01*
X0122250Y0282125D02*
X0116625Y0282125D01*
X0116000Y0282750D01*
X0116000Y0282760D01*
X0116000Y0290240D02*
X0116000Y0290250D01*
X0102875Y0303375D01*
X0083500Y0303375D01*
X0080375Y0306500D01*
X0080375Y0314625D01*
X0096000Y0314625D01*
X0096000Y0315240D01*
X0096000Y0315250D01*
X0116000Y0315250D01*
X0116000Y0315240D01*
X0116000Y0307760D02*
X0116000Y0307750D01*
X0136000Y0307750D01*
X0136000Y0307760D01*
X0136000Y0307750D02*
X0141625Y0302125D01*
X0152875Y0302125D01*
X0153500Y0301500D01*
X0154125Y0305875D02*
X0149750Y0305875D01*
X0154125Y0305875D02*
X0156000Y0307750D01*
X0156000Y0307760D01*
X0156000Y0314625D02*
X0156000Y0315240D01*
X0156000Y0315250D01*
X0136000Y0315250D01*
X0136000Y0315240D01*
X0156000Y0314625D02*
X0171625Y0314625D01*
X0156000Y0282760D02*
X0156000Y0282750D01*
X0150375Y0282750D01*
X0149750Y0282125D01*
X0136000Y0282760D02*
X0136000Y0283375D01*
X0126937Y0289313D02*
X0111000Y0305250D01*
X0098500Y0305250D01*
X0096000Y0307750D01*
X0096000Y0307760D01*
X0096000Y0307750D02*
X0084125Y0307750D01*
X0096000Y0290240D02*
X0096000Y0289625D01*
X0098500Y0287125D01*
X0102250Y0287125D01*
X0096000Y0282760D02*
X0096000Y0278375D01*
X0116000Y0191500D02*
X0106625Y0182125D01*
X0106000Y0182125D01*
X0105687Y0181812D01*
X0104125Y0183375D01*
X0046625Y0183375D01*
X0046625Y0174000D01*
X0027250Y0154625D01*
X0034125Y0169625D02*
X0041000Y0176500D01*
X0034125Y0169625D02*
X0010375Y0169625D01*
X0009125Y0168375D01*
X0007250Y0147125D02*
X0110375Y0147125D01*
X0100375Y0160250D02*
X0231000Y0160250D01*
X0231000Y0036500D01*
X0216625Y0022125D01*
X0211000Y0026500D02*
X0221625Y0037125D01*
X0221625Y0068375D01*
X0222875Y0068375D01*
X0227250Y0072750D01*
X0227250Y0086500D01*
X0228500Y0088375D02*
X0226000Y0088375D01*
X0226000Y0092760D01*
X0228500Y0088375D02*
X0229125Y0087750D01*
X0229125Y0046500D01*
X0226000Y0046500D01*
X0220375Y0030875D02*
X0202875Y0013375D01*
X0182250Y0013375D01*
X0181000Y0012125D01*
X0177250Y0008375D01*
X0146625Y0008375D01*
X0142875Y0012125D01*
X0146000Y0028375D02*
X0134125Y0028375D01*
X0131000Y0031500D01*
X0131000Y0034610D01*
X0131000Y0032125D01*
X0127250Y0028375D01*
X0121000Y0028375D01*
X0121000Y0034610D01*
X0133500Y0050250D02*
X0136000Y0050250D01*
X0136000Y0034610D01*
X0141000Y0034625D02*
X0141000Y0034610D01*
X0141000Y0034625D02*
X0155375Y0034625D01*
X0155375Y0041500D02*
X0147890Y0041500D01*
X0152875Y0049000D02*
X0142875Y0049000D01*
X0137875Y0054000D01*
X0133500Y0054000D01*
X0133500Y0055250D01*
X0133500Y0054000D02*
X0096625Y0054000D01*
X0096000Y0054625D01*
X0095375Y0059000D02*
X0137875Y0059000D01*
X0133500Y0062750D02*
X0132875Y0063375D01*
X0109750Y0063375D01*
X0109125Y0064000D01*
X0087875Y0064000D01*
X0084125Y0060250D01*
X0080375Y0056500D01*
X0083500Y0054625D02*
X0061000Y0054625D01*
X0054750Y0048375D01*
X0067250Y0050875D02*
X0069125Y0052750D01*
X0089125Y0052750D01*
X0091000Y0054625D01*
X0095375Y0059000D01*
X0089750Y0060875D02*
X0083500Y0054625D01*
X0089750Y0060875D02*
X0102875Y0060875D01*
X0103500Y0061500D01*
X0104110Y0061500D01*
X0104110Y0066500D02*
X0103500Y0066500D01*
X0102875Y0067125D01*
X0102875Y0097125D02*
X0102875Y0100875D01*
X0071000Y0156500D02*
X0159750Y0156500D01*
X0184750Y0169625D02*
X0127875Y0169625D01*
X0121000Y0176500D01*
X0116625Y0174000D02*
X0116625Y0184625D01*
X0207250Y0184625D01*
X0211625Y0189000D01*
X0211625Y0234625D01*
X0197250Y0220250D02*
X0206000Y0211500D01*
X0207875Y0203375D02*
X0203500Y0203375D01*
X0196000Y0210875D01*
X0196000Y0211500D01*
X0184750Y0169625D02*
X0185062Y0169313D01*
X0116625Y0174000D02*
X0112250Y0169625D01*
X0085375Y0169625D01*
X0081625Y0165875D01*
X0080375Y0162125D02*
X0071000Y0171500D01*
X0071000Y0176500D01*
X0080375Y0162125D02*
X0098500Y0162125D01*
X0100375Y0160250D01*
X0111000Y0176500D02*
X0105687Y0181812D01*
X0071000Y0156500D02*
X0051000Y0176500D01*
X0007250Y0147125D02*
X0007250Y0079625D01*
X0011000Y0075875D01*
X0012250Y0080875D02*
X0011625Y0081500D01*
X0011500Y0081500D01*
X0012250Y0080875D02*
X0026625Y0080875D01*
X0034750Y0085875D02*
X0036625Y0084000D01*
X0040375Y0082125D02*
X0044125Y0078375D01*
X0057250Y0081500D02*
X0059125Y0079625D01*
X0046000Y0100240D02*
X0046000Y0100250D01*
X0019750Y0100250D01*
X0069125Y0009625D02*
X0072250Y0006500D01*
X0185375Y0006500D01*
X0188500Y0009625D01*
X0181625Y0022750D02*
X0200375Y0022750D01*
X0206625Y0032125D02*
X0184750Y0032125D01*
X0179125Y0026500D01*
X0151625Y0026500D01*
X0147875Y0030250D02*
X0146000Y0028375D01*
X0147875Y0030250D02*
X0176625Y0030250D01*
X0172875Y0036500D02*
X0182875Y0046500D01*
X0206000Y0046500D01*
X0196625Y0052750D02*
X0206000Y0062125D01*
X0196000Y0057125D02*
X0195375Y0056500D01*
X0154125Y0056500D01*
X0147890Y0056500D01*
X0154125Y0056500D02*
X0154125Y0050250D01*
X0152875Y0049000D01*
X0149125Y0070875D02*
X0218500Y0070875D01*
X0196625Y0052750D02*
X0176000Y0052750D01*
X0174125Y0050875D01*
X0186000Y0066500D02*
X0190375Y0062125D01*
X0188500Y0026500D02*
X0211000Y0026500D01*
X0181625Y0022750D02*
X0171000Y0012125D01*
X0149125Y0070875D02*
X0148500Y0071500D01*
X0147890Y0071500D01*
D20*
X0021625Y0030250D03*
X0028500Y0037125D03*
X0032875Y0040875D03*
X0037875Y0051500D03*
X0024750Y0063375D03*
X0019750Y0065250D03*
X0016625Y0053375D03*
X0011000Y0075875D03*
X0014750Y0093375D03*
X0019750Y0100250D03*
X0026625Y0104000D03*
X0024750Y0085875D03*
X0034750Y0085875D03*
X0034125Y0078375D03*
X0039125Y0078375D03*
X0044125Y0078375D03*
X0057250Y0081500D03*
X0062250Y0083375D03*
X0066000Y0086500D03*
X0071000Y0093375D03*
X0074750Y0097750D03*
X0066625Y0100875D03*
X0070375Y0107750D03*
X0079125Y0087125D03*
X0082875Y0075875D03*
X0094750Y0083375D03*
X0097250Y0079000D03*
X0106625Y0086500D03*
X0102875Y0100875D03*
X0112250Y0100875D03*
X0121000Y0102750D03*
X0125375Y0110250D03*
X0131625Y0104000D03*
X0122250Y0124625D03*
X0116000Y0122125D03*
X0126625Y0144625D03*
X0122875Y0147750D03*
X0117875Y0147750D03*
X0110375Y0147125D03*
X0100375Y0160250D03*
X0081625Y0165875D03*
X0091000Y0124625D03*
X0051625Y0154625D03*
X0041625Y0150875D03*
X0027250Y0154625D03*
X0018500Y0143375D03*
X0009125Y0168375D03*
X0012875Y0217125D03*
X0042250Y0247750D03*
X0084125Y0307750D03*
X0102250Y0287125D03*
X0122250Y0282125D03*
X0127250Y0269000D03*
X0142250Y0274625D03*
X0149750Y0282125D03*
X0153500Y0301500D03*
X0149750Y0305875D03*
X0164125Y0282125D03*
X0167875Y0274625D03*
X0174125Y0224000D03*
X0156000Y0199625D03*
X0124125Y0217750D03*
X0116000Y0199625D03*
X0109750Y0203375D03*
X0097250Y0207125D03*
X0098500Y0252125D03*
X0102250Y0255875D03*
X0085375Y0254625D03*
X0159750Y0156500D03*
X0186625Y0149000D03*
X0190375Y0164000D03*
X0207875Y0203375D03*
X0192875Y0107750D03*
X0186625Y0104000D03*
X0175375Y0097125D03*
X0162875Y0079000D03*
X0160375Y0086500D03*
X0154750Y0079000D03*
X0169750Y0062750D03*
X0179750Y0062750D03*
X0174125Y0050875D03*
X0172875Y0036500D03*
X0176625Y0030250D03*
X0188500Y0026500D03*
X0200375Y0022750D03*
X0206625Y0032125D03*
X0212250Y0032750D03*
X0216000Y0036500D03*
X0220375Y0030875D03*
X0216625Y0022125D03*
X0196000Y0057125D03*
X0190375Y0062125D03*
X0199125Y0077750D03*
X0196000Y0082750D03*
X0191625Y0086500D03*
X0202875Y0084625D03*
X0209750Y0077750D03*
X0215375Y0086500D03*
X0223500Y0082750D03*
X0220375Y0074000D03*
X0206000Y0062125D03*
X0216000Y0100875D03*
X0223500Y0105875D03*
X0159125Y0019000D03*
X0155375Y0015250D03*
X0151625Y0026500D03*
X0146000Y0028375D03*
X0155375Y0034625D03*
X0155375Y0041500D03*
X0155375Y0046500D03*
X0140375Y0056500D03*
X0140375Y0061500D03*
X0133500Y0062750D03*
X0133500Y0055250D03*
X0133500Y0050250D03*
X0124125Y0067125D03*
X0134125Y0077750D03*
X0101000Y0032125D03*
X0096000Y0054625D03*
X0091000Y0054625D03*
X0084125Y0060250D03*
X0079125Y0060250D03*
X0075375Y0049000D03*
X0075375Y0040875D03*
X0067250Y0050875D03*
X0058500Y0060250D03*
X0054750Y0048375D03*
X0054750Y0032125D03*
X0054750Y0019000D03*
X0054750Y0014000D03*
X0067250Y0028375D03*
X0074750Y0028375D03*
X0076000Y0022750D03*
X0069125Y0009625D03*
X0038500Y0019625D03*
X0035375Y0015875D03*
X0142875Y0012125D03*
X0171000Y0012125D03*
X0181000Y0012125D03*
X0188500Y0009625D03*
M02*
