G75*
%MOIN*%
%OFA0B0*%
%FSLAX25Y25*%
%IPPOS*%
%LPD*%
%AMOC8*
5,1,8,0,0,1.08239X$1,22.5*
%
%ADD10C,0.00000*%
%ADD11C,0.00400*%
%ADD12C,0.00300*%
%ADD13C,0.01000*%
%ADD14C,0.00500*%
%ADD15C,0.00800*%
%ADD16C,0.00600*%
%ADD17R,0.08661X0.00787*%
%ADD18R,0.10630X0.02559*%
%ADD19C,0.00200*%
%ADD20R,0.02000X0.04500*%
%ADD21R,0.05512X0.02559*%
%ADD22R,0.05600X0.01400*%
%ADD23R,0.05709X0.02953*%
%ADD24R,0.06800X0.02200*%
%ADD25R,0.06200X0.02400*%
%ADD26R,0.02953X0.05709*%
D10*
X0001000Y0001000D02*
X0001000Y0328461D01*
X0238500Y0328461D01*
X0238500Y0001000D01*
X0001000Y0001000D01*
X0236000Y0328500D02*
X0238500Y0328461D01*
D11*
X0187537Y0300631D02*
X0184467Y0300631D01*
X0183815Y0302201D02*
X0173185Y0302201D01*
X0173185Y0314799D01*
X0183815Y0314799D01*
X0183815Y0302201D01*
X0186002Y0302165D02*
X0186002Y0299096D01*
X0183815Y0284799D02*
X0173185Y0284799D01*
X0173185Y0272201D01*
X0183815Y0272201D01*
X0183815Y0284799D01*
X0186002Y0272165D02*
X0186002Y0269096D01*
X0187537Y0270631D02*
X0184467Y0270631D01*
X0160000Y0248598D02*
X0157098Y0248598D01*
X0157000Y0243402D02*
X0160000Y0243402D01*
X0146565Y0268700D02*
X0148300Y0270435D01*
X0148300Y0272170D01*
X0146565Y0273904D01*
X0144862Y0273037D02*
X0144862Y0269567D01*
X0143995Y0268700D01*
X0142260Y0268700D01*
X0141393Y0269567D01*
X0139706Y0268700D02*
X0137971Y0270435D01*
X0137971Y0272170D01*
X0139706Y0273904D01*
X0141393Y0273037D02*
X0142260Y0273904D01*
X0143995Y0273904D01*
X0144862Y0273037D01*
X0145433Y0278700D02*
X0146968Y0278700D01*
X0147735Y0279467D01*
X0147735Y0281002D01*
X0146968Y0281769D01*
X0145433Y0281769D01*
X0144666Y0281002D01*
X0144666Y0280235D01*
X0147735Y0280235D01*
X0149270Y0280235D02*
X0150805Y0278700D01*
X0152339Y0280235D01*
X0152339Y0283304D01*
X0149270Y0283304D02*
X0149270Y0280235D01*
X0143131Y0280235D02*
X0141597Y0281769D01*
X0140830Y0281769D01*
X0139295Y0281002D02*
X0138528Y0281769D01*
X0136226Y0281769D01*
X0134691Y0281769D02*
X0133924Y0281769D01*
X0133924Y0278700D01*
X0134691Y0278700D02*
X0133156Y0278700D01*
X0131622Y0279467D02*
X0131622Y0281002D01*
X0130854Y0281769D01*
X0129320Y0281769D01*
X0128552Y0281002D01*
X0128552Y0279467D01*
X0129320Y0278700D01*
X0130854Y0278700D01*
X0131622Y0279467D01*
X0133924Y0283304D02*
X0133924Y0284071D01*
X0136993Y0280235D02*
X0138528Y0280235D01*
X0139295Y0281002D01*
X0139295Y0278700D02*
X0136993Y0278700D01*
X0136226Y0279467D01*
X0136993Y0280235D01*
X0130245Y0273904D02*
X0131112Y0273037D01*
X0130245Y0273904D02*
X0128510Y0273904D01*
X0127642Y0273037D01*
X0127642Y0272170D01*
X0131112Y0268700D01*
X0127642Y0268700D01*
X0125956Y0269567D02*
X0125956Y0273037D01*
X0125088Y0273904D01*
X0123353Y0273904D01*
X0122486Y0273037D01*
X0125956Y0269567D01*
X0125088Y0268700D01*
X0123353Y0268700D01*
X0122486Y0269567D01*
X0122486Y0273037D01*
X0120799Y0272170D02*
X0119064Y0273904D01*
X0119064Y0268700D01*
X0117330Y0268700D02*
X0120799Y0268700D01*
X0115643Y0269567D02*
X0115643Y0270435D01*
X0114775Y0271302D01*
X0113041Y0271302D01*
X0112173Y0270435D01*
X0112173Y0269567D01*
X0113041Y0268700D01*
X0114775Y0268700D01*
X0115643Y0269567D01*
X0114775Y0271302D02*
X0115643Y0272170D01*
X0115643Y0273037D01*
X0114775Y0273904D01*
X0113041Y0273904D01*
X0112173Y0273037D01*
X0112173Y0272170D01*
X0113041Y0271302D01*
X0113206Y0278700D02*
X0112439Y0278700D01*
X0112439Y0279467D01*
X0113206Y0279467D01*
X0113206Y0278700D01*
X0114741Y0278700D02*
X0117810Y0278700D01*
X0116275Y0278700D02*
X0116275Y0283304D01*
X0117810Y0281769D01*
X0110904Y0281002D02*
X0107835Y0281002D01*
X0108602Y0278700D02*
X0108602Y0283304D01*
X0110904Y0281002D01*
X0123948Y0281002D02*
X0123948Y0278700D01*
X0123948Y0281002D02*
X0124716Y0281769D01*
X0127018Y0281769D01*
X0127018Y0278700D01*
X0143131Y0278700D02*
X0143131Y0281769D01*
X0100000Y0253598D02*
X0097000Y0253598D01*
X0097000Y0248402D02*
X0099902Y0248402D01*
X0090000Y0243598D02*
X0087000Y0243598D01*
X0087000Y0238402D02*
X0089902Y0238402D01*
X0083502Y0269096D02*
X0083502Y0272165D01*
X0085037Y0270631D02*
X0081967Y0270631D01*
X0081315Y0272201D02*
X0070685Y0272201D01*
X0070685Y0284799D01*
X0081315Y0284799D01*
X0081315Y0272201D01*
X0083502Y0299096D02*
X0083502Y0302165D01*
X0085037Y0300631D02*
X0081967Y0300631D01*
X0081315Y0302201D02*
X0070685Y0302201D01*
X0070685Y0314799D01*
X0081315Y0314799D01*
X0081315Y0302201D01*
X0082032Y0175304D02*
X0082032Y0171200D01*
X0083400Y0171200D02*
X0080664Y0171200D01*
X0079256Y0171200D02*
X0076521Y0171200D01*
X0077888Y0171200D02*
X0077888Y0175304D01*
X0079256Y0173936D01*
X0075113Y0175304D02*
X0073745Y0173936D01*
X0073745Y0172568D01*
X0075113Y0171200D01*
X0075823Y0168304D02*
X0077191Y0168304D01*
X0077875Y0167620D01*
X0079270Y0168304D02*
X0080637Y0166936D01*
X0080637Y0165568D01*
X0079270Y0164200D01*
X0077875Y0164200D02*
X0075139Y0166936D01*
X0075139Y0167620D01*
X0075823Y0168304D01*
X0073731Y0167620D02*
X0073048Y0168304D01*
X0071680Y0168304D01*
X0070996Y0167620D01*
X0073731Y0164884D01*
X0073048Y0164200D01*
X0071680Y0164200D01*
X0070996Y0164884D01*
X0070996Y0167620D01*
X0069588Y0166936D02*
X0068220Y0168304D01*
X0068220Y0164200D01*
X0069588Y0164200D02*
X0066852Y0164200D01*
X0065444Y0164884D02*
X0062709Y0167620D01*
X0062709Y0164884D01*
X0063393Y0164200D01*
X0064760Y0164200D01*
X0065444Y0164884D01*
X0065444Y0167620D01*
X0064760Y0168304D01*
X0063393Y0168304D01*
X0062709Y0167620D01*
X0061301Y0168304D02*
X0059933Y0166936D01*
X0059933Y0165568D01*
X0061301Y0164200D01*
X0060617Y0152804D02*
X0059249Y0152804D01*
X0058565Y0152120D01*
X0057157Y0152120D02*
X0057157Y0149384D01*
X0056473Y0148700D01*
X0055106Y0148700D01*
X0054422Y0149384D01*
X0054422Y0152120D02*
X0055106Y0152804D01*
X0056473Y0152804D01*
X0057157Y0152120D01*
X0058565Y0150068D02*
X0058565Y0149384D01*
X0059249Y0148700D01*
X0060617Y0148700D01*
X0061301Y0149384D01*
X0062709Y0149384D02*
X0063393Y0148700D01*
X0065444Y0148700D01*
X0065444Y0152804D01*
X0063393Y0152804D01*
X0062709Y0152120D01*
X0062709Y0151436D01*
X0063393Y0150752D01*
X0065444Y0150752D01*
X0066852Y0150752D02*
X0067536Y0150068D01*
X0069588Y0150068D01*
X0068220Y0150068D02*
X0066852Y0148700D01*
X0066852Y0150752D02*
X0066852Y0152120D01*
X0067536Y0152804D01*
X0069588Y0152804D01*
X0069588Y0148700D01*
X0063393Y0150752D02*
X0062709Y0150068D01*
X0062709Y0149384D01*
X0061301Y0151436D02*
X0061301Y0152120D01*
X0060617Y0152804D01*
X0061301Y0151436D02*
X0060617Y0150752D01*
X0059249Y0150752D01*
X0058565Y0150068D01*
X0048870Y0150068D02*
X0048870Y0151436D01*
X0047502Y0152804D01*
X0046108Y0152120D02*
X0045424Y0152804D01*
X0044056Y0152804D01*
X0043372Y0152120D01*
X0043372Y0151436D01*
X0046108Y0148700D01*
X0043372Y0148700D01*
X0041964Y0149384D02*
X0041964Y0152120D01*
X0041280Y0152804D01*
X0039913Y0152804D01*
X0039229Y0152120D01*
X0041964Y0149384D01*
X0041280Y0148700D01*
X0039913Y0148700D01*
X0039229Y0149384D01*
X0039229Y0152120D01*
X0037821Y0151436D02*
X0036453Y0152804D01*
X0036453Y0148700D01*
X0037821Y0148700D02*
X0035085Y0148700D01*
X0033677Y0149384D02*
X0033677Y0150068D01*
X0032993Y0150752D01*
X0031625Y0150752D01*
X0030942Y0150068D01*
X0030942Y0149384D01*
X0031625Y0148700D01*
X0032993Y0148700D01*
X0033677Y0149384D01*
X0032993Y0150752D02*
X0033677Y0151436D01*
X0033677Y0152120D01*
X0032993Y0152804D01*
X0031625Y0152804D01*
X0030942Y0152120D01*
X0030942Y0151436D01*
X0031625Y0150752D01*
X0029534Y0152804D02*
X0028166Y0151436D01*
X0028166Y0150068D01*
X0029534Y0148700D01*
X0047502Y0148700D02*
X0048870Y0150068D01*
X0073731Y0164884D02*
X0073731Y0167620D01*
X0075139Y0164200D02*
X0077875Y0164200D01*
X0086189Y0165568D02*
X0088924Y0165568D01*
X0088924Y0166252D02*
X0088241Y0166936D01*
X0086873Y0166936D01*
X0086189Y0166252D01*
X0086189Y0165568D01*
X0086873Y0164200D02*
X0088241Y0164200D01*
X0088924Y0164884D01*
X0088924Y0166252D01*
X0090332Y0166252D02*
X0090332Y0164884D01*
X0091016Y0164200D01*
X0093068Y0164200D01*
X0093068Y0162832D02*
X0093068Y0166936D01*
X0091016Y0166936D01*
X0090332Y0166252D01*
X0091687Y0171200D02*
X0088951Y0171200D01*
X0087543Y0171884D02*
X0086859Y0171200D01*
X0085492Y0171200D01*
X0084808Y0171884D01*
X0084808Y0174620D01*
X0087543Y0171884D01*
X0087543Y0174620D01*
X0086859Y0175304D01*
X0085492Y0175304D01*
X0084808Y0174620D01*
X0083400Y0173936D02*
X0082032Y0175304D01*
X0088951Y0174620D02*
X0089635Y0175304D01*
X0091003Y0175304D01*
X0091687Y0174620D01*
X0093081Y0175304D02*
X0094449Y0173936D01*
X0094449Y0172568D01*
X0093081Y0171200D01*
X0091687Y0171200D02*
X0088951Y0173936D01*
X0088951Y0174620D01*
X0095146Y0168987D02*
X0095146Y0168304D01*
X0095146Y0166936D02*
X0095146Y0164200D01*
X0095830Y0164200D02*
X0094462Y0164200D01*
X0095146Y0166936D02*
X0095830Y0166936D01*
X0097238Y0168304D02*
X0098606Y0168304D01*
X0097922Y0168304D02*
X0097922Y0164884D01*
X0098606Y0164200D01*
X0099290Y0164200D01*
X0099974Y0164884D01*
X0100684Y0171200D02*
X0100001Y0171884D01*
X0100001Y0173252D01*
X0100684Y0173936D01*
X0102052Y0173936D01*
X0102736Y0173252D01*
X0102736Y0171884D01*
X0102052Y0171200D01*
X0100684Y0171200D01*
X0104137Y0173936D02*
X0104821Y0173936D01*
X0106189Y0172568D01*
X0106189Y0171200D02*
X0106189Y0173936D01*
X0107597Y0173252D02*
X0107597Y0171200D01*
X0109649Y0171200D01*
X0110333Y0171884D01*
X0109649Y0172568D01*
X0107597Y0172568D01*
X0107597Y0173252D02*
X0108281Y0173936D01*
X0109649Y0173936D01*
X0111741Y0174620D02*
X0112425Y0175304D01*
X0113792Y0175304D01*
X0114476Y0174620D01*
X0114476Y0171884D01*
X0113792Y0171200D01*
X0112425Y0171200D01*
X0111741Y0171884D01*
X0112404Y0168304D02*
X0112404Y0164200D01*
X0110353Y0164200D01*
X0109669Y0164884D01*
X0109669Y0166252D01*
X0110353Y0166936D01*
X0112404Y0166936D01*
X0108261Y0166936D02*
X0108261Y0164884D01*
X0107577Y0164200D01*
X0105525Y0164200D01*
X0105525Y0163516D02*
X0106209Y0162832D01*
X0106893Y0162832D01*
X0105525Y0163516D02*
X0105525Y0166936D01*
X0105499Y0151436D02*
X0104815Y0151436D01*
X0104131Y0150752D01*
X0103447Y0151436D01*
X0102763Y0150752D01*
X0102763Y0148700D01*
X0104131Y0148700D02*
X0104131Y0150752D01*
X0105499Y0151436D02*
X0105499Y0148700D01*
X0106906Y0150068D02*
X0109642Y0150068D01*
X0109642Y0150752D02*
X0108958Y0151436D01*
X0107590Y0151436D01*
X0106906Y0150752D01*
X0106906Y0150068D01*
X0107590Y0148700D02*
X0108958Y0148700D01*
X0109642Y0149384D01*
X0109642Y0150752D01*
X0111050Y0151436D02*
X0112418Y0148700D01*
X0113786Y0151436D01*
X0115194Y0150752D02*
X0115877Y0151436D01*
X0117245Y0151436D01*
X0117929Y0150752D01*
X0117929Y0149384D01*
X0117245Y0148700D01*
X0115877Y0148700D01*
X0115194Y0149384D01*
X0115194Y0150752D01*
X0119330Y0151436D02*
X0120014Y0151436D01*
X0121382Y0150068D01*
X0121382Y0148700D02*
X0121382Y0151436D01*
X0122790Y0150752D02*
X0122790Y0149384D01*
X0123474Y0148700D01*
X0125526Y0148700D01*
X0125526Y0147332D02*
X0125526Y0151436D01*
X0123474Y0151436D01*
X0122790Y0150752D01*
X0126934Y0150752D02*
X0126934Y0148700D01*
X0128301Y0148700D02*
X0128301Y0150752D01*
X0127617Y0151436D01*
X0126934Y0150752D01*
X0128301Y0150752D02*
X0128985Y0151436D01*
X0129669Y0151436D01*
X0129669Y0148700D01*
X0131064Y0148700D02*
X0132432Y0148700D01*
X0131748Y0148700D02*
X0131748Y0151436D01*
X0132432Y0151436D01*
X0131748Y0152804D02*
X0131748Y0153487D01*
X0137983Y0152804D02*
X0137983Y0148700D01*
X0140035Y0148700D01*
X0140719Y0149384D01*
X0140719Y0150752D01*
X0140035Y0151436D01*
X0137983Y0151436D01*
X0142127Y0150752D02*
X0142127Y0148700D01*
X0142127Y0150752D02*
X0142810Y0151436D01*
X0144862Y0151436D01*
X0144862Y0148700D01*
X0146270Y0148700D02*
X0148322Y0148700D01*
X0149006Y0149384D01*
X0148322Y0150068D01*
X0146270Y0150068D01*
X0146270Y0150752D02*
X0146270Y0148700D01*
X0146270Y0150752D02*
X0146954Y0151436D01*
X0148322Y0151436D01*
X0154557Y0150752D02*
X0154557Y0148700D01*
X0154557Y0150752D02*
X0155241Y0151436D01*
X0157293Y0151436D01*
X0157293Y0148700D01*
X0158701Y0148700D02*
X0160752Y0148700D01*
X0161436Y0149384D01*
X0161436Y0150752D01*
X0160752Y0151436D01*
X0158701Y0151436D01*
X0158701Y0148016D01*
X0159385Y0147332D01*
X0160069Y0147332D01*
X0162831Y0148700D02*
X0164199Y0148700D01*
X0163515Y0148700D02*
X0163515Y0151436D01*
X0164199Y0151436D01*
X0165607Y0151436D02*
X0167658Y0151436D01*
X0168342Y0150752D01*
X0167658Y0150068D01*
X0166291Y0150068D01*
X0165607Y0149384D01*
X0166291Y0148700D01*
X0168342Y0148700D01*
X0169750Y0150068D02*
X0172486Y0150068D01*
X0172486Y0150752D02*
X0171802Y0151436D01*
X0170434Y0151436D01*
X0169750Y0150752D01*
X0169750Y0150068D01*
X0170434Y0148700D02*
X0171802Y0148700D01*
X0172486Y0149384D01*
X0172486Y0150752D01*
X0173894Y0151436D02*
X0175945Y0151436D01*
X0176629Y0150752D01*
X0176629Y0149384D01*
X0175945Y0148700D01*
X0173894Y0148700D01*
X0173894Y0152804D01*
X0182181Y0152804D02*
X0182181Y0148700D01*
X0184233Y0148700D01*
X0184916Y0149384D01*
X0184916Y0150752D01*
X0184233Y0151436D01*
X0182181Y0151436D01*
X0186318Y0151436D02*
X0187002Y0151436D01*
X0188369Y0150068D01*
X0188369Y0148700D02*
X0188369Y0151436D01*
X0189777Y0150752D02*
X0189777Y0148700D01*
X0191829Y0148700D01*
X0192513Y0149384D01*
X0191829Y0150068D01*
X0189777Y0150068D01*
X0189777Y0150752D02*
X0190461Y0151436D01*
X0191829Y0151436D01*
X0193921Y0150752D02*
X0194605Y0151436D01*
X0195973Y0151436D01*
X0196656Y0150752D01*
X0196656Y0149384D01*
X0195973Y0148700D01*
X0194605Y0148700D01*
X0193921Y0149384D01*
X0193921Y0150752D01*
X0198064Y0151436D02*
X0198748Y0150752D01*
X0200800Y0150752D01*
X0200800Y0148700D02*
X0200800Y0152804D01*
X0198748Y0152804D01*
X0198064Y0152120D01*
X0198064Y0151436D01*
X0198748Y0150752D02*
X0198064Y0150068D01*
X0198064Y0149384D01*
X0198748Y0148700D01*
X0200800Y0148700D01*
X0200800Y0164200D02*
X0200800Y0168304D01*
X0198064Y0168304D01*
X0196656Y0168304D02*
X0195289Y0166936D01*
X0193921Y0168304D01*
X0193921Y0164200D01*
X0192513Y0164200D02*
X0192513Y0168304D01*
X0190461Y0168304D01*
X0189777Y0167620D01*
X0189777Y0166252D01*
X0190461Y0165568D01*
X0192513Y0165568D01*
X0196656Y0164200D02*
X0196656Y0168304D01*
X0199432Y0166252D02*
X0200800Y0166252D01*
X0200800Y0171200D02*
X0200800Y0175304D01*
X0198064Y0175304D01*
X0199432Y0173252D02*
X0200800Y0173252D01*
X0196656Y0173252D02*
X0193921Y0173252D01*
X0194605Y0171200D02*
X0194605Y0175304D01*
X0196656Y0173252D01*
X0188369Y0172568D02*
X0186318Y0172568D01*
X0185634Y0173252D01*
X0185634Y0174620D01*
X0186318Y0175304D01*
X0188369Y0175304D01*
X0188369Y0171200D01*
X0187002Y0168304D02*
X0185634Y0166936D01*
X0185634Y0164200D01*
X0184226Y0164884D02*
X0183542Y0164200D01*
X0182174Y0164200D01*
X0181490Y0164884D01*
X0181490Y0167620D02*
X0182174Y0168304D01*
X0183542Y0168304D01*
X0184226Y0167620D01*
X0184226Y0164884D01*
X0185634Y0166252D02*
X0188369Y0166252D01*
X0188369Y0166936D02*
X0187002Y0168304D01*
X0188369Y0166936D02*
X0188369Y0164200D01*
X0183542Y0171200D02*
X0184226Y0171884D01*
X0184226Y0173252D01*
X0183542Y0173936D01*
X0182174Y0173936D01*
X0181490Y0173252D01*
X0181490Y0171884D01*
X0182174Y0171200D01*
X0183542Y0171200D01*
X0180082Y0171200D02*
X0180082Y0173936D01*
X0178714Y0173936D02*
X0178031Y0173936D01*
X0178714Y0173936D02*
X0180082Y0172568D01*
X0176629Y0173936D02*
X0175262Y0173936D01*
X0175945Y0174620D02*
X0175945Y0171884D01*
X0175262Y0171200D01*
X0175255Y0166936D02*
X0174571Y0166252D01*
X0173887Y0166936D01*
X0173203Y0166252D01*
X0173203Y0164200D01*
X0174571Y0164200D02*
X0174571Y0166252D01*
X0175255Y0166936D02*
X0175939Y0166936D01*
X0175939Y0164200D01*
X0171795Y0164884D02*
X0171111Y0164200D01*
X0169743Y0164200D01*
X0169060Y0164884D01*
X0169060Y0166252D01*
X0169743Y0166936D01*
X0171111Y0166936D01*
X0171795Y0166252D01*
X0171795Y0164884D01*
X0169723Y0171200D02*
X0167672Y0171200D01*
X0166988Y0171884D01*
X0167672Y0172568D01*
X0169040Y0172568D01*
X0169723Y0173252D01*
X0169040Y0173936D01*
X0166988Y0173936D01*
X0165580Y0173252D02*
X0165580Y0171884D01*
X0164896Y0171200D01*
X0162844Y0171200D01*
X0161436Y0171200D02*
X0161436Y0175304D01*
X0160752Y0173936D02*
X0159385Y0173936D01*
X0158701Y0173252D01*
X0158701Y0171200D01*
X0157293Y0171884D02*
X0156609Y0171200D01*
X0155241Y0171200D01*
X0154557Y0172568D02*
X0157293Y0172568D01*
X0157293Y0173252D02*
X0156609Y0173936D01*
X0155241Y0173936D01*
X0154557Y0173252D01*
X0154557Y0172568D01*
X0153149Y0171200D02*
X0153149Y0173936D01*
X0152465Y0173936D01*
X0151781Y0173252D01*
X0151098Y0173936D01*
X0150414Y0173252D01*
X0150414Y0171200D01*
X0151781Y0171200D02*
X0151781Y0173252D01*
X0149006Y0171884D02*
X0148322Y0171200D01*
X0146270Y0171200D01*
X0146270Y0173252D01*
X0146954Y0173936D01*
X0148322Y0173936D01*
X0148322Y0172568D02*
X0146270Y0172568D01*
X0144862Y0173936D02*
X0143494Y0173936D01*
X0144178Y0174620D02*
X0144178Y0171884D01*
X0143494Y0171200D01*
X0142100Y0171200D02*
X0140732Y0171200D01*
X0141416Y0171200D02*
X0141416Y0173936D01*
X0142100Y0173936D01*
X0141416Y0175304D02*
X0141416Y0175987D01*
X0139338Y0173252D02*
X0139338Y0171884D01*
X0138654Y0171200D01*
X0136602Y0171200D01*
X0135194Y0171200D02*
X0133142Y0171200D01*
X0132458Y0171884D01*
X0133142Y0172568D01*
X0134510Y0172568D01*
X0135194Y0173252D01*
X0134510Y0173936D01*
X0132458Y0173936D01*
X0136602Y0173936D02*
X0138654Y0173936D01*
X0139338Y0173252D01*
X0138647Y0166936D02*
X0137963Y0166936D01*
X0137279Y0166252D01*
X0136595Y0166936D01*
X0135911Y0166252D01*
X0135911Y0164200D01*
X0137279Y0164200D02*
X0137279Y0166252D01*
X0138647Y0166936D02*
X0138647Y0164200D01*
X0140055Y0165568D02*
X0142790Y0165568D01*
X0142790Y0166252D02*
X0142107Y0166936D01*
X0140739Y0166936D01*
X0140055Y0166252D01*
X0140055Y0165568D01*
X0140739Y0164200D02*
X0142107Y0164200D01*
X0142790Y0164884D01*
X0142790Y0166252D01*
X0144198Y0166252D02*
X0144198Y0164200D01*
X0144198Y0166252D02*
X0144882Y0166936D01*
X0146250Y0166936D01*
X0146934Y0166252D01*
X0148342Y0166936D02*
X0150394Y0166936D01*
X0151078Y0166252D01*
X0151078Y0164884D01*
X0150394Y0164200D01*
X0148342Y0164200D01*
X0146934Y0164200D02*
X0146934Y0168304D01*
X0149006Y0171884D02*
X0148322Y0172568D01*
X0152485Y0166936D02*
X0154537Y0166936D01*
X0155221Y0166252D01*
X0154537Y0165568D01*
X0153169Y0165568D01*
X0152485Y0164884D01*
X0153169Y0164200D01*
X0155221Y0164200D01*
X0160772Y0164884D02*
X0160772Y0166252D01*
X0161456Y0166936D01*
X0162824Y0166936D01*
X0163508Y0166252D01*
X0163508Y0164884D01*
X0162824Y0164200D01*
X0161456Y0164200D01*
X0160772Y0164884D01*
X0164916Y0164200D02*
X0164916Y0166252D01*
X0165600Y0166936D01*
X0167652Y0166936D01*
X0167652Y0164200D01*
X0165580Y0173252D02*
X0164896Y0173936D01*
X0162844Y0173936D01*
X0161436Y0173252D02*
X0160752Y0173936D01*
X0157293Y0173252D02*
X0157293Y0171884D01*
X0163515Y0153487D02*
X0163515Y0152804D01*
X0134503Y0164884D02*
X0133819Y0164200D01*
X0131768Y0164200D01*
X0131768Y0166252D01*
X0132452Y0166936D01*
X0133819Y0166936D01*
X0133819Y0165568D02*
X0131768Y0165568D01*
X0130360Y0166936D02*
X0128992Y0166936D01*
X0129676Y0167620D02*
X0129676Y0164884D01*
X0128992Y0164200D01*
X0127597Y0164200D02*
X0126230Y0164200D01*
X0126914Y0164200D02*
X0126914Y0166936D01*
X0127597Y0166936D01*
X0126914Y0168304D02*
X0126914Y0168987D01*
X0126907Y0171200D02*
X0124855Y0171200D01*
X0124171Y0171884D01*
X0124171Y0173252D01*
X0124855Y0173936D01*
X0126907Y0173936D01*
X0126907Y0175304D02*
X0126907Y0171200D01*
X0122763Y0171884D02*
X0122079Y0171200D01*
X0120028Y0171200D01*
X0120028Y0170516D02*
X0120712Y0169832D01*
X0121396Y0169832D01*
X0120028Y0170516D02*
X0120028Y0173936D01*
X0122763Y0173936D02*
X0122763Y0171884D01*
X0122099Y0166936D02*
X0124151Y0166936D01*
X0124835Y0166252D01*
X0124835Y0164884D01*
X0124151Y0164200D01*
X0122099Y0164200D01*
X0120692Y0164200D02*
X0118640Y0164200D01*
X0117956Y0164884D01*
X0118640Y0165568D01*
X0120008Y0165568D01*
X0120692Y0166252D01*
X0120008Y0166936D01*
X0117956Y0166936D01*
X0133819Y0165568D02*
X0134503Y0164884D01*
X0101355Y0150752D02*
X0100671Y0151436D01*
X0099303Y0151436D01*
X0098619Y0150752D01*
X0098619Y0150068D01*
X0101355Y0150068D01*
X0101355Y0149384D02*
X0101355Y0150752D01*
X0101355Y0149384D02*
X0100671Y0148700D01*
X0099303Y0148700D01*
X0097212Y0148700D02*
X0097212Y0151436D01*
X0095160Y0151436D01*
X0094476Y0150752D01*
X0094476Y0148700D01*
X0092384Y0149384D02*
X0092384Y0152120D01*
X0093068Y0151436D02*
X0091700Y0151436D01*
X0090306Y0150752D02*
X0089622Y0151436D01*
X0087570Y0151436D01*
X0088254Y0150068D02*
X0089622Y0150068D01*
X0090306Y0150752D01*
X0090306Y0148700D02*
X0088254Y0148700D01*
X0087570Y0149384D01*
X0088254Y0150068D01*
X0091700Y0148700D02*
X0092384Y0149384D01*
X0082019Y0148700D02*
X0079967Y0148700D01*
X0079283Y0149384D01*
X0079283Y0150752D01*
X0079967Y0151436D01*
X0082019Y0151436D01*
X0082019Y0152804D02*
X0082019Y0148700D01*
X0077875Y0149384D02*
X0077191Y0148700D01*
X0075139Y0148700D01*
X0075139Y0148016D02*
X0075139Y0151436D01*
X0077875Y0151436D02*
X0077875Y0149384D01*
X0076507Y0147332D02*
X0075823Y0147332D01*
X0075139Y0148016D01*
X0060037Y0087165D02*
X0059269Y0087165D01*
X0058502Y0086398D01*
X0057735Y0087165D01*
X0056967Y0087165D01*
X0056200Y0086398D01*
X0056200Y0084863D01*
X0056967Y0084096D01*
X0056967Y0082561D02*
X0056200Y0081794D01*
X0056200Y0080259D01*
X0056967Y0079492D01*
X0060037Y0079492D01*
X0060804Y0080259D01*
X0060804Y0081794D01*
X0060037Y0082561D01*
X0060037Y0084096D02*
X0060804Y0084863D01*
X0060804Y0086398D01*
X0060037Y0087165D01*
X0058502Y0086398D02*
X0058502Y0085631D01*
X0060804Y0077957D02*
X0060804Y0076423D01*
X0060804Y0077190D02*
X0056200Y0077190D01*
X0056200Y0076423D02*
X0056200Y0077957D01*
X0048424Y0078700D02*
X0048424Y0079467D01*
X0045354Y0082537D01*
X0045354Y0083304D01*
X0048424Y0083304D01*
X0043820Y0081002D02*
X0040750Y0081002D01*
X0041518Y0078700D02*
X0041518Y0083304D01*
X0043820Y0081002D01*
X0039216Y0083304D02*
X0039216Y0078700D01*
X0036146Y0078700D01*
X0034612Y0079467D02*
X0033845Y0078700D01*
X0032310Y0078700D01*
X0031543Y0079467D01*
X0031543Y0080235D01*
X0032310Y0081002D01*
X0033845Y0081002D01*
X0034612Y0081769D01*
X0034612Y0082537D01*
X0033845Y0083304D01*
X0032310Y0083304D01*
X0031543Y0082537D01*
X0030008Y0082537D02*
X0030008Y0079467D01*
X0026939Y0082537D01*
X0026939Y0079467D01*
X0027706Y0078700D01*
X0029241Y0078700D01*
X0030008Y0079467D01*
X0030008Y0082537D02*
X0029241Y0083304D01*
X0027706Y0083304D01*
X0026939Y0082537D01*
X0025404Y0081002D02*
X0022335Y0081002D01*
X0023102Y0078700D02*
X0023102Y0083304D01*
X0025404Y0081002D01*
X0035685Y0039799D02*
X0035685Y0027201D01*
X0046315Y0027201D01*
X0046315Y0039799D01*
X0035685Y0039799D01*
X0033869Y0023537D02*
X0033869Y0020467D01*
X0035404Y0022002D02*
X0032335Y0022002D01*
X0058402Y0042000D02*
X0058402Y0045000D01*
X0063598Y0044902D02*
X0063598Y0042000D01*
X0077936Y0014120D02*
X0077936Y0011384D01*
X0077252Y0010700D01*
X0077252Y0013436D02*
X0078620Y0013436D01*
X0080021Y0013436D02*
X0080705Y0013436D01*
X0082073Y0012068D01*
X0082073Y0010700D02*
X0082073Y0013436D01*
X0083481Y0012752D02*
X0084165Y0013436D01*
X0085532Y0013436D01*
X0086216Y0012752D01*
X0086216Y0011384D01*
X0085532Y0010700D01*
X0084165Y0010700D01*
X0083481Y0011384D01*
X0083481Y0012752D01*
X0087624Y0012752D02*
X0088308Y0012068D01*
X0090360Y0012068D01*
X0090360Y0010700D02*
X0090360Y0014804D01*
X0088308Y0014804D01*
X0087624Y0014120D01*
X0087624Y0012752D01*
X0095911Y0012752D02*
X0098647Y0012752D01*
X0096595Y0014804D01*
X0096595Y0010700D01*
X0100055Y0014804D02*
X0102790Y0014804D01*
X0102790Y0010700D01*
X0102790Y0012752D02*
X0101423Y0012752D01*
X0108342Y0012752D02*
X0111078Y0012752D01*
X0112485Y0013436D02*
X0112485Y0014120D01*
X0113169Y0014804D01*
X0114537Y0014804D01*
X0115221Y0014120D01*
X0116629Y0014804D02*
X0119365Y0010700D01*
X0120772Y0011384D02*
X0121456Y0010700D01*
X0122824Y0010700D01*
X0123508Y0011384D01*
X0122824Y0012752D02*
X0121456Y0012752D01*
X0120772Y0012068D01*
X0120772Y0011384D01*
X0122824Y0012752D02*
X0123508Y0013436D01*
X0123508Y0014120D01*
X0122824Y0014804D01*
X0121456Y0014804D01*
X0120772Y0014120D01*
X0119365Y0014804D02*
X0116629Y0010700D01*
X0115221Y0010700D02*
X0112485Y0013436D01*
X0112485Y0010700D02*
X0115221Y0010700D01*
X0109710Y0011384D02*
X0109710Y0014120D01*
X0118102Y0028700D02*
X0118102Y0033304D01*
X0120404Y0031002D01*
X0117335Y0031002D01*
X0121939Y0032537D02*
X0125008Y0029467D01*
X0125008Y0028700D01*
X0126543Y0029467D02*
X0126543Y0030235D01*
X0127310Y0031002D01*
X0128845Y0031002D01*
X0129612Y0031769D01*
X0129612Y0032537D01*
X0128845Y0033304D01*
X0127310Y0033304D01*
X0126543Y0032537D01*
X0125008Y0033304D02*
X0121939Y0033304D01*
X0121939Y0032537D01*
X0126543Y0029467D02*
X0127310Y0028700D01*
X0128845Y0028700D01*
X0129612Y0029467D01*
X0131146Y0028700D02*
X0134216Y0028700D01*
X0134216Y0033304D01*
X0136518Y0033304D02*
X0138820Y0031002D01*
X0135750Y0031002D01*
X0136518Y0028700D02*
X0136518Y0033304D01*
X0140354Y0033304D02*
X0140354Y0032537D01*
X0143424Y0029467D01*
X0143424Y0028700D01*
X0143424Y0033304D02*
X0140354Y0033304D01*
X0151200Y0031794D02*
X0151967Y0032561D01*
X0151200Y0031794D02*
X0151200Y0030259D01*
X0151967Y0029492D01*
X0155037Y0029492D01*
X0155804Y0030259D01*
X0155804Y0031794D01*
X0155037Y0032561D01*
X0155037Y0034096D02*
X0154269Y0034096D01*
X0153502Y0034863D01*
X0153502Y0036398D01*
X0152735Y0037165D01*
X0151967Y0037165D01*
X0151200Y0036398D01*
X0151200Y0034863D01*
X0151967Y0034096D01*
X0152735Y0034096D01*
X0153502Y0034863D01*
X0153502Y0036398D02*
X0154269Y0037165D01*
X0155037Y0037165D01*
X0155804Y0036398D01*
X0155804Y0034863D01*
X0155037Y0034096D01*
X0155804Y0027957D02*
X0155804Y0026423D01*
X0155804Y0027190D02*
X0151200Y0027190D01*
X0151200Y0026423D02*
X0151200Y0027957D01*
X0149067Y0015487D02*
X0149067Y0014804D01*
X0149067Y0013436D02*
X0149067Y0010700D01*
X0149751Y0010700D02*
X0148383Y0010700D01*
X0146988Y0011384D02*
X0146304Y0010700D01*
X0144936Y0010700D01*
X0144253Y0011384D01*
X0144253Y0012752D01*
X0144936Y0013436D01*
X0146304Y0013436D01*
X0146988Y0012752D01*
X0146988Y0011384D01*
X0149067Y0013436D02*
X0149751Y0013436D01*
X0151145Y0013436D02*
X0152513Y0013436D01*
X0151829Y0014120D02*
X0151829Y0011384D01*
X0151145Y0010700D01*
X0153921Y0011384D02*
X0154605Y0010700D01*
X0156656Y0010700D01*
X0156656Y0009332D02*
X0156656Y0013436D01*
X0154605Y0013436D01*
X0153921Y0012752D01*
X0153921Y0011384D01*
X0158064Y0011384D02*
X0158064Y0014120D01*
X0158748Y0014804D01*
X0160116Y0014804D01*
X0160800Y0014120D01*
X0160800Y0011384D01*
X0160116Y0010700D01*
X0158748Y0010700D01*
X0158064Y0011384D01*
X0165874Y0028700D02*
X0167409Y0028700D01*
X0168176Y0029467D01*
X0168176Y0031002D02*
X0166642Y0031769D01*
X0165874Y0031769D01*
X0165107Y0031002D01*
X0165107Y0029467D01*
X0165874Y0028700D01*
X0168176Y0031002D02*
X0168176Y0033304D01*
X0165107Y0033304D01*
X0169711Y0032537D02*
X0170478Y0033304D01*
X0172013Y0033304D01*
X0172780Y0032537D01*
X0169711Y0032537D02*
X0169711Y0031769D01*
X0172780Y0028700D01*
X0169711Y0028700D01*
X0174315Y0028700D02*
X0177384Y0028700D01*
X0175850Y0028700D02*
X0175850Y0033304D01*
X0177384Y0031769D01*
X0178919Y0032537D02*
X0179686Y0033304D01*
X0181221Y0033304D01*
X0181988Y0032537D01*
X0181988Y0031769D01*
X0181221Y0031002D01*
X0179686Y0031002D01*
X0178919Y0030235D01*
X0178919Y0029467D01*
X0179686Y0028700D01*
X0181221Y0028700D01*
X0181988Y0029467D01*
X0183523Y0028700D02*
X0186592Y0028700D01*
X0186592Y0033304D01*
X0188894Y0033304D02*
X0191196Y0031002D01*
X0188127Y0031002D01*
X0188894Y0028700D02*
X0188894Y0033304D01*
X0192731Y0033304D02*
X0192731Y0032537D01*
X0195800Y0029467D01*
X0195800Y0028700D01*
X0195800Y0033304D02*
X0192731Y0033304D01*
X0201200Y0031794D02*
X0201967Y0032561D01*
X0201200Y0031794D02*
X0201200Y0030259D01*
X0201967Y0029492D01*
X0205037Y0029492D01*
X0205804Y0030259D01*
X0205804Y0031794D01*
X0205037Y0032561D01*
X0205037Y0034096D02*
X0204269Y0034096D01*
X0203502Y0034863D01*
X0203502Y0037165D01*
X0201967Y0037165D02*
X0205037Y0037165D01*
X0205804Y0036398D01*
X0205804Y0034863D01*
X0205037Y0034096D01*
X0201967Y0034096D02*
X0201200Y0034863D01*
X0201200Y0036398D01*
X0201967Y0037165D01*
X0201200Y0027957D02*
X0201200Y0026423D01*
X0201200Y0027190D02*
X0205804Y0027190D01*
X0205804Y0026423D02*
X0205804Y0027957D01*
X0206518Y0078700D02*
X0206518Y0083304D01*
X0208820Y0081002D01*
X0205750Y0081002D01*
X0204216Y0083304D02*
X0204216Y0078700D01*
X0201146Y0078700D01*
X0199612Y0079467D02*
X0198845Y0078700D01*
X0197310Y0078700D01*
X0196543Y0079467D01*
X0196543Y0080235D01*
X0197310Y0081002D01*
X0198845Y0081002D01*
X0199612Y0081769D01*
X0199612Y0082537D01*
X0198845Y0083304D01*
X0197310Y0083304D01*
X0196543Y0082537D01*
X0195008Y0082537D02*
X0194241Y0083304D01*
X0192706Y0083304D01*
X0191939Y0082537D01*
X0195008Y0079467D01*
X0194241Y0078700D01*
X0192706Y0078700D01*
X0191939Y0079467D01*
X0191939Y0082537D01*
X0190404Y0082537D02*
X0189637Y0083304D01*
X0188102Y0083304D01*
X0187335Y0082537D01*
X0187335Y0081769D01*
X0190404Y0078700D01*
X0187335Y0078700D01*
X0195008Y0079467D02*
X0195008Y0082537D01*
X0210354Y0082537D02*
X0213424Y0079467D01*
X0213424Y0078700D01*
X0213424Y0083304D02*
X0210354Y0083304D01*
X0210354Y0082537D01*
X0221200Y0081794D02*
X0221967Y0082561D01*
X0221200Y0081794D02*
X0221200Y0080259D01*
X0221967Y0079492D01*
X0225037Y0079492D01*
X0225804Y0080259D01*
X0225804Y0081794D01*
X0225037Y0082561D01*
X0225804Y0084096D02*
X0225804Y0087165D01*
X0225037Y0087165D01*
X0221967Y0084096D01*
X0221200Y0084096D01*
X0221200Y0077957D02*
X0221200Y0076423D01*
X0221200Y0077190D02*
X0225804Y0077190D01*
X0225804Y0076423D02*
X0225804Y0077957D01*
X0175804Y0077957D02*
X0175804Y0076423D01*
X0175804Y0077190D02*
X0171200Y0077190D01*
X0171200Y0076423D02*
X0171200Y0077957D01*
X0171967Y0079492D02*
X0171200Y0080259D01*
X0171200Y0081794D01*
X0171967Y0082561D01*
X0171967Y0084096D02*
X0171200Y0084863D01*
X0171200Y0086398D01*
X0171967Y0087165D01*
X0172735Y0087165D01*
X0173502Y0086398D01*
X0173502Y0084096D01*
X0171967Y0084096D01*
X0173502Y0084096D02*
X0175037Y0085631D01*
X0175804Y0087165D01*
X0175037Y0082561D02*
X0175804Y0081794D01*
X0175804Y0080259D01*
X0175037Y0079492D01*
X0171967Y0079492D01*
X0163424Y0079467D02*
X0163424Y0078700D01*
X0163424Y0079467D02*
X0160354Y0082537D01*
X0160354Y0083304D01*
X0163424Y0083304D01*
X0158820Y0081002D02*
X0155750Y0081002D01*
X0156518Y0078700D02*
X0156518Y0083304D01*
X0158820Y0081002D01*
X0154216Y0083304D02*
X0154216Y0078700D01*
X0151146Y0078700D01*
X0149612Y0079467D02*
X0148845Y0078700D01*
X0147310Y0078700D01*
X0146543Y0079467D01*
X0146543Y0080235D01*
X0147310Y0081002D01*
X0148845Y0081002D01*
X0149612Y0081769D01*
X0149612Y0082537D01*
X0148845Y0083304D01*
X0147310Y0083304D01*
X0146543Y0082537D01*
X0145008Y0082537D02*
X0144241Y0083304D01*
X0142706Y0083304D01*
X0141939Y0082537D01*
X0141939Y0081769D01*
X0142706Y0081002D01*
X0141939Y0080235D01*
X0141939Y0079467D01*
X0142706Y0078700D01*
X0144241Y0078700D01*
X0145008Y0079467D01*
X0143473Y0081002D02*
X0142706Y0081002D01*
X0140404Y0082537D02*
X0139637Y0083304D01*
X0138102Y0083304D01*
X0137335Y0082537D01*
X0140404Y0079467D01*
X0139637Y0078700D01*
X0138102Y0078700D01*
X0137335Y0079467D01*
X0137335Y0082537D01*
X0140404Y0082537D02*
X0140404Y0079467D01*
X0115804Y0080259D02*
X0115037Y0079492D01*
X0111967Y0079492D01*
X0111200Y0080259D01*
X0111200Y0081794D01*
X0111967Y0082561D01*
X0111200Y0084096D02*
X0114269Y0087165D01*
X0115037Y0087165D01*
X0115804Y0086398D01*
X0115804Y0084863D01*
X0115037Y0084096D01*
X0115037Y0082561D02*
X0115804Y0081794D01*
X0115804Y0080259D01*
X0115804Y0077957D02*
X0115804Y0076423D01*
X0115804Y0077190D02*
X0111200Y0077190D01*
X0111200Y0076423D02*
X0111200Y0077957D01*
X0111200Y0084096D02*
X0111200Y0087165D01*
X0103424Y0083304D02*
X0100354Y0083304D01*
X0100354Y0082537D01*
X0103424Y0079467D01*
X0103424Y0078700D01*
X0098820Y0081002D02*
X0095750Y0081002D01*
X0096518Y0078700D02*
X0096518Y0083304D01*
X0098820Y0081002D01*
X0094216Y0083304D02*
X0094216Y0078700D01*
X0091146Y0078700D01*
X0089612Y0079467D02*
X0088845Y0078700D01*
X0087310Y0078700D01*
X0086543Y0079467D01*
X0086543Y0080235D01*
X0087310Y0081002D01*
X0088845Y0081002D01*
X0089612Y0081769D01*
X0089612Y0082537D01*
X0088845Y0083304D01*
X0087310Y0083304D01*
X0086543Y0082537D01*
X0085008Y0082537D02*
X0084241Y0083304D01*
X0082706Y0083304D01*
X0081939Y0082537D01*
X0081939Y0081769D01*
X0082706Y0081002D01*
X0081939Y0080235D01*
X0081939Y0079467D01*
X0082706Y0078700D01*
X0084241Y0078700D01*
X0085008Y0079467D01*
X0083473Y0081002D02*
X0082706Y0081002D01*
X0080404Y0082537D02*
X0079637Y0083304D01*
X0078102Y0083304D01*
X0077335Y0082537D01*
X0080404Y0079467D01*
X0079637Y0078700D01*
X0078102Y0078700D01*
X0077335Y0079467D01*
X0077335Y0082537D01*
X0080404Y0082537D02*
X0080404Y0079467D01*
X0124916Y0014804D02*
X0124916Y0010700D01*
X0126284Y0013436D02*
X0124916Y0014804D01*
X0126284Y0013436D02*
X0127652Y0014804D01*
X0127652Y0010700D01*
X0133190Y0010700D02*
X0134558Y0010700D01*
X0133874Y0010700D02*
X0133874Y0014804D01*
X0134558Y0014804D01*
X0135965Y0012752D02*
X0135965Y0010700D01*
X0138017Y0010700D01*
X0138701Y0011384D01*
X0138017Y0012068D01*
X0135965Y0012068D01*
X0135965Y0012752D02*
X0136649Y0013436D01*
X0138017Y0013436D01*
X0140109Y0012752D02*
X0140109Y0010700D01*
X0140109Y0012752D02*
X0140793Y0013436D01*
X0142845Y0013436D01*
X0142845Y0010700D01*
D12*
X0107850Y0018650D02*
X0105381Y0018650D01*
X0104167Y0018650D02*
X0104167Y0022353D01*
X0101698Y0018650D01*
X0101698Y0022353D01*
X0100484Y0020502D02*
X0098015Y0020502D01*
X0096801Y0021119D02*
X0095566Y0022353D01*
X0095566Y0018650D01*
X0094332Y0018650D02*
X0096801Y0018650D01*
X0098632Y0018650D02*
X0098632Y0022353D01*
X0100484Y0020502D01*
X0106616Y0022353D02*
X0106616Y0018650D01*
X0107850Y0021119D02*
X0106616Y0022353D01*
X0093853Y0031284D02*
X0093853Y0033135D01*
X0093236Y0033752D01*
X0090767Y0033752D01*
X0090150Y0033135D01*
X0090150Y0031284D01*
X0093853Y0031284D01*
X0092619Y0034967D02*
X0093853Y0036201D01*
X0090150Y0036201D01*
X0090150Y0034967D02*
X0090150Y0037436D01*
X0085850Y0043002D02*
X0083381Y0043002D01*
X0082167Y0041767D02*
X0081550Y0041767D01*
X0081550Y0041150D01*
X0082167Y0041150D01*
X0082167Y0041767D01*
X0080325Y0041767D02*
X0080325Y0041150D01*
X0080325Y0041767D02*
X0077857Y0044236D01*
X0077857Y0044853D01*
X0080325Y0044853D01*
X0083998Y0044853D02*
X0083998Y0041150D01*
X0085850Y0043002D02*
X0083998Y0044853D01*
X0076642Y0044853D02*
X0076642Y0041150D01*
X0076642Y0042384D02*
X0074791Y0043619D01*
X0076642Y0042384D02*
X0074791Y0041150D01*
X0074002Y0037436D02*
X0072767Y0037436D01*
X0072150Y0036818D01*
X0072150Y0035584D01*
X0072767Y0034967D01*
X0074002Y0034967D02*
X0074619Y0036201D01*
X0074619Y0036818D01*
X0074002Y0037436D01*
X0075853Y0037436D02*
X0075853Y0034967D01*
X0074002Y0034967D01*
X0072150Y0033752D02*
X0072150Y0031284D01*
X0072150Y0030069D02*
X0073384Y0028835D01*
X0073384Y0029452D02*
X0073384Y0027601D01*
X0072150Y0027601D02*
X0075853Y0027601D01*
X0075853Y0029452D01*
X0075236Y0030069D01*
X0074002Y0030069D01*
X0073384Y0029452D01*
X0074619Y0031284D02*
X0075853Y0032518D01*
X0072150Y0032518D01*
X0064602Y0033619D02*
X0063368Y0034853D01*
X0063368Y0031150D01*
X0064602Y0031150D02*
X0062134Y0031150D01*
X0060919Y0031150D02*
X0060919Y0034853D01*
X0059068Y0033619D02*
X0060919Y0032384D01*
X0059068Y0031150D01*
X0055853Y0026818D02*
X0054002Y0024967D01*
X0054002Y0027436D01*
X0055853Y0026818D02*
X0052150Y0026818D01*
X0052150Y0023752D02*
X0052150Y0021284D01*
X0052150Y0020069D02*
X0053384Y0018835D01*
X0053384Y0019452D02*
X0053384Y0017601D01*
X0052150Y0017601D02*
X0055853Y0017601D01*
X0055853Y0019452D01*
X0055236Y0020069D01*
X0054002Y0020069D01*
X0053384Y0019452D01*
X0054619Y0021284D02*
X0055853Y0022518D01*
X0052150Y0022518D01*
X0052767Y0037601D02*
X0052150Y0038218D01*
X0052150Y0039452D01*
X0052767Y0040069D01*
X0052150Y0041284D02*
X0052150Y0043752D01*
X0052150Y0044967D02*
X0052150Y0047436D01*
X0052150Y0046201D02*
X0055853Y0046201D01*
X0054619Y0044967D01*
X0055853Y0042518D02*
X0052150Y0042518D01*
X0054619Y0041284D02*
X0055853Y0042518D01*
X0055236Y0040069D02*
X0055853Y0039452D01*
X0055853Y0038218D01*
X0055236Y0037601D01*
X0052767Y0037601D01*
X0045583Y0044650D02*
X0043114Y0044650D01*
X0044348Y0044650D02*
X0044348Y0048353D01*
X0045583Y0047119D01*
X0041899Y0047736D02*
X0041899Y0045267D01*
X0039431Y0047736D01*
X0039431Y0045267D01*
X0040048Y0044650D01*
X0041282Y0044650D01*
X0041899Y0045267D01*
X0041899Y0047736D02*
X0041282Y0048353D01*
X0040048Y0048353D01*
X0039431Y0047736D01*
X0038216Y0047119D02*
X0038216Y0045267D01*
X0037599Y0044650D01*
X0035748Y0044650D01*
X0035748Y0047119D01*
X0034533Y0046502D02*
X0033299Y0046502D01*
X0034533Y0048353D02*
X0032064Y0048353D01*
X0034533Y0048353D02*
X0034533Y0044650D01*
X0033236Y0037436D02*
X0030767Y0037436D01*
X0030150Y0036818D01*
X0030150Y0035584D01*
X0030767Y0034967D01*
X0030767Y0033752D02*
X0030150Y0033135D01*
X0030150Y0031901D01*
X0030767Y0031284D01*
X0033236Y0031284D01*
X0033853Y0031901D01*
X0033853Y0033135D01*
X0033236Y0033752D01*
X0033236Y0034967D02*
X0032619Y0034967D01*
X0032002Y0035584D01*
X0032002Y0037436D01*
X0033236Y0037436D02*
X0033853Y0036818D01*
X0033853Y0035584D01*
X0033236Y0034967D01*
X0052383Y0053002D02*
X0053617Y0053002D01*
X0054832Y0053002D02*
X0054832Y0051150D01*
X0053617Y0051150D02*
X0053617Y0054853D01*
X0051149Y0054853D01*
X0054832Y0053002D02*
X0055449Y0053619D01*
X0057301Y0053619D01*
X0057301Y0051150D01*
X0058515Y0051767D02*
X0058515Y0054236D01*
X0060984Y0051767D01*
X0060367Y0051150D01*
X0059132Y0051150D01*
X0058515Y0051767D01*
X0060984Y0051767D02*
X0060984Y0054236D01*
X0060367Y0054853D01*
X0059132Y0054853D01*
X0058515Y0054236D01*
X0062198Y0054236D02*
X0062198Y0051767D01*
X0062815Y0051150D01*
X0064050Y0051150D01*
X0064667Y0051767D01*
X0062198Y0054236D01*
X0062815Y0054853D01*
X0064050Y0054853D01*
X0064667Y0054236D01*
X0064667Y0051767D01*
X0065881Y0051150D02*
X0068350Y0051150D01*
X0067116Y0051150D02*
X0067116Y0054853D01*
X0068350Y0053619D01*
X0087583Y0022353D02*
X0086966Y0021736D01*
X0086966Y0021119D01*
X0087583Y0020502D01*
X0088817Y0020502D01*
X0089434Y0021119D01*
X0089434Y0021736D01*
X0088817Y0022353D01*
X0087583Y0022353D01*
X0087583Y0020502D02*
X0086966Y0019884D01*
X0086966Y0019267D01*
X0087583Y0018650D01*
X0088817Y0018650D01*
X0089434Y0019267D01*
X0089434Y0019884D01*
X0088817Y0020502D01*
X0090649Y0020502D02*
X0093117Y0020502D01*
X0091266Y0022353D01*
X0091266Y0018650D01*
X0124767Y0234150D02*
X0124150Y0234767D01*
X0124150Y0236002D01*
X0124767Y0236619D01*
X0127236Y0236619D01*
X0127853Y0236002D01*
X0127853Y0234767D01*
X0127236Y0234150D01*
X0124767Y0234150D01*
X0124150Y0237833D02*
X0124150Y0239685D01*
X0124767Y0240302D01*
X0126002Y0240302D01*
X0126619Y0239685D01*
X0126619Y0237833D01*
X0122916Y0237833D01*
X0124767Y0242133D02*
X0124150Y0242751D01*
X0124767Y0242133D02*
X0127236Y0242133D01*
X0126619Y0241516D02*
X0126619Y0242751D01*
X0126619Y0243972D02*
X0126619Y0244589D01*
X0124150Y0244589D01*
X0124150Y0243972D02*
X0124150Y0245206D01*
X0124767Y0246427D02*
X0124150Y0247044D01*
X0124150Y0248279D01*
X0124767Y0248896D01*
X0126002Y0248896D01*
X0126619Y0248279D01*
X0126619Y0247044D01*
X0126002Y0246427D01*
X0124767Y0246427D01*
X0124150Y0250110D02*
X0126619Y0250110D01*
X0126619Y0251962D01*
X0126002Y0252579D01*
X0124150Y0252579D01*
X0124767Y0253793D02*
X0125384Y0254411D01*
X0125384Y0256262D01*
X0126002Y0256262D02*
X0124150Y0256262D01*
X0124150Y0254411D01*
X0124767Y0253793D01*
X0126619Y0254411D02*
X0126619Y0255645D01*
X0126002Y0256262D01*
X0127853Y0257477D02*
X0127853Y0258094D01*
X0124150Y0258094D01*
X0124150Y0257477D02*
X0124150Y0258711D01*
X0118350Y0254236D02*
X0118350Y0251767D01*
X0117733Y0251150D01*
X0116498Y0251150D01*
X0115881Y0251767D01*
X0114667Y0251150D02*
X0112198Y0251150D01*
X0113432Y0251150D02*
X0113432Y0254853D01*
X0114667Y0253619D01*
X0115881Y0254236D02*
X0116498Y0254853D01*
X0117733Y0254853D01*
X0118350Y0254236D01*
X0117116Y0249853D02*
X0117116Y0246150D01*
X0118350Y0246150D02*
X0115881Y0246150D01*
X0114667Y0246150D02*
X0114667Y0248619D01*
X0112815Y0248619D01*
X0112198Y0248002D01*
X0112198Y0246150D01*
X0110984Y0246150D02*
X0110984Y0249853D01*
X0108515Y0249853D01*
X0109132Y0251150D02*
X0108515Y0251767D01*
X0108515Y0252384D01*
X0109132Y0253002D01*
X0110984Y0253002D01*
X0110984Y0251767D01*
X0110367Y0251150D01*
X0109132Y0251150D01*
X0110984Y0253002D02*
X0109749Y0254236D01*
X0108515Y0254853D01*
X0109749Y0248002D02*
X0110984Y0248002D01*
X0117116Y0249853D02*
X0118350Y0248619D01*
X0127853Y0244589D02*
X0128470Y0244589D01*
X0148649Y0241353D02*
X0151117Y0241353D01*
X0151117Y0237650D01*
X0152332Y0237650D02*
X0152332Y0239502D01*
X0152949Y0240119D01*
X0154801Y0240119D01*
X0154801Y0237650D01*
X0156015Y0238267D02*
X0156632Y0237650D01*
X0157867Y0237650D01*
X0158484Y0238267D01*
X0156015Y0240736D01*
X0156015Y0238267D01*
X0158484Y0238267D02*
X0158484Y0240736D01*
X0157867Y0241353D01*
X0156632Y0241353D01*
X0156015Y0240736D01*
X0159698Y0240736D02*
X0159698Y0238267D01*
X0160315Y0237650D01*
X0161550Y0237650D01*
X0162167Y0238267D01*
X0159698Y0240736D01*
X0160315Y0241353D01*
X0161550Y0241353D01*
X0162167Y0240736D01*
X0162167Y0238267D01*
X0163381Y0237650D02*
X0165850Y0237650D01*
X0164616Y0237650D02*
X0164616Y0241353D01*
X0165850Y0240119D01*
X0160233Y0251150D02*
X0158998Y0251150D01*
X0158381Y0251767D01*
X0157167Y0251767D02*
X0157167Y0252384D01*
X0156550Y0253002D01*
X0155315Y0253002D01*
X0154698Y0252384D01*
X0154698Y0251767D01*
X0155315Y0251150D01*
X0156550Y0251150D01*
X0157167Y0251767D01*
X0156550Y0253002D02*
X0157167Y0253619D01*
X0157167Y0254236D01*
X0156550Y0254853D01*
X0155315Y0254853D01*
X0154698Y0254236D01*
X0154698Y0253619D01*
X0155315Y0253002D01*
X0158381Y0254236D02*
X0158998Y0254853D01*
X0160233Y0254853D01*
X0160850Y0254236D01*
X0160850Y0251767D01*
X0160233Y0251150D01*
X0151117Y0239502D02*
X0149883Y0239502D01*
X0185267Y0276284D02*
X0184650Y0276901D01*
X0184650Y0278135D01*
X0185267Y0278752D01*
X0184650Y0279967D02*
X0184650Y0282436D01*
X0184650Y0281201D02*
X0188353Y0281201D01*
X0187119Y0279967D01*
X0187736Y0278752D02*
X0188353Y0278135D01*
X0188353Y0276901D01*
X0187736Y0276284D01*
X0185267Y0276284D01*
X0183350Y0288650D02*
X0180881Y0288650D01*
X0183350Y0288650D01*
X0180881Y0291119D01*
X0180881Y0291736D01*
X0181498Y0292353D01*
X0182733Y0292353D01*
X0183350Y0291736D01*
X0182733Y0292353D01*
X0181498Y0292353D01*
X0180881Y0291736D01*
X0180881Y0291119D01*
X0183350Y0288650D01*
X0179667Y0288650D02*
X0179050Y0288650D01*
X0179050Y0289267D01*
X0179667Y0289267D01*
X0179667Y0288650D01*
X0179050Y0288650D01*
X0179050Y0289267D01*
X0179667Y0289267D01*
X0179667Y0288650D01*
X0177825Y0288650D02*
X0175357Y0291119D01*
X0175357Y0291736D01*
X0175974Y0292353D01*
X0177208Y0292353D01*
X0177825Y0291736D01*
X0177208Y0292353D01*
X0175974Y0292353D01*
X0175357Y0291736D01*
X0175357Y0291119D01*
X0177825Y0288650D01*
X0175357Y0288650D01*
X0177825Y0288650D01*
X0174142Y0289267D02*
X0174142Y0291119D01*
X0174142Y0289267D01*
X0173525Y0288650D01*
X0171673Y0288650D01*
X0171673Y0291119D01*
X0171673Y0288650D01*
X0173525Y0288650D01*
X0174142Y0289267D01*
X0170459Y0288650D02*
X0170459Y0292353D01*
X0167990Y0292353D01*
X0170459Y0292353D01*
X0170459Y0288650D01*
X0170459Y0290502D02*
X0169225Y0290502D01*
X0170459Y0290502D01*
X0185267Y0306284D02*
X0184650Y0306901D01*
X0184650Y0308135D01*
X0185267Y0308752D01*
X0184650Y0309967D02*
X0187119Y0312436D01*
X0187736Y0312436D01*
X0188353Y0311818D01*
X0188353Y0310584D01*
X0187736Y0309967D01*
X0187736Y0308752D02*
X0188353Y0308135D01*
X0188353Y0306901D01*
X0187736Y0306284D01*
X0185267Y0306284D01*
X0184650Y0309967D02*
X0184650Y0312436D01*
X0183350Y0318650D02*
X0180881Y0318650D01*
X0179667Y0318650D02*
X0179050Y0318650D01*
X0179050Y0319267D01*
X0179667Y0319267D01*
X0179667Y0318650D01*
X0177825Y0318650D02*
X0175357Y0321119D01*
X0175357Y0321736D01*
X0175974Y0322353D01*
X0177208Y0322353D01*
X0177825Y0321736D01*
X0177825Y0318650D02*
X0175357Y0318650D01*
X0174142Y0319267D02*
X0173525Y0318650D01*
X0171673Y0318650D01*
X0171673Y0321119D01*
X0170459Y0320502D02*
X0169225Y0320502D01*
X0170459Y0322353D02*
X0167990Y0322353D01*
X0170459Y0322353D02*
X0170459Y0318650D01*
X0174142Y0319267D02*
X0174142Y0321119D01*
X0180881Y0321119D02*
X0180881Y0321736D01*
X0181498Y0322353D01*
X0182733Y0322353D01*
X0183350Y0321736D01*
X0180881Y0321119D02*
X0183350Y0318650D01*
X0190449Y0319119D02*
X0192301Y0317884D01*
X0190449Y0316650D01*
X0192301Y0316650D02*
X0192301Y0320353D01*
X0193515Y0319736D02*
X0193515Y0317267D01*
X0194132Y0316650D01*
X0195367Y0316650D01*
X0195984Y0317267D01*
X0193515Y0319736D01*
X0194132Y0320353D01*
X0195367Y0320353D01*
X0195984Y0319736D01*
X0195984Y0317267D01*
X0197198Y0319736D02*
X0199667Y0317267D01*
X0199667Y0316650D01*
X0200881Y0316650D02*
X0203350Y0316650D01*
X0202116Y0316650D02*
X0202116Y0320353D01*
X0203350Y0319119D01*
X0199667Y0320353D02*
X0197198Y0320353D01*
X0197198Y0319736D01*
X0204267Y0309802D02*
X0203650Y0309185D01*
X0203650Y0307950D01*
X0204267Y0307333D01*
X0203650Y0306119D02*
X0204884Y0304884D01*
X0204884Y0305502D02*
X0204884Y0303650D01*
X0203650Y0303650D02*
X0207353Y0303650D01*
X0207353Y0305502D01*
X0206736Y0306119D01*
X0205502Y0306119D01*
X0204884Y0305502D01*
X0206736Y0307333D02*
X0207353Y0307950D01*
X0207353Y0309185D01*
X0206736Y0309802D01*
X0206119Y0309802D01*
X0205502Y0309185D01*
X0204884Y0309802D01*
X0204267Y0309802D01*
X0205502Y0309185D02*
X0205502Y0308568D01*
X0085853Y0308135D02*
X0085853Y0306901D01*
X0085236Y0306284D01*
X0082767Y0306284D01*
X0082150Y0306901D01*
X0082150Y0308135D01*
X0082767Y0308752D01*
X0082767Y0309967D02*
X0082150Y0309967D01*
X0082767Y0309967D02*
X0085236Y0312436D01*
X0085853Y0312436D01*
X0085853Y0309967D01*
X0085236Y0308752D02*
X0085853Y0308135D01*
X0080850Y0318650D02*
X0078381Y0318650D01*
X0079616Y0318650D02*
X0079616Y0322353D01*
X0080850Y0321119D01*
X0077167Y0321119D02*
X0077167Y0319267D01*
X0076550Y0318650D01*
X0074698Y0318650D01*
X0074698Y0321119D01*
X0073484Y0320502D02*
X0072249Y0320502D01*
X0071015Y0322353D02*
X0073484Y0322353D01*
X0073484Y0318650D01*
X0064853Y0317251D02*
X0063619Y0316016D01*
X0064853Y0317251D02*
X0061150Y0317251D01*
X0061150Y0318485D02*
X0061150Y0316016D01*
X0061150Y0314802D02*
X0061150Y0312333D01*
X0061150Y0311119D02*
X0062384Y0309884D01*
X0062384Y0310502D02*
X0062384Y0308650D01*
X0061150Y0308650D02*
X0064853Y0308650D01*
X0064853Y0310502D01*
X0064236Y0311119D01*
X0063002Y0311119D01*
X0062384Y0310502D01*
X0063619Y0312333D02*
X0064853Y0313568D01*
X0061150Y0313568D01*
X0060233Y0321650D02*
X0058998Y0321650D01*
X0058381Y0322267D01*
X0058381Y0322884D01*
X0058998Y0323502D01*
X0060850Y0323502D01*
X0060850Y0322267D01*
X0060233Y0321650D01*
X0060850Y0323502D02*
X0059616Y0324736D01*
X0058381Y0325353D01*
X0057167Y0324736D02*
X0057167Y0324119D01*
X0056550Y0323502D01*
X0055315Y0323502D01*
X0054698Y0322884D01*
X0054698Y0322267D01*
X0055315Y0321650D01*
X0056550Y0321650D01*
X0057167Y0322267D01*
X0057167Y0322884D01*
X0056550Y0323502D01*
X0055315Y0323502D02*
X0054698Y0324119D01*
X0054698Y0324736D01*
X0055315Y0325353D01*
X0056550Y0325353D01*
X0057167Y0324736D01*
X0071015Y0292353D02*
X0073484Y0292353D01*
X0073484Y0288650D01*
X0074698Y0288650D02*
X0074698Y0291119D01*
X0073484Y0290502D02*
X0072249Y0290502D01*
X0074698Y0288650D02*
X0076550Y0288650D01*
X0077167Y0289267D01*
X0077167Y0291119D01*
X0079616Y0292353D02*
X0079616Y0288650D01*
X0080850Y0288650D02*
X0078381Y0288650D01*
X0080850Y0291119D02*
X0079616Y0292353D01*
X0082150Y0284936D02*
X0082150Y0282467D01*
X0084619Y0284936D01*
X0085236Y0284936D01*
X0085853Y0284318D01*
X0085853Y0283084D01*
X0085236Y0282467D01*
X0085853Y0280018D02*
X0082150Y0280018D01*
X0082150Y0278784D02*
X0082150Y0281252D01*
X0084619Y0278784D02*
X0085853Y0280018D01*
X0085236Y0277569D02*
X0085853Y0276952D01*
X0085853Y0275718D01*
X0085236Y0275101D01*
X0082767Y0275101D01*
X0082150Y0275718D01*
X0082150Y0276952D01*
X0082767Y0277569D01*
X0064236Y0258485D02*
X0063619Y0258485D01*
X0063002Y0257868D01*
X0062384Y0258485D01*
X0061767Y0258485D01*
X0061150Y0257868D01*
X0061150Y0256633D01*
X0061767Y0256016D01*
X0061150Y0254802D02*
X0061150Y0252333D01*
X0061150Y0251119D02*
X0062384Y0249884D01*
X0062384Y0250502D02*
X0062384Y0248650D01*
X0061150Y0248650D02*
X0064853Y0248650D01*
X0064853Y0250502D01*
X0064236Y0251119D01*
X0063002Y0251119D01*
X0062384Y0250502D01*
X0063619Y0252333D02*
X0064853Y0253568D01*
X0061150Y0253568D01*
X0064236Y0256016D02*
X0064853Y0256633D01*
X0064853Y0257868D01*
X0064236Y0258485D01*
X0063002Y0257868D02*
X0063002Y0257251D01*
X0060850Y0261650D02*
X0058381Y0261650D01*
X0059616Y0261650D02*
X0059616Y0265353D01*
X0060850Y0264119D01*
X0057167Y0264736D02*
X0057167Y0262267D01*
X0054698Y0264736D01*
X0054698Y0262267D01*
X0055315Y0261650D01*
X0056550Y0261650D01*
X0057167Y0262267D01*
X0057167Y0264736D02*
X0056550Y0265353D01*
X0055315Y0265353D01*
X0054698Y0264736D01*
X0053484Y0264736D02*
X0052867Y0265353D01*
X0051632Y0265353D01*
X0051015Y0264736D01*
X0053484Y0262267D01*
X0052867Y0261650D01*
X0051632Y0261650D01*
X0051015Y0262267D01*
X0051015Y0264736D01*
X0053484Y0264736D02*
X0053484Y0262267D01*
X0042353Y0257868D02*
X0042353Y0256633D01*
X0041736Y0256016D01*
X0042353Y0257868D02*
X0041736Y0258485D01*
X0041119Y0258485D01*
X0038650Y0256016D01*
X0038650Y0258485D01*
X0038350Y0261650D02*
X0035881Y0261650D01*
X0037116Y0261650D02*
X0037116Y0265353D01*
X0038350Y0264119D01*
X0034667Y0264736D02*
X0034667Y0262267D01*
X0032198Y0264736D01*
X0032198Y0262267D01*
X0032815Y0261650D01*
X0034050Y0261650D01*
X0034667Y0262267D01*
X0034667Y0264736D02*
X0034050Y0265353D01*
X0032815Y0265353D01*
X0032198Y0264736D01*
X0030984Y0264736D02*
X0030984Y0262267D01*
X0028515Y0264736D01*
X0028515Y0262267D01*
X0029132Y0261650D01*
X0030367Y0261650D01*
X0030984Y0262267D01*
X0030984Y0264736D02*
X0030367Y0265353D01*
X0029132Y0265353D01*
X0028515Y0264736D01*
X0038650Y0254802D02*
X0038650Y0252333D01*
X0038650Y0251119D02*
X0039884Y0249884D01*
X0039884Y0250502D02*
X0039884Y0248650D01*
X0038650Y0248650D02*
X0042353Y0248650D01*
X0042353Y0250502D01*
X0041736Y0251119D01*
X0040502Y0251119D01*
X0039884Y0250502D01*
X0041119Y0252333D02*
X0042353Y0253568D01*
X0038650Y0253568D01*
X0069564Y0244002D02*
X0072033Y0244002D01*
X0070182Y0245853D01*
X0070182Y0242150D01*
X0069564Y0240853D02*
X0072033Y0240853D01*
X0072033Y0237150D01*
X0073248Y0237150D02*
X0073248Y0239002D01*
X0073865Y0239619D01*
X0075716Y0239619D01*
X0075716Y0237150D01*
X0076931Y0237150D02*
X0079399Y0237150D01*
X0078165Y0237150D02*
X0078165Y0240853D01*
X0079399Y0239619D01*
X0078782Y0242150D02*
X0077548Y0242150D01*
X0076931Y0242767D01*
X0075716Y0242150D02*
X0073248Y0242150D01*
X0074482Y0242150D02*
X0074482Y0245853D01*
X0075716Y0244619D01*
X0076931Y0245236D02*
X0077548Y0245853D01*
X0078782Y0245853D01*
X0079399Y0245236D01*
X0079399Y0242767D01*
X0078782Y0242150D01*
X0072033Y0239002D02*
X0070799Y0239002D01*
D13*
X0066000Y0236000D02*
X0066000Y0256000D01*
X0121500Y0256000D01*
X0121500Y0236000D01*
X0066000Y0236000D01*
X0128500Y0108500D02*
X0231000Y0108500D01*
X0231000Y0008500D01*
X0006000Y0008500D01*
X0006000Y0058500D01*
X0128500Y0058500D01*
X0128500Y0108500D01*
D14*
X0013255Y0109849D02*
X0010203Y0106796D01*
X0010203Y0110866D01*
X0013255Y0109849D02*
X0007150Y0109849D01*
X0007150Y0112873D02*
X0013255Y0116944D01*
X0013255Y0118951D02*
X0013255Y0123021D01*
X0013255Y0125028D02*
X0011220Y0127063D01*
X0013255Y0129098D01*
X0007150Y0129098D01*
X0007150Y0131105D02*
X0013255Y0131105D01*
X0013255Y0134158D01*
X0012238Y0135175D01*
X0010203Y0135175D01*
X0009185Y0134158D01*
X0009185Y0131105D01*
X0010203Y0137182D02*
X0010203Y0141252D01*
X0011220Y0141252D02*
X0007150Y0141252D01*
X0008168Y0143259D02*
X0007150Y0144277D01*
X0007150Y0146312D01*
X0008168Y0147329D01*
X0008168Y0143259D02*
X0012238Y0143259D01*
X0013255Y0144277D01*
X0013255Y0146312D01*
X0012238Y0147329D01*
X0011220Y0141252D02*
X0013255Y0139217D01*
X0011220Y0137182D01*
X0007150Y0137182D01*
X0007150Y0125028D02*
X0013255Y0125028D01*
X0010203Y0120986D02*
X0010203Y0118951D01*
X0013255Y0118951D02*
X0007150Y0118951D01*
X0013255Y0104789D02*
X0013255Y0100719D01*
X0007150Y0100719D01*
X0010203Y0100719D02*
X0010203Y0102754D01*
X0012238Y0155414D02*
X0008168Y0155414D01*
X0007150Y0156431D01*
X0007150Y0158466D01*
X0008168Y0159484D01*
X0008168Y0161491D02*
X0007150Y0162508D01*
X0007150Y0164543D01*
X0008168Y0165561D01*
X0010203Y0165561D01*
X0011220Y0164543D01*
X0011220Y0162508D01*
X0010203Y0161491D01*
X0008168Y0161491D01*
X0007150Y0167568D02*
X0011220Y0167568D01*
X0011220Y0168586D01*
X0010203Y0169603D01*
X0011220Y0170621D01*
X0010203Y0171638D01*
X0007150Y0171638D01*
X0007150Y0173645D02*
X0007150Y0176698D01*
X0008168Y0177715D01*
X0010203Y0177715D01*
X0011220Y0176698D01*
X0011220Y0173645D01*
X0013255Y0173645D02*
X0007150Y0173645D01*
X0007150Y0169603D02*
X0010203Y0169603D01*
X0010203Y0179722D02*
X0008168Y0179722D01*
X0007150Y0180740D01*
X0007150Y0182775D01*
X0008168Y0183793D01*
X0010203Y0183793D01*
X0011220Y0182775D01*
X0011220Y0180740D01*
X0010203Y0179722D01*
X0010203Y0191877D02*
X0010203Y0194929D01*
X0009185Y0195947D01*
X0008168Y0195947D01*
X0007150Y0194929D01*
X0007150Y0191877D01*
X0013255Y0191877D01*
X0013255Y0194929D01*
X0012238Y0195947D01*
X0011220Y0195947D01*
X0010203Y0194929D01*
X0010203Y0197954D02*
X0008168Y0197954D01*
X0007150Y0198972D01*
X0007150Y0201007D01*
X0008168Y0202024D01*
X0010203Y0202024D01*
X0011220Y0201007D01*
X0011220Y0198972D01*
X0010203Y0197954D01*
X0008168Y0204031D02*
X0009185Y0205049D01*
X0009185Y0208101D01*
X0010203Y0208101D02*
X0011220Y0207084D01*
X0011220Y0205049D01*
X0010203Y0208101D02*
X0007150Y0208101D01*
X0007150Y0205049D01*
X0008168Y0204031D01*
X0009185Y0210108D02*
X0011220Y0212143D01*
X0011220Y0213161D01*
X0010203Y0215173D02*
X0008168Y0215173D01*
X0007150Y0216190D01*
X0007150Y0219243D01*
X0013255Y0219243D01*
X0011220Y0219243D02*
X0011220Y0216190D01*
X0010203Y0215173D01*
X0011220Y0210108D02*
X0007150Y0210108D01*
X0012238Y0159484D02*
X0013255Y0158466D01*
X0013255Y0156431D01*
X0012238Y0155414D01*
D15*
X0099000Y0035469D02*
X0100969Y0031531D01*
X0097031Y0031531D01*
X0099000Y0035469D01*
X0112872Y0311400D02*
X0111338Y0312935D01*
X0112872Y0311400D02*
X0115942Y0311400D01*
X0117476Y0312935D01*
X0117476Y0319073D01*
X0115942Y0320608D01*
X0112872Y0320608D01*
X0111338Y0319073D01*
X0120546Y0319073D02*
X0122080Y0320608D01*
X0125150Y0320608D01*
X0126684Y0319073D01*
X0126684Y0317539D01*
X0125150Y0316004D01*
X0122080Y0316004D01*
X0120546Y0314469D01*
X0120546Y0312935D01*
X0122080Y0311400D01*
X0125150Y0311400D01*
X0126684Y0312935D01*
X0129754Y0312935D02*
X0129754Y0314469D01*
X0131288Y0316004D01*
X0135892Y0316004D01*
X0138961Y0316004D02*
X0138961Y0319073D01*
X0140496Y0320608D01*
X0145100Y0320608D01*
X0145100Y0311400D01*
X0145100Y0314469D02*
X0140496Y0314469D01*
X0138961Y0316004D01*
X0142031Y0314469D02*
X0138961Y0311400D01*
X0135892Y0311400D02*
X0131288Y0311400D01*
X0129754Y0312935D01*
X0131288Y0316004D02*
X0129754Y0317539D01*
X0129754Y0319073D01*
X0131288Y0320608D01*
X0135892Y0320608D01*
X0135892Y0311400D01*
D16*
X0137350Y0306273D02*
X0137350Y0305205D01*
X0137350Y0303070D02*
X0137350Y0298800D01*
X0136283Y0298800D02*
X0138418Y0298800D01*
X0140593Y0299868D02*
X0141661Y0300935D01*
X0143796Y0300935D01*
X0144864Y0302003D01*
X0143796Y0303070D01*
X0140593Y0303070D01*
X0138418Y0303070D02*
X0137350Y0303070D01*
X0140593Y0299868D02*
X0141661Y0298800D01*
X0144864Y0298800D01*
X0147039Y0299868D02*
X0148106Y0300935D01*
X0150241Y0300935D01*
X0151309Y0302003D01*
X0150241Y0303070D01*
X0147039Y0303070D01*
X0147039Y0299868D02*
X0148106Y0298800D01*
X0151309Y0298800D01*
X0153484Y0298800D02*
X0153484Y0303070D01*
X0153484Y0298800D02*
X0156687Y0298800D01*
X0157755Y0299868D01*
X0157755Y0303070D01*
X0159930Y0302003D02*
X0159930Y0304138D01*
X0160997Y0305205D01*
X0164200Y0305205D01*
X0164200Y0298800D01*
X0164200Y0300935D02*
X0160997Y0300935D01*
X0159930Y0302003D01*
X0162065Y0300935D02*
X0159930Y0298800D01*
X0160997Y0295205D02*
X0163132Y0295205D01*
X0164200Y0294138D01*
X0164200Y0293070D01*
X0163132Y0292003D01*
X0160997Y0292003D01*
X0159930Y0290935D01*
X0159930Y0289868D01*
X0160997Y0288800D01*
X0163132Y0288800D01*
X0164200Y0289868D01*
X0159930Y0294138D02*
X0160997Y0295205D01*
X0157755Y0292003D02*
X0156687Y0293070D01*
X0154552Y0293070D01*
X0153484Y0292003D01*
X0153484Y0290935D01*
X0157755Y0290935D01*
X0157755Y0289868D02*
X0157755Y0292003D01*
X0157755Y0289868D02*
X0156687Y0288800D01*
X0154552Y0288800D01*
X0151309Y0288800D02*
X0151309Y0293070D01*
X0151309Y0290935D02*
X0149174Y0293070D01*
X0148106Y0293070D01*
X0145938Y0293070D02*
X0143803Y0288800D01*
X0141667Y0293070D01*
X0139492Y0293070D02*
X0138425Y0293070D01*
X0138425Y0288800D01*
X0139492Y0288800D02*
X0137357Y0288800D01*
X0135195Y0289868D02*
X0135195Y0292003D01*
X0134128Y0293070D01*
X0130925Y0293070D01*
X0128750Y0292003D02*
X0128750Y0289868D01*
X0127682Y0288800D01*
X0125547Y0288800D01*
X0124479Y0290935D02*
X0128750Y0290935D01*
X0128750Y0292003D02*
X0127682Y0293070D01*
X0125547Y0293070D01*
X0124479Y0292003D01*
X0124479Y0290935D01*
X0123405Y0298800D02*
X0123405Y0302003D01*
X0124473Y0303070D01*
X0127676Y0303070D01*
X0127676Y0298800D01*
X0129851Y0298800D02*
X0133053Y0298800D01*
X0134121Y0299868D01*
X0133053Y0300935D01*
X0129851Y0300935D01*
X0129851Y0302003D02*
X0129851Y0298800D01*
X0129851Y0302003D02*
X0130918Y0303070D01*
X0133053Y0303070D01*
X0138425Y0296273D02*
X0138425Y0295205D01*
X0135195Y0289868D02*
X0134128Y0288800D01*
X0130925Y0288800D01*
X0115859Y0289868D02*
X0114791Y0288800D01*
X0112656Y0288800D01*
X0111588Y0289868D01*
X0109413Y0290935D02*
X0107278Y0293070D01*
X0106211Y0293070D01*
X0104042Y0292003D02*
X0104042Y0289868D01*
X0102974Y0288800D01*
X0100839Y0288800D01*
X0099772Y0290935D02*
X0104042Y0290935D01*
X0104042Y0292003D02*
X0102974Y0293070D01*
X0100839Y0293070D01*
X0099772Y0292003D01*
X0099772Y0290935D01*
X0097597Y0289868D02*
X0096529Y0288800D01*
X0095461Y0289868D01*
X0094394Y0288800D01*
X0093326Y0289868D01*
X0093326Y0293070D01*
X0097597Y0293070D02*
X0097597Y0289868D01*
X0097623Y0298800D02*
X0100826Y0298800D01*
X0101894Y0299868D01*
X0100826Y0300935D01*
X0097623Y0300935D01*
X0097623Y0302003D02*
X0097623Y0298800D01*
X0095448Y0298800D02*
X0095448Y0303070D01*
X0095448Y0300935D02*
X0093313Y0303070D01*
X0092245Y0303070D01*
X0097623Y0302003D02*
X0098691Y0303070D01*
X0100826Y0303070D01*
X0104069Y0302003D02*
X0104069Y0300935D01*
X0108339Y0300935D01*
X0108339Y0299868D02*
X0108339Y0302003D01*
X0107271Y0303070D01*
X0105136Y0303070D01*
X0104069Y0302003D01*
X0105136Y0298800D02*
X0107271Y0298800D01*
X0108339Y0299868D01*
X0110514Y0299868D02*
X0111582Y0298800D01*
X0114785Y0298800D01*
X0114785Y0305205D01*
X0111582Y0305205D01*
X0110514Y0304138D01*
X0110514Y0303070D01*
X0111582Y0302003D01*
X0114785Y0302003D01*
X0111582Y0302003D02*
X0110514Y0300935D01*
X0110514Y0299868D01*
X0112656Y0295205D02*
X0114791Y0295205D01*
X0115859Y0294138D01*
X0115859Y0289868D01*
X0111588Y0294138D02*
X0112656Y0295205D01*
X0109413Y0293070D02*
X0109413Y0288800D01*
X0058500Y0311886D02*
X0058500Y0315114D01*
X0053500Y0315114D02*
X0053500Y0311886D01*
X0053500Y0255114D02*
X0053500Y0251886D01*
X0058500Y0251886D02*
X0058500Y0255114D01*
X0036000Y0255114D02*
X0036000Y0251886D01*
X0031000Y0251886D02*
X0031000Y0255114D01*
X0020000Y0091200D02*
X0052000Y0091200D01*
X0052076Y0091198D01*
X0052152Y0091192D01*
X0052227Y0091183D01*
X0052302Y0091169D01*
X0052376Y0091152D01*
X0052449Y0091131D01*
X0052521Y0091107D01*
X0052592Y0091078D01*
X0052661Y0091047D01*
X0052728Y0091012D01*
X0052793Y0090973D01*
X0052857Y0090931D01*
X0052918Y0090886D01*
X0052977Y0090838D01*
X0053033Y0090787D01*
X0053087Y0090733D01*
X0053138Y0090677D01*
X0053186Y0090618D01*
X0053231Y0090557D01*
X0053273Y0090493D01*
X0053312Y0090428D01*
X0053347Y0090361D01*
X0053378Y0090292D01*
X0053407Y0090221D01*
X0053431Y0090149D01*
X0053452Y0090076D01*
X0053469Y0090002D01*
X0053483Y0089927D01*
X0053492Y0089852D01*
X0053498Y0089776D01*
X0053500Y0089700D01*
X0053500Y0085500D01*
X0053500Y0081500D01*
X0053500Y0077300D01*
X0053498Y0077224D01*
X0053492Y0077148D01*
X0053483Y0077073D01*
X0053469Y0076998D01*
X0053452Y0076924D01*
X0053431Y0076851D01*
X0053407Y0076779D01*
X0053378Y0076708D01*
X0053347Y0076639D01*
X0053312Y0076572D01*
X0053273Y0076507D01*
X0053231Y0076443D01*
X0053186Y0076382D01*
X0053138Y0076323D01*
X0053087Y0076267D01*
X0053033Y0076213D01*
X0052977Y0076162D01*
X0052918Y0076114D01*
X0052857Y0076069D01*
X0052793Y0076027D01*
X0052728Y0075988D01*
X0052661Y0075953D01*
X0052592Y0075922D01*
X0052521Y0075893D01*
X0052449Y0075869D01*
X0052376Y0075848D01*
X0052302Y0075831D01*
X0052227Y0075817D01*
X0052152Y0075808D01*
X0052076Y0075802D01*
X0052000Y0075800D01*
X0020000Y0075800D01*
X0019924Y0075802D01*
X0019848Y0075808D01*
X0019773Y0075817D01*
X0019698Y0075831D01*
X0019624Y0075848D01*
X0019551Y0075869D01*
X0019479Y0075893D01*
X0019408Y0075922D01*
X0019339Y0075953D01*
X0019272Y0075988D01*
X0019207Y0076027D01*
X0019143Y0076069D01*
X0019082Y0076114D01*
X0019023Y0076162D01*
X0018967Y0076213D01*
X0018913Y0076267D01*
X0018862Y0076323D01*
X0018814Y0076382D01*
X0018769Y0076443D01*
X0018727Y0076507D01*
X0018688Y0076572D01*
X0018653Y0076639D01*
X0018622Y0076708D01*
X0018593Y0076779D01*
X0018569Y0076851D01*
X0018548Y0076924D01*
X0018531Y0076998D01*
X0018517Y0077073D01*
X0018508Y0077148D01*
X0018502Y0077224D01*
X0018500Y0077300D01*
X0018500Y0089700D01*
X0018502Y0089776D01*
X0018508Y0089852D01*
X0018517Y0089927D01*
X0018531Y0090002D01*
X0018548Y0090076D01*
X0018569Y0090149D01*
X0018593Y0090221D01*
X0018622Y0090292D01*
X0018653Y0090361D01*
X0018688Y0090428D01*
X0018727Y0090493D01*
X0018769Y0090557D01*
X0018814Y0090618D01*
X0018862Y0090677D01*
X0018913Y0090733D01*
X0018967Y0090787D01*
X0019023Y0090838D01*
X0019082Y0090886D01*
X0019143Y0090931D01*
X0019207Y0090973D01*
X0019272Y0091012D01*
X0019339Y0091047D01*
X0019408Y0091078D01*
X0019479Y0091107D01*
X0019551Y0091131D01*
X0019624Y0091152D01*
X0019698Y0091169D01*
X0019773Y0091183D01*
X0019848Y0091192D01*
X0019924Y0091198D01*
X0020000Y0091200D01*
X0053500Y0085500D02*
X0053412Y0085498D01*
X0053323Y0085492D01*
X0053235Y0085482D01*
X0053148Y0085469D01*
X0053061Y0085451D01*
X0052975Y0085430D01*
X0052890Y0085405D01*
X0052807Y0085376D01*
X0052724Y0085343D01*
X0052644Y0085307D01*
X0052565Y0085268D01*
X0052487Y0085225D01*
X0052412Y0085178D01*
X0052339Y0085128D01*
X0052268Y0085075D01*
X0052199Y0085019D01*
X0052133Y0084960D01*
X0052070Y0084898D01*
X0052010Y0084834D01*
X0051952Y0084767D01*
X0051898Y0084697D01*
X0051846Y0084625D01*
X0051798Y0084551D01*
X0051753Y0084474D01*
X0051712Y0084396D01*
X0051674Y0084316D01*
X0051640Y0084235D01*
X0051609Y0084152D01*
X0051582Y0084067D01*
X0051559Y0083982D01*
X0051540Y0083896D01*
X0051524Y0083808D01*
X0051512Y0083721D01*
X0051504Y0083633D01*
X0051500Y0083544D01*
X0051500Y0083456D01*
X0051504Y0083367D01*
X0051512Y0083279D01*
X0051524Y0083192D01*
X0051540Y0083104D01*
X0051559Y0083018D01*
X0051582Y0082933D01*
X0051609Y0082848D01*
X0051640Y0082765D01*
X0051674Y0082684D01*
X0051712Y0082604D01*
X0051753Y0082526D01*
X0051798Y0082449D01*
X0051846Y0082375D01*
X0051898Y0082303D01*
X0051952Y0082233D01*
X0052010Y0082166D01*
X0052070Y0082102D01*
X0052133Y0082040D01*
X0052199Y0081981D01*
X0052268Y0081925D01*
X0052339Y0081872D01*
X0052412Y0081822D01*
X0052487Y0081775D01*
X0052565Y0081732D01*
X0052644Y0081693D01*
X0052724Y0081657D01*
X0052807Y0081624D01*
X0052890Y0081595D01*
X0052975Y0081570D01*
X0053061Y0081549D01*
X0053148Y0081531D01*
X0053235Y0081518D01*
X0053323Y0081508D01*
X0053412Y0081502D01*
X0053500Y0081500D01*
X0073500Y0077300D02*
X0073500Y0089700D01*
X0073502Y0089776D01*
X0073508Y0089852D01*
X0073517Y0089927D01*
X0073531Y0090002D01*
X0073548Y0090076D01*
X0073569Y0090149D01*
X0073593Y0090221D01*
X0073622Y0090292D01*
X0073653Y0090361D01*
X0073688Y0090428D01*
X0073727Y0090493D01*
X0073769Y0090557D01*
X0073814Y0090618D01*
X0073862Y0090677D01*
X0073913Y0090733D01*
X0073967Y0090787D01*
X0074023Y0090838D01*
X0074082Y0090886D01*
X0074143Y0090931D01*
X0074207Y0090973D01*
X0074272Y0091012D01*
X0074339Y0091047D01*
X0074408Y0091078D01*
X0074479Y0091107D01*
X0074551Y0091131D01*
X0074624Y0091152D01*
X0074698Y0091169D01*
X0074773Y0091183D01*
X0074848Y0091192D01*
X0074924Y0091198D01*
X0075000Y0091200D01*
X0107000Y0091200D01*
X0107076Y0091198D01*
X0107152Y0091192D01*
X0107227Y0091183D01*
X0107302Y0091169D01*
X0107376Y0091152D01*
X0107449Y0091131D01*
X0107521Y0091107D01*
X0107592Y0091078D01*
X0107661Y0091047D01*
X0107728Y0091012D01*
X0107793Y0090973D01*
X0107857Y0090931D01*
X0107918Y0090886D01*
X0107977Y0090838D01*
X0108033Y0090787D01*
X0108087Y0090733D01*
X0108138Y0090677D01*
X0108186Y0090618D01*
X0108231Y0090557D01*
X0108273Y0090493D01*
X0108312Y0090428D01*
X0108347Y0090361D01*
X0108378Y0090292D01*
X0108407Y0090221D01*
X0108431Y0090149D01*
X0108452Y0090076D01*
X0108469Y0090002D01*
X0108483Y0089927D01*
X0108492Y0089852D01*
X0108498Y0089776D01*
X0108500Y0089700D01*
X0108500Y0085500D01*
X0108500Y0081500D01*
X0108500Y0077300D01*
X0108498Y0077224D01*
X0108492Y0077148D01*
X0108483Y0077073D01*
X0108469Y0076998D01*
X0108452Y0076924D01*
X0108431Y0076851D01*
X0108407Y0076779D01*
X0108378Y0076708D01*
X0108347Y0076639D01*
X0108312Y0076572D01*
X0108273Y0076507D01*
X0108231Y0076443D01*
X0108186Y0076382D01*
X0108138Y0076323D01*
X0108087Y0076267D01*
X0108033Y0076213D01*
X0107977Y0076162D01*
X0107918Y0076114D01*
X0107857Y0076069D01*
X0107793Y0076027D01*
X0107728Y0075988D01*
X0107661Y0075953D01*
X0107592Y0075922D01*
X0107521Y0075893D01*
X0107449Y0075869D01*
X0107376Y0075848D01*
X0107302Y0075831D01*
X0107227Y0075817D01*
X0107152Y0075808D01*
X0107076Y0075802D01*
X0107000Y0075800D01*
X0075000Y0075800D01*
X0074924Y0075802D01*
X0074848Y0075808D01*
X0074773Y0075817D01*
X0074698Y0075831D01*
X0074624Y0075848D01*
X0074551Y0075869D01*
X0074479Y0075893D01*
X0074408Y0075922D01*
X0074339Y0075953D01*
X0074272Y0075988D01*
X0074207Y0076027D01*
X0074143Y0076069D01*
X0074082Y0076114D01*
X0074023Y0076162D01*
X0073967Y0076213D01*
X0073913Y0076267D01*
X0073862Y0076323D01*
X0073814Y0076382D01*
X0073769Y0076443D01*
X0073727Y0076507D01*
X0073688Y0076572D01*
X0073653Y0076639D01*
X0073622Y0076708D01*
X0073593Y0076779D01*
X0073569Y0076851D01*
X0073548Y0076924D01*
X0073531Y0076998D01*
X0073517Y0077073D01*
X0073508Y0077148D01*
X0073502Y0077224D01*
X0073500Y0077300D01*
X0078500Y0036300D02*
X0078500Y0030700D01*
X0083500Y0030700D02*
X0083500Y0036300D01*
X0095900Y0038700D02*
X0095900Y0028300D01*
X0102100Y0028300D02*
X0102100Y0038700D01*
X0113500Y0039700D02*
X0113500Y0027300D01*
X0113502Y0027224D01*
X0113508Y0027148D01*
X0113517Y0027073D01*
X0113531Y0026998D01*
X0113548Y0026924D01*
X0113569Y0026851D01*
X0113593Y0026779D01*
X0113622Y0026708D01*
X0113653Y0026639D01*
X0113688Y0026572D01*
X0113727Y0026507D01*
X0113769Y0026443D01*
X0113814Y0026382D01*
X0113862Y0026323D01*
X0113913Y0026267D01*
X0113967Y0026213D01*
X0114023Y0026162D01*
X0114082Y0026114D01*
X0114143Y0026069D01*
X0114207Y0026027D01*
X0114272Y0025988D01*
X0114339Y0025953D01*
X0114408Y0025922D01*
X0114479Y0025893D01*
X0114551Y0025869D01*
X0114624Y0025848D01*
X0114698Y0025831D01*
X0114773Y0025817D01*
X0114848Y0025808D01*
X0114924Y0025802D01*
X0115000Y0025800D01*
X0147000Y0025800D01*
X0147076Y0025802D01*
X0147152Y0025808D01*
X0147227Y0025817D01*
X0147302Y0025831D01*
X0147376Y0025848D01*
X0147449Y0025869D01*
X0147521Y0025893D01*
X0147592Y0025922D01*
X0147661Y0025953D01*
X0147728Y0025988D01*
X0147793Y0026027D01*
X0147857Y0026069D01*
X0147918Y0026114D01*
X0147977Y0026162D01*
X0148033Y0026213D01*
X0148087Y0026267D01*
X0148138Y0026323D01*
X0148186Y0026382D01*
X0148231Y0026443D01*
X0148273Y0026507D01*
X0148312Y0026572D01*
X0148347Y0026639D01*
X0148378Y0026708D01*
X0148407Y0026779D01*
X0148431Y0026851D01*
X0148452Y0026924D01*
X0148469Y0026998D01*
X0148483Y0027073D01*
X0148492Y0027148D01*
X0148498Y0027224D01*
X0148500Y0027300D01*
X0148500Y0031500D01*
X0148500Y0035500D01*
X0148500Y0039700D01*
X0148498Y0039776D01*
X0148492Y0039852D01*
X0148483Y0039927D01*
X0148469Y0040002D01*
X0148452Y0040076D01*
X0148431Y0040149D01*
X0148407Y0040221D01*
X0148378Y0040292D01*
X0148347Y0040361D01*
X0148312Y0040428D01*
X0148273Y0040493D01*
X0148231Y0040557D01*
X0148186Y0040618D01*
X0148138Y0040677D01*
X0148087Y0040733D01*
X0148033Y0040787D01*
X0147977Y0040838D01*
X0147918Y0040886D01*
X0147857Y0040931D01*
X0147793Y0040973D01*
X0147728Y0041012D01*
X0147661Y0041047D01*
X0147592Y0041078D01*
X0147521Y0041107D01*
X0147449Y0041131D01*
X0147376Y0041152D01*
X0147302Y0041169D01*
X0147227Y0041183D01*
X0147152Y0041192D01*
X0147076Y0041198D01*
X0147000Y0041200D01*
X0115000Y0041200D01*
X0114924Y0041198D01*
X0114848Y0041192D01*
X0114773Y0041183D01*
X0114698Y0041169D01*
X0114624Y0041152D01*
X0114551Y0041131D01*
X0114479Y0041107D01*
X0114408Y0041078D01*
X0114339Y0041047D01*
X0114272Y0041012D01*
X0114207Y0040973D01*
X0114143Y0040931D01*
X0114082Y0040886D01*
X0114023Y0040838D01*
X0113967Y0040787D01*
X0113913Y0040733D01*
X0113862Y0040677D01*
X0113814Y0040618D01*
X0113769Y0040557D01*
X0113727Y0040493D01*
X0113688Y0040428D01*
X0113653Y0040361D01*
X0113622Y0040292D01*
X0113593Y0040221D01*
X0113569Y0040149D01*
X0113548Y0040076D01*
X0113531Y0040002D01*
X0113517Y0039927D01*
X0113508Y0039852D01*
X0113502Y0039776D01*
X0113500Y0039700D01*
X0135000Y0075800D02*
X0167000Y0075800D01*
X0167076Y0075802D01*
X0167152Y0075808D01*
X0167227Y0075817D01*
X0167302Y0075831D01*
X0167376Y0075848D01*
X0167449Y0075869D01*
X0167521Y0075893D01*
X0167592Y0075922D01*
X0167661Y0075953D01*
X0167728Y0075988D01*
X0167793Y0076027D01*
X0167857Y0076069D01*
X0167918Y0076114D01*
X0167977Y0076162D01*
X0168033Y0076213D01*
X0168087Y0076267D01*
X0168138Y0076323D01*
X0168186Y0076382D01*
X0168231Y0076443D01*
X0168273Y0076507D01*
X0168312Y0076572D01*
X0168347Y0076639D01*
X0168378Y0076708D01*
X0168407Y0076779D01*
X0168431Y0076851D01*
X0168452Y0076924D01*
X0168469Y0076998D01*
X0168483Y0077073D01*
X0168492Y0077148D01*
X0168498Y0077224D01*
X0168500Y0077300D01*
X0168500Y0081500D01*
X0168500Y0085500D01*
X0168500Y0089700D01*
X0168498Y0089776D01*
X0168492Y0089852D01*
X0168483Y0089927D01*
X0168469Y0090002D01*
X0168452Y0090076D01*
X0168431Y0090149D01*
X0168407Y0090221D01*
X0168378Y0090292D01*
X0168347Y0090361D01*
X0168312Y0090428D01*
X0168273Y0090493D01*
X0168231Y0090557D01*
X0168186Y0090618D01*
X0168138Y0090677D01*
X0168087Y0090733D01*
X0168033Y0090787D01*
X0167977Y0090838D01*
X0167918Y0090886D01*
X0167857Y0090931D01*
X0167793Y0090973D01*
X0167728Y0091012D01*
X0167661Y0091047D01*
X0167592Y0091078D01*
X0167521Y0091107D01*
X0167449Y0091131D01*
X0167376Y0091152D01*
X0167302Y0091169D01*
X0167227Y0091183D01*
X0167152Y0091192D01*
X0167076Y0091198D01*
X0167000Y0091200D01*
X0135000Y0091200D01*
X0134924Y0091198D01*
X0134848Y0091192D01*
X0134773Y0091183D01*
X0134698Y0091169D01*
X0134624Y0091152D01*
X0134551Y0091131D01*
X0134479Y0091107D01*
X0134408Y0091078D01*
X0134339Y0091047D01*
X0134272Y0091012D01*
X0134207Y0090973D01*
X0134143Y0090931D01*
X0134082Y0090886D01*
X0134023Y0090838D01*
X0133967Y0090787D01*
X0133913Y0090733D01*
X0133862Y0090677D01*
X0133814Y0090618D01*
X0133769Y0090557D01*
X0133727Y0090493D01*
X0133688Y0090428D01*
X0133653Y0090361D01*
X0133622Y0090292D01*
X0133593Y0090221D01*
X0133569Y0090149D01*
X0133548Y0090076D01*
X0133531Y0090002D01*
X0133517Y0089927D01*
X0133508Y0089852D01*
X0133502Y0089776D01*
X0133500Y0089700D01*
X0133500Y0077300D01*
X0133502Y0077224D01*
X0133508Y0077148D01*
X0133517Y0077073D01*
X0133531Y0076998D01*
X0133548Y0076924D01*
X0133569Y0076851D01*
X0133593Y0076779D01*
X0133622Y0076708D01*
X0133653Y0076639D01*
X0133688Y0076572D01*
X0133727Y0076507D01*
X0133769Y0076443D01*
X0133814Y0076382D01*
X0133862Y0076323D01*
X0133913Y0076267D01*
X0133967Y0076213D01*
X0134023Y0076162D01*
X0134082Y0076114D01*
X0134143Y0076069D01*
X0134207Y0076027D01*
X0134272Y0075988D01*
X0134339Y0075953D01*
X0134408Y0075922D01*
X0134479Y0075893D01*
X0134551Y0075869D01*
X0134624Y0075848D01*
X0134698Y0075831D01*
X0134773Y0075817D01*
X0134848Y0075808D01*
X0134924Y0075802D01*
X0135000Y0075800D01*
X0108500Y0081500D02*
X0108412Y0081502D01*
X0108323Y0081508D01*
X0108235Y0081518D01*
X0108148Y0081531D01*
X0108061Y0081549D01*
X0107975Y0081570D01*
X0107890Y0081595D01*
X0107807Y0081624D01*
X0107724Y0081657D01*
X0107644Y0081693D01*
X0107565Y0081732D01*
X0107487Y0081775D01*
X0107412Y0081822D01*
X0107339Y0081872D01*
X0107268Y0081925D01*
X0107199Y0081981D01*
X0107133Y0082040D01*
X0107070Y0082102D01*
X0107010Y0082166D01*
X0106952Y0082233D01*
X0106898Y0082303D01*
X0106846Y0082375D01*
X0106798Y0082449D01*
X0106753Y0082526D01*
X0106712Y0082604D01*
X0106674Y0082684D01*
X0106640Y0082765D01*
X0106609Y0082848D01*
X0106582Y0082933D01*
X0106559Y0083018D01*
X0106540Y0083104D01*
X0106524Y0083192D01*
X0106512Y0083279D01*
X0106504Y0083367D01*
X0106500Y0083456D01*
X0106500Y0083544D01*
X0106504Y0083633D01*
X0106512Y0083721D01*
X0106524Y0083808D01*
X0106540Y0083896D01*
X0106559Y0083982D01*
X0106582Y0084067D01*
X0106609Y0084152D01*
X0106640Y0084235D01*
X0106674Y0084316D01*
X0106712Y0084396D01*
X0106753Y0084474D01*
X0106798Y0084551D01*
X0106846Y0084625D01*
X0106898Y0084697D01*
X0106952Y0084767D01*
X0107010Y0084834D01*
X0107070Y0084898D01*
X0107133Y0084960D01*
X0107199Y0085019D01*
X0107268Y0085075D01*
X0107339Y0085128D01*
X0107412Y0085178D01*
X0107487Y0085225D01*
X0107565Y0085268D01*
X0107644Y0085307D01*
X0107724Y0085343D01*
X0107807Y0085376D01*
X0107890Y0085405D01*
X0107975Y0085430D01*
X0108061Y0085451D01*
X0108148Y0085469D01*
X0108235Y0085482D01*
X0108323Y0085492D01*
X0108412Y0085498D01*
X0108500Y0085500D01*
X0148500Y0035500D02*
X0148412Y0035498D01*
X0148323Y0035492D01*
X0148235Y0035482D01*
X0148148Y0035469D01*
X0148061Y0035451D01*
X0147975Y0035430D01*
X0147890Y0035405D01*
X0147807Y0035376D01*
X0147724Y0035343D01*
X0147644Y0035307D01*
X0147565Y0035268D01*
X0147487Y0035225D01*
X0147412Y0035178D01*
X0147339Y0035128D01*
X0147268Y0035075D01*
X0147199Y0035019D01*
X0147133Y0034960D01*
X0147070Y0034898D01*
X0147010Y0034834D01*
X0146952Y0034767D01*
X0146898Y0034697D01*
X0146846Y0034625D01*
X0146798Y0034551D01*
X0146753Y0034474D01*
X0146712Y0034396D01*
X0146674Y0034316D01*
X0146640Y0034235D01*
X0146609Y0034152D01*
X0146582Y0034067D01*
X0146559Y0033982D01*
X0146540Y0033896D01*
X0146524Y0033808D01*
X0146512Y0033721D01*
X0146504Y0033633D01*
X0146500Y0033544D01*
X0146500Y0033456D01*
X0146504Y0033367D01*
X0146512Y0033279D01*
X0146524Y0033192D01*
X0146540Y0033104D01*
X0146559Y0033018D01*
X0146582Y0032933D01*
X0146609Y0032848D01*
X0146640Y0032765D01*
X0146674Y0032684D01*
X0146712Y0032604D01*
X0146753Y0032526D01*
X0146798Y0032449D01*
X0146846Y0032375D01*
X0146898Y0032303D01*
X0146952Y0032233D01*
X0147010Y0032166D01*
X0147070Y0032102D01*
X0147133Y0032040D01*
X0147199Y0031981D01*
X0147268Y0031925D01*
X0147339Y0031872D01*
X0147412Y0031822D01*
X0147487Y0031775D01*
X0147565Y0031732D01*
X0147644Y0031693D01*
X0147724Y0031657D01*
X0147807Y0031624D01*
X0147890Y0031595D01*
X0147975Y0031570D01*
X0148061Y0031549D01*
X0148148Y0031531D01*
X0148235Y0031518D01*
X0148323Y0031508D01*
X0148412Y0031502D01*
X0148500Y0031500D01*
X0163500Y0027300D02*
X0163500Y0039700D01*
X0163502Y0039776D01*
X0163508Y0039852D01*
X0163517Y0039927D01*
X0163531Y0040002D01*
X0163548Y0040076D01*
X0163569Y0040149D01*
X0163593Y0040221D01*
X0163622Y0040292D01*
X0163653Y0040361D01*
X0163688Y0040428D01*
X0163727Y0040493D01*
X0163769Y0040557D01*
X0163814Y0040618D01*
X0163862Y0040677D01*
X0163913Y0040733D01*
X0163967Y0040787D01*
X0164023Y0040838D01*
X0164082Y0040886D01*
X0164143Y0040931D01*
X0164207Y0040973D01*
X0164272Y0041012D01*
X0164339Y0041047D01*
X0164408Y0041078D01*
X0164479Y0041107D01*
X0164551Y0041131D01*
X0164624Y0041152D01*
X0164698Y0041169D01*
X0164773Y0041183D01*
X0164848Y0041192D01*
X0164924Y0041198D01*
X0165000Y0041200D01*
X0197000Y0041200D01*
X0197076Y0041198D01*
X0197152Y0041192D01*
X0197227Y0041183D01*
X0197302Y0041169D01*
X0197376Y0041152D01*
X0197449Y0041131D01*
X0197521Y0041107D01*
X0197592Y0041078D01*
X0197661Y0041047D01*
X0197728Y0041012D01*
X0197793Y0040973D01*
X0197857Y0040931D01*
X0197918Y0040886D01*
X0197977Y0040838D01*
X0198033Y0040787D01*
X0198087Y0040733D01*
X0198138Y0040677D01*
X0198186Y0040618D01*
X0198231Y0040557D01*
X0198273Y0040493D01*
X0198312Y0040428D01*
X0198347Y0040361D01*
X0198378Y0040292D01*
X0198407Y0040221D01*
X0198431Y0040149D01*
X0198452Y0040076D01*
X0198469Y0040002D01*
X0198483Y0039927D01*
X0198492Y0039852D01*
X0198498Y0039776D01*
X0198500Y0039700D01*
X0198500Y0035500D01*
X0198500Y0031500D01*
X0198500Y0027300D01*
X0198498Y0027224D01*
X0198492Y0027148D01*
X0198483Y0027073D01*
X0198469Y0026998D01*
X0198452Y0026924D01*
X0198431Y0026851D01*
X0198407Y0026779D01*
X0198378Y0026708D01*
X0198347Y0026639D01*
X0198312Y0026572D01*
X0198273Y0026507D01*
X0198231Y0026443D01*
X0198186Y0026382D01*
X0198138Y0026323D01*
X0198087Y0026267D01*
X0198033Y0026213D01*
X0197977Y0026162D01*
X0197918Y0026114D01*
X0197857Y0026069D01*
X0197793Y0026027D01*
X0197728Y0025988D01*
X0197661Y0025953D01*
X0197592Y0025922D01*
X0197521Y0025893D01*
X0197449Y0025869D01*
X0197376Y0025848D01*
X0197302Y0025831D01*
X0197227Y0025817D01*
X0197152Y0025808D01*
X0197076Y0025802D01*
X0197000Y0025800D01*
X0165000Y0025800D01*
X0164924Y0025802D01*
X0164848Y0025808D01*
X0164773Y0025817D01*
X0164698Y0025831D01*
X0164624Y0025848D01*
X0164551Y0025869D01*
X0164479Y0025893D01*
X0164408Y0025922D01*
X0164339Y0025953D01*
X0164272Y0025988D01*
X0164207Y0026027D01*
X0164143Y0026069D01*
X0164082Y0026114D01*
X0164023Y0026162D01*
X0163967Y0026213D01*
X0163913Y0026267D01*
X0163862Y0026323D01*
X0163814Y0026382D01*
X0163769Y0026443D01*
X0163727Y0026507D01*
X0163688Y0026572D01*
X0163653Y0026639D01*
X0163622Y0026708D01*
X0163593Y0026779D01*
X0163569Y0026851D01*
X0163548Y0026924D01*
X0163531Y0026998D01*
X0163517Y0027073D01*
X0163508Y0027148D01*
X0163502Y0027224D01*
X0163500Y0027300D01*
X0198500Y0031500D02*
X0198412Y0031502D01*
X0198323Y0031508D01*
X0198235Y0031518D01*
X0198148Y0031531D01*
X0198061Y0031549D01*
X0197975Y0031570D01*
X0197890Y0031595D01*
X0197807Y0031624D01*
X0197724Y0031657D01*
X0197644Y0031693D01*
X0197565Y0031732D01*
X0197487Y0031775D01*
X0197412Y0031822D01*
X0197339Y0031872D01*
X0197268Y0031925D01*
X0197199Y0031981D01*
X0197133Y0032040D01*
X0197070Y0032102D01*
X0197010Y0032166D01*
X0196952Y0032233D01*
X0196898Y0032303D01*
X0196846Y0032375D01*
X0196798Y0032449D01*
X0196753Y0032526D01*
X0196712Y0032604D01*
X0196674Y0032684D01*
X0196640Y0032765D01*
X0196609Y0032848D01*
X0196582Y0032933D01*
X0196559Y0033018D01*
X0196540Y0033104D01*
X0196524Y0033192D01*
X0196512Y0033279D01*
X0196504Y0033367D01*
X0196500Y0033456D01*
X0196500Y0033544D01*
X0196504Y0033633D01*
X0196512Y0033721D01*
X0196524Y0033808D01*
X0196540Y0033896D01*
X0196559Y0033982D01*
X0196582Y0034067D01*
X0196609Y0034152D01*
X0196640Y0034235D01*
X0196674Y0034316D01*
X0196712Y0034396D01*
X0196753Y0034474D01*
X0196798Y0034551D01*
X0196846Y0034625D01*
X0196898Y0034697D01*
X0196952Y0034767D01*
X0197010Y0034834D01*
X0197070Y0034898D01*
X0197133Y0034960D01*
X0197199Y0035019D01*
X0197268Y0035075D01*
X0197339Y0035128D01*
X0197412Y0035178D01*
X0197487Y0035225D01*
X0197565Y0035268D01*
X0197644Y0035307D01*
X0197724Y0035343D01*
X0197807Y0035376D01*
X0197890Y0035405D01*
X0197975Y0035430D01*
X0198061Y0035451D01*
X0198148Y0035469D01*
X0198235Y0035482D01*
X0198323Y0035492D01*
X0198412Y0035498D01*
X0198500Y0035500D01*
X0185000Y0075800D02*
X0217000Y0075800D01*
X0217076Y0075802D01*
X0217152Y0075808D01*
X0217227Y0075817D01*
X0217302Y0075831D01*
X0217376Y0075848D01*
X0217449Y0075869D01*
X0217521Y0075893D01*
X0217592Y0075922D01*
X0217661Y0075953D01*
X0217728Y0075988D01*
X0217793Y0076027D01*
X0217857Y0076069D01*
X0217918Y0076114D01*
X0217977Y0076162D01*
X0218033Y0076213D01*
X0218087Y0076267D01*
X0218138Y0076323D01*
X0218186Y0076382D01*
X0218231Y0076443D01*
X0218273Y0076507D01*
X0218312Y0076572D01*
X0218347Y0076639D01*
X0218378Y0076708D01*
X0218407Y0076779D01*
X0218431Y0076851D01*
X0218452Y0076924D01*
X0218469Y0076998D01*
X0218483Y0077073D01*
X0218492Y0077148D01*
X0218498Y0077224D01*
X0218500Y0077300D01*
X0218500Y0081500D01*
X0218500Y0085500D01*
X0218500Y0089700D01*
X0218498Y0089776D01*
X0218492Y0089852D01*
X0218483Y0089927D01*
X0218469Y0090002D01*
X0218452Y0090076D01*
X0218431Y0090149D01*
X0218407Y0090221D01*
X0218378Y0090292D01*
X0218347Y0090361D01*
X0218312Y0090428D01*
X0218273Y0090493D01*
X0218231Y0090557D01*
X0218186Y0090618D01*
X0218138Y0090677D01*
X0218087Y0090733D01*
X0218033Y0090787D01*
X0217977Y0090838D01*
X0217918Y0090886D01*
X0217857Y0090931D01*
X0217793Y0090973D01*
X0217728Y0091012D01*
X0217661Y0091047D01*
X0217592Y0091078D01*
X0217521Y0091107D01*
X0217449Y0091131D01*
X0217376Y0091152D01*
X0217302Y0091169D01*
X0217227Y0091183D01*
X0217152Y0091192D01*
X0217076Y0091198D01*
X0217000Y0091200D01*
X0185000Y0091200D01*
X0184924Y0091198D01*
X0184848Y0091192D01*
X0184773Y0091183D01*
X0184698Y0091169D01*
X0184624Y0091152D01*
X0184551Y0091131D01*
X0184479Y0091107D01*
X0184408Y0091078D01*
X0184339Y0091047D01*
X0184272Y0091012D01*
X0184207Y0090973D01*
X0184143Y0090931D01*
X0184082Y0090886D01*
X0184023Y0090838D01*
X0183967Y0090787D01*
X0183913Y0090733D01*
X0183862Y0090677D01*
X0183814Y0090618D01*
X0183769Y0090557D01*
X0183727Y0090493D01*
X0183688Y0090428D01*
X0183653Y0090361D01*
X0183622Y0090292D01*
X0183593Y0090221D01*
X0183569Y0090149D01*
X0183548Y0090076D01*
X0183531Y0090002D01*
X0183517Y0089927D01*
X0183508Y0089852D01*
X0183502Y0089776D01*
X0183500Y0089700D01*
X0183500Y0077300D01*
X0183502Y0077224D01*
X0183508Y0077148D01*
X0183517Y0077073D01*
X0183531Y0076998D01*
X0183548Y0076924D01*
X0183569Y0076851D01*
X0183593Y0076779D01*
X0183622Y0076708D01*
X0183653Y0076639D01*
X0183688Y0076572D01*
X0183727Y0076507D01*
X0183769Y0076443D01*
X0183814Y0076382D01*
X0183862Y0076323D01*
X0183913Y0076267D01*
X0183967Y0076213D01*
X0184023Y0076162D01*
X0184082Y0076114D01*
X0184143Y0076069D01*
X0184207Y0076027D01*
X0184272Y0075988D01*
X0184339Y0075953D01*
X0184408Y0075922D01*
X0184479Y0075893D01*
X0184551Y0075869D01*
X0184624Y0075848D01*
X0184698Y0075831D01*
X0184773Y0075817D01*
X0184848Y0075808D01*
X0184924Y0075802D01*
X0185000Y0075800D01*
X0168500Y0081500D02*
X0168412Y0081502D01*
X0168323Y0081508D01*
X0168235Y0081518D01*
X0168148Y0081531D01*
X0168061Y0081549D01*
X0167975Y0081570D01*
X0167890Y0081595D01*
X0167807Y0081624D01*
X0167724Y0081657D01*
X0167644Y0081693D01*
X0167565Y0081732D01*
X0167487Y0081775D01*
X0167412Y0081822D01*
X0167339Y0081872D01*
X0167268Y0081925D01*
X0167199Y0081981D01*
X0167133Y0082040D01*
X0167070Y0082102D01*
X0167010Y0082166D01*
X0166952Y0082233D01*
X0166898Y0082303D01*
X0166846Y0082375D01*
X0166798Y0082449D01*
X0166753Y0082526D01*
X0166712Y0082604D01*
X0166674Y0082684D01*
X0166640Y0082765D01*
X0166609Y0082848D01*
X0166582Y0082933D01*
X0166559Y0083018D01*
X0166540Y0083104D01*
X0166524Y0083192D01*
X0166512Y0083279D01*
X0166504Y0083367D01*
X0166500Y0083456D01*
X0166500Y0083544D01*
X0166504Y0083633D01*
X0166512Y0083721D01*
X0166524Y0083808D01*
X0166540Y0083896D01*
X0166559Y0083982D01*
X0166582Y0084067D01*
X0166609Y0084152D01*
X0166640Y0084235D01*
X0166674Y0084316D01*
X0166712Y0084396D01*
X0166753Y0084474D01*
X0166798Y0084551D01*
X0166846Y0084625D01*
X0166898Y0084697D01*
X0166952Y0084767D01*
X0167010Y0084834D01*
X0167070Y0084898D01*
X0167133Y0084960D01*
X0167199Y0085019D01*
X0167268Y0085075D01*
X0167339Y0085128D01*
X0167412Y0085178D01*
X0167487Y0085225D01*
X0167565Y0085268D01*
X0167644Y0085307D01*
X0167724Y0085343D01*
X0167807Y0085376D01*
X0167890Y0085405D01*
X0167975Y0085430D01*
X0168061Y0085451D01*
X0168148Y0085469D01*
X0168235Y0085482D01*
X0168323Y0085492D01*
X0168412Y0085498D01*
X0168500Y0085500D01*
X0218500Y0085500D02*
X0218412Y0085498D01*
X0218323Y0085492D01*
X0218235Y0085482D01*
X0218148Y0085469D01*
X0218061Y0085451D01*
X0217975Y0085430D01*
X0217890Y0085405D01*
X0217807Y0085376D01*
X0217724Y0085343D01*
X0217644Y0085307D01*
X0217565Y0085268D01*
X0217487Y0085225D01*
X0217412Y0085178D01*
X0217339Y0085128D01*
X0217268Y0085075D01*
X0217199Y0085019D01*
X0217133Y0084960D01*
X0217070Y0084898D01*
X0217010Y0084834D01*
X0216952Y0084767D01*
X0216898Y0084697D01*
X0216846Y0084625D01*
X0216798Y0084551D01*
X0216753Y0084474D01*
X0216712Y0084396D01*
X0216674Y0084316D01*
X0216640Y0084235D01*
X0216609Y0084152D01*
X0216582Y0084067D01*
X0216559Y0083982D01*
X0216540Y0083896D01*
X0216524Y0083808D01*
X0216512Y0083721D01*
X0216504Y0083633D01*
X0216500Y0083544D01*
X0216500Y0083456D01*
X0216504Y0083367D01*
X0216512Y0083279D01*
X0216524Y0083192D01*
X0216540Y0083104D01*
X0216559Y0083018D01*
X0216582Y0082933D01*
X0216609Y0082848D01*
X0216640Y0082765D01*
X0216674Y0082684D01*
X0216712Y0082604D01*
X0216753Y0082526D01*
X0216798Y0082449D01*
X0216846Y0082375D01*
X0216898Y0082303D01*
X0216952Y0082233D01*
X0217010Y0082166D01*
X0217070Y0082102D01*
X0217133Y0082040D01*
X0217199Y0081981D01*
X0217268Y0081925D01*
X0217339Y0081872D01*
X0217412Y0081822D01*
X0217487Y0081775D01*
X0217565Y0081732D01*
X0217644Y0081693D01*
X0217724Y0081657D01*
X0217807Y0081624D01*
X0217890Y0081595D01*
X0217975Y0081570D01*
X0218061Y0081549D01*
X0218148Y0081531D01*
X0218235Y0081518D01*
X0218323Y0081508D01*
X0218412Y0081502D01*
X0218500Y0081500D01*
X0063500Y0025114D02*
X0063500Y0021886D01*
X0058500Y0021886D02*
X0058500Y0025114D01*
X0196000Y0306886D02*
X0196000Y0310114D01*
X0201000Y0310114D02*
X0201000Y0306886D01*
D17*
X0178500Y0302004D03*
X0178500Y0314996D03*
X0178500Y0284996D03*
X0178500Y0272004D03*
X0076000Y0272004D03*
X0076000Y0284996D03*
X0076000Y0302004D03*
X0076000Y0314996D03*
X0041000Y0039996D03*
X0041000Y0027004D03*
D18*
X0041000Y0028480D03*
X0076000Y0273480D03*
X0076000Y0303480D03*
X0178500Y0303480D03*
X0178500Y0273480D03*
D19*
X0183500Y0077200D02*
X0218500Y0077200D01*
X0198500Y0027200D02*
X0163500Y0027200D01*
X0148500Y0027200D02*
X0113500Y0027200D01*
X0108500Y0077200D02*
X0073500Y0077200D01*
X0053500Y0077200D02*
X0018500Y0077200D01*
X0133500Y0077200D02*
X0168500Y0077200D01*
D20*
X0166000Y0073550D03*
X0161000Y0073550D03*
X0156000Y0073650D03*
X0151000Y0073550D03*
X0146000Y0073550D03*
X0141000Y0073550D03*
X0136000Y0073550D03*
X0136000Y0093450D03*
X0141000Y0093450D03*
X0146000Y0093450D03*
X0151000Y0093450D03*
X0156000Y0093450D03*
X0161000Y0093450D03*
X0166000Y0093450D03*
X0186000Y0093450D03*
X0191000Y0093450D03*
X0196000Y0093450D03*
X0201000Y0093450D03*
X0206000Y0093450D03*
X0211000Y0093450D03*
X0216000Y0093450D03*
X0216000Y0073550D03*
X0211000Y0073550D03*
X0206000Y0073650D03*
X0201000Y0073550D03*
X0196000Y0073550D03*
X0191000Y0073550D03*
X0186000Y0073550D03*
X0186000Y0043450D03*
X0181000Y0043450D03*
X0176000Y0043450D03*
X0171000Y0043450D03*
X0166000Y0043450D03*
X0166000Y0023550D03*
X0171000Y0023550D03*
X0176000Y0023550D03*
X0181000Y0023550D03*
X0186000Y0023650D03*
X0191000Y0023550D03*
X0196000Y0023550D03*
X0196000Y0043450D03*
X0191000Y0043450D03*
X0146000Y0043450D03*
X0141000Y0043450D03*
X0136000Y0043450D03*
X0131000Y0043450D03*
X0126000Y0043450D03*
X0121000Y0043450D03*
X0116000Y0043450D03*
X0116000Y0023550D03*
X0121000Y0023550D03*
X0126000Y0023550D03*
X0131000Y0023550D03*
X0136000Y0023650D03*
X0141000Y0023550D03*
X0146000Y0023550D03*
X0106000Y0073550D03*
X0101000Y0073550D03*
X0096000Y0073650D03*
X0091000Y0073550D03*
X0086000Y0073550D03*
X0081000Y0073550D03*
X0076000Y0073550D03*
X0076000Y0093450D03*
X0081000Y0093450D03*
X0086000Y0093450D03*
X0091000Y0093450D03*
X0096000Y0093450D03*
X0101000Y0093450D03*
X0106000Y0093450D03*
X0051000Y0093450D03*
X0046000Y0093450D03*
X0041000Y0093450D03*
X0036000Y0093450D03*
X0031000Y0093450D03*
X0026000Y0093450D03*
X0021000Y0093450D03*
X0021000Y0073550D03*
X0026000Y0073550D03*
X0031000Y0073550D03*
X0036000Y0073550D03*
X0041000Y0073650D03*
X0046000Y0073550D03*
X0051000Y0073550D03*
D21*
X0060994Y0026420D03*
X0060994Y0020620D03*
X0056006Y0250580D03*
X0056006Y0256380D03*
X0033506Y0256380D03*
X0033506Y0250580D03*
X0056006Y0310580D03*
X0056006Y0316380D03*
X0198494Y0311420D03*
X0198494Y0305620D03*
D22*
X0081000Y0036900D03*
X0081000Y0030100D03*
D23*
X0060995Y0040623D03*
X0060995Y0046323D03*
D24*
X0099000Y0039700D03*
X0099000Y0027300D03*
D25*
X0099000Y0035700D03*
D26*
X0091323Y0241005D03*
X0085623Y0241005D03*
X0095623Y0251005D03*
X0101323Y0251005D03*
X0155677Y0245995D03*
X0161377Y0245995D03*
M02*
