%
M48
M72
T01C0.0236
T02C0.0240
T03C0.0320
T04C0.0400
%
T01
X6600Y5850
X6600Y8600
X12600Y5850
X14600Y3350
X17600Y5850
X17600Y8600
X23350Y850
X6850Y24350
X4100Y24850
X9600Y27600
X7600Y32350
X13350Y31600
X15350Y31350
X16100Y29850
X15100Y28350
X16100Y27600
X16850Y27600
X16850Y28100
X18600Y29100
X18850Y28600
X19100Y27850
X19350Y27100
X19100Y30100
X19100Y30850
X18850Y31850
X20850Y30850
X23350Y31850
X13350Y28350
T02
X15288Y25225
X12850Y21538
X13413Y21163
X13163Y20413
X11725Y20975
X10725Y20975
X8225Y19163
X6975Y18038
X6038Y16100
X6538Y14975
X7850Y15163
X8913Y15350
X9475Y16913
X10788Y15538
X11725Y15538
X11913Y16913
X12913Y17663
X14100Y16475
X13788Y15350
X14788Y15163
X15538Y15163
X15538Y15663
X16288Y15163
X16913Y15163
X16288Y16538
X15288Y16538
X16850Y19413
X15288Y20413
X18913Y16913
X19538Y16538
X18788Y14975
X20288Y13100
X19850Y10850
X20225Y10288
X21163Y10288
X22850Y8163
X23163Y7350
X22225Y6475
X20788Y6038
X20475Y6413
X20100Y5725
X19350Y5475
X19350Y5975
X19100Y6413
X18788Y3788
X20100Y3413
X20163Y2913
X19475Y1413
X18975Y1413
X18225Y1413
X17975Y788
X15663Y1288
X15475Y1913
X15038Y1663
X15038Y2475
X14038Y3600
X12350Y1475
X11163Y1600
X10975Y2850
X10600Y4600
X10663Y5413
X11038Y6725
X10663Y7850
X11788Y6475
X12163Y6788
X13100Y6288
X13163Y7163
X13163Y7663
X11850Y5225
X9038Y5225
X7850Y5225
X7538Y2538
X7225Y2163
X9100Y2538
X5663Y6288
X4100Y8850
X3913Y10475
X3913Y11100
X5538Y11850
X5725Y10663
X5725Y10163
X6663Y9725
X7350Y10350
X7350Y10913
X7913Y11913
X8850Y13413
X9413Y13100
X10413Y13288
X11600Y12038
X10788Y11538
X10038Y10975
X9225Y10975
X8850Y10225
X8600Y7975
X7725Y8163
X11975Y10600
X14538Y10288
X14913Y11663
X15663Y10475
X16350Y12163
X17413Y11100
X18163Y9913
X17038Y9038
X16975Y7725
X15913Y8163
X15538Y7850
X15288Y6288
X15850Y6288
X16350Y6475
X16850Y6475
X17038Y3788
X15038Y913
X23163Y3850
X22413Y15663
X7538Y20788
X5413Y17663
X4600Y15725
X2538Y17663
X1163Y11475
X2850Y8600
X2600Y7850
X3475Y5413
X3163Y5038
T03
X2850Y12600
X2350Y13850
X3350Y13850
X3850Y12600
X4850Y12600
X5850Y12600
X6850Y12600
X7850Y12600
X8850Y12600
X9850Y12600
X9350Y13850
X8350Y13850
X7350Y13850
X6350Y13850
X5350Y13850
X4350Y13850
X3850Y18600
X4850Y18600
X5850Y18600
X6850Y18600
X7850Y18600
X8850Y18600
X9850Y18600
X9350Y19850
X8350Y19850
X7350Y19850
X6350Y19850
X5350Y19850
X4350Y19850
X3350Y19850
X2350Y19850
X2850Y18600
X8350Y23100
X9350Y23100
X10350Y23100
X11350Y23100
X11350Y26100
X10350Y26100
X9350Y26100
X8350Y26100
X5300Y27850
X5300Y28850
X4550Y28350
X10350Y19850
X11350Y19850
X12350Y19850
X13350Y19850
X14350Y19850
X15350Y19850
X16350Y19850
X15850Y18600
X14850Y18600
X13850Y18600
X12850Y18600
X11850Y18600
X10850Y18600
X10350Y13850
X11350Y13850
X12350Y13850
X13350Y13850
X14350Y13850
X15350Y13850
X16350Y13850
X15850Y12600
X14850Y12600
X13850Y12600
X12850Y12600
X11850Y12600
X10850Y12600
X16850Y12600
X17850Y12600
X18850Y12600
X19850Y12600
X20850Y12600
X21850Y12600
X21350Y13850
X20350Y13850
X19350Y13850
X18350Y13850
X17350Y13850
X16850Y18600
X17850Y18600
X18850Y18600
X19850Y18600
X20850Y18600
X21850Y18600
X21350Y19850
X20350Y19850
X19350Y19850
X18350Y19850
X17350Y19850
X17350Y23100
X18350Y23100
X19350Y23100
X20350Y23100
X21350Y23100
X22350Y23100
X22350Y26100
X21350Y26100
X20350Y26100
X19350Y26100
X18350Y26100
X17350Y26100
X16350Y26100
X15350Y26100
X14350Y26100
X14350Y23100
X15350Y23100
X16350Y23100
T04
X1200Y4600
X2200Y4600
X2100Y28350
X1100Y28350
X3100Y28350
X20850Y28350
X21850Y28350
X22850Y28350
X22750Y4600
X21750Y4600
M30
