%
M48
M72
T01C0.02362
T02C0.02400
T03C0.03200
T04C0.04000
%
T01
X66000Y58500
X66000Y86000
X126000Y58500
X146000Y33500
X176000Y58500
X176000Y86000
X233500Y8500
X68500Y243500
X41000Y248500
X96000Y276000
X76000Y323500
X133500Y316000
X153500Y313500
X161000Y298500
X151000Y283500
X161000Y276000
X168500Y276000
X168500Y281000
X186000Y291000
X188500Y286000
X191000Y278500
X193500Y271000
X191000Y301000
X191000Y308500
X188500Y318500
X208500Y308500
X233500Y318500
X133500Y283500
T02
X152875Y252250
X128500Y215375
X134125Y211625
X131625Y204125
X117250Y209750
X107250Y209750
X82250Y191625
X69750Y180375
X60375Y161000
X65375Y149750
X78500Y151625
X89125Y153500
X94750Y169125
X107875Y155375
X117250Y155375
X119125Y169125
X129125Y176625
X141000Y164750
X137875Y153500
X147875Y151625
X155375Y151625
X155375Y156625
X162875Y151625
X169125Y151625
X162875Y165375
X152875Y165375
X168500Y194125
X152875Y204125
X189125Y169125
X195375Y165375
X187875Y149750
X202875Y131000
X198500Y108500
X202250Y102875
X211625Y102875
X228500Y81625
X231625Y73500
X222250Y64750
X207875Y60375
X204750Y64125
X201000Y57250
X193500Y54750
X193500Y59750
X191000Y64125
X187875Y37875
X201000Y34125
X201625Y29125
X194750Y14125
X189750Y14125
X182250Y14125
X179750Y7875
X156625Y12875
X154750Y19125
X150375Y16625
X150375Y24750
X140375Y36000
X123500Y14750
X111625Y16000
X109750Y28500
X106000Y46000
X106625Y54125
X110375Y67250
X106625Y78500
X117875Y64750
X121625Y67875
X131000Y62875
X131625Y71625
X131625Y76625
X118500Y52250
X90375Y52250
X78500Y52250
X75375Y25375
X72250Y21625
X91000Y25375
X56625Y62875
X41000Y88500
X39125Y104750
X39125Y111000
X55375Y118500
X57250Y106625
X57250Y101625
X66625Y97250
X73500Y103500
X73500Y109125
X79125Y119125
X88500Y134125
X94125Y131000
X104125Y132875
X116000Y120375
X107875Y115375
X100375Y109750
X92250Y109750
X88500Y102250
X86000Y79750
X77250Y81625
X119750Y106000
X145375Y102875
X149125Y116625
X156625Y104750
X163500Y121625
X174125Y111000
X181625Y99125
X170375Y90375
X169750Y77250
X159125Y81625
X155375Y78500
X152875Y62875
X158500Y62875
X163500Y64750
X168500Y64750
X170375Y37875
X150375Y9125
X231625Y38500
X224125Y156625
X75375Y207875
X54125Y176625
X46000Y157250
X25375Y176625
X11625Y114750
X28500Y86000
X26000Y78500
X34750Y54125
X31625Y50375
T03
X28500Y126000
X23500Y138500
X33500Y138500
X38500Y126000
X48500Y126000
X58500Y126000
X68500Y126000
X78500Y126000
X88500Y126000
X98500Y126000
X93500Y138500
X83500Y138500
X73500Y138500
X63500Y138500
X53500Y138500
X43500Y138500
X38500Y186000
X48500Y186000
X58500Y186000
X68500Y186000
X78500Y186000
X88500Y186000
X98500Y186000
X93500Y198500
X83500Y198500
X73500Y198500
X63500Y198500
X53500Y198500
X43500Y198500
X33500Y198500
X23500Y198500
X28500Y186000
X83500Y231000
X93500Y231000
X103500Y231000
X113500Y231000
X113500Y261000
X103500Y261000
X93500Y261000
X83500Y261000
X53000Y278500
X53000Y288500
X45500Y283500
X103500Y198500
X113500Y198500
X123500Y198500
X133500Y198500
X143500Y198500
X153500Y198500
X163500Y198500
X158500Y186000
X148500Y186000
X138500Y186000
X128500Y186000
X118500Y186000
X108500Y186000
X103500Y138500
X113500Y138500
X123500Y138500
X133500Y138500
X143500Y138500
X153500Y138500
X163500Y138500
X158500Y126000
X148500Y126000
X138500Y126000
X128500Y126000
X118500Y126000
X108500Y126000
X168500Y126000
X178500Y126000
X188500Y126000
X198500Y126000
X208500Y126000
X218500Y126000
X213500Y138500
X203500Y138500
X193500Y138500
X183500Y138500
X173500Y138500
X168500Y186000
X178500Y186000
X188500Y186000
X198500Y186000
X208500Y186000
X218500Y186000
X213500Y198500
X203500Y198500
X193500Y198500
X183500Y198500
X173500Y198500
X173500Y231000
X183500Y231000
X193500Y231000
X203500Y231000
X213500Y231000
X223500Y231000
X223500Y261000
X213500Y261000
X203500Y261000
X193500Y261000
X183500Y261000
X173500Y261000
X163500Y261000
X153500Y261000
X143500Y261000
X143500Y231000
X153500Y231000
X163500Y231000
T04
X12000Y46000
X22000Y46000
X21000Y283500
X11000Y283500
X31000Y283500
X208500Y283500
X218500Y283500
X228500Y283500
X227500Y46000
X217500Y46000
M30
