G75*
%MOIN*%
%OFA0B0*%
%FSLAX25Y25*%
%IPPOS*%
%LPD*%
%AMOC8*
5,1,8,0,0,1.08239X$1,22.5*
%
%ADD10R,0.05906X0.05118*%
%ADD11R,0.09449X0.09449*%
%ADD12C,0.05200*%
%ADD13C,0.05200*%
%ADD14C,0.06000*%
%ADD15OC8,0.05200*%
%ADD16R,0.09449X0.06299*%
%ADD17R,0.02362X0.08661*%
%ADD18R,0.08661X0.02362*%
%ADD19R,0.06300X0.04600*%
%ADD20C,0.01000*%
%ADD21C,0.04000*%
D10*
X0046000Y0093185D03*
X0046000Y0100665D03*
X0096000Y0258185D03*
X0096000Y0265665D03*
X0096000Y0283185D03*
X0096000Y0290665D03*
X0096000Y0308185D03*
X0096000Y0315665D03*
X0116000Y0315665D03*
X0116000Y0308185D03*
X0116000Y0290665D03*
X0116000Y0283185D03*
X0116000Y0265665D03*
X0116000Y0258185D03*
X0136000Y0258185D03*
X0136000Y0265665D03*
X0136000Y0283185D03*
X0136000Y0290665D03*
X0136000Y0308185D03*
X0136000Y0315665D03*
X0156000Y0315665D03*
X0156000Y0308185D03*
X0156000Y0290665D03*
X0156000Y0283185D03*
X0156000Y0265665D03*
X0156000Y0258185D03*
X0221000Y0100665D03*
X0221000Y0093185D03*
X0196000Y0030665D03*
X0196000Y0023185D03*
D11*
X0049500Y0217082D03*
X0049500Y0236768D03*
X0021000Y0236768D03*
X0021000Y0217082D03*
D12*
X0026000Y0194525D02*
X0026000Y0189325D01*
X0021000Y0179525D02*
X0021000Y0174325D01*
X0031000Y0174325D02*
X0031000Y0179525D01*
X0036000Y0189325D02*
X0036000Y0194525D01*
X0046000Y0194525D02*
X0046000Y0189325D01*
X0041000Y0179525D02*
X0041000Y0174325D01*
X0051000Y0174325D02*
X0051000Y0179525D01*
X0056000Y0189325D02*
X0056000Y0194525D01*
X0066000Y0194525D02*
X0066000Y0189325D01*
X0061000Y0179525D02*
X0061000Y0174325D01*
X0071000Y0174325D02*
X0071000Y0179525D01*
X0076000Y0189325D02*
X0076000Y0194525D01*
X0086000Y0194525D02*
X0086000Y0189325D01*
X0081000Y0179525D02*
X0081000Y0174325D01*
X0091000Y0174325D02*
X0091000Y0179525D01*
X0096000Y0189325D02*
X0096000Y0194525D01*
X0106000Y0194525D02*
X0106000Y0189325D01*
X0101000Y0179525D02*
X0101000Y0174325D01*
X0111000Y0174325D02*
X0111000Y0179525D01*
X0116000Y0189325D02*
X0116000Y0194525D01*
X0126000Y0194525D02*
X0126000Y0189325D01*
X0121000Y0179525D02*
X0121000Y0174325D01*
X0131000Y0174325D02*
X0131000Y0179525D01*
X0136000Y0189325D02*
X0136000Y0194525D01*
X0146000Y0194525D02*
X0146000Y0189325D01*
X0141000Y0179525D02*
X0141000Y0174325D01*
X0151000Y0174325D02*
X0151000Y0179525D01*
X0156000Y0189325D02*
X0156000Y0194525D01*
X0166000Y0194525D02*
X0166000Y0189325D01*
X0161000Y0179525D02*
X0161000Y0174325D01*
X0171000Y0174325D02*
X0171000Y0179525D01*
X0176000Y0189325D02*
X0176000Y0194525D01*
X0176000Y0209325D02*
X0176000Y0214525D01*
X0166000Y0214525D02*
X0166000Y0209325D01*
X0156000Y0209325D02*
X0156000Y0214525D01*
X0146000Y0214525D02*
X0146000Y0209325D01*
X0136000Y0209325D02*
X0136000Y0214525D01*
X0136000Y0239325D02*
X0136000Y0244525D01*
X0146000Y0244525D02*
X0146000Y0239325D01*
X0156000Y0239325D02*
X0156000Y0244525D01*
X0166000Y0244525D02*
X0166000Y0239325D01*
X0176000Y0239325D02*
X0176000Y0244525D01*
X0186000Y0244525D02*
X0186000Y0239325D01*
X0196000Y0239325D02*
X0196000Y0244525D01*
X0206000Y0244525D02*
X0206000Y0239325D01*
X0216000Y0239325D02*
X0216000Y0244525D01*
X0216000Y0214525D02*
X0216000Y0209325D01*
X0206000Y0209325D02*
X0206000Y0214525D01*
X0196000Y0214525D02*
X0196000Y0209325D01*
X0186000Y0209325D02*
X0186000Y0214525D01*
X0186000Y0194525D02*
X0186000Y0189325D01*
X0181000Y0179525D02*
X0181000Y0174325D01*
X0191000Y0174325D02*
X0191000Y0179525D01*
X0196000Y0189325D02*
X0196000Y0194525D01*
X0206000Y0194525D02*
X0206000Y0189325D01*
X0201000Y0179525D02*
X0201000Y0174325D01*
X0211000Y0174325D02*
X0211000Y0179525D01*
X0216000Y0189325D02*
X0216000Y0194525D01*
X0216000Y0134525D02*
X0216000Y0129325D01*
X0211000Y0119525D02*
X0211000Y0114325D01*
X0201000Y0114325D02*
X0201000Y0119525D01*
X0196000Y0129325D02*
X0196000Y0134525D01*
X0186000Y0134525D02*
X0186000Y0129325D01*
X0181000Y0119525D02*
X0181000Y0114325D01*
X0191000Y0114325D02*
X0191000Y0119525D01*
X0206000Y0129325D02*
X0206000Y0134525D01*
X0176000Y0134525D02*
X0176000Y0129325D01*
X0171000Y0119525D02*
X0171000Y0114325D01*
X0161000Y0114325D02*
X0161000Y0119525D01*
X0156000Y0129325D02*
X0156000Y0134525D01*
X0146000Y0134525D02*
X0146000Y0129325D01*
X0141000Y0119525D02*
X0141000Y0114325D01*
X0131000Y0114325D02*
X0131000Y0119525D01*
X0126000Y0129325D02*
X0126000Y0134525D01*
X0116000Y0134525D02*
X0116000Y0129325D01*
X0111000Y0119525D02*
X0111000Y0114325D01*
X0101000Y0114325D02*
X0101000Y0119525D01*
X0096000Y0129325D02*
X0096000Y0134525D01*
X0086000Y0134525D02*
X0086000Y0129325D01*
X0081000Y0119525D02*
X0081000Y0114325D01*
X0091000Y0114325D02*
X0091000Y0119525D01*
X0106000Y0129325D02*
X0106000Y0134525D01*
X0121000Y0119525D02*
X0121000Y0114325D01*
X0136000Y0129325D02*
X0136000Y0134525D01*
X0151000Y0119525D02*
X0151000Y0114325D01*
X0166000Y0129325D02*
X0166000Y0134525D01*
X0076000Y0134525D02*
X0076000Y0129325D01*
X0071000Y0119525D02*
X0071000Y0114325D01*
X0061000Y0114325D02*
X0061000Y0119525D01*
X0056000Y0129325D02*
X0056000Y0134525D01*
X0046000Y0134525D02*
X0046000Y0129325D01*
X0041000Y0119525D02*
X0041000Y0114325D01*
X0031000Y0114325D02*
X0031000Y0119525D01*
X0026000Y0129325D02*
X0026000Y0134525D01*
X0036000Y0134525D02*
X0036000Y0129325D01*
X0051000Y0119525D02*
X0051000Y0114325D01*
X0066000Y0129325D02*
X0066000Y0134525D01*
X0021000Y0119525D02*
X0021000Y0114325D01*
D13*
X0081000Y0211925D03*
X0091000Y0211925D03*
X0101000Y0211925D03*
X0111000Y0211925D03*
X0111000Y0241925D03*
X0101000Y0241925D03*
X0091000Y0241925D03*
X0081000Y0241925D03*
D14*
X0031000Y0278925D02*
X0031000Y0284925D01*
X0021000Y0284925D02*
X0021000Y0278925D01*
X0011000Y0278925D02*
X0011000Y0284925D01*
X0012000Y0049925D02*
X0012000Y0043925D01*
X0022000Y0043925D02*
X0022000Y0049925D01*
X0206000Y0278925D02*
X0206000Y0284925D01*
X0216000Y0284925D02*
X0216000Y0278925D01*
X0226000Y0278925D02*
X0226000Y0284925D01*
X0225000Y0049925D02*
X0225000Y0043925D01*
X0215000Y0043925D02*
X0215000Y0049925D01*
D15*
X0053000Y0276925D03*
X0045500Y0281925D03*
X0053000Y0286925D03*
X0019000Y0086925D03*
X0011500Y0081925D03*
X0019000Y0076925D03*
D16*
X0046000Y0062831D03*
X0046000Y0051019D03*
X0046000Y0027831D03*
X0046000Y0016019D03*
D17*
X0106000Y0035035D03*
X0111000Y0035035D03*
X0116000Y0035035D03*
X0121000Y0035035D03*
X0126000Y0035035D03*
X0131000Y0035035D03*
X0136000Y0035035D03*
X0136000Y0088815D03*
X0131000Y0088815D03*
X0126000Y0088815D03*
X0121000Y0088815D03*
X0116000Y0088815D03*
X0111000Y0088815D03*
X0106000Y0088815D03*
D18*
X0099110Y0081925D03*
X0099110Y0076925D03*
X0099110Y0071925D03*
X0099110Y0066925D03*
X0099110Y0061925D03*
X0099110Y0056925D03*
X0099110Y0051925D03*
X0099110Y0046925D03*
X0099110Y0041925D03*
X0142890Y0041925D03*
X0142890Y0046925D03*
X0142890Y0051925D03*
X0142890Y0056925D03*
X0142890Y0061925D03*
X0142890Y0066925D03*
X0142890Y0071925D03*
X0142890Y0076925D03*
X0142890Y0081925D03*
D19*
X0196000Y0085925D03*
X0196000Y0091925D03*
X0196000Y0097925D03*
X0196000Y0062925D03*
X0196000Y0056925D03*
X0196000Y0050925D03*
D20*
X0196000Y0050675D01*
X0199750Y0046925D01*
X0215000Y0046925D01*
X0217250Y0039425D02*
X0224750Y0046925D01*
X0225000Y0046925D01*
X0221000Y0054425D02*
X0226000Y0059425D01*
X0222875Y0063175D02*
X0196000Y0063175D01*
X0196000Y0062925D01*
X0196000Y0056925D02*
X0197875Y0055050D01*
X0202875Y0055050D01*
X0207250Y0058175D02*
X0211000Y0054425D01*
X0221000Y0054425D01*
X0219750Y0059425D02*
X0213500Y0059425D01*
X0212250Y0058175D01*
X0222562Y0068488D02*
X0226000Y0071925D01*
X0222562Y0068488D02*
X0222250Y0068800D01*
X0150375Y0068800D01*
X0149750Y0069425D01*
X0137875Y0069425D01*
X0136000Y0071300D01*
X0128500Y0071300D01*
X0125375Y0074425D01*
X0101625Y0074425D01*
X0099125Y0076925D01*
X0099110Y0076925D01*
X0101625Y0079425D02*
X0099125Y0081925D01*
X0099110Y0081925D01*
X0101625Y0079425D02*
X0106000Y0079425D01*
X0107250Y0078175D01*
X0117875Y0078175D01*
X0123500Y0083800D01*
X0123500Y0105050D01*
X0111000Y0105050D01*
X0113500Y0101300D02*
X0114125Y0101300D01*
X0113500Y0101300D02*
X0113500Y0081925D01*
X0108500Y0081925D02*
X0108500Y0093800D01*
X0107250Y0095050D01*
X0086625Y0095050D01*
X0074125Y0107550D01*
X0056625Y0107550D01*
X0056625Y0119425D01*
X0052250Y0123800D01*
X0051625Y0123800D01*
X0051625Y0135675D01*
X0058500Y0142550D01*
X0077250Y0142550D01*
X0080375Y0145675D01*
X0087875Y0144425D02*
X0088500Y0143800D01*
X0111625Y0143800D01*
X0113500Y0145675D01*
X0183500Y0145675D01*
X0185375Y0147550D01*
X0185375Y0155050D02*
X0131625Y0155050D01*
X0140375Y0162550D02*
X0137250Y0165675D01*
X0116625Y0165675D01*
X0108500Y0173800D01*
X0111000Y0176925D01*
X0104125Y0170050D01*
X0002875Y0170050D01*
X0002875Y0046300D01*
X0023500Y0025675D01*
X0027875Y0031300D02*
X0024125Y0035050D01*
X0027875Y0031300D02*
X0042875Y0031300D01*
X0046000Y0028175D01*
X0046000Y0027831D01*
X0049125Y0019425D02*
X0054750Y0019425D01*
X0069125Y0005050D01*
X0115375Y0005050D01*
X0152250Y0005050D01*
X0156000Y0008800D01*
X0158500Y0016300D02*
X0160375Y0018175D01*
X0158500Y0016300D02*
X0099750Y0016300D01*
X0097875Y0018175D01*
X0103500Y0025675D02*
X0107250Y0021925D01*
X0150375Y0021925D01*
X0155375Y0020050D02*
X0157250Y0021925D01*
X0189750Y0021925D01*
X0192875Y0018800D01*
X0199125Y0018800D01*
X0199750Y0019425D01*
X0216000Y0019425D01*
X0209125Y0023175D02*
X0196000Y0023175D01*
X0196000Y0023185D01*
X0196000Y0030665D02*
X0196000Y0030675D01*
X0177875Y0030675D01*
X0174125Y0034425D01*
X0146000Y0034425D01*
X0143500Y0034425D01*
X0137875Y0028800D01*
X0116000Y0028800D01*
X0111625Y0028800D01*
X0108500Y0025675D01*
X0107250Y0028800D02*
X0111000Y0032550D01*
X0111000Y0035035D01*
X0116000Y0035035D02*
X0116000Y0028800D01*
X0107250Y0028800D02*
X0075375Y0028800D01*
X0074750Y0029425D01*
X0079125Y0021925D02*
X0086625Y0014425D01*
X0161625Y0014425D01*
X0163500Y0016300D01*
X0199750Y0016300D01*
X0200375Y0015675D01*
X0196000Y0030675D02*
X0196000Y0036925D01*
X0194750Y0040675D02*
X0200375Y0040675D01*
X0200375Y0039425D01*
X0200375Y0040675D02*
X0206625Y0040675D01*
X0207875Y0039425D01*
X0217250Y0039425D01*
X0209125Y0043175D02*
X0191000Y0043175D01*
X0182250Y0034425D01*
X0186000Y0026925D02*
X0142250Y0026925D01*
X0136000Y0035035D02*
X0136000Y0035050D01*
X0139125Y0038175D01*
X0159750Y0038175D01*
X0163500Y0030675D02*
X0154125Y0030675D01*
X0147250Y0041925D02*
X0142890Y0041925D01*
X0140375Y0041925D01*
X0136000Y0046300D01*
X0122250Y0046300D01*
X0110375Y0058175D01*
X0106625Y0061925D02*
X0106625Y0051925D01*
X0104125Y0049425D02*
X0079750Y0049425D01*
X0079125Y0048800D01*
X0053500Y0048800D01*
X0051000Y0046300D01*
X0036000Y0046300D01*
X0027875Y0054425D01*
X0024125Y0058175D02*
X0008500Y0073800D01*
X0004750Y0072550D02*
X0004750Y0151925D01*
X0019125Y0151925D01*
X0031625Y0149425D02*
X0104125Y0149425D01*
X0106000Y0147550D01*
X0110375Y0147550D01*
X0107250Y0151300D02*
X0159750Y0151300D01*
X0155375Y0162550D02*
X0147875Y0170050D01*
X0137875Y0170050D01*
X0131000Y0176925D01*
X0126625Y0170675D02*
X0129750Y0167550D01*
X0145375Y0167550D01*
X0150375Y0162550D01*
X0155375Y0162550D02*
X0225375Y0162550D01*
X0225375Y0093175D01*
X0221000Y0093175D01*
X0221000Y0093185D01*
X0218500Y0097550D02*
X0214750Y0097550D01*
X0214750Y0101300D01*
X0214750Y0097550D02*
X0209125Y0097550D01*
X0197875Y0086300D01*
X0196000Y0086300D01*
X0196000Y0085925D01*
X0196000Y0085675D01*
X0193500Y0083175D01*
X0188500Y0083175D01*
X0182562Y0089112D01*
X0176625Y0083175D01*
X0177875Y0078175D02*
X0161000Y0078175D01*
X0159750Y0079425D01*
X0136000Y0079425D01*
X0136000Y0083175D01*
X0134125Y0083175D01*
X0133500Y0083800D01*
X0133500Y0095050D01*
X0129750Y0095050D01*
X0126000Y0091300D01*
X0126000Y0088815D01*
X0131000Y0088815D02*
X0131000Y0081925D01*
X0128500Y0081925D01*
X0128500Y0076925D02*
X0131000Y0074425D01*
X0172875Y0074425D01*
X0175375Y0070675D02*
X0151625Y0070675D01*
X0150375Y0071925D01*
X0142890Y0071925D01*
X0142250Y0067550D02*
X0131000Y0067550D01*
X0133500Y0063175D02*
X0133500Y0061925D01*
X0106625Y0061925D01*
X0099110Y0061925D02*
X0098500Y0061925D01*
X0096000Y0064425D01*
X0080375Y0064425D01*
X0074125Y0070675D01*
X0026000Y0070675D01*
X0027875Y0067550D02*
X0027250Y0066925D01*
X0020375Y0066925D01*
X0007250Y0080050D01*
X0007250Y0116925D01*
X0021000Y0116925D01*
X0021000Y0108800D02*
X0037875Y0108800D01*
X0046000Y0100675D01*
X0046000Y0100665D01*
X0046000Y0093185D02*
X0046000Y0093175D01*
X0043500Y0090675D01*
X0022875Y0090675D01*
X0019125Y0086925D01*
X0019000Y0086925D01*
X0012250Y0081300D02*
X0035375Y0081300D01*
X0037875Y0086925D02*
X0041625Y0083175D01*
X0058500Y0083175D01*
X0059750Y0084425D01*
X0064750Y0084425D02*
X0057250Y0076925D01*
X0019000Y0076925D01*
X0012250Y0081300D02*
X0011625Y0081925D01*
X0011500Y0081925D01*
X0004750Y0072550D02*
X0014750Y0062550D01*
X0016625Y0062550D01*
X0016625Y0043175D01*
X0021000Y0038800D01*
X0095375Y0038800D01*
X0098500Y0041925D01*
X0099110Y0041925D01*
X0099110Y0046925D02*
X0054750Y0046925D01*
X0050375Y0042550D01*
X0027875Y0042550D01*
X0032875Y0035050D02*
X0106000Y0035050D01*
X0106000Y0035035D01*
X0109750Y0040675D02*
X0122875Y0040675D01*
X0126000Y0037550D01*
X0126000Y0035035D01*
X0131000Y0035035D02*
X0131000Y0044425D01*
X0109125Y0044425D01*
X0104125Y0049425D01*
X0106000Y0044425D02*
X0109750Y0040675D01*
X0106000Y0044425D02*
X0074125Y0044425D01*
X0072875Y0043175D01*
X0077875Y0050675D02*
X0081000Y0053800D01*
X0084125Y0053800D01*
X0089125Y0054425D02*
X0081000Y0062550D01*
X0079125Y0062550D01*
X0074125Y0067550D01*
X0027875Y0067550D01*
X0024125Y0058175D02*
X0049125Y0058175D01*
X0054750Y0052550D01*
X0074750Y0052550D01*
X0080375Y0058175D01*
X0074125Y0062550D02*
X0059750Y0062550D01*
X0046000Y0062550D01*
X0046000Y0062831D01*
X0046000Y0051300D02*
X0037875Y0051300D01*
X0046000Y0051300D02*
X0046000Y0051019D01*
X0046000Y0050675D01*
X0077875Y0050675D01*
X0070375Y0056300D02*
X0065375Y0056300D01*
X0062875Y0058800D01*
X0071000Y0073175D02*
X0064750Y0079425D01*
X0064750Y0084425D02*
X0084125Y0084425D01*
X0080375Y0080675D02*
X0082875Y0078175D01*
X0087875Y0078175D01*
X0083500Y0074425D02*
X0081000Y0076925D01*
X0077250Y0076925D01*
X0081625Y0073175D02*
X0071000Y0073175D01*
X0081625Y0073175D02*
X0085375Y0069425D01*
X0120375Y0069425D01*
X0133500Y0061925D02*
X0142890Y0061925D01*
X0142890Y0056925D02*
X0189125Y0056925D01*
X0189750Y0057550D01*
X0189750Y0062550D02*
X0185375Y0066925D01*
X0142890Y0066925D01*
X0142875Y0066925D01*
X0142250Y0067550D01*
X0140375Y0054425D02*
X0136000Y0054425D01*
X0140375Y0054425D02*
X0142875Y0051925D01*
X0142890Y0051925D01*
X0142890Y0046925D02*
X0145375Y0046925D01*
X0150375Y0051925D01*
X0151625Y0053175D01*
X0172875Y0053175D01*
X0175375Y0070675D02*
X0184750Y0080050D01*
X0184750Y0079425D01*
X0186625Y0077550D01*
X0217875Y0077550D01*
X0229750Y0089425D01*
X0232875Y0093175D02*
X0225375Y0093175D01*
X0221000Y0100050D02*
X0221000Y0100665D01*
X0221000Y0100050D02*
X0218500Y0097550D01*
X0217250Y0086925D02*
X0211625Y0081300D01*
X0205375Y0081300D01*
X0199750Y0093800D02*
X0215375Y0109425D01*
X0215375Y0125050D01*
X0191000Y0125050D01*
X0198500Y0110050D02*
X0204125Y0110050D01*
X0211000Y0116925D01*
X0198500Y0110050D02*
X0191000Y0102550D01*
X0189750Y0098800D02*
X0175375Y0113175D01*
X0175375Y0125050D01*
X0144750Y0125050D01*
X0140375Y0129425D01*
X0140375Y0138800D01*
X0072875Y0138800D01*
X0066000Y0131925D01*
X0061000Y0126300D02*
X0063500Y0123800D01*
X0072250Y0123800D01*
X0079125Y0116925D01*
X0081000Y0116925D01*
X0079125Y0116925D02*
X0077250Y0116925D01*
X0077250Y0107550D01*
X0085375Y0099425D01*
X0111000Y0099425D01*
X0111000Y0088815D01*
X0116000Y0088815D02*
X0116000Y0098175D01*
X0119125Y0101300D01*
X0120375Y0108800D02*
X0119125Y0110050D01*
X0097875Y0110050D01*
X0091000Y0116925D01*
X0086625Y0114425D02*
X0086625Y0123800D01*
X0094125Y0123800D01*
X0101000Y0116925D01*
X0100375Y0125050D02*
X0125375Y0125050D01*
X0125375Y0110675D01*
X0131000Y0116925D02*
X0131000Y0126925D01*
X0136000Y0131925D01*
X0135375Y0123800D02*
X0134750Y0123800D01*
X0135375Y0123800D02*
X0135375Y0114425D01*
X0137250Y0112550D01*
X0137250Y0109425D01*
X0146625Y0110675D02*
X0149750Y0107550D01*
X0164750Y0107550D01*
X0167250Y0105050D01*
X0167250Y0081925D01*
X0162250Y0081925D02*
X0142890Y0081925D01*
X0146625Y0086925D02*
X0163500Y0103800D01*
X0157875Y0110050D02*
X0151000Y0116925D01*
X0157875Y0110050D02*
X0171625Y0110050D01*
X0171625Y0084425D01*
X0177875Y0093800D02*
X0182562Y0089112D01*
X0189750Y0086925D02*
X0176625Y0100050D01*
X0189750Y0098800D02*
X0195375Y0098800D01*
X0196000Y0098175D01*
X0196000Y0097925D01*
X0197875Y0093800D02*
X0196000Y0091925D01*
X0197875Y0093800D02*
X0199750Y0093800D01*
X0222562Y0068488D02*
X0229750Y0061300D01*
X0229750Y0034425D01*
X0201625Y0034425D01*
X0194750Y0040675D02*
X0191000Y0036925D01*
X0186000Y0012550D02*
X0171625Y0012550D01*
X0166625Y0007550D01*
X0166000Y0012550D02*
X0081625Y0012550D01*
X0076000Y0018175D01*
X0066625Y0021925D02*
X0065375Y0023175D01*
X0031000Y0023175D01*
X0012250Y0041925D01*
X0012250Y0046925D01*
X0012000Y0046925D01*
X0042875Y0086925D02*
X0044750Y0088800D01*
X0049125Y0088800D01*
X0050375Y0090050D01*
X0050375Y0107550D01*
X0042250Y0107550D01*
X0035375Y0114425D01*
X0035375Y0125050D01*
X0034750Y0125050D01*
X0031625Y0128175D01*
X0031625Y0149425D01*
X0041625Y0145675D02*
X0041625Y0128175D01*
X0044750Y0125050D01*
X0045375Y0125050D01*
X0045375Y0114425D01*
X0049750Y0110050D01*
X0051000Y0110050D01*
X0055375Y0105675D01*
X0069750Y0105675D01*
X0081625Y0093800D01*
X0076000Y0089425D02*
X0106000Y0089425D01*
X0106000Y0088815D01*
X0096000Y0074425D02*
X0083500Y0074425D01*
X0081625Y0068175D02*
X0082250Y0067550D01*
X0097875Y0067550D01*
X0098500Y0066925D01*
X0099110Y0066925D01*
X0099110Y0071925D02*
X0098500Y0071925D01*
X0096000Y0074425D01*
X0096000Y0054425D02*
X0089125Y0054425D01*
X0096000Y0054425D02*
X0098500Y0051925D01*
X0099110Y0051925D01*
X0103500Y0025675D02*
X0061625Y0025675D01*
X0056000Y0031300D01*
X0049125Y0019425D02*
X0046000Y0016300D01*
X0046000Y0016019D01*
X0052875Y0086925D02*
X0052875Y0088175D01*
X0066000Y0101300D01*
X0081000Y0108800D02*
X0086625Y0114425D01*
X0064750Y0140675D02*
X0056000Y0131925D01*
X0064750Y0140675D02*
X0111625Y0140675D01*
X0114750Y0143800D01*
X0219125Y0143800D01*
X0222875Y0145050D02*
X0222875Y0131925D01*
X0216000Y0131925D01*
X0216000Y0140050D02*
X0163500Y0140050D01*
X0161625Y0138175D01*
X0170375Y0166300D02*
X0166625Y0170050D01*
X0157875Y0170050D01*
X0151000Y0176925D01*
X0161000Y0176925D02*
X0162875Y0176925D01*
X0169750Y0170050D01*
X0222250Y0170050D01*
X0222250Y0250050D01*
X0221625Y0250675D01*
X0194750Y0250675D01*
X0186000Y0241925D01*
X0196000Y0241925D02*
X0202875Y0248800D01*
X0220375Y0248800D01*
X0220375Y0238175D01*
X0204125Y0221925D01*
X0191625Y0221925D01*
X0191625Y0209425D01*
X0187250Y0205050D01*
X0058500Y0205050D01*
X0051625Y0198175D01*
X0051000Y0191925D02*
X0056000Y0191925D01*
X0064125Y0183800D01*
X0067250Y0183800D01*
X0066000Y0191925D02*
X0072875Y0198800D01*
X0129750Y0198800D01*
X0131625Y0207550D02*
X0105375Y0207550D01*
X0101000Y0211925D01*
X0096625Y0216300D01*
X0050375Y0216300D01*
X0049750Y0216925D01*
X0049500Y0217082D01*
X0049125Y0217550D01*
X0021000Y0217550D01*
X0021000Y0217082D01*
X0021000Y0217550D02*
X0007875Y0230675D01*
X0007875Y0274425D01*
X0013500Y0274425D01*
X0021000Y0281925D01*
X0028500Y0289425D01*
X0037875Y0289425D01*
X0045375Y0281925D01*
X0045500Y0281925D01*
X0044125Y0283800D01*
X0080375Y0320050D01*
X0131625Y0320050D01*
X0136000Y0315675D01*
X0136000Y0315665D01*
X0136000Y0315675D02*
X0156000Y0315675D01*
X0156000Y0315665D01*
X0156000Y0315050D01*
X0182875Y0315050D01*
X0216000Y0281925D01*
X0206000Y0281925D02*
X0199750Y0275675D01*
X0096000Y0275675D01*
X0096000Y0265665D01*
X0096000Y0265050D01*
X0095375Y0265050D01*
X0085375Y0255050D01*
X0081625Y0248800D02*
X0053500Y0276925D01*
X0053000Y0276925D01*
X0042250Y0248175D02*
X0034438Y0240362D01*
X0045375Y0229425D01*
X0093500Y0229425D01*
X0111000Y0211925D01*
X0116000Y0227550D02*
X0195375Y0227550D01*
X0197875Y0223800D02*
X0134125Y0223800D01*
X0126000Y0215675D01*
X0131625Y0207550D02*
X0136000Y0211925D01*
X0135375Y0220050D02*
X0177875Y0220050D01*
X0186000Y0211925D01*
X0196000Y0211925D02*
X0196000Y0201300D01*
X0201625Y0195675D01*
X0201625Y0183800D01*
X0214750Y0183800D01*
X0196625Y0183175D02*
X0196000Y0183800D01*
X0115375Y0183800D01*
X0115375Y0174425D01*
X0117250Y0172550D01*
X0117250Y0170050D01*
X0115375Y0183800D02*
X0115375Y0185050D01*
X0102875Y0185050D01*
X0101312Y0186612D01*
X0101000Y0186300D01*
X0100375Y0186300D01*
X0091000Y0176925D01*
X0096625Y0166300D02*
X0072875Y0166300D01*
X0057250Y0158800D02*
X0209125Y0158800D01*
X0222875Y0145050D01*
X0196000Y0201300D02*
X0157250Y0201300D01*
X0168500Y0231300D02*
X0166625Y0233175D01*
X0081625Y0233175D01*
X0081000Y0241925D02*
X0054750Y0241925D01*
X0049750Y0236925D01*
X0049500Y0236768D01*
X0034438Y0240362D02*
X0031000Y0236925D01*
X0021000Y0236925D01*
X0021000Y0236768D01*
X0031000Y0191925D02*
X0036000Y0191925D01*
X0031000Y0191925D02*
X0031000Y0176925D01*
X0041000Y0176925D02*
X0046000Y0176925D01*
X0046000Y0191925D01*
X0051000Y0191925D02*
X0051000Y0176925D01*
X0057250Y0158800D02*
X0051625Y0153175D01*
X0096625Y0166300D02*
X0100375Y0162550D01*
X0101312Y0186612D02*
X0096000Y0191925D01*
X0081625Y0248800D02*
X0149125Y0248800D01*
X0156000Y0241925D01*
X0151000Y0250050D02*
X0166000Y0250050D01*
X0156000Y0258185D02*
X0156000Y0258800D01*
X0155375Y0258800D01*
X0151625Y0262550D01*
X0147875Y0262550D01*
X0137250Y0251925D01*
X0099125Y0251925D01*
X0098500Y0252550D01*
X0097875Y0256300D02*
X0096000Y0258175D01*
X0096000Y0258185D01*
X0097875Y0256300D02*
X0102250Y0256300D01*
X0110375Y0256300D01*
X0112875Y0253800D01*
X0131625Y0253800D01*
X0136000Y0258175D01*
X0136000Y0258185D01*
X0138500Y0262550D02*
X0136000Y0265050D01*
X0136000Y0265665D01*
X0138500Y0262550D02*
X0147875Y0262550D01*
X0142875Y0271925D02*
X0122250Y0271925D01*
X0116000Y0265675D01*
X0116000Y0265665D01*
X0118500Y0261300D02*
X0127250Y0261300D01*
X0118500Y0261300D02*
X0116000Y0258800D01*
X0116000Y0258185D01*
X0119750Y0279425D02*
X0122250Y0279425D01*
X0119750Y0279425D02*
X0116000Y0283175D01*
X0116000Y0283185D01*
X0116000Y0290665D02*
X0116000Y0290675D01*
X0106000Y0300675D01*
X0086000Y0300675D01*
X0080375Y0306300D01*
X0080375Y0315050D01*
X0096000Y0315050D01*
X0096000Y0315665D01*
X0096000Y0315675D01*
X0116000Y0315675D01*
X0116000Y0315665D01*
X0116000Y0308185D02*
X0116000Y0308175D01*
X0136000Y0308175D01*
X0136000Y0308185D01*
X0136000Y0308175D02*
X0147875Y0308175D01*
X0166000Y0290050D01*
X0162250Y0286925D02*
X0159125Y0290050D01*
X0156000Y0290050D01*
X0156000Y0290665D01*
X0156000Y0290675D01*
X0136000Y0290675D01*
X0136000Y0290665D01*
X0133500Y0286300D02*
X0127875Y0286300D01*
X0106000Y0308175D01*
X0096000Y0308175D01*
X0096000Y0308185D01*
X0096000Y0308175D02*
X0084125Y0308175D01*
X0096000Y0290665D02*
X0096000Y0290050D01*
X0098500Y0287550D01*
X0102250Y0287550D01*
X0096000Y0283185D02*
X0096000Y0275675D01*
X0133500Y0286300D02*
X0136000Y0283800D01*
X0136000Y0283185D01*
X0150375Y0279425D02*
X0154125Y0283175D01*
X0156000Y0283175D01*
X0156000Y0283185D01*
X0156000Y0283175D02*
X0169750Y0283175D01*
X0169750Y0294425D01*
X0156000Y0308175D01*
X0156000Y0308185D01*
X0157250Y0266925D02*
X0156000Y0265675D01*
X0156000Y0265665D01*
X0157250Y0266925D02*
X0168500Y0266925D01*
X0151000Y0250050D02*
X0148500Y0252550D01*
X0136000Y0241925D02*
X0142875Y0235050D01*
X0172250Y0235050D01*
X0197875Y0223800D02*
X0216000Y0241925D01*
X0156625Y0103800D02*
X0150375Y0103800D01*
X0136000Y0089425D01*
X0136000Y0088815D01*
X0154125Y0048800D02*
X0147250Y0041925D01*
X0131000Y0008800D02*
X0112250Y0008800D01*
D21*
X0023500Y0025675D03*
X0024125Y0035050D03*
X0027875Y0042550D03*
X0032875Y0035050D03*
X0037875Y0051300D03*
X0027875Y0054425D03*
X0026000Y0070675D03*
X0035375Y0081300D03*
X0037875Y0086925D03*
X0042875Y0086925D03*
X0052875Y0086925D03*
X0059750Y0084425D03*
X0064750Y0084425D03*
X0064750Y0079425D03*
X0076000Y0089425D03*
X0081625Y0093800D03*
X0084125Y0084425D03*
X0080375Y0080675D03*
X0077250Y0076925D03*
X0081625Y0068175D03*
X0074125Y0062550D03*
X0070375Y0056300D03*
X0062875Y0058800D03*
X0059750Y0062550D03*
X0072875Y0043175D03*
X0080375Y0058175D03*
X0084125Y0053800D03*
X0087875Y0078175D03*
X0106625Y0051925D03*
X0110375Y0058175D03*
X0120375Y0069425D03*
X0128500Y0076925D03*
X0128500Y0081925D03*
X0136000Y0079425D03*
X0131000Y0067550D03*
X0133500Y0063175D03*
X0136000Y0054425D03*
X0150375Y0051925D03*
X0154125Y0048800D03*
X0159750Y0038175D03*
X0163500Y0030675D03*
X0155375Y0020050D03*
X0160375Y0018175D03*
X0166000Y0012550D03*
X0166625Y0007550D03*
X0156000Y0008800D03*
X0150375Y0021925D03*
X0154125Y0030675D03*
X0146000Y0034425D03*
X0142250Y0026925D03*
X0131000Y0008800D03*
X0115375Y0005050D03*
X0112250Y0008800D03*
X0108500Y0025675D03*
X0097875Y0018175D03*
X0079125Y0021925D03*
X0076000Y0018175D03*
X0074750Y0029425D03*
X0066625Y0021925D03*
X0054750Y0019425D03*
X0056000Y0031300D03*
X0008500Y0073800D03*
X0021000Y0108800D03*
X0041625Y0145675D03*
X0051625Y0153175D03*
X0061000Y0126300D03*
X0066000Y0101300D03*
X0081000Y0108800D03*
X0100375Y0125050D03*
X0111000Y0105050D03*
X0114125Y0101300D03*
X0119125Y0101300D03*
X0120375Y0108800D03*
X0125375Y0110675D03*
X0134750Y0123800D03*
X0137250Y0109425D03*
X0146625Y0110675D03*
X0156625Y0103800D03*
X0163500Y0103800D03*
X0176625Y0100050D03*
X0177875Y0093800D03*
X0176625Y0083175D03*
X0177875Y0078175D03*
X0172875Y0074425D03*
X0167250Y0081925D03*
X0162250Y0081925D03*
X0171625Y0084425D03*
X0184750Y0080050D03*
X0189750Y0086925D03*
X0191000Y0102550D03*
X0191000Y0125050D03*
X0185375Y0147550D03*
X0185375Y0155050D03*
X0170375Y0166300D03*
X0159750Y0151300D03*
X0161625Y0138175D03*
X0150375Y0162550D03*
X0140375Y0162550D03*
X0131625Y0155050D03*
X0126625Y0170675D03*
X0117250Y0170050D03*
X0107250Y0151300D03*
X0110375Y0147550D03*
X0100375Y0162550D03*
X0087875Y0144425D03*
X0080375Y0145675D03*
X0072875Y0166300D03*
X0067250Y0183800D03*
X0051625Y0198175D03*
X0081625Y0233175D03*
X0085375Y0255050D03*
X0098500Y0252550D03*
X0102250Y0256300D03*
X0122250Y0279425D03*
X0127250Y0261300D03*
X0142875Y0271925D03*
X0150375Y0279425D03*
X0162250Y0286925D03*
X0166000Y0290050D03*
X0168500Y0266925D03*
X0166000Y0250050D03*
X0172250Y0235050D03*
X0168500Y0231300D03*
X0148500Y0252550D03*
X0135375Y0220050D03*
X0126000Y0215675D03*
X0116000Y0227550D03*
X0129750Y0198800D03*
X0157250Y0201300D03*
X0196625Y0183175D03*
X0214750Y0183800D03*
X0219125Y0143800D03*
X0216000Y0140050D03*
X0214750Y0101300D03*
X0217250Y0086925D03*
X0229750Y0089425D03*
X0232875Y0093175D03*
X0226000Y0071925D03*
X0222875Y0063175D03*
X0219750Y0059425D03*
X0226000Y0059425D03*
X0212250Y0058175D03*
X0207250Y0058175D03*
X0202875Y0055050D03*
X0209125Y0043175D03*
X0200375Y0039425D03*
X0196000Y0036925D03*
X0191000Y0036925D03*
X0186000Y0026925D03*
X0182250Y0034425D03*
X0177875Y0030675D03*
X0186000Y0012550D03*
X0200375Y0015675D03*
X0209125Y0023175D03*
X0216000Y0019425D03*
X0201625Y0034425D03*
X0189750Y0057550D03*
X0189750Y0062550D03*
X0172875Y0053175D03*
X0146625Y0086925D03*
X0113500Y0081925D03*
X0108500Y0081925D03*
X0019125Y0151925D03*
X0042250Y0248175D03*
X0084125Y0308175D03*
X0102250Y0287550D03*
X0195375Y0227550D03*
X0205375Y0081300D03*
M02*
