%
M48
M72
T01C0.02400
T02C0.03200
T03C0.04000
%
T01
X23500Y25675
X24125Y35050
X27875Y42550
X32875Y35050
X37875Y51300
X27875Y54425
X26000Y70675
X35375Y81300
X37875Y86925
X42875Y86925
X52875Y86925
X59750Y84425
X64750Y84425
X64750Y79425
X76000Y89425
X81625Y93800
X84125Y84425
X80375Y80675
X77250Y76925
X81625Y68175
X74125Y62550
X70375Y56300
X62875Y58800
X59750Y62550
X72875Y43175
X80375Y58175
X84125Y53800
X87875Y78175
X106625Y51925
X110375Y58175
X120375Y69425
X128500Y76925
X128500Y81925
X136000Y79425
X131000Y67550
X133500Y63175
X136000Y54425
X150375Y51925
X154125Y48800
X159750Y38175
X163500Y30675
X155375Y20050
X160375Y18175
X166000Y12550
X166625Y7550
X156000Y8800
X150375Y21925
X154125Y30675
X146000Y34425
X142250Y26925
X131000Y8800
X115375Y5050
X112250Y8800
X108500Y25675
X97875Y18175
X79125Y21925
X76000Y18175
X74750Y29425
X66625Y21925
X54750Y19425
X56000Y31300
X8500Y73800
X21000Y108800
X41625Y145675
X51625Y153175
X61000Y126300
X66000Y101300
X81000Y108800
X100375Y125050
X111000Y105050
X114125Y101300
X119125Y101300
X120375Y108800
X125375Y110675
X134750Y123800
X137250Y109425
X146625Y110675
X156625Y103800
X163500Y103800
X176625Y100050
X177875Y93800
X176625Y83175
X177875Y78175
X172875Y74425
X167250Y81925
X162250Y81925
X171625Y84425
X184750Y80050
X189750Y86925
X191000Y102550
X191000Y125050
X185375Y147550
X185375Y155050
X170375Y166300
X159750Y151300
X161625Y138175
X150375Y162550
X140375Y162550
X131625Y155050
X126625Y170675
X117250Y170050
X107250Y151300
X110375Y147550
X100375Y162550
X87875Y144425
X80375Y145675
X72875Y166300
X67250Y183800
X51625Y198175
X81625Y233175
X85375Y255050
X98500Y252550
X102250Y256300
X122250Y279425
X127250Y261300
X142875Y271925
X150375Y279425
X162250Y286925
X166000Y290050
X168500Y266925
X166000Y250050
X172250Y235050
X168500Y231300
X148500Y252550
X135375Y220050
X126000Y215675
X116000Y227550
X129750Y198800
X157250Y201300
X196625Y183175
X214750Y183800
X219125Y143800
X216000Y140050
X214750Y101300
X217250Y86925
X229750Y89425
X232875Y93175
X226000Y71925
X222875Y63175
X219750Y59425
X226000Y59425
X212250Y58175
X207250Y58175
X202875Y55050
X209125Y43175
X200375Y39425
X196000Y36925
X191000Y36925
X186000Y26925
X182250Y34425
X177875Y30675
X186000Y12550
X200375Y15675
X209125Y23175
X216000Y19425
X201625Y34425
X189750Y57550
X189750Y62550
X172875Y53175
X146625Y86925
X113500Y81925
X108500Y81925
X19125Y151925
X42250Y248175
X84125Y308175
X102250Y287550
X195375Y227550
X205375Y81300
T02
X201000Y116925
X191000Y116925
X181000Y116925
X171000Y116925
X161000Y116925
X151000Y116925
X141000Y116925
X131000Y116925
X121000Y116925
X111000Y116925
X101000Y116925
X91000Y116925
X81000Y116925
X71000Y116925
X61000Y116925
X51000Y116925
X41000Y116925
X31000Y116925
X21000Y116925
X26000Y131925
X36000Y131925
X46000Y131925
X56000Y131925
X66000Y131925
X76000Y131925
X86000Y131925
X96000Y131925
X106000Y131925
X116000Y131925
X126000Y131925
X136000Y131925
X146000Y131925
X156000Y131925
X166000Y131925
X176000Y131925
X186000Y131925
X196000Y131925
X206000Y131925
X216000Y131925
X211000Y116925
X211000Y176925
X201000Y176925
X191000Y176925
X181000Y176925
X171000Y176925
X161000Y176925
X151000Y176925
X141000Y176925
X131000Y176925
X121000Y176925
X111000Y176925
X101000Y176925
X91000Y176925
X81000Y176925
X71000Y176925
X61000Y176925
X51000Y176925
X41000Y176925
X31000Y176925
X21000Y176925
X26000Y191925
X36000Y191925
X46000Y191925
X56000Y191925
X66000Y191925
X76000Y191925
X86000Y191925
X96000Y191925
X106000Y191925
X116000Y191925
X126000Y191925
X136000Y191925
X146000Y191925
X156000Y191925
X166000Y191925
X176000Y191925
X186000Y191925
X196000Y191925
X206000Y191925
X216000Y191925
X216000Y211925
X206000Y211925
X196000Y211925
X186000Y211925
X176000Y211925
X166000Y211925
X156000Y211925
X146000Y211925
X136000Y211925
X136000Y241925
X146000Y241925
X156000Y241925
X166000Y241925
X176000Y241925
X186000Y241925
X196000Y241925
X206000Y241925
X216000Y241925
X111000Y241925
X101000Y241925
X91000Y241925
X81000Y241925
X81000Y211925
X91000Y211925
X101000Y211925
X111000Y211925
X53000Y276925
X45500Y281925
X53000Y286925
X19000Y86925
X11500Y81925
X19000Y76925
T03
X22000Y46925
X12000Y46925
X11000Y281925
X21000Y281925
X31000Y281925
X206000Y281925
X216000Y281925
X226000Y281925
X225000Y46925
X215000Y46925
M30
